   <?xml version="1.0" encoding="utf-8"?>
<!-- Generator: Adobe Illustrator 23.0.6, SVG Export Plug-In . SVG Version: 6.00 Build 0)  -->
<svg version="1.1" id="Layer_1" xmlns="http://www.w3.org/2000/svg" xmlns:xlink="http://www.w3.org/1999/xlink" x="0px" y="0px"
	 viewBox="0 0 1920 827.5" style="enable-background:new 0 0 1920 827.5;" xml:space="preserve">
<style type="text/css">
	.st0{fill:none;stroke:#808285;stroke-width:0.3;stroke-miterlimit:10;}
</style>
<g>
	<path class="st0" d="M458.25,1309.43c0,0-23.94,54.72,133.37,123.11s177.83-10.26,177.83-10.26"/>
	<path class="st0" d="M470.63,1278.11c0,0-30.78,53.58,138.5,128.81c131.09,57,161.87,0.57,172.13-7.98"/>
	<path class="st0" d="M483.09,1246.62c0,0-37.62,52.44,143.63,134.51c104.88,45.6,145.91,11.4,166.43-5.7"/>
	<path class="st0" d="M495.62,1214.74c0,0-44.46,51.3,148.76,140.21c78.66,34.2,129.95,22.23,160.73-3.42"/>
	<path class="st0" d="M508.2,1182.12c0,0-51.3,50.16,153.89,145.91c52.44,22.8,113.99,33.06,155.03-1.14"/>
	<path class="st0" d="M520.82,1148.6c0,0-58.14,49.02,159.02,151.61c26.22,11.4,98.04,43.89,149.33,1.14"/>
	<path class="st0" d="M533.48,1114.49c0,0-64.98,47.88,164.15,157.31c0,0,82.08,54.72,143.63,3.42"/>
	<path class="st0" d="M547.71,1090.58c1.71,0.57-41.04,33.63,169.85,148.76c0,0,76.95,54.15,128.81,22.8"/>
	<path class="st0" d="M563.71,1064.67c3.42,1.14-17.1,19.38,175.55,140.21c0,0,71.82,53.58,113.99,42.18"/>
	<path class="st0" d="M580.94,1035.46c5.13,1.71,6.84,5.13,181.25,131.66c0,0,66.69,53.01,99.18,61.56"/>
	<path class="st0" d="M598.18,1005.46c6.84,2.28,30.78-9.12,186.95,123.11c0,0,61.56,52.44,84.36,80.94"/>
	<path class="st0" d="M615.42,975.61c8.55,2.85,54.72-23.37,192.65,114.56c0,0,56.43,51.87,69.54,100.32"/>
	<path class="st0" d="M632.66,946.92c10.26,3.42,78.66-37.62,198.35,106.02c0,0,51.3,51.3,54.72,119.69"/>
	<path class="st0" d="M654.46,926.8c6.52,2.17,53.77-36.02,133.51,24.88c18.78,13.62,54.28,42.48,78.52,86.83
		c0,0,44.46,52.44,36.48,119.12"/>
	<path class="st0" d="M674.44,907.22c5.22,1.74,58.06-51.38,145.11,17.85c15.02,10.9,60.53,44.93,80.6,99.56
		c0,0,37.62,53.58,18.24,118.55"/>
	<path class="st0" d="M692.65,887.9c3.91,1.3,62.36-66.75,156.71,10.82c11.27,8.17,66.77,47.37,82.68,112.29
		c0,0,30.78,54.72,0,117.98"/>
	<path class="st0" d="M709.27,868.74c2.61,0.87,66.65-82.12,168.31,3.8c7.51,5.45,73.01,49.82,84.76,125.02
		c0,0,23.94,55.86-18.24,117.41"/>
	<path class="st0" d="M724.51,849.66c1.3,0.43,70.94-97.49,179.91-3.23c3.76,2.72,79.25,52.27,86.84,137.75
		c0,0,17.1,57-36.48,116.84"/>
	<path class="st0" d="M738.67,830.65c0,0,75.24-112.85,191.51-10.26c0,0,85.5,54.72,88.92,150.47c0,0,10.26,58.14-54.72,116.27"/>
	<path class="st0" d="M757.47,812.41c0,0,87.21-115.7,198.92-10.83c8.99,11.76,82.73,67.86,81.68,158.04
		c-2.52,6.73,0.83,61.86-61.16,117.26"/>
	<path class="st0" d="M775.81,794.17c0,0,99.18-118.55,206.33-11.4c17.98,23.52,79.95,81,74.45,165.61
		c-5.04,13.46-8.6,65.59-67.61,118.24"/>
	<path class="st0" d="M793.85,775.93c0,0,111.14-121.4,213.74-11.97c26.98,35.28,77.18,94.13,67.22,173.17
		c-7.57,20.19-18.04,69.31-74.06,119.22"/>
	<path class="st0" d="M811.45,757.69c0,0,123.11-124.25,221.15-12.54c35.97,47.04,74.41,107.27,59.99,180.74
		c-10.09,26.92-27.47,73.04-80.51,120.21"/>
	<path class="st0" d="M828.44,739.45c0,0,135.08-127.1,228.56-13.11c44.96,58.79,71.64,120.41,52.76,188.3
		c-12.61,33.66-36.9,76.76-86.95,121.19"/>
	<path class="st0" d="M844.69,721.21c0,0,147.05-129.95,235.97-13.68c88.92,116.27,71.82,212.03-47.88,318.05"/>
	<path class="st0" d="M862.08,709.46c0,0,143.63-120.26,233.12-3.99c58.01,75.85,76.69,159.47,13.53,245.48
		c-13.57,18.64-36.9,41.98-64.26,64.02"/>
	<path class="st0" d="M879.35,697.83c0,0,140.21-110.57,230.27,5.7c46.4,60.68,79.13,149.46,11.51,240.84
		c-10.85,14.91-36.36,39.06-65.09,60.11"/>
	<path class="st0" d="M896.49,686.32c0,0,136.79-100.89,227.42,15.39c34.8,45.51,81.58,139.45,9.49,236.2
		c-8.14,11.19-35.82,36.13-65.91,56.19"/>
	<path class="st0" d="M913.52,674.97c0,0,133.37-91.2,224.57,25.08c23.2,30.34,84.03,129.45,7.46,231.56
		c-5.43,7.46-35.28,33.21-66.74,52.28"/>
	<path class="st0" d="M930.44,663.79c0,0,129.95-81.51,221.72,34.77c11.6,15.17,86.47,119.44,5.44,226.93
		c-2.71,3.73-34.74,30.28-67.57,48.37"/>
	<path class="st0" d="M947.28,652.82c0,0,126.53-71.82,218.87,44.46c0,0,88.92,109.43,3.42,222.29c0,0-34.2,27.36-68.4,44.46"/>
	<path class="st0" d="M977.93,644.28c0,0,128.81-63.27,214.31,51.3c6.76,13.98,78.71,124.85-8.68,226.52
		c-4.27,2.01-38.01,25.98-72.82,40.23"/>
	<path class="st0" d="M1007.98,635.91c0,0,131.09-54.72,209.75,58.14c13.52,27.95,68.5,140.27-20.79,230.74
		c-8.53,4.03-41.82,24.61-77.25,36.01"/>
	<path class="st0" d="M1037.35,627.75c0,0,133.37-46.17,205.19,64.98c20.29,41.93,58.29,155.69-32.89,234.97
		c-12.8,6.04-45.63,23.23-81.68,31.78"/>
	<path class="st0" d="M1066.03,619.83c0,0,135.65-37.62,200.63,71.82c27.05,55.9,48.08,171.1-44.99,239.19
		c-17.07,8.05-49.44,21.86-86.1,27.56"/>
	<path class="st0" d="M1094.09,612.21c0,0,137.93-29.07,196.07,78.66c33.81,69.88,37.87,186.52-57.09,243.42
		c-21.33,10.07-53.25,20.48-90.53,23.33"/>
	<path class="st0" d="M1121.7,604.94c0,0,140.21-20.52,191.51,85.5s17.1,266.75-164.15,266.75"/>
	<path class="st0" d="M1147.39,603.79c0,0,135.99-20.4,188.66,84.36c39.16,77.88,26.8,180.06-38.93,229.03
		c-33.55,24.99-82.9,38.29-129.21,38.29"/>
	<path class="st0" d="M1173.08,602.64c0,0,131.88-20.34,185.81,83.22c42.82,82.21,23.19,186.36-40.72,230.42
		c-37.53,25.87-94.37,37.47-131.41,37.47"/>
	<path class="st0" d="M1198.75,601.5c0,0,127.87-20.32,182.96,82.08c46.54,86.51,19.31,192.32-42.51,231.8
		c-41.64,26.6-105.83,36.65-133.61,36.65"/>
	<path class="st0" d="M1224.4,600.36c0,0,123.95-20.35,180.11,80.94c50.34,90.78,15.25,197.98-44.3,233.19
		c-45.87,27.12-117.29,35.84-135.81,35.84"/>
	<path class="st0" d="M1253.39,599.24c0,0,120.26-20.52,177.26,79.8c54.38,94.9,11.08,203.4-46.09,234.58
		c-50.23,27.39-128.75,35.02-138.01,35.02"/>
	<path class="st0" d="M1282.43,598.1c0,0,116.27-20.52,174.41,78.66c58.14,99.18,6.84,208.61-47.88,235.97
		c-54.72,27.36-140.21,34.2-140.21,34.2"/>
	<path class="st0" d="M1275.28,597.04c0,0,108.3-22.23,169.85,66.69s27.36,198.92-26.79,235.97c-45.6,22.8-120.26,39.9-135.08,43.89
		"/>
	<path class="st0" d="M1273.99,596.11c0,0,100.32-23.94,165.29,54.72c64.98,78.66,47.88,189.23-5.7,235.97
		c-36.48,18.24-100.32,45.6-129.95,53.58"/>
	<path class="st0" d="M1271.57,595.34c0,0,92.34-25.65,160.73,42.75c68.4,68.4,68.4,179.54,15.39,235.97
		c-27.36,13.68-80.37,51.3-124.82,63.27"/>
	<path class="st0" d="M1268.07,594.79c0,0,84.36-27.36,156.17,30.78c71.82,58.14,88.92,169.85,36.48,235.97
		c-18.24,9.12-60.42,57-119.69,72.96"/>
	<path class="st0" d="M1263.63,594.53c0,0,76.38-29.07,151.61,18.81c75.24,47.88,109.43,160.16,57.57,235.97
		c-9.12,4.56-40.47,62.7-114.56,82.65"/>
	<path class="st0" d="M1258.49,594.68c0,0,68.4-30.78,147.05,6.84c78.66,37.62,129.95,150.47,78.66,235.97
		c0,0-20.52,68.4-109.43,92.34"/>
	<path class="st0" d="M1277.98,589.7c0,0,66.82-29.04,143,2.64c44.3,18.42,81.42,58.88,97.2,107.94c12,37.3,11.25,77.18-6.7,112.69
		c0.55,7.28-18.99,71.11-96.14,96.48"/>
	<path class="st0" d="M1297.1,584.81c0,0,65.3-27.37,138.94-1.56c43.7,15.32,81.94,50.21,100.41,96.87
		c14.24,35.98,15.84,74.07,1.94,108.44c1.11,14.56-17.46,73.82-82.84,100.62"/>
	<path class="st0" d="M1315.8,580.05c0,0,63.83-25.79,134.88-5.76c43.12,12.16,82.51,41.53,103.62,85.79
		c16.53,34.65,20.44,70.95,10.57,104.18c1.66,21.85-15.94,76.53-69.54,104.76"/>
	<path class="st0" d="M1333.98,575.47c0,0,62.4-24.33,130.83-9.96c42.56,8.94,83.13,32.83,106.83,74.71
		c18.85,33.3,25.03,67.83,19.21,99.93c2.21,29.13-14.41,79.25-56.24,108.91"/>
	<path class="st0" d="M1351.44,571.18c0,0,60.98-22.98,126.77-14.16c42.02,5.64,83.79,24.1,110.04,63.64
		c21.2,31.93,29.63,64.72,27.85,95.67c2.76,36.41-12.88,81.96-42.94,113.05"/>
	<path class="st0" d="M1367.92,567.32c0,0,163.38-59.74,235.97,34.2c58.14,75.24,37.62,153.89,6.84,208.61"/>
	<path class="st0" d="M1375.82,563.89c0,0,156.76-63.76,231.98,34.77c53.34,69.43,43.89,149.33,9.69,206.9"/>
	<path class="st0" d="M1383.54,560.43c0,0,149.88-67.59,227.99,35.34c48.38,63.75,50.16,144.77,12.54,205.19"/>
	<path class="st0" d="M1391.01,557c0,0,143.19-71.56,224,35.91c43.57,57.95,56.43,140.21,15.39,203.48"/>
	<path class="st0" d="M1398.29,553.58c0,0,136.58-75.59,220.01,36.48c38.81,52.13,62.7,135.65,18.24,201.77"/>
	<path class="st0" d="M1405.4,550.18c0,0,130.06-79.69,216.02,37.05c34.07,46.27,68.97,131.09,21.09,200.06"/>
	<path class="st0" d="M1412.38,546.8c0,0,123.67-83.89,212.03,37.62c29.37,40.4,75.24,126.53,23.94,198.35"/>
	<path class="st0" d="M1435.39,524.22c0,0,112.18-75.04,204.62,42.75c30.75,41.07,75.81,123.11,29.64,192.08"/>
	<path class="st0" d="M1458.32,501.73c0,0,100.69-66.19,197.21,47.88c32.12,41.75,76.38,119.69,35.34,185.81"/>
	<path class="st0" d="M1481.19,479.38c0,0,89.2-57.34,189.8,53.01c33.5,42.43,76.95,116.27,41.04,179.54"/>
	<path class="st0" d="M1503.96,457.18c0,0,77.7-48.48,182.39,58.14c34.87,43.1,77.52,112.85,46.74,173.27"/>
	<path class="st0" d="M1526.63,435.18c0,0,66.21-39.63,174.98,63.27c36.24,43.78,78.09,109.43,52.44,167"/>
	<path class="st0" d="M1549.18,413.43c0,0,54.72-30.78,167.57,68.4c37.62,44.46,78.66,106.02,58.14,160.73"/>
	<path class="st0" d="M1572.83,385.02c0,0,60.99-25.08,170.42,74.67c31.35,37.05,75.81,102.6,58.14,160.73"/>
	<path class="st0" d="M1596.37,356.82c0,0,67.26-19.38,173.27,80.94c25.08,29.64,72.96,99.18,58.14,160.73"/>
	<path class="st0" d="M1619.79,328.82c0,0,73.53-13.68,176.12,87.21c18.81,22.23,70.11,95.76,58.14,160.73"/>
	<path class="st0" d="M1643.1,301.03c0,0,79.8-7.98,178.97,93.48c12.54,14.82,67.26,92.34,58.14,160.73"/>
	<path class="st0" d="M1666.3,273.41c0,0,86.07-2.28,181.82,99.75c6.27,7.41,64.41,88.92,58.14,160.73"/>
	<path class="st0" d="M1689.39,245.86c0,0,92.34,3.42,184.67,106.02c0,0,61.56,85.5,58.14,160.73"/>
	<path class="st0" d="M1681.53,253.65c0,0,99.75-10.83,196.07,87.21c19.38,12.54,63.27,99.75,60.42,162.44"/>
	<path class="st0" d="M1673.66,262.61c0,0,107.16-25.08,207.47,68.4c38.76,25.08,64.98,113.99,62.7,164.15"/>
	<path class="st0" d="M1665.76,273.03c0,0,114.56-39.33,218.87,49.59c58.14,37.62,66.69,128.24,64.98,165.86"/>
	<path class="st0" d="M1657.54,284.7c0,0,121.97-53.58,230.27,30.78c77.52,50.16,68.4,142.49,67.26,167.57"/>
	<path class="st0" d="M1648.22,297.37c0,0,129.38-67.83,241.67,11.97c96.9,62.7,70.11,156.74,69.54,169.28"/>
	<path class="st0" d="M1638.09,310.83c0,0,136.79-82.08,253.07-6.84c116.27,75.24,71.82,170.99,71.82,170.99"/>
	<path class="st0" d="M1663.68,281.35c0,0,136.29-73.35,246.77,5.57c99.55,71.11,66.63,158.23,66.43,171.97"/>
	<path class="st0" d="M1689.05,252.3c0,0,135.8-65.16,240.47,17.99c83.23,66.12,61.44,145.46,61.05,172.95"/>
	<path class="st0" d="M1714.06,223.74c0,0,135.55-57.7,234.16,30.4c67.42,60.23,56.25,132.69,55.67,173.94"/>
	<path class="st0" d="M1738.58,195.74c0,0,135.99-51.22,227.86,42.81c52.25,53.48,51.06,119.92,50.28,174.92"/>
	<path class="st0" d="M1762.74,168.33c0,0,138.01-46.17,221.56,55.23c37.9,45.99,45.87,107.16,44.9,175.9"/>
	<path class="st0" d="M1786.86,141.55c0,0,259.34-78.09,254.78,244.52"/>
	<path class="st0" d="M1791.08,136.7c0,0,266.75-77.8,255.35,246.51"/>
	<path class="st0" d="M1795.2,131.86c0,0,274.16-77.52,255.92,248.51"/>
	<path class="st0" d="M1799.21,127.01c0,0,281.57-77.23,256.49,250.5"/>
	<path class="st0" d="M1803.15,122.17c0,0,288.98-76.95,257.06,252.5"/>
	<path class="st0" d="M1807,117.32c0,0,296.39-76.66,257.63,254.49"/>
	<path class="st0" d="M1810.79,112.48c0,0,303.8-76.38,258.2,256.49"/>
	<path class="st0" d="M1833.49,89.87c0,0,189.38-40.62,244.73,97.37c20.23,50.43,13.01,103.69,4.63,164.82"/>
	<path class="st0" d="M1856.03,68.74c0,0,193.09-34.37,245.03,103.89c23.36,62.17,2.2,115.1-4.5,164"/>
	<path class="st0" d="M1877.89,47.76c0,0,196.24-27.89,245.33,110.4c26.26,73.99-8.61,126.51-13.64,163.18"/>
	<path class="st0" d="M1899.5,26.97c0,0,199.05-21.3,245.63,116.92c28.95,85.89-19.42,137.92-22.77,162.37"/>
	<path class="st0" d="M1921,6.36c0,0,201.63-14.65,245.93,123.44c31.39,97.86-30.23,149.32-31.9,161.55"/>
	<path class="st0" d="M1942.46-14.05c0,0,204.05-7.98,246.23,129.95c33.6,109.89-41.04,160.73-41.04,160.73"/>
</g>
<g>
	<path class="st0" d="M1656.5,1006c0,0-33.13-53.01-4.42-94.98c28.71-41.97,97.19-24.3,106.02,24.3"/>
	<path class="st0" d="M1658.58,1010.5c0,0-33.13-54.85-0.74-93.14c32.4-38.29,92.77-18.04,100.13,28.71"/>
	<path class="st0" d="M1660.72,1015.1c0,0-33.13-56.69,2.95-91.3s88.35-11.78,94.24,33.13"/>
	<path class="st0" d="M1662.91,1019.81c0,0-33.13-58.53,6.63-89.46s83.94-5.52,88.35,37.55"/>
	<path class="st0" d="M1665.16,1024.63c0,0-33.13-60.37,10.31-87.62c43.44-27.24,79.52,0.74,82.46,41.97"/>
	<path class="st0" d="M1667.44,1029.6c0,0-33.13-62.22,13.99-85.78c47.12-23.56,75.1,6.99,76.57,46.39"/>
	<path class="st0" d="M1669.76,1034.72c0,0-33.13-64.06,17.67-83.94s70.68,13.25,70.68,50.8"/>
	<path class="st0" d="M1671.39,1041.29c0,0-29.82-60.01,19.51-78.05c49.33-18.04,69.95,14.36,67.37,51.91"/>
	<path class="st0" d="M1672.9,1047.88c0,0-26.51-55.96,21.35-72.16c47.86-16.2,69.21,15.46,64.06,53.01"/>
	<path class="st0" d="M1674.34,1054.5c0,0-23.19-51.91,23.19-66.27c46.39-14.36,68.47,16.57,60.74,54.12"/>
	<path class="st0" d="M1675.74,1061.13c0,0-19.88-47.86,25.03-60.37c44.91-12.52,67.74,17.67,57.43,55.22"/>
	<path class="st0" d="M1677.15,1066.87c0,0-16.57-43.81,26.87-54.48c43.44-10.68,67,18.78,54.12,56.33"/>
	<path class="st0" d="M1678.59,1070.06c0,0-13.25-39.76,28.71-48.59c41.97-8.84,66.27,19.88,50.8,57.43"/>
	<path class="st0" d="M1679.07,1083.5c0,0-10.95-39.3,31.75-44.82c34.97-7.36,60.38,16.47,47.77,56.23"/>
	<path class="st0" d="M1679.55,1096.94c0,0-8.65-38.84,34.79-41.05c27.98-5.89,54.48,13.07,44.73,55.04"/>
	<path class="st0" d="M1679.99,1110.39c0,0-6.35-38.38,37.83-37.27c20.98-4.42,48.59,9.66,41.69,53.84"/>
	<path class="st0" d="M1680.37,1123.84c0,0-4.05-37.92,40.86-33.5c13.99-2.95,42.7,6.26,38.65,52.64"/>
	<path class="st0" d="M1680.64,1137.7c0,0-1.75-37.46,43.9-29.73c6.99-1.47,36.81,2.85,35.62,51.45"/>
	<path class="st0" d="M1680.8,1151.78c0,0,0.55-37,46.94-25.95c0,0,30.92-0.55,32.58,50.25"/>
</g>
<g>
	<path class="st0" d="M1671.96,1167.25c6.63-2.21,22.09-33.13,48.59-8.84c0,0,15.46,30.92-2.21,46.39"/>
	<path class="st0" d="M1665.47,1177.36c5.52-1.84,20.25-30.92,44.18-10.31c1.84,0.37,17.3,27.24,1.47,43.44"/>
	<path class="st0" d="M1658.92,1187.51c4.42-1.47,18.41-28.71,39.76-11.78c3.68,0.74,19.14,23.56,5.15,40.5"/>
	<path class="st0" d="M1652.33,1197.72c3.31-1.1,16.57-26.51,35.34-13.25c5.52,1.1,20.98,19.88,8.84,37.55"/>
	<path class="st0" d="M1645.68,1208.02c2.21-0.74,14.73-24.3,30.92-14.73c7.36,1.47,22.82,16.2,12.52,34.61"/>
	<path class="st0" d="M1638.98,1218.45c1.1-0.37,12.88-22.09,26.51-16.2c9.2,1.84,24.67,12.52,16.2,31.66"/>
	<path class="st0" d="M1632.2,1229.09c0,0,11.04-19.88,22.09-17.67c11.04,2.21,26.51,8.84,19.88,28.71"/>
	<path class="st0" d="M1627.86,1238.59c0,0,7.73-20.98,22.82-17.3c9.2,1.84,24.67,7.73,19.51,27.24"/>
	<path class="st0" d="M1623.46,1248.12c0,0,4.42-22.09,23.56-16.93c7.36,1.47,22.82,6.63,19.14,25.77"/>
	<path class="st0" d="M1619,1257.69c0,0,1.1-23.19,24.3-16.57c5.52,1.1,20.98,5.52,18.78,24.3"/>
	<path class="st0" d="M1614.48,1267.28c0,0-2.21-24.3,25.03-16.2c3.68,0.74,19.14,4.42,18.41,22.82"/>
	<path class="st0" d="M1610.03,1276.89c0,0-5.52-25.4,25.77-15.83c1.84,0.37,17.3,3.31,18.04,21.35"/>
	<path class="st0" d="M1605.7,1286.52c0,0-8.84-26.51,26.51-15.46c0,0,15.46,2.21,17.67,19.88"/>
</g>
<g>
	<path class="st0" d="M1724.98,1202.04c0,0,11.04-44.18,35.34-24.3l13.25,24.85"/>
	<path class="st0" d="M1727.92,1206.72c0,0,10.58-40.03,33.59-23c0.73,0.12,12.61,21.21,13.53,21.99"/>
	<path class="st0" d="M1730.87,1211.14c0,0,10.12-35.89,31.84-21.7c1.47,0.25,11.96,17.58,13.81,19.13"/>
	<path class="st0" d="M1733.81,1215.56c0,0,9.66-31.74,30.08-20.41c2.2,0.37,11.31,13.95,14.09,16.26"/>
	<path class="st0" d="M1736.76,1220.07c0,0,9.2-27.6,28.33-19.11c2.93,0.49,10.67,10.31,14.38,13.4"/>
	<path class="st0" d="M1739.7,1224.52c0,0,8.74-23.45,26.58-17.81c3.66,0.62,10.02,6.68,14.66,10.54"/>
	<path class="st0" d="M1742.65,1229.09c0,0,13.25-30.92,39.76-8.84"/>
	<path class="st0" d="M1746.21,1240.14c0,0,4.23-17.85,23-18.04c4.6,0.8,11.78,1.13,18.97,9.2"/>
	<path class="st0" d="M1749.77,1251.18c0,0,1.18-18.7,24.14-19.29c4.12,1.52,12.52,0.02,20.03,10.46"/>
	<path class="st0" d="M1753.35,1262.23c0,0-1.88-19.54,25.29-20.54c3.64,2.25,13.25-1.09,21.1,11.71"/>
	<path class="st0" d="M1757.04,1273.27c0,0-4.93-20.39,26.43-21.79c3.17,2.97,13.99-2.2,22.16,12.96"/>
	<path class="st0" d="M1760.85,1284.31c0,0-7.99-21.24,27.57-23.05c2.69,3.69,14.73-3.31,23.23,14.21"/>
	<path class="st0" d="M1764.74,1295.36c0,0-11.04-22.09,28.71-24.3c2.21,4.42,15.46-4.42,24.3,15.46"/>
</g>
<g>
	<path class="st0" d="M176.58,1216.39c0,0-69.58,49.7-9.94,122.59"/>
	<path class="st0" d="M185.96,1209.4c0,0-62.4,61.85,17.95,119.28"/>
	<path class="st0" d="M191.85,1202.4c0,0-55.22,74,45.83,115.96"/>
	<path class="st0" d="M198.9,1195.4c0,0-48.04,86.14,73.72,112.65"/>
	<path class="st0" d="M206.85,1188.4c0,0-40.86,98.29,101.61,109.34"/>
	<path class="st0" d="M215.49,1181.34c0,0-33.68,110.44,129.49,106.02"/>
	<path class="st0" d="M224.62,1173.32c0,0-26.51,122.59,157.38,102.71"/>
	<path class="st0" d="M228.68,1169.22c0,0-19.45,63.43,38.92,98.53c26.38,15.87,66.75,16.86,107.42,12.46"/>
	<path class="st0" d="M233.38,1165c0,0-25.36,63.18,26.83,103.68c29.14,22.61,75.93,19.12,108.47,15.6"/>
	<path class="st0" d="M238.83,1160.63c0,0-32.12,64.25,14.73,108.82c31.52,29.98,85.11,21.38,109.51,18.74"/>
	<path class="st0" d="M245.06,1156.12c0,0-39.61,65.92,2.64,113.96c33.3,37.86,94.29,23.64,110.56,21.88"/>
	<path class="st0" d="M251.96,1151.51c0,0-47.72,67.77-9.45,119.1c34.4,46.13,103.47,25.9,111.6,25.02"/>
	<path class="st0" d="M259.41,1146.81c0,0-56.33,69.58-21.54,124.25c34.79,54.67,112.65,28.16,112.65,28.16"/>
	<path class="st0" d="M271.35,1136.98c0,0-51.91,70.96-16.29,123.42s104.37,30.37,109.06,28.44"/>
	<path class="st0" d="M283.36,1127.1c0,0-47.49,72.34-11.04,122.59s96.08,32.58,105.47,28.71"/>
	<path class="st0" d="M295.44,1117.18c0,0-43.07,73.72-5.8,121.76c37.27,48.04,87.8,34.79,101.88,28.99"/>
	<path class="st0" d="M307.62,1107.22c0,0-38.65,75.1-0.55,120.93c38.1,45.83,79.52,37,98.29,29.27"/>
	<path class="st0" d="M319.9,1097.21c0,0-34.24,76.48,4.69,120.11c38.93,43.62,71.24,39.21,94.7,29.54"/>
	<path class="st0" d="M332.3,1087.18c0,0-29.82,77.86,9.94,119.28c39.76,41.42,62.95,41.42,91.11,29.82"/>
	<path class="st0" d="M338.87,1081.61c0,0-35.07,77.03,8.01,123.14c33.13,34.51,58.26,40.59,89.18,28.71"/>
	<path class="st0" d="M345.48,1075.92c0,0-40.31,76.2,6.07,127.01c26.51,27.61,53.56,39.76,87.25,27.61"/>
	<path class="st0" d="M352.1,1070.14c0,0-45.56,75.38,4.14,130.87c19.88,20.71,48.87,38.93,85.32,26.51"/>
	<path class="st0" d="M358.74,1064.28c0,0-50.8,74.55,2.21,134.74c13.25,13.81,44.18,38.1,83.38,25.4"/>
	<path class="st0" d="M365.4,1058.35c0,0-56.05,73.72,0.28,138.6c6.63,6.9,39.48,37.27,81.45,24.3"/>
	<path class="st0" d="M372.06,1052.39c0,0-61.3,72.89-1.66,142.47c0,0,34.79,36.45,79.52,23.19"/>
	<path class="st0" d="M400.71,1035.44c0,0-65.44,66.54-18.5,130.6c-2.76,6.07,22.92,53.29,77.03,45.01"/>
	<path class="st0" d="M430.18,1017.94c0,0-69.58,60.19-35.34,118.73c-5.52,12.15,11.04,70.13,74.55,66.82"/>
	<path class="st0" d="M460.63,1000.1c0,0-73.72,53.84-52.18,106.85c-8.28,18.22-0.83,86.97,72.06,88.63"/>
	<path class="st0" d="M494.59,982.19c0,0-77.86,47.49-69.03,94.98c-11.04,24.3-12.7,103.82,69.58,110.44"/>
	<path class="st0" d="M520.26,964.27c0,0-82,41.14-85.87,83.11c-13.81,30.37-24.57,120.66,67.09,132.25"/>
	<path class="st0" d="M546.01,946.36c0,0-86.14,34.79-102.71,71.24c-16.57,36.45-36.45,137.5,64.61,154.07"/>
	<path class="st0" d="M563.76,941.49c0,0-83.89,29.78-100.18,66.22c-16.29,36.45-34.79,125.9,52.46,147.99"/>
	<path class="st0" d="M581.56,936.62c0,0-81.63,24.76-97.64,61.21c-16.01,36.45-33.13,114.31,40.31,141.92"/>
	<path class="st0" d="M599.43,931.75c0,0-79.37,19.75-95.11,56.2c-15.74,36.45-31.48,102.71,28.16,135.84"/>
	<path class="st0" d="M617.39,926.88c0,0-77.12,14.74-92.58,51.19c-15.46,36.45-29.82,91.11,16.01,129.77"/>
	<path class="st0" d="M635.53,922.01c0,0-74.86,9.73-90.04,46.17c-15.19,36.45-28.16,79.52,3.87,123.7"/>
	<path class="st0" d="M653.69,916.54c0,0-72.6,4.72-87.51,41.16s-26.51,67.92-8.28,117.62"/>
	<path class="st0" d="M656.06,916.54c0,0-65.92,5.66-82.36,40.06c-15.79,33.05-27.84,63.26-12.66,109.65"/>
	<path class="st0" d="M658.52,916.54c0,0-59.14,6.61-77.2,38.97c-16.56,29.67-29.18,58.6-17.03,101.68"/>
	<path class="st0" d="M661.12,916.54c0,0-52.25,7.59-72.05,37.87c-17.22,26.33-30.51,53.95-21.4,93.7"/>
	<path class="st0" d="M663.9,916.54c0,0-45.23,8.65-66.9,36.78c-17.76,23.06-31.85,49.29-25.78,85.73"/>
	<path class="st0" d="M666.91,916.54c0,0-38.08,9.83-61.74,35.68c-18.2,19.88-33.19,44.63-30.15,77.76"/>
	<path class="st0" d="M670.26,916.54c0,0-91.11,33.13-91.11,104.37"/>
</g>
<g>
	<path class="st0" d="M907.15,1155.1c0,0-18.22,11.6-8.28,31.48"/>
	<path class="st0" d="M914.72,1146.54c0,0-19.6,17.95-5.8,41.42"/>
	<path class="st0" d="M922.39,1137.98c0,0-20.98,24.3-3.31,51.36"/>
	<path class="st0" d="M930.12,1129.42c0,0-22.36,30.65-0.83,61.3"/>
	<path class="st0" d="M937.07,1120.86c0,0-23.74,37,1.66,71.24"/>
	<path class="st0" d="M943.63,1112.3c0,0-25.13,43.35,4.14,81.17"/>
	<path class="st0" d="M950.23,1103.74c0,0-26.51,49.7,6.63,91.11"/>
	<path class="st0" d="M973.42,1196.51c0,0-43.07-61.3-3.31-110.99"/>
	<path class="st0" d="M992.19,1068.12c-17.78,22.23-37.05,54.67-26.76,90.76c4.56,16.01,11.58,32.1,20.69,37.9"/>
	<path class="st0" d="M1013.58,1050.73c-14.22,17.78-55.29,52.62-41.62,102.76c3.5,12.85,7.94,31.98,26.16,43.57"/>
	<path class="st0" d="M1035.13,1033.33c-10.67,13.34-73.53,50.56-56.48,114.76c2.56,9.66,4.3,31.85,31.63,49.25"/>
	<path class="st0" d="M1056.72,1015.94c-7.11,8.89-91.78,48.5-71.34,126.76c1.68,6.44,0.65,31.73,37.1,54.92"/>
	<path class="st0" d="M1078.33,998.55c-3.56,4.45-110.02,46.43-86.2,138.76c0.83,3.22-2.99,31.6,42.57,60.59"/>
	<path class="st0" d="M1099.32,981.15c0,0-122.59,43.07-101.05,150.75c0,0-6.63,31.48,48.04,66.27"/>
	<path class="st0" d="M1112.85,979.49c0,0-112.65,35.34-98.02,137.22c-3.31,12.15-2.48,47.49,55.5,79.52"/>
	<path class="st0" d="M1126.38,977.84c0,0-86.03,27.72-94.98,123.7c-2.34,25.08,1.66,63.5,62.95,92.77"/>
	<path class="st0" d="M1140.96,976.18c0,0-80.37,20.62-91.94,110.17c-4.84,37.47,5.8,79.52,70.41,106.02"/>
	<path class="st0" d="M1155.55,974.52c0,0-74.66,13.14-88.91,96.64c-8.47,49.65,9.94,95.53,77.86,119.28"/>
	<path class="st0" d="M1170.37,972.86c0,0-68.87,5.19-85.87,83.11c-13.42,61.51,14.08,111.55,85.32,132.53"/>
	<path class="st0" d="M1180.5,971.21c0,0-62.95-3.31-82.83,69.58c-19.88,72.89,18.22,127.56,92.77,145.78"/>
	<path class="st0" d="M1188.87,970.65c0,0-60.41,1.25-83.15,68.92c-22.62,67.53,4.8,122.67,73.49,149.21"/>
	<path class="st0" d="M1192.65,970.11c0,0-57.87,5.81-83.47,68.25c-25.35,62.17-8.62,117.79,54.2,152.63"/>
	<path class="st0" d="M1197.4,969.55c0,0-55.34,10.38-83.78,67.59c-28.09,56.81-22.05,112.9,34.91,156.05"/>
	<path class="st0" d="M1202.9,969c0,0-52.8,14.94-84.1,66.93c-30.83,51.45-35.47,108.02,15.63,159.48"/>
	<path class="st0" d="M1209.4,968.45c0,0-50.26,19.51-84.42,66.27c-33.56,46.09-48.89,103.13-3.66,162.9"/>
	<path class="st0" d="M1216.94,967.9c0,0-187.2,94.43-107.68,231.93"/>
	<path class="st0" d="M1225.47,966.52c0,0-61.03,35.78-90.6,90.98c-21.87,40.82-26.76,88.97,6.38,137.91"/>
	<path class="st0" d="M1234.66,965.14c0,0-57.19,39.33-79.44,94.65c-17.46,43.42-14.78,90.06,18.69,131.2"/>
	<path class="st0" d="M1244.65,963.76c0,0-52.99,43.14-68.27,98.32c-12.8,46.2-2.8,91.15,31,124.49"/>
	<path class="st0" d="M1255.51,962.38c0,0-48.38,47.05-57.11,102c-7.8,49.08,9.18,92.24,43.31,117.78"/>
	<path class="st0" d="M1262.44,961c0,0-43.39,50.94-45.95,105.67c-2.43,51.94,21.15,93.34,55.61,111.08"/>
	<path class="st0" d="M1263.33,959.61c0,0-38.1,54.67-34.79,109.34c3.31,54.67,33.13,94.43,67.92,104.37"/>
	<path class="st0" d="M1266.19,959.62c0,0-43.07,64.88-28.44,121.49c2.76,45.56,30.37,82.56,68.75,90.56"/>
	<path class="st0" d="M1269.97,959.63c0,0-48.04,75.1-22.09,133.63c2.21,36.45,27.61,70.68,69.58,76.76"/>
	<path class="st0" d="M1274.21,959.64c0,0-53.01,85.32-15.74,145.78c1.66,27.33,24.85,58.81,70.41,62.95"/>
	<path class="st0" d="M1278.72,959.64c0,0-57.98,95.53-9.39,157.93c1.1,18.22,22.09,46.94,71.24,49.15"/>
	<path class="st0" d="M1283.39,959.65c0,0-62.95,105.75-3.04,170.08c0.55,9.11,19.33,35.07,72.06,35.34"/>
	<path class="st0" d="M1288.18,959.61c0,0-67.92,115.96,3.31,182.23c0,0,16.57,23.19,72.89,21.54"/>
	<path class="st0" d="M1299.5,957.13c0,0-62.3,111.94,4.39,178.62c1.8,2.82,18.19,24.73,68.78,25.42"/>
	<path class="st0" d="M1310.82,954.65c0,0-56.67,107.91,5.47,175.02c3.6,5.63,19.81,26.27,64.66,29.3"/>
	<path class="st0" d="M1322.14,952.16c0,0-51.04,103.89,6.55,171.41c5.4,8.45,21.44,27.8,60.55,33.18"/>
	<path class="st0" d="M1333.46,949.68c0,0-45.41,99.86,7.62,167.8c7.2,11.27,23.06,29.34,56.43,37.07"/>
	<path class="st0" d="M1344.78,947.19c0,0-39.79,95.83,8.7,164.2c9,14.08,24.69,30.88,52.32,40.95"/>
	<path class="st0" d="M1356.1,944.71c0,0-53.01,142.47,57.98,205.42"/>
	<path class="st0" d="M1367.7,939.74c0,0-59.91,141.92,63.23,204.87"/>
	<path class="st0" d="M1379.29,934.77c0,0-66.82,141.37,68.47,204.32"/>
	<path class="st0" d="M1390.89,929.8c0,0-73.72,140.81,73.72,203.77"/>
	<path class="st0" d="M1402.49,924.83c0,0-80.62,140.26,78.97,203.21"/>
	<path class="st0" d="M1414.08,919.86c0,0-87.53,139.71,84.21,202.66"/>
	<path class="st0" d="M1425.68,914.89c0,0-94.43,139.16,89.46,202.11"/>
	<path class="st0" d="M1433.13,910.19c0,0-36.43,49.74-22.65,105.01c9.98,39.77,42.3,77.7,109.9,99.58"/>
	<path class="st0" d="M1440.59,905.5c0,0-38.42,48.74-24.09,105.21c11.3,44.08,46.76,83.03,109.13,101.86"/>
	<path class="st0" d="M1448.04,900.8c0,0-40.41,47.74-25.52,105.42c12.62,48.38,51.22,88.36,108.35,104.15"/>
	<path class="st0" d="M1455.5,896.11c0,0-42.4,46.73-26.95,105.62c13.93,52.69,55.68,93.7,107.58,106.43"/>
	<path class="st0" d="M1462.95,891.42c0,0-44.39,45.73-28.39,105.82c15.25,56.99,60.15,99.03,106.8,108.71"/>
	<path class="st0" d="M1470.41,886.72c0,0-46.39,44.73-29.82,106.02s64.61,104.37,106.02,110.99"/>
	<path class="st0" d="M1480.97,882.24c0,0-48.59,46.39-27.06,110.72c21.54,64.33,69.85,96.91,108.23,101.61"/>
	<path class="st0" d="M1491.64,877.76c0,0-50.8,48.04-24.3,115.41s75.1,89.46,110.44,92.22"/>
	<path class="st0" d="M1502.39,873.28c0,0-53.01,49.7-21.54,120.11c31.48,70.41,80.35,82,112.65,82.83"/>
	<path class="st0" d="M1513.22,868.7c0,0-55.22,51.36-18.78,124.8c36.45,73.44,85.59,74.55,114.86,73.44"/>
	<path class="st0" d="M1524.09,863.29c0,0-57.43,53.01-16.01,129.49s90.84,67.09,117.07,64.06"/>
	<path class="st0" d="M1535.02,856.9c0,0-59.64,54.67-13.25,134.19s96.08,59.64,119.28,54.67"/>
	<path class="st0" d="M1550.48,846.14c0,0-57.15,57.43-12.15,134.74s97.74,59.36,117.07,55.22"/>
	<path class="st0" d="M1565.94,835.37c0,0-54.67,60.19-11.04,135.29s99.4,59.09,114.86,55.77"/>
	<path class="st0" d="M1581.4,824.6c0,0-52.18,62.95-9.94,135.84c29.53,50.96,67.17,59.41,91.1,59.03"/>
	<path class="st0" d="M1596.86,813.83c0,0-49.7,65.71-8.84,136.4c20.32,35.15,45.84,49.82,67.3,55.48"/>
	<path class="st0" d="M1612.33,803.06c0,0-47.21,68.47-7.73,136.95c12.26,21.27,26.98,34.95,41.55,43.67"/>
	<path class="st0" d="M1627.79,792.3c0,0-44.73,71.24-6.63,137.5c5.83,10.14,12.36,18.54,19.24,25.49"/>
	<path class="st0" d="M1637.82,779.6c0,0-38.23,73.06,0.07,136.73c2.14,3.55,4.37,6.87,6.67,9.98"/>
	<path class="st0" d="M1757.02,953.24c2.46-0.2,4.62-0.48,6.44-0.79"/>
	<path class="st0" d="M1648.06,766.91c0,0-31.82,74.92,6.77,135.97c0.72,1.15,1.46,2.27,2.21,3.36"/>
	<path class="st0" d="M1757.76,936.19c8.99,0.39,17.26-0.23,24.2-1.41"/>
	<path class="st0" d="M1658.54,754.21c0,0-25.52,76.83,13.47,135.2c0.77,1.16,1.56,2.29,2.36,3.39"/>
	<path class="st0" d="M1751.54,916.28c16.52,3.59,33.54,3.5,49.25,0.83"/>
	<path class="st0" d="M1669.37,741.51c0,0-19.37,78.84,20.17,134.43c3.02,4.25,6.25,8.14,9.67,11.68"/>
	<path class="st0" d="M1680.62,728.8c0,0-13.44,81,26.88,133.67c24.78,32.36,65.1,45.03,112.56,36.97"/>
	<path class="st0" d="M1692.4,716.09c0,0-18.22,193.83,147.44,165.66"/>
	<path class="st0" d="M1697.62,712.23c0,0-19.88,186.09,146.89,164.28"/>
	<path class="st0" d="M1702.85,708.26c0,0-21.54,178.36,146.34,162.9"/>
	<path class="st0" d="M1708.1,704.19c0,0-23.19,170.63,145.78,161.52"/>
	<path class="st0" d="M1713.35,699.97c0,0-24.85,162.9,145.23,160.14"/>
	<path class="st0" d="M1718.6,695.62c0,0-26.51,155.17,144.68,158.76"/>
	<path class="st0" d="M1723.87,691.24c0,0-28.16,147.44,144.13,157.38"/>
	<path class="st0" d="M1734.14,682.01c0,0-13.21,60.25,24.39,104.29c24.1,28.23,63.05,46.48,119.46,48.67"/>
	<path class="st0" d="M1744.48,673.13c0,0-14.79,60.71,24.15,102.98c27.7,30.07,69.33,44.81,119.42,45.56"/>
	<path class="st0" d="M1754.77,664.06c0,0-16.21,61.02,23.91,101.67c31.4,31.82,75.6,43.13,119.39,42.46"/>
	<path class="st0" d="M1765.04,654.86c0,0-17.5,61.21,23.67,100.36c35.21,33.48,81.88,41.45,119.35,39.35"/>
	<path class="st0" d="M1775.31,645.48c0,0-18.72,61.3,23.43,99.05c39.1,35.02,88.15,39.78,119.31,36.24"/>
	<path class="st0" d="M1785.5,635.83c0,0-19.88,61.3,23.19,97.74c43.07,36.45,94.43,38.1,119.28,33.13"/>
	<path class="st0" d="M1793.57,627.78c0,0-14.43,57.49,27.53,92.57c39.58,33.23,87.51,36.85,115.21,32.5"/>
	<path class="st0" d="M1801.95,619.69c0,0-8.98,53.69,31.87,87.41c36.09,30.02,80.6,35.6,111.15,31.87"/>
	<path class="st0" d="M1810.73,611.56c0,0-3.45,49.78,36.21,82.24c32.66,26.73,73.69,34.35,107.09,31.24"/>
	<path class="st0" d="M1819.86,603.37c0,0,2,45.98,40.55,77.08c29.16,23.53,66.77,33.1,103.02,30.61"/>
	<path class="st0" d="M1829.02,595.14c0,0,7.37,42.27,44.89,71.91c25.61,20.39,59.86,31.85,98.96,29.97"/>
	<path class="st0" d="M1838.18,586.87c0,0,33.13,99.4,144.13,96.08"/>
</g>
<g>
	<line class="st0" x1="1550.48" y1="387.53" x2="1486.42" y2="471.46"/>
	<path class="st0" d="M1535.48,387.71c0,0-61.48,75.1-58.53,83.2"/>
	<path class="st0" d="M1520.59,387.89c0,0-58.9,66.27-53.01,82.46"/>
	<path class="st0" d="M1505.8,388.08c0,0-56.33,57.43-47.49,81.73"/>
	<path class="st0" d="M1491.13,388.26c0,0-53.75,48.59-41.97,80.99"/>
	<path class="st0" d="M1476.57,388.45c0,0-51.17,39.76-36.45,80.25"/>
	<path class="st0" d="M1462.12,388.63c0,0-48.59,30.92-30.92,79.52"/>
	<path class="st0" d="M1452,388.63c0,0-48.78,30.74-29.45,79.33"/>
	<path class="st0" d="M1441.88,388.63c0,0-48.96,30.56-27.98,79.15"/>
	<path class="st0" d="M1431.75,388.63c0,0-49.15,30.37-26.51,78.97"/>
	<path class="st0" d="M1421.63,388.63c0,0-49.33,30.19-25.03,78.78"/>
	<path class="st0" d="M1411.5,388.63c0,0-49.51,30-23.56,78.6"/>
	<path class="st0" d="M1401.38,388.63c0,0-49.7,29.82-22.09,78.41"/>
	<path class="st0" d="M1387.08,388.26c0,0-23.22,9.65-29.01,31.15c-3.96,14.69-3.36,30.3,8.76,47.08"/>
	<path class="st0" d="M1372.89,387.89c0,0-27.03,7.92-30.94,30.44c-2.96,17.04-1.26,32.45,12.53,47.6"/>
	<path class="st0" d="M1358.8,387.53c0,0-30.65,6.23-32.87,29.73c-1.83,19.42,0.84,34.61,16.3,48.13"/>
	<path class="st0" d="M1344.87,387.16c0,0-34.14,4.55-34.8,29.03c-0.59,21.8,2.95,36.77,20.07,48.65"/>
	<path class="st0" d="M1331.13,386.79c0,0-37.53,2.84-36.73,28.32c0.77,24.17,5.05,38.93,23.84,49.17"/>
	<path class="st0" d="M1317.45,386.42c0,0-40.86,1.1-38.65,27.61s7.15,41.08,27.61,49.7"/>
	<path class="st0" d="M1309.55,386.42c0,0-38.94,2.72-38.5,28.03c0.42,24.24,4.97,39.16,25.62,49.65"/>
	<path class="st0" d="M1301.8,386.42c0,0-36.94,4.29-38.35,28.45c-1.27,21.94,2.78,37.24,23.62,49.59"/>
	<path class="st0" d="M1294.27,386.42c0,0-34.84,5.83-38.2,28.88c-2.85,19.61,0.6,35.31,21.63,49.54"/>
	<path class="st0" d="M1286.85,386.42c0,0-32.6,7.38-38.04,29.3c-4.3,17.3-1.58,33.39,19.64,49.48"/>
	<path class="st0" d="M1279.49,386.42c0,0-30.16,8.99-37.89,29.72c-5.6,15.03-3.77,31.46,17.64,49.43"/>
	<path class="st0" d="M1272.16,386.42c0,0-76.21,29.82-22.09,79.52"/>
	<path class="st0" d="M1255.05,387.16c0,0-72.34,29.27-20.43,79.52"/>
	<path class="st0" d="M1237.93,387.89c0,0-68.47,28.71-18.78,79.52"/>
	<path class="st0" d="M1220.81,388.63c0,0-64.61,28.16-17.12,79.52"/>
	<path class="st0" d="M1203.69,389.37c0,0-60.74,27.61-15.46,79.52"/>
	<path class="st0" d="M1186.57,390.1c0,0-56.88,27.06-13.81,79.52"/>
	<path class="st0" d="M1169.45,390.84c0,0-53.01,26.51-12.15,79.52"/>
	<path class="st0" d="M1148.25,393.23c0,0-54.12,27.61-19.14,77.68"/>
	<path class="st0" d="M1127.23,395.62c0,0-55.22,28.71-26.14,75.84"/>
	<path class="st0" d="M1106.45,398.02c0,0-56.33,29.82-33.13,74"/>
	<path class="st0" d="M1085.92,400.41c0,0-57.43,30.92-40.13,72.16"/>
	<path class="st0" d="M1065.67,402.8c0,0-58.53,32.03-47.12,70.31"/>
	<path class="st0" d="M1045.76,405.2c0,0-59.64,33.13-54.12,68.47"/>
	<path class="st0" d="M1041.06,405.93c0,0-48.96,35.53-38.1,67.19"/>
	<path class="st0" d="M1036.96,406.67c0,0-38.29,37.92-22.09,65.9"/>
	<path class="st0" d="M1033.76,407.41c0,0-27.61,40.31-6.07,64.61"/>
	<path class="st0" d="M1026.98,408.14c0,0-16.93,42.7,9.94,63.32"/>
	<path class="st0" d="M1019.07,408.88c0,0-6.26,45.1,25.95,62.03"/>
	<path class="st0" d="M1013.73,409.61c0,0,4.42,47.49,41.97,60.74"/>
	<path class="st0" d="M1000.35,412.01c0,0-5.15,45.47,34.24,60.56"/>
	<path class="st0" d="M988.03,414.4c0,0-14.73,43.44,26.51,60.37"/>
	<path class="st0" d="M976.68,416.79c0,0-24.3,41.42,18.78,60.19"/>
	<path class="st0" d="M965.89,419.19c0,0-33.87,39.39,11.04,60.01"/>
	<path class="st0" d="M955.46,421.58c0,0-43.44,37.37,3.31,59.82"/>
	<path class="st0" d="M943.05,423.97c0,0-53.01,35.34-4.42,59.64"/>
	<path class="st0" d="M932.86,427.47c0,0-21.68,13.79-23.71,29.62c-1.37,10.62,4.21,20.27,21.87,27.99"/>
	<path class="st0" d="M922.45,430.97c0,0-22.9,14.15-23.16,29.66c-0.19,11.39,7.12,19.75,23.9,25.93"/>
	<path class="st0" d="M911.24,434.46c0,0-23.96,14.53-22.62,29.7c1.08,12.18,10.04,19.23,25.93,23.86"/>
	<path class="st0" d="M900.09,437.96c0,0-24.89,14.89-22.07,29.74c2.46,12.96,12.95,18.71,27.96,21.8"/>
	<path class="st0" d="M888.97,441.46c0,0-25.73,15.21-21.53,29.78c3.95,13.69,15.86,18.19,30,19.73"/>
	<path class="st0" d="M877.89,444.96c0,0-26.51,15.46-20.98,29.82s18.78,17.67,32.03,17.67"/>
	<path class="st0" d="M865.51,450.39c0,0-25.77,16.93-19.51,30.74c6.26,13.81,20.8,15.09,31.84,15.09"/>
	<path class="st0" d="M853.16,455.82c0,0-25.03,18.41-18.04,31.66c6.99,13.25,22.82,12.52,31.66,12.52"/>
	<path class="st0" d="M840.82,461.13c0,0-24.3,19.88-16.57,32.58c7.73,12.7,24.85,9.94,31.48,9.94"/>
	<path class="st0" d="M828.49,466.22c0,0-23.56,21.35-15.09,33.5s26.87,7.36,31.29,7.36"/>
	<path class="st0" d="M816.18,471.13c0,0-22.82,22.82-13.62,34.42c9.2,11.6,28.9,4.79,31.11,4.79"/>
	<path class="st0" d="M803.89,475.88c0,0-22.09,24.3-12.15,35.34c9.94,11.04,30.92,2.21,30.92,2.21"/>
	<path class="st0" d="M796.53,479.19c0,0-21.17,22.09-11.41,33.5c9.76,11.41,30,3.5,30.74,3.31"/>
	<path class="st0" d="M789.16,482.51c0,0-20.25,19.88-10.68,31.66c9.57,11.78,29.08,4.79,30.56,4.42"/>
	<path class="st0" d="M781.8,485.82c0,0-19.33,17.67-9.94,29.82s28.16,6.07,30.37,5.52"/>
	<path class="st0" d="M774.44,489.13c0,0-18.41,15.46-9.2,27.98c9.2,12.52,27.24,7.36,30.19,6.63"/>
	<path class="st0" d="M767.08,492.45c0,0-17.49,13.25-8.47,26.14c9.02,12.88,26.32,8.65,30,7.73"/>
	<path class="st0" d="M759.71,495.76c0,0-16.57,11.04-7.73,24.3c8.84,13.25,25.4,9.94,29.82,8.84"/>
	<path class="st0" d="M745.17,505.33c0,0-15,10.88-7.16,23.17c7.57,11.86,22.26,9.71,27.96,8.86"/>
	<path class="st0" d="M730.64,515.13c0,0-13.43,10.7-6.59,22.04c6.31,10.45,19.12,9.48,26.1,8.89"/>
	<path class="st0" d="M716.11,524.73c0,0-11.84,10.51-6.01,20.91c5.07,9.04,15.97,9.25,24.24,8.91"/>
	<path class="st0" d="M701.55,534.05c0,0-10.24,10.31-5.44,19.78c3.85,7.6,12.83,9.02,22.38,8.93"/>
	<path class="st0" d="M687.01,543.62c0,0-8.59,10.08-4.87,18.65c2.67,6.15,9.69,8.8,20.52,8.96"/>
	<path class="st0" d="M568.65,623.5c0,0-14.73,19.88,11.04,19.88"/>
	<path class="st0" d="M555.4,632.71c0,0-13.81,20.98,11.6,19.88"/>
	<path class="st0" d="M542.14,641.91c0,0-12.88,22.09,12.15,19.88"/>
	<path class="st0" d="M528.89,651.11c0,0-11.96,23.19,12.7,19.88"/>
	<path class="st0" d="M515.64,660.32c0,0-11.04,24.3,13.25,19.88"/>
	<path class="st0" d="M507.72,666.94c0,0-11.78,25.4,13.44,20.62"/>
	<path class="st0" d="M499.81,673.57c0,0-12.52,26.51,13.62,21.35"/>
	<path class="st0" d="M491.89,680.2c0,0-13.25,27.61,13.81,22.09"/>
	<path class="st0" d="M483.98,686.82c0,0-13.99,28.71,13.99,22.82"/>
	<path class="st0" d="M476.06,693.45c0,0-14.73,29.82,14.17,23.56"/>
	<path class="st0" d="M468.15,700.08c0,0-15.46,30.92,14.36,24.3"/>
	<path class="st0" d="M465.02,703.21c0.55,0.37-14.36,29.64,14.36,23.38"/>
	<path class="st0" d="M461.89,706.33c1.1,0.74-13.25,28.35,14.36,22.46"/>
	<path class="st0" d="M458.76,709.46c1.66,1.1-12.15,27.06,14.36,21.54"/>
	<path class="st0" d="M455.63,712.59c2.21,1.47-11.04,25.77,14.36,20.62"/>
	<path class="st0" d="M452.5,715.72c2.76,1.84-9.94,24.48,14.36,19.7"/>
	<path class="st0" d="M449.37,718.85c3.31,2.21-8.84,23.19,14.36,18.78"/>
	<path class="st0" d="M442.93,725.11c2.76,1.84-9.02,22.64,13.25,18.96"/>
	<path class="st0" d="M436.49,731.37c2.21,1.47-9.2,22.09,12.15,19.14"/>
	<path class="st0" d="M430.04,737.63c1.66,1.1-9.39,21.54,11.04,19.33"/>
	<path class="st0" d="M423.6,743.88c1.1,0.74-9.57,20.98,9.94,19.51"/>
	<path class="st0" d="M417.16,750.14c0.55,0.37-9.76,20.43,8.84,19.7"/>
	<path class="st0" d="M410.72,756.4c0,0-9.94,19.88,7.73,19.88"/>
	<path class="st0" d="M407.4,759.71c0,0-9.76,19.88,8.47,19.7"/>
	<path class="st0" d="M404.09,763.03c0,0-9.57,19.88,9.2,19.51"/>
	<path class="st0" d="M400.78,766.34c0,0-9.39,19.88,9.94,19.33"/>
	<path class="st0" d="M397.46,769.65c0,0-9.2,19.88,10.68,19.14"/>
	<path class="st0" d="M394.15,772.97c0,0-9.02,19.88,11.41,18.96"/>
	<path class="st0" d="M390.84,776.28c0,0-8.84,19.88,12.15,18.78"/>
	<path class="st0" d="M383.29,785.12c0,0-9.39,19.88,11.78,18.96"/>
	<path class="st0" d="M375.74,793.95c0,0-9.94,19.88,11.41,19.14"/>
	<path class="st0" d="M368.2,802.79c0,0-10.49,19.88,11.04,19.33"/>
	<path class="st0" d="M360.65,811.62c0,0-11.04,19.88,10.68,19.51"/>
	<path class="st0" d="M353.1,820.46c0,0-11.6,19.88,10.31,19.7"/>
	<path class="st0" d="M345.56,829.29c0,0-12.15,19.88,9.94,19.88"/>
	<path class="st0" d="M341.32,833.71c0,0-11.23,19.14,10.68,18.41"/>
	<path class="st0" d="M337.09,838.13c0,0-10.31,18.41,11.41,16.93"/>
	<path class="st0" d="M332.85,842.55c0,0-9.39,17.67,12.15,15.46"/>
	<path class="st0" d="M328.62,846.96c0,0-8.47,16.93,12.88,13.99"/>
	<path class="st0" d="M324.39,851.38c0,0-7.55,16.2,13.62,12.52"/>
	<path class="st0" d="M320.15,855.8c0,0-6.63,15.46,14.36,11.04"/>
	<path class="st0" d="M315,863.35c0,0-6.07,14.36,13.99,10.68"/>
	<path class="st0" d="M309.85,870.89c0,0-5.52,13.25,13.62,10.31"/>
	<path class="st0" d="M304.69,878.44c0,0-4.97,12.15,13.25,9.94"/>
	<path class="st0" d="M299.54,885.99c0,0-4.42,11.04,12.88,9.57"/>
	<path class="st0" d="M294.38,893.53c0,0-3.87,9.94,12.52,9.2"/>
	<path class="st0" d="M289.23,901.08c0,0-3.31,8.84,12.15,8.84"/>
	<path class="st0" d="M283.89,908.81c0,0-3.5,9.94,12.15,8.84"/>
	<path class="st0" d="M278.55,916.54c0,0-3.68,11.04,12.15,8.84"/>
	<path class="st0" d="M273.22,924.27c0,0-3.87,12.15,12.15,8.84"/>
	<path class="st0" d="M267.88,932c0,0-4.05,13.25,12.15,8.84"/>
	<path class="st0" d="M262.54,939.74c0,0-4.23,14.36,12.15,8.84"/>
	<path class="st0" d="M257.2,947.47c0,0-4.42,15.46,12.15,8.84"/>
	<path class="st0" d="M251.13,954.46c0,0-3.31,16.01,12.33,9.2"/>
	<path class="st0" d="M245.05,961.46c0,0-2.21,16.57,12.52,9.57"/>
	<path class="st0" d="M238.98,968.45c0,0-1.1,17.12,12.7,9.94"/>
	<path class="st0" d="M232.9,975.45c0,0,0,17.67,12.88,10.31"/>
	<path class="st0" d="M226.83,982.44c0,0,1.1,18.22,13.07,10.68"/>
	<path class="st0" d="M220.76,989.43c0,0,2.21,18.78,13.25,11.04"/>
	<path class="st0" d="M218,995.51c0,0,2.02,17.49,12.52,10.31"/>
	<path class="st0" d="M215.23,1001.58c0,0,1.84,16.2,11.78,9.57"/>
	<path class="st0" d="M212.47,1007.66c0,0,1.66,14.91,11.04,8.84"/>
	<path class="st0" d="M209.71,1013.73c0,0,1.47,13.62,10.31,8.1"/>
	<path class="st0" d="M206.95,1019.81c0,0,1.29,12.33,9.57,7.36"/>
	<path class="st0" d="M204.19,1025.88c0,0,1.1,11.04,8.84,6.63"/>
	<path class="st0" d="M199.96,1032.32c1.47,0.74,3.31,9.02,9.76,5.34"/>
	<path class="st0" d="M195.72,1038.77c2.95,1.47,5.52,6.99,10.68,4.05"/>
	<path class="st0" d="M191.49,1045.49c4.42,2.21,7.73,4.97,11.6,2.76"/>
	<path class="st0" d="M187.26,1051.91c5.89,2.95,9.94,2.95,12.52,1.47"/>
	<path class="st0" d="M183.02,1058.09c7.36,3.68,12.15,0.92,13.44,0.18"/>
	<path class="st0" d="M178.79,1064.53c8.84,4.42,14.36-1.1,14.36-1.1"/>
	<path class="st0" d="M175.66,1068.4c7.36,3.68,12.15,0.18,13.25,0"/>
	<path class="st0" d="M172.53,1072.51c5.89,2.95,9.94,1.47,12.15,1.1"/>
	<path class="st0" d="M169.4,1076.49c4.42,2.21,7.73,2.76,11.04,2.21"/>
	<path class="st0" d="M166.27,1080.26c2.95,1.47,5.52,4.05,9.94,3.31"/>
	<path class="st0" d="M163.14,1083.86c1.47,0.74,3.31,5.34,8.84,4.42"/>
	<path class="st0" d="M160.01,1087.73c0,0,1.1,6.63,7.73,5.52"/>
	<path class="st0" d="M158.72,1088.83c0,0,1.47,6.63,7.92,5.71"/>
	<path class="st0" d="M157.44,1089.94c0,0,1.84,6.63,8.1,5.89"/>
	<path class="st0" d="M156.15,1091.04c0,0,2.21,6.63,8.28,6.07"/>
	<path class="st0" d="M154.86,1092.15c0,0,2.58,6.63,8.47,6.26"/>
	<path class="st0" d="M153.57,1093.25c0,0,2.95,6.63,8.65,6.44"/>
	<path class="st0" d="M152.28,1094.35c0,0,3.31,6.63,8.84,6.63"/>
	<path class="st0" d="M147.5,1100.8c0,0,2.95,6.63,8.84,6.44"/>
	<path class="st0" d="M142.71,1107.24c0,0,2.58,6.63,8.84,6.26"/>
	<path class="st0" d="M137.92,1113.68c0,0,2.21,6.63,8.84,6.07"/>
	<path class="st0" d="M133.14,1120.12c0,0,1.84,6.63,8.84,5.89"/>
	<path class="st0" d="M128.35,1126.57c0,0,1.47,6.63,8.84,5.71"/>
	<path class="st0" d="M123.57,1133.01c0,0,1.1,6.63,8.84,5.52"/>
	<path class="st0" d="M120.25,1137.98c0,0,1.1,6.99,8.65,5.52"/>
	<path class="st0" d="M116.94,1142.95c0,0,1.1,7.36,8.47,5.52"/>
	<path class="st0" d="M113.63,1147.92c0,0,1.1,7.73,8.28,5.52"/>
	<path class="st0" d="M110.31,1152.89c0,0,1.1,8.1,8.1,5.52"/>
	<path class="st0" d="M107,1157.86c0,0,1.1,8.47,7.92,5.52"/>
	<path class="st0" d="M103.69,1162.83c0,0,1.1,8.84,7.73,5.52"/>
</g>
<g>
	<line class="st0" x1="197.56" y1="1059.01" x2="207.09" y2="1044.24"/>
	<path class="st0" d="M197.75,1062.54c0,0,8.49-13.97,9.41-12.86"/>
	<path class="st0" d="M197.93,1066.12c0,0,7.45-13.16,9.3-10.95"/>
	<path class="st0" d="M198.12,1069.77c0,0,6.42-12.36,9.18-9.04"/>
	<path class="st0" d="M198.3,1073.48c0,0,5.38-11.55,9.07-7.13"/>
	<path class="st0" d="M198.48,1077.26c0,0,4.35-10.75,8.95-5.22"/>
	<path class="st0" d="M198.67,1081.1c0,0,3.31-9.94,8.84-3.31"/>
	<path class="st0" d="M198.48,1084.78c0,0,3.31-9.57,8.47-3.13"/>
	<path class="st0" d="M198.3,1088.46c0,0,3.31-9.2,8.1-2.95"/>
	<path class="st0" d="M198.12,1092.15c0,0,3.31-8.84,7.73-2.76"/>
	<path class="st0" d="M197.93,1095.83c0,0,3.31-8.47,7.36-2.58"/>
	<path class="st0" d="M197.75,1099.51c0,0,3.31-8.1,6.99-2.39"/>
	<path class="st0" d="M197.56,1103.19c0,0,3.31-7.73,6.63-2.21"/>
	<path class="st0" d="M197.75,1107.79c0,0,2.76-7.18,6.05-2.3"/>
	<path class="st0" d="M197.93,1112.39c0,0,2.21-6.63,5.48-2.39"/>
	<path class="st0" d="M198.12,1116.99c0,0,1.66-6.07,4.9-2.48"/>
	<path class="st0" d="M198.3,1121.6c0,0,1.1-5.52,4.33-2.58"/>
	<path class="st0" d="M198.48,1126.2c0,0,0.55-4.97,3.75-2.67"/>
	<path class="st0" d="M198.67,1130.8c0,0,0-4.42,3.18-2.76"/>
</g>
<g>
	<line class="st0" x1="382" y1="785.12" x2="346.66" y2="823.77"/>
	<path class="st0" d="M374.76,786.59c0,0-21.28,21.32-21.28,23.35c0,0-11.53,14.11-9.46,14.39"/>
	<path class="st0" d="M367.79,788.06c0,0-20.78,18.83-20.78,22.88c0,0-9.5,13.39-5.36,13.94"/>
	<path class="st0" d="M361.14,789.53c0,0-20.28,16.33-20.28,22.4c0,0-7.47,12.66-1.26,13.49"/>
	<path class="st0" d="M354.83,791.01c0,0-19.78,13.83-19.78,21.93c0,0-5.44,11.94,2.84,13.04"/>
	<path class="st0" d="M348.91,792.48c0,0-19.28,11.33-19.28,21.46c0,0-3.41,11.22,6.94,12.6"/>
	<path class="st0" d="M343.35,793.95c0,0-18.78,8.84-18.78,20.98c0,0-1.38,10.49,11.04,12.15"/>
	<path class="st0" d="M338.01,795.79c0,0-16.78,8.56-16.79,19.88c0,0.51-0.95,9.76,9.98,11.55"/>
	<path class="st0" d="M332.67,797.63c0,0-14.78,8.29-14.8,18.78c-0.01,1.02-0.53,9.02,8.91,10.95"/>
	<path class="st0" d="M327.33,799.47c0,0-12.78,8.02-12.81,17.67c-0.01,1.52-0.1,8.29,7.84,10.35"/>
	<path class="st0" d="M321.99,801.31c0,0-10.79,7.75-10.82,16.57c-0.01,2.03,0.32,7.55,6.77,9.75"/>
	<path class="st0" d="M316.66,803.16c0,0-8.79,7.47-8.83,15.47c-0.02,2.54,0.75,6.82,5.71,9.15"/>
	<path class="st0" d="M311.32,805c0,0-13.81,14.63-2.21,22.92"/>
	<path class="st0" d="M305.61,807.02c0,0-10.16,9.35-6,18c0.58,1.38,2.48,3.25,4.11,4.41"/>
	<path class="st0" d="M299.91,809.05c0,0-10.78,8.58-5.91,17.71c0.47,1.11,3.04,3.26,4.34,4.19"/>
	<path class="st0" d="M294.2,811.07c0,0-11.4,7.82-5.81,17.42c0.35,0.83,3.59,3.27,4.57,3.97"/>
	<path class="st0" d="M288.49,813.1c0,0-12.02,7.05-5.71,17.14c0.23,0.55,4.14,3.29,4.79,3.75"/>
	<path class="st0" d="M282.79,815.12c0,0-12.63,6.29-5.62,16.85c0.12,0.28,4.69,3.3,5.02,3.53"/>
	<path class="st0" d="M277.08,817.14c0,0-13.25,5.52-5.52,16.57l5.25,3.31"/>
	<path class="st0" d="M270.68,818.8c0,0-12.15,5.34-5.71,14.54c0,0,3.64,4.05,5.48,4.79"/>
	<path class="st0" d="M264.3,820.46c0,0-11.04,5.15-5.89,12.52c0,0,2.02,4.79,5.71,6.26"/>
	<path class="st0" d="M257.93,822.11c0,0-9.94,4.97-6.07,10.49c0,0,0.41,5.52,5.94,7.73"/>
	<path class="st0" d="M251.59,823.77c0,0-8.84,4.79-6.26,8.47c0,0-1.2,6.26,6.17,9.2"/>
	<path class="st0" d="M245.43,825.43c0,0-7.73,4.6-6.44,6.44c0,0-2.81,6.99,6.4,10.68"/>
	<path class="st0" d="M239.53,827.08l-6.63,4.42c0,0-4.42,7.73,6.63,12.15"/>
	<path class="st0" d="M231.67,830.21c0,0-6.63,3.68-5.71,5.15c0,0-2.99,6.67,6.21,10.35"/>
	<path class="st0" d="M223.94,833.34c0,0-6.63,2.95-4.79,5.89c0,0-1.56,5.61,5.8,8.56"/>
	<path class="st0" d="M216.46,836.47c0,0-6.63,2.21-3.87,6.63c0,0-0.14,4.56,5.38,6.76"/>
	<path class="st0" d="M209.02,839.6c0,0-6.63,1.47-2.95,7.36c0,0,1.29,3.5,4.97,4.97"/>
	<path class="st0" d="M201.62,842.73c0,0-6.63,0.74-2.02,8.1c0,0,2.72,2.44,4.56,3.18"/>
	<path class="st0" d="M194.25,845.86c0,0-6.63,0-1.1,8.84l4.14,1.38"/>
</g>
<g>
	<path class="st0" d="M20.86,634.92c0,0-21.54,8.28-19.88,54.67c0,0-9.94,4.97,4.97,16.57"/>
	<path class="st0" d="M32.7,638.45c0,0-28.71,13.53-18.78,56.88c0,0-8.84,8.01,12.42,14.91"/>
	<path class="st0" d="M45.56,641.98c0,0-35.89,18.78-17.67,59.09c0,0-7.73,11.04,19.88,13.25"/>
	<path class="st0" d="M55.43,645.37c0,0-43.07,24.02-16.57,61.3c0,0-6.63,14.08,27.33,11.6"/>
	<path class="st0" d="M65.4,648.17c0,0-50.25,29.27-15.46,63.5c0,0-5.52,17.12,34.79,9.94"/>
	<path class="st0" d="M75.41,650.71c0,0-57.43,34.51-14.36,65.71c0,0-4.42,20.16,42.24,8.28"/>
	<path class="st0" d="M85.46,653.14c0,0-64.61,39.76-13.25,67.92c0,0-3.31,23.19,49.7,6.63"/>
	<path class="st0" d="M96.49,648.31c0,0-56.86,38.44-12.32,66.22c0.67,1.67-0.71,22.51,46.01,9.71"/>
	<path class="st0" d="M107.52,643.4c0,0-49.1,37.13-11.4,64.52c1.34,3.33,1.9,21.83,42.32,12.79"/>
	<path class="st0" d="M118.56,638.37c0,0-41.35,35.81-10.47,62.82c2.01,5,4.5,21.15,38.63,15.87"/>
	<path class="st0" d="M129.6,633.09c0,0-33.59,34.5-9.54,61.12c2.68,6.67,7.1,20.47,34.94,18.95"/>
	<path class="st0" d="M140.65,627.41c0,0-25.84,33.18-8.61,59.42c3.35,8.33,9.71,19.78,31.25,22.03"/>
	<path class="st0" d="M151.73,621.66c0,0-34.79,61.3,19.88,82.83"/>
	<path class="st0" d="M156.21,618.87c0,0-19.05,28.64-9.23,53.56c6.17,15.67,18.58,23.17,34.08,29.27"/>
	<path class="st0" d="M160.65,616.08c0,0-22.24,30.48-8.71,56.1c9.9,18.75,26.13,21.85,38.53,26.73"/>
	<path class="st0" d="M165.05,613.28c0,0-25.11,32.16-8.19,58.64c13.87,21.7,33.68,20.53,42.98,24.19"/>
	<path class="st0" d="M169.45,610.49c0,0-27.83,33.69-7.67,61.18c17.99,24.52,41.23,19.21,47.43,21.65"/>
	<path class="st0" d="M173.84,607.4c0,0-30.49,35.11-7.15,63.72c22.21,27.22,48.78,17.89,51.88,19.11"/>
	<path class="st0" d="M178.24,603.44c0,0-33.13,36.45-6.63,66.27s56.33,16.57,56.33,16.57"/>
	<path class="st0" d="M184.85,600.24c0,0-31.2,36.17-5.52,66.27c22.09,24.85,47.49,16.29,51.36,17.39"/>
	<path class="st0" d="M191.47,596.13c0,0-29.27,35.89-4.42,66.27c17.67,19.88,38.65,16.01,46.39,18.22"/>
	<path class="st0" d="M198.09,591.75c0,0-27.33,35.62-3.31,66.27c13.25,14.91,29.82,15.74,41.42,19.05"/>
	<path class="st0" d="M204.72,587.36c0,0-25.4,35.34-2.21,66.27c8.84,9.94,20.98,15.46,36.45,19.88"/>
	<path class="st0" d="M211.35,582.98c0,0-23.47,35.07-1.1,66.27c4.42,4.97,12.15,15.19,31.48,20.71"/>
	<path class="st0" d="M218,578.59c0,0-21.54,34.79,0,66.27c0,0,3.31,14.91,26.51,21.54"/>
	<path class="st0" d="M224.07,574.17c0,0-24.3,37.27,0,68.75c0,0,5.25,13.53,27.89,19.33"/>
	<path class="st0" d="M230.14,569.75c0,0-27.06,39.76,0,71.24c0,0,7.18,12.15,29.27,17.12"/>
	<path class="st0" d="M236.22,565.34c0,0-29.82,42.24,0,73.72c0,0,9.11,10.77,30.65,14.91"/>
	<path class="st0" d="M242.29,560.92c0,0-32.58,44.73,0,76.21c0,0,11.04,9.39,32.03,12.7"/>
	<path class="st0" d="M248.37,556.5c0,0-35.34,47.21,0,78.69c0,0,12.98,8.01,33.41,10.49"/>
	<path class="st0" d="M254.44,552.08c0,0-38.1,49.7,0,81.17c0,0,14.91,6.63,34.79,8.28"/>
	<path class="st0" d="M263.28,547.11c0,0-37.55,45.56-2.48,78.14c0,0,16.29,10.77,37.27,11.87"/>
	<path class="st0" d="M272.11,542.14c0,0-37,41.42-4.97,75.1c0,0,17.67,14.91,39.76,15.46"/>
	<path class="st0" d="M280.95,537.17c0,0-36.45,37.27-7.45,72.06c0,0,19.05,19.05,42.24,19.05"/>
	<path class="st0" d="M289.78,532.2c0,0-35.89,33.13-9.94,69.03c0,0,20.43,23.19,44.73,22.64"/>
	<path class="st0" d="M298.62,527.23c0,0-35.34,28.99-12.42,65.99c0,0,21.81,27.33,47.21,26.23"/>
	<path class="st0" d="M307.45,522.26c0,0-34.79,24.85-14.91,62.95c0,0,23.19,31.48,49.7,29.82"/>
	<path class="st0" d="M319.33,516.74c0,0-34.79,25.4-16.01,63.23c2.21,6.07,25.68,32.03,47.77,30.65"/>
	<path class="st0" d="M331.2,511.22c0,0-34.79,25.95-17.12,63.5c4.42,12.15,28.16,32.58,45.83,31.48"/>
	<path class="st0" d="M343.07,505.7c0,0-34.79,26.51-18.22,63.78c6.63,18.22,30.65,33.13,43.9,32.3"/>
	<path class="st0" d="M354.94,500.18c0,0-34.79,27.06-19.33,64.06c8.84,24.3,33.13,33.68,41.97,33.13"/>
	<path class="st0" d="M366.82,494.65c0,0-34.79,27.61-20.43,64.33c11.04,30.37,35.62,34.24,40.04,33.96"/>
	<path class="st0" d="M378.69,489.13c0,0-34.79,28.16-21.54,64.61c13.25,36.45,38.1,34.79,38.1,34.79"/>
	<path class="st0" d="M407.46,586.05c0,0-34.79-2.76-40.04-44.45c-11.04-30.37,20.16-55.5,22.36-55.77"/>
	<path class="st0" d="M419.67,583.56c0,0-44.73-7.18-41.97-54.12c-8.84-24.3,18.78-46.39,23.19-46.94"/>
	<path class="st0" d="M432.03,581.08c0,0-54.67-11.6-43.9-63.78c-6.63-18.22,17.39-37.27,24.02-38.1"/>
	<path class="st0" d="M445.57,578.59c0,0-64.61-16.01-45.83-73.44c-4.42-12.15,16.01-28.16,24.85-29.27"/>
	<path class="st0" d="M459.29,576.11c0,0-74.55-20.43-47.77-83.11c-2.21-6.07,14.63-19.05,25.68-20.43"/>
	<path class="st0" d="M473.12,573.62c0,0-84.49-24.85-49.7-92.77c0,0,13.25-9.94,26.51-11.6"/>
	<path class="st0" d="M459.78,469.8c-11.04,1.38-30.37,9.94-32.86,14.08c-31.48,60.74,40.86,88.91,46.11,90.29"/>
	<path class="st0" d="M469.64,470.36c-8.84,1.1-34.24,8.28-39.21,16.57c-28.16,53.56,32.03,85.04,42.52,87.8"/>
	<path class="st0" d="M476.22,470.91c-6.63,0.83-38.1,6.63-45.56,19.05c-24.85,46.39,23.19,81.17,38.93,85.32"/>
	<path class="st0" d="M481.17,471.46c-4.42,0.55-41.97,4.97-51.91,21.54c-21.54,39.21,14.36,77.31,35.34,82.83"/>
	<path class="st0" d="M486.19,472.01c-2.21,0.28-45.83,3.31-58.26,24.02c-18.22,32.03,5.52,73.44,31.75,80.35"/>
	<path class="st0" d="M491.34,472.57c0,0-49.7,1.66-64.61,26.51c-14.91,24.85-3.31,69.58,28.16,77.86"/>
	<path class="st0" d="M501.83,474.22c0,0-47.77,3.04-61.85,29.82c-14.08,26.78-2.48,65.99,23.75,72.89"/>
	<path class="st0" d="M512.32,475.88c0,0-45.83,4.42-59.09,33.13s-1.66,62.4,19.33,67.92"/>
	<path class="st0" d="M522.82,477.54c0,0-43.9,5.8-56.33,36.45c-12.42,30.65-0.83,58.81,14.91,62.95"/>
	<path class="st0" d="M533.31,479.19c0,0-41.97,7.18-53.56,39.76c-11.6,32.58,0,55.22,10.49,57.98"/>
	<path class="st0" d="M543.8,480.85c0,0-40.04,8.56-50.8,43.07s0.83,51.63,6.07,53.01"/>
	<path class="st0" d="M554.29,482.51c0,0-38.1,9.94-48.04,46.39s1.66,48.04,1.66,48.04"/>
	<path class="st0" d="M561.47,485.14c0,0-38.38,5.25-50.8,38.65s-3.59,49.97,0.28,54.12"/>
	<path class="st0" d="M568.83,487.78c0,0-38.65,0.55-53.56,30.92c-14.91,30.37-8.84,51.91-1.1,60.19"/>
	<path class="st0" d="M576.31,490.53c0,0-38.93-4.14-56.33,23.19c-17.39,27.33-14.08,53.84-2.48,66.27"/>
	<path class="st0" d="M583.85,493.84c0,0-39.21-8.84-59.09,15.46c-19.88,24.3-19.33,55.77-3.87,72.34"/>
	<path class="st0" d="M591.43,497.82c0,0-39.48-13.53-61.85,7.73c-22.36,21.26-24.57,57.71-5.25,78.41"/>
	<path class="st0" d="M599.02,502.39c0,0-39.76-18.22-64.61,0c-24.85,18.22-29.82,59.64-6.63,84.49"/>
	<path class="st0" d="M607.3,505.87c0,0-39.48-16.01-65.16,4.14c-25.68,20.16-27.61,59.91-8.28,80.62"/>
	<path class="st0" d="M615.58,509.5c0,0-39.21-13.81-65.71,8.28c-26.51,22.09-25.4,60.19-9.94,76.76"/>
	<path class="st0" d="M623.86,513.28c0,0-38.93-11.6-66.27,12.42c-27.33,24.02-23.19,60.47-11.6,72.89"/>
	<path class="st0" d="M632.15,517.22c0,0-38.65-9.39-66.82,16.57c-28.16,25.95-20.98,60.74-13.25,69.03"/>
	<path class="st0" d="M640.43,521.32c0,0-38.38-7.18-67.37,20.71s-18.78,61.02-14.91,65.16"/>
	<path class="st0" d="M648.72,525.58c0,0-38.1-4.97-67.92,24.85s-16.57,61.3-16.57,61.3"/>
	<path class="st0" d="M568.1,616.64c0,0-14.08-37.27,17.12-67.09c31.2-29.82,67.92-19.88,69.58-18.5"/>
	<path class="st0" d="M571.96,622.11c0,0-14.91-43.07,17.67-72.89s67.92-14.91,71.24-12.15"/>
	<path class="st0" d="M575.83,627.92c0,0-15.74-48.87,18.22-78.69c33.96-29.82,67.92-9.94,72.89-5.8"/>
	<path class="st0" d="M579.69,633.97c0,0-16.57-54.67,18.78-84.49s67.92-4.97,74.55,0.55"/>
	<path class="st0" d="M583.56,640.18c0,0-17.39-60.47,19.33-90.29c36.72-29.82,67.92,0,76.2,6.9"/>
	<path class="st0" d="M587.42,646.51c0,0-18.22-66.27,19.88-96.08s67.92,4.97,77.86,13.25"/>
	<path class="st0" d="M695.66,574.17c-8.28-6.9-45.01-41.97-83.11-12.42c-31.75,24.85-21.81,83.38-18.22,91.94"/>
	<path class="st0" d="M706.3,584.66c-6.63-5.52-50.25-40.86-88.35-11.6c-25.4,19.88-23.74,70.68-16.57,87.8"/>
	<path class="st0" d="M717.08,595.15c-4.97-4.14-55.5-39.76-93.6-10.77c-19.05,14.91-25.68,57.98-14.91,83.66"/>
	<path class="st0" d="M727.94,605.65c-3.31-2.76-60.74-38.65-98.85-9.94c-12.7,9.94-27.61,45.28-13.25,79.52"/>
	<path class="st0" d="M739.01,616.14c-1.66-1.38-65.99-37.55-104.09-9.11c-6.35,4.97-29.54,32.58-11.6,75.38"/>
	<path class="st0" d="M749.77,626.63c0,0-71.24-36.45-109.34-8.28c0,0-31.48,19.88-9.94,71.24"/>
	<path class="st0" d="M636.57,700.63c-17.95-42.8,5.52-74.82,23.75-75.65c31.75-23.47,94.7,6.35,98.29,9.94"/>
	<path class="st0" d="M642.64,711.67c-14.36-34.24,1.1-78.41,37.55-80.07c25.4-18.78,80.07,4.42,87.25,11.6"/>
	<path class="st0" d="M648.72,722.72c-10.77-25.68-3.31-82,51.36-84.49c19.05-14.08,65.44,2.48,76.2,13.25"/>
	<path class="st0" d="M654.79,733.76c-7.18-17.12-7.73-85.59,65.16-88.91c12.7-9.39,50.8,0.55,65.16,14.91"/>
	<path class="st0" d="M660.87,744.81c-3.59-8.56-12.15-89.18,78.97-93.32c6.35-4.69,36.17-1.38,54.12,16.57"/>
	<path class="st0" d="M666.94,755.85c0,0-16.57-92.77,92.77-97.74c0,0,21.54-3.31,43.07,18.22"/>
	<path class="st0" d="M669.89,760.54c0,0-16.01-87.8,80.9-95.81c5.8-3.87,30.37-7.45,53.84,14.63"/>
	<path class="st0" d="M672.86,765.44c0,0-15.46-82.83,69.03-93.88c11.6-7.73,39.21-11.6,64.61,11.04"/>
	<path class="st0" d="M675.85,770.44c0,0-14.91-77.86,57.15-91.94c17.39-11.6,48.04-15.74,75.38,7.45"/>
	<path class="st0" d="M678.87,775.48c0,0-14.36-72.89,45.28-90.01c23.19-15.46,56.88-19.88,86.14,3.87"/>
	<path class="st0" d="M682.13,780.7c0,0-13.81-67.92,33.41-88.08c28.99-19.33,65.71-24.02,96.91,0.28"/>
	<path class="st0" d="M685.16,785.67c0,0-13.25-62.95,21.54-86.14s74.55-28.16,107.68-3.31"/>
	<path class="st0" d="M689.58,796.73c0,0-12.7-64.88,23.74-89.46c36.45-24.57,75.65-27.89,105.47-6.07"/>
	<path class="st0" d="M694,807.79c0,0-12.15-66.82,25.95-92.77c38.1-25.95,76.76-27.61,103.26-8.84"/>
	<path class="st0" d="M698.42,818.84c0,0-11.6-68.75,28.16-96.08c39.76-27.33,77.86-27.33,101.05-11.6"/>
	<path class="st0" d="M702.84,829.9c0,0-11.04-70.68,30.37-99.4s78.97-27.06,98.85-14.36"/>
	<path class="st0" d="M707.26,840.96c0,0-10.49-72.62,32.58-102.71c43.07-30.1,80.07-26.78,96.64-17.12"/>
	<path class="st0" d="M711.67,852.02c0,0-9.94-74.55,34.79-106.02s81.17-26.51,94.43-19.88"/>
	<path class="st0" d="M716.63,862.26c0,0-8.79-73.26,39-103.9c33.93-21.75,63.66-23.69,83.62-19.71"/>
	<path class="st0" d="M722.12,863.54c-0.28-19.92,3.3-69.87,43.64-93.32c22.37-13,43.43-17.84,61.88-18.02"/>
	<path class="st0" d="M729.29,856.35c2.96-23.32,13.24-56.78,46.63-74.21c11.58-6.04,23.05-10.01,34.29-12.3"/>
	<path class="st0" d="M746.35,832.28c7.62-14.79,19.93-29.03,39.76-38.17c0.8-0.37,1.6-0.73,2.4-1.08"/>
</g>
<g>
	<path class="st0" d="M1094.44,1463.91c0,0-5.53,13.02,7.56,4.71"/>
	<path class="st0" d="M1100.36,1458.21c0,0-5.27,13.5,8.07,5.27"/>
	<path class="st0" d="M1106.28,1452.51c0,0-5.01,13.99,8.58,5.83"/>
	<path class="st0" d="M1112.2,1446.81c0,0-4.75,14.48,9.09,6.39"/>
	<path class="st0" d="M1118.12,1441.11c0,0-4.48,14.96,9.6,6.95"/>
	<path class="st0" d="M1124.04,1435.41c0,0-4.22,15.45,10.11,7.52"/>
	<path class="st0" d="M1129.97,1429.71c0,0-3.96,15.93,10.62,8.08"/>
	<path class="st0" d="M1133.7,1422.87c0,0-2.8,16.15,11.26,7.32"/>
	<path class="st0" d="M1137.48,1416.02c0,0-1.64,16.36,11.89,6.55"/>
	<path class="st0" d="M1141.32,1409.15c0,0-0.48,16.57,12.53,5.79"/>
	<path class="st0" d="M1145.19,1402.27c0,0,0.68,16.78,13.17,5.03"/>
	<path class="st0" d="M1149.09,1395.36c0,0,1.84,16.99,13.8,4.27"/>
	<path class="st0" d="M1152.92,1388.49c0,0,3,17.2,14.44,3.51"/>
	<path class="st0" d="M1154.33,1386.06c0,0,2.76,17.54,14.03,3.52"/>
	<path class="st0" d="M1155.74,1383.63c0,0,2.52,17.88,13.61,3.54"/>
	<path class="st0" d="M1157.14,1381.2c0,0,2.29,18.21,13.2,3.55"/>
	<path class="st0" d="M1158.55,1378.77c0,0,2.05,18.55,12.79,3.56"/>
	<path class="st0" d="M1159.96,1376.34c0,0,1.81,18.89,12.38,3.57"/>
	<path class="st0" d="M1161.37,1373.91c0,0,1.58,19.22,11.97,3.59"/>
	<path class="st0" d="M1164.84,1366.39c0,0,1.87,18.23,12.47,3.74"/>
	<path class="st0" d="M1168.32,1358.87c0,0,2.17,17.23,12.97,3.89"/>
	<path class="st0" d="M1171.8,1351.35c0,0,2.47,16.23,13.47,4.04"/>
	<path class="st0" d="M1175.27,1343.83c0,0,2.77,15.23,13.96,4.19"/>
	<path class="st0" d="M1178.75,1336.31c0,0,3.07,14.24,14.46,4.33"/>
	<path class="st0" d="M1182.23,1328.8c0,0,3.37,13.24,14.96,4.48"/>
	<path class="st0" d="M1185.41,1324.35c0,0,1.99,13.78,14.58,5.32"/>
	<path class="st0" d="M1188.6,1319.89c0,0,0.6,14.31,14.19,6.16"/>
	<path class="st0" d="M1191.79,1315.43c0,0-0.78,14.85,13.8,6.99"/>
	<path class="st0" d="M1195.03,1310.97c0,0-2.17,15.38,13.42,7.83"/>
	<path class="st0" d="M1198.32,1306.49c0,0-3.55,15.92,13.03,8.66"/>
	<path class="st0" d="M1201.67,1302.01c0,0-4.93,16.46,12.64,9.5"/>
	<path class="st0" d="M1208.73,1293.4c0,0-5.87,18.22,13.35,11.2"/>
	<path class="st0" d="M1215.8,1284.78c0,0-6.8,19.97,14.07,12.91"/>
	<path class="st0" d="M1222.87,1276.16c0,0-7.74,21.73,14.78,14.62"/>
	<path class="st0" d="M1229.93,1267.55c0,0-8.67,23.49,15.49,16.33"/>
	<path class="st0" d="M1237,1258.93c0,0-9.61,25.25,16.2,18.04"/>
	<path class="st0" d="M1244.07,1250.31c0,0-10.54,27.01,16.91,19.74"/>
	<path class="st0" d="M1250.22,1245.6c0,0-12.19,27.06,16.37,21.08"/>
	<path class="st0" d="M1256.39,1240.85c0,0-13.83,27.11,15.84,22.41"/>
	<path class="st0" d="M1262.59,1236.07c0,0-15.48,27.16,15.3,23.75"/>
	<path class="st0" d="M1268.79,1231.26c0,0-17.12,27.21,14.77,25.08"/>
	<path class="st0" d="M1275.01,1226.4c0,0-18.77,27.26,14.23,26.41"/>
	<path class="st0" d="M1281.24,1221.51c0,0-20.41,27.31,13.7,27.75"/>
	<path class="st0" d="M1286.4,1219.18c0,0-11.99,14.7-4.38,23.28c2.33,2.36,7.28,5.54,17.27,4.9"/>
	<path class="st0" d="M1291.59,1216.81c0,0-12.87,14.53-5.52,23.73c1.87,1.89,6.58,6.29,17.6,4.89"/>
	<path class="st0" d="M1296.78,1214.42c0,0-13.75,14.35-6.67,24.17c1.4,1.42,5.87,7.03,17.93,4.88"/>
	<path class="st0" d="M1302.03,1211.98c0,0-14.62,14.18-7.81,24.62c0.93,0.94,5.16,7.78,18.26,4.87"/>
	<path class="st0" d="M1307.23,1209.6c0,0-15.5,14.01-8.95,25.06c0.47,0.47,4.45,8.53,18.59,4.87"/>
	<path class="st0" d="M1312.43,1207.21c0,0-16.38,13.84-10.09,25.51c0,0,3.74,9.27,18.93,4.86"/>
	<path class="st0" d="M1320.44,1202.69c0,0-15.99,13.01-8.94,25.31c1.81,2.58,5.61,11.19,20.95,6.28"/>
	<path class="st0" d="M1328.38,1198.2c0,0-15.61,12.17-7.8,25.11c3.62,5.16,7.48,13.11,22.97,7.7"/>
	<path class="st0" d="M1336.39,1193.67c0,0-15.22,11.34-6.65,24.91c5.42,7.74,9.35,15.03,24.99,9.12"/>
	<path class="st0" d="M1344.42,1189.14c0,0-14.83,10.5-5.5,24.71c7.23,10.32,11.22,16.95,27.01,10.54"/>
	<path class="st0" d="M1352.5,1184.58c0,0-14.45,9.67-4.36,24.51c9.04,12.9,13.09,18.87,29.03,11.96"/>
	<path class="st0" d="M1360.52,1180.05c0,0-14.06,8.83-3.21,24.31c10.85,15.48,14.97,20.79,31.05,13.38"/>
	<path class="st0" d="M1363.25,1177.27c0,0-11.81,9.51-1.78,24.09c9.82,14.22,14.68,19.68,30.75,12.99"/>
	<path class="st0" d="M1366.01,1174.48c0,0-9.55,10.19-0.34,23.88c8.78,12.96,14.4,18.56,30.44,12.59"/>
	<path class="st0" d="M1368.8,1171.68c0,0-7.33,10.89,1.09,23.66c7.72,11.72,14.12,17.45,30.14,12.2"/>
	<path class="st0" d="M1371.64,1168.87c0,0-5.07,11.57,2.53,23.45c6.69,10.45,13.84,16.33,29.84,11.8"/>
	<path class="st0" d="M1374.58,1166.05c0,0-2.79,12.23,3.96,23.23c5.68,9.18,13.56,15.22,29.54,11.41"/>
	<path class="st0" d="M1377.79,1163.21c0,0-1.71,41.07,34.64,34.03"/>
	<path class="st0" d="M1375.73,1164.63c0,0,3.54,33.21,39.13,25.82"/>
	<path class="st0" d="M1378.21,1162.64c0,0,8.8,25.35,43.62,17.62"/>
	<path class="st0" d="M1380.69,1160.51c0,0,14.05,17.5,48.11,9.42"/>
	<path class="st0" d="M1383.17,1158.06c0,0,19.31,9.64,52.59,1.22"/>
	<path class="st0" d="M1385.65,1157.92c0,0,24.56,1.78,57.08-6.98"/>
	<path class="st0" d="M1388.13,1156.2c0,0,29.82-6.07,61.57-15.19"/>
</g>
</svg>
