<?xml version="1.0" encoding="utf-8"?>
<!-- Generator: Adobe Illustrator 23.0.6, SVG Export Plug-In . SVG Version: 6.00 Build 0)  -->
<svg version="1.1" id="Layer_1" xmlns="http://www.w3.org/2000/svg" xmlns:xlink="http://www.w3.org/1999/xlink" x="0px" y="0px"
	 viewBox="0 0 768 403.09" style="enable-background:new 0 0 768 403.09;" xml:space="preserve">
<style type="text/css">
	.st0{fill:none;stroke:#808285;stroke-width:0.3;stroke-miterlimit:10;}
</style>
<g>
	<path class="st0" d="M169.63,536.82c0,0-10.21,23.33,56.87,52.49c67.07,29.16,75.82-4.37,75.82-4.37"/>
	<path class="st0" d="M174.9,523.47c0,0-13.12,22.84,59.05,54.92c55.89,24.3,69.02,0.24,73.39-3.4"/>
	<path class="st0" d="M180.22,510.04c0,0-16.04,22.36,61.24,57.35c44.72,19.44,62.21,4.86,70.96-2.43"/>
	<path class="st0" d="M185.56,496.45c0,0-18.96,21.87,63.43,59.78c33.54,14.58,55.41,9.48,68.53-1.46"/>
	<path class="st0" d="M190.92,482.54c0,0-21.87,21.39,65.62,62.21c22.36,9.72,48.6,14.1,66.1-0.49"/>
	<path class="st0" d="M196.31,468.25c0,0-24.79,20.9,67.8,64.64c11.18,4.86,41.8,18.71,63.67,0.49"/>
	<path class="st0" d="M201.7,453.71c0,0-27.7,20.41,69.99,67.07c0,0,34.99,23.33,61.24,1.46"/>
	<path class="st0" d="M207.77,443.51c0.73,0.24-17.5,14.34,72.42,63.43c0,0,32.81,23.09,54.92,9.72"/>
	<path class="st0" d="M214.59,432.46c1.46,0.49-7.29,8.26,74.85,59.78c0,0,30.62,22.84,48.6,17.98"/>
	<path class="st0" d="M221.94,420.01c2.19,0.73,2.92,2.19,77.28,56.14c0,0,28.43,22.6,42.29,26.25"/>
	<path class="st0" d="M229.29,407.22c2.92,0.97,13.12-3.89,79.71,52.49c0,0,26.25,22.36,35.97,34.51"/>
	<path class="st0" d="M236.64,394.49c3.65,1.22,23.33-9.96,82.14,48.85c0,0,24.06,22.11,29.65,42.77"/>
	<path class="st0" d="M243.99,382.26c4.37,1.46,33.54-16.04,84.57,45.2c0,0,21.87,21.87,23.33,51.03"/>
	<path class="st0" d="M253.28,373.68c2.78,0.93,22.92-15.36,56.92,10.61c8.01,5.81,23.15,18.11,33.48,37.02
		c0,0,18.96,22.36,15.55,50.79"/>
	<path class="st0" d="M261.8,365.33c2.22,0.74,24.76-21.91,61.87,7.61c6.4,4.65,25.81,19.16,34.37,42.45c0,0,16.04,22.84,7.78,50.55
		"/>
	<path class="st0" d="M269.57,357.09c1.67,0.56,26.59-28.46,66.82,4.61c4.8,3.49,28.47,20.2,35.25,47.88c0,0,13.12,23.33,0,50.31"/>
	<path class="st0" d="M276.65,348.92c1.11,0.37,28.42-35.01,71.76,1.62c3.2,2.32,31.13,21.24,36.14,53.3c0,0,10.21,23.82-7.78,50.06
		"/>
	<path class="st0" d="M283.15,340.79c0.56,0.19,30.25-41.57,76.71-1.38c1.6,1.16,33.79,22.29,37.02,58.73c0,0,7.29,24.3-15.55,49.82
		"/>
	<path class="st0" d="M289.19,332.68c0,0,32.08-48.12,81.65-4.37c0,0,36.45,23.33,37.91,64.16c0,0,4.37,24.79-23.33,49.58"/>
	<path class="st0" d="M297.21,324.91c0,0,37.18-49.33,84.81-4.62c3.83,5.01,35.27,28.93,34.83,67.38c-1.08,2.87,0.35,26.38-26.08,50
		"/>
	<path class="st0" d="M305.03,317.13c0,0,42.29-50.55,87.97-4.86c7.67,10.03,34.09,34.53,31.74,70.61
		c-2.15,5.74-3.67,27.96-28.83,50.41"/>
	<path class="st0" d="M312.72,309.35c0,0,47.39-51.76,91.13-5.1c11.5,15.04,32.91,40.14,28.66,73.84
		c-3.23,8.61-7.69,29.55-31.58,50.83"/>
	<path class="st0" d="M320.22,301.58c0,0,52.49-52.98,94.29-5.35c15.34,20.05,31.73,45.74,25.58,77.06
		c-4.3,11.48-11.71,31.14-34.33,51.25"/>
	<path class="st0" d="M327.47,293.8c0,0,57.6-54.19,97.45-5.59c19.17,25.07,30.55,51.34,22.49,80.29
		c-5.38,14.35-15.73,32.73-37.07,51.67"/>
	<path class="st0" d="M334.39,286.02c0,0,62.7-55.41,100.61-5.83s30.62,90.4-20.41,135.61"/>
	<path class="st0" d="M341.81,281.01c0,0,61.24-51.28,99.4-1.7c24.73,32.34,32.7,67.99,5.77,104.66c-5.78,7.95-15.73,17.9-27.4,27.3
		"/>
	<path class="st0" d="M349.17,276.05c0,0,59.78-47.15,98.18,2.43c19.79,25.87,33.74,63.73,4.91,102.69
		c-4.63,6.36-15.5,16.65-27.75,25.63"/>
	<path class="st0" d="M356.48,271.15c0,0,58.32-43.01,96.96,6.56c14.84,19.4,34.78,59.46,4.04,100.71
		c-3.47,4.77-15.27,15.41-28.1,23.96"/>
	<path class="st0" d="M363.74,266.31c0,0,56.87-38.88,95.75,10.69c9.89,12.94,35.83,55.19,3.18,98.73
		c-2.31,3.18-15.04,14.16-28.46,22.29"/>
	<path class="st0" d="M370.96,261.54c0,0,55.41-34.75,94.53,14.82c4.95,6.47,36.87,50.93,2.32,96.75
		c-1.16,1.59-14.81,12.91-28.81,20.62"/>
	<path class="st0" d="M378.14,256.86c0,0,53.95-30.62,93.32,18.96c0,0,37.91,46.66,1.46,94.78c0,0-14.58,11.66-29.16,18.96"/>
	<path class="st0" d="M391.2,253.22c0,0,54.92-26.98,91.38,21.87c2.88,5.96,33.56,53.23-3.7,96.58
		c-1.82,0.86-16.21,11.08-31.05,17.15"/>
	<path class="st0" d="M404.01,249.65c0,0,55.89-23.33,89.43,24.79c5.77,11.92,29.21,59.81-8.86,98.38
		c-3.64,1.72-17.83,10.49-32.94,15.35"/>
	<path class="st0" d="M416.54,246.17c0,0,56.87-19.68,87.49,27.7c8.65,17.88,24.85,66.38-14.02,100.18
		c-5.46,2.58-19.46,9.91-34.82,13.55"/>
	<path class="st0" d="M428.76,242.8c0,0,57.84-16.04,85.54,30.62c11.53,23.83,20.5,72.95-19.18,101.98
		c-7.28,3.43-21.08,9.32-36.71,11.75"/>
	<path class="st0" d="M440.73,239.55c0,0,58.81-12.39,83.6,33.54c14.42,29.79,16.15,79.53-24.34,103.79
		c-9.1,4.29-22.71,8.73-38.6,9.95"/>
	<path class="st0" d="M452.5,236.45c0,0,59.78-8.75,81.65,36.45c21.87,45.2,7.29,113.73-69.99,113.73"/>
	<path class="st0" d="M463.46,235.96c0,0,57.98-8.7,80.44,35.97c16.69,33.2,11.43,76.76-16.58,97.64
		c-14.31,10.66-35.35,16.34-55.11,16.34"/>
	<path class="st0" d="M474.41,235.47c0,0,56.23-8.67,79.22,35.48c18.25,35.05,9.89,79.44-17.35,98.23
		c-16,11.04-40.24,15.99-56.04,15.99"/>
	<path class="st0" d="M485.36,234.98c0,0,54.52-8.66,78.01,34.99c19.84,36.88,8.23,81.99-18.12,98.83
		c-17.75,11.34-45.13,15.64-56.98,15.64"/>
	<path class="st0" d="M496.29,234.49c0,0,52.85-8.68,76.79,34.51c21.46,38.7,6.5,84.41-18.88,99.42
		c-19.56,11.57-50.01,15.28-57.91,15.28"/>
	<path class="st0" d="M508.65,234.02c0,0,51.28-8.75,75.58,34.02c23.18,40.46,4.72,86.72-19.65,100.02
		c-21.42,11.68-54.9,14.93-58.85,14.93"/>
	<path class="st0" d="M521.03,233.53c0,0,49.58-8.75,74.36,33.54s2.92,88.95-20.41,100.61c-23.33,11.66-59.78,14.58-59.78,14.58"/>
	<path class="st0" d="M517.99,233.08c0,0,46.17-9.48,72.42,28.43c26.25,37.91,11.66,84.81-11.42,100.61
		c-19.44,9.72-51.28,17.01-57.6,18.71"/>
	<path class="st0" d="M517.43,232.68c0,0,42.77-10.21,70.48,23.33c27.7,33.54,20.41,80.68-2.43,100.61
		c-15.55,7.78-42.77,19.44-55.41,22.84"/>
	<path class="st0" d="M516.4,232.35c0,0,39.37-10.94,68.53,18.23c29.16,29.16,29.16,76.55,6.56,100.61
		c-11.66,5.83-34.27,21.87-53.22,26.98"/>
	<path class="st0" d="M514.91,232.12c0,0,35.97-11.66,66.59,13.12c30.62,24.79,37.91,72.42,15.55,100.61
		c-7.78,3.89-25.76,24.3-51.03,31.11"/>
	<path class="st0" d="M513.02,232.01c0,0,32.56-12.39,64.64,8.02s46.66,68.29,24.54,100.61c-3.89,1.94-17.25,26.73-48.85,35.24"/>
	<path class="st0" d="M510.83,232.07c0,0,29.16-13.12,62.7,2.92s55.41,64.16,33.54,100.61c0,0-8.75,29.16-46.66,39.37"/>
	<path class="st0" d="M519.14,229.95c0,0,28.49-12.38,60.96,1.13c18.9,7.86,34.73,25.11,41.45,46.04c5.11,15.9,4.79,32.9-2.86,48.04
		c0.23,3.1-8.1,30.32-40.99,41.13"/>
	<path class="st0" d="M527.29,227.86c0,0,27.84-11.67,59.23-0.67c18.64,6.53,34.95,21.42,42.83,41.32
		c6.07,15.34,6.75,31.58,0.82,46.23c0.47,6.21-7.45,31.47-35.32,42.89"/>
	<path class="st0" d="M535.26,225.83c0,0,27.21-10.99,57.5-2.46c18.39,5.18,35.2,17.71,44.2,36.59c7.05,14.77,8.71,30.25,4.51,44.42
		c0.7,9.31-6.8,32.62-29.65,44.65"/>
	<path class="st0" d="M543.01,223.88c0,0,26.59-10.37,55.76-4.25c18.16,3.81,35.46,14,45.57,31.86c8.04,14.2,10.67,28.93,8.19,42.62
		c0.94,12.41-6.15,33.77-23.98,46.42"/>
	<path class="st0" d="M550.46,222.05c0,0,25.99-9.79,54.03-6.04c17.92,2.4,35.75,10.27,46.94,27.14
		c9.04,13.62,12.64,27.61,11.87,40.81c1.17,15.52-5.5,34.93-18.31,48.18"/>
	<path class="st0" d="M557.49,220.41c0,0,69.66-25.47,100.61,14.58c24.79,32.08,16.04,65.62,2.92,88.95"/>
	<path class="st0" d="M560.85,218.95c0,0,66.84-27.19,98.91,14.82c22.74,29.6,18.71,63.67,4.13,88.22"/>
	<path class="st0" d="M564.14,217.47c0,0,63.9-28.82,97.21,15.07c20.63,27.18,21.39,61.73,5.35,87.49"/>
	<path class="st0" d="M567.33,216.01c0,0,61.05-30.51,95.51,15.31c18.58,24.71,24.06,59.78,6.56,86.76"/>
	<path class="st0" d="M570.43,214.55c0,0,58.23-32.23,93.81,15.55c16.55,22.23,26.73,57.84,7.78,86.03"/>
	<path class="st0" d="M573.46,213.1c0,0,55.45-33.98,92.1,15.8c14.53,19.73,29.41,55.89,8.99,85.3"/>
	<path class="st0" d="M576.44,211.66c0,0,52.73-35.77,90.4,16.04c12.52,17.22,32.08,53.95,10.21,84.57"/>
	<path class="st0" d="M586.25,202.03c0,0,47.83-32,87.24,18.23c13.11,17.51,32.32,52.49,12.64,81.9"/>
	<path class="st0" d="M596.03,192.44c0,0,42.93-28.22,84.08,20.41c13.7,17.8,32.56,51.03,15.07,79.22"/>
	<path class="st0" d="M605.78,182.91c0,0,38.03-24.45,80.93,22.6c14.28,18.09,32.81,49.58,17.5,76.55"/>
	<path class="st0" d="M615.49,173.44c0,0,33.13-20.67,77.77,24.79c14.87,18.38,33.05,48.12,19.93,73.88"/>
	<path class="st0" d="M625.15,164.06c0,0,28.23-16.9,74.61,26.98c15.45,18.67,33.29,46.66,22.36,71.2"/>
	<path class="st0" d="M634.77,154.79c0,0,23.33-13.12,71.45,29.16c16.04,18.96,33.54,45.2,24.79,68.53"/>
	<path class="st0" d="M644.85,142.68c0,0,26-10.69,72.66,31.84c13.37,15.8,32.32,43.74,24.79,68.53"/>
	<path class="st0" d="M654.89,130.65c0,0,28.68-8.26,73.88,34.51c10.69,12.64,31.11,42.29,24.79,68.53"/>
	<path class="st0" d="M664.87,118.72c0,0,31.35-5.83,75.09,37.18c8.02,9.48,29.89,40.83,24.79,68.53"/>
	<path class="st0" d="M674.81,106.87c0,0,34.02-3.4,76.31,39.86c5.35,6.32,28.68,39.37,24.79,68.53"/>
	<path class="st0" d="M684.7,95.09c0,0,36.7-0.97,77.52,42.53c2.67,3.16,27.46,37.91,24.79,68.53"/>
	<path class="st0" d="M694.55,83.34c0,0,39.37,1.46,78.74,45.2c0,0,26.25,36.45,24.79,68.53"/>
	<path class="st0" d="M691.2,86.67c0,0,42.53-4.62,83.6,37.18c8.26,5.35,26.98,42.53,25.76,69.26"/>
	<path class="st0" d="M687.84,90.49c0,0,45.69-10.69,88.46,29.16c16.53,10.69,27.7,48.6,26.73,69.99"/>
	<path class="st0" d="M684.48,94.93c0,0,48.85-16.77,93.32,21.14c24.79,16.04,28.43,54.68,27.7,70.72"/>
	<path class="st0" d="M680.97,99.9c0,0,52.01-22.84,98.18,13.12c33.05,21.39,29.16,60.75,28.68,71.45"/>
	<path class="st0" d="M677,105.31c0,0,55.17-28.92,103.04,5.1c41.31,26.73,29.89,66.83,29.65,72.18"/>
	<path class="st0" d="M672.68,111.05c0,0,58.32-34.99,107.9-2.92s30.62,72.91,30.62,72.91"/>
	<path class="st0" d="M683.59,98.48c0,0,58.11-31.27,105.21,2.37c42.45,30.32,28.41,67.46,28.33,73.33"/>
	<path class="st0" d="M694.4,86.09c0,0,57.89-27.78,102.52,7.66c35.49,28.19,26.2,62.02,26.04,73.75"/>
	<path class="st0" d="M705.07,73.92c0,0,57.79-24.6,99.83,12.94c28.75,25.68,23.99,56.58,23.75,74.18"/>
	<path class="st0" d="M715.52,61.98c0,0,57.97-21.84,97.14,18.23c22.29,22.8,21.79,51.14,21.45,74.6"/>
	<path class="st0" d="M725.82,50.29c0,0,58.82-19.68,94.45,23.52c16.17,19.61,19.58,45.7,19.16,75.03"/>
	<path class="st0" d="M736.1,38.87c0,0,110.57-33.29,108.63,104.26"/>
	<path class="st0" d="M737.91,36.8c0,0,113.73-33.17,108.87,105.11"/>
	<path class="st0" d="M739.66,34.74c0,0,116.89-33.05,109.12,105.96"/>
	<path class="st0" d="M741.37,32.67c0,0,120.05-32.93,109.36,106.81"/>
	<path class="st0" d="M743.05,30.61c0,0,123.21-32.81,109.6,107.66"/>
	<path class="st0" d="M744.7,28.54c0,0,126.37-32.69,109.84,108.51"/>
	<path class="st0" d="M746.31,26.48c0,0,129.53-32.56,110.09,109.36"/>
	<path class="st0" d="M755.99,16.84c0,0,80.73-17.32,104.34,41.5c8.63,21.5,5.56,44.22,1.98,70.29"/>
	<path class="st0" d="M765.6,7.83c0,0,82.32-14.65,104.47,44.28c9.96,26.51,0.95,49.08-1.91,69.94"/>
	<path class="st0" d="M774.92-1.12c0,0,83.66-11.89,104.6,47.06c11.2,31.55-3.67,53.94-5.81,69.59"/>
	<path class="st0" d="M784.13-9.98c0,0,84.86-9.08,104.73,49.84c12.35,36.62-8.28,58.81-9.7,69.24"/>
	<path class="st0" d="M793.3-18.77c0,0,85.97-6.25,104.86,52.63c13.39,41.72-12.89,63.67-13.6,68.88"/>
	<path class="st0" d="M802.45-27.47c0,0,87-3.4,104.98,55.41c14.33,46.85-17.5,68.53-17.5,68.53"/>
</g>
<g>
	<path class="st0" d="M680.53,407.45c0,0-14.13-22.6-1.88-40.5c12.24-17.89,41.44-10.36,45.21,10.36"/>
	<path class="st0" d="M681.41,409.37c0,0-14.13-23.39-0.31-39.71c13.81-16.32,39.55-7.69,42.69,12.24"/>
	<path class="st0" d="M682.32,411.33c0,0-14.13-24.17,1.26-38.93c15.38-14.75,37.67-5.02,40.18,14.13"/>
	<path class="st0" d="M683.26,413.33c0,0-14.13-24.96,2.83-38.14c16.95-13.18,35.79-2.35,37.67,16.01"/>
	<path class="st0" d="M684.22,415.39c0,0-14.13-25.74,4.39-37.36c18.52-11.62,33.9,0.31,35.16,17.89"/>
	<path class="st0" d="M685.19,417.51c0,0-14.13-26.53,5.96-36.57c20.09-10.05,32.02,2.98,32.65,19.78"/>
	<path class="st0" d="M686.18,419.69c0,0-14.13-27.31,7.53-35.79c21.66-8.48,30.14,5.65,30.14,21.66"/>
	<path class="st0" d="M686.87,422.49c0,0-12.71-25.59,8.32-33.28c21.03-7.69,29.82,6.12,28.72,22.13"/>
	<path class="st0" d="M687.52,425.3c0,0-11.3-23.86,9.1-30.76c20.41-6.91,29.51,6.59,27.31,22.6"/>
	<path class="st0" d="M688.13,428.12c0,0-9.89-22.13,9.89-28.25c19.78-6.12,29.2,7.06,25.9,23.07"/>
	<path class="st0" d="M688.73,430.95c0,0-8.48-20.41,10.67-25.74c19.15-5.34,28.88,7.53,24.49,23.54"/>
	<path class="st0" d="M689.33,433.4c0,0-7.06-18.68,11.46-23.23c18.52-4.55,28.57,8.01,23.07,24.02"/>
	<path class="st0" d="M689.94,434.76c0,0-5.65-16.95,12.24-20.72c17.89-3.77,28.25,8.48,21.66,24.49"/>
	<path class="st0" d="M690.15,440.49c0,0-4.67-16.76,13.54-19.11c14.91-3.14,25.74,7.02,20.37,23.98"/>
	<path class="st0" d="M690.35,446.22c0,0-3.69-16.56,14.83-17.5c11.93-2.51,23.23,5.57,19.07,23.47"/>
	<path class="st0" d="M690.54,451.96c0,0-2.71-16.36,16.13-15.89c8.95-1.88,20.72,4.12,17.78,22.96"/>
	<path class="st0" d="M690.7,457.69c0,0-1.73-16.17,17.42-14.28c5.96-1.26,18.21,2.67,16.48,22.45"/>
	<path class="st0" d="M690.82,463.6c0,0-0.75-15.97,18.72-12.67c2.98-0.63,15.7,1.22,15.19,21.94"/>
	<path class="st0" d="M690.89,469.6c0,0,0.24-15.77,20.01-11.07c0,0,13.18-0.24,13.89,21.43"/>
</g>
<g>
	<path class="st0" d="M687.12,476.2c2.83-0.94,9.42-14.13,20.72-3.77c0,0,6.59,13.18-0.94,19.78"/>
	<path class="st0" d="M684.35,480.51c2.35-0.78,8.63-13.18,18.84-4.39c0.78,0.16,7.38,11.62,0.63,18.52"/>
	<path class="st0" d="M681.56,484.84c1.88-0.63,7.85-12.24,16.95-5.02c1.57,0.31,8.16,10.05,2.2,17.27"/>
	<path class="st0" d="M678.75,489.19c1.41-0.47,7.06-11.3,15.07-5.65c2.35,0.47,8.95,8.48,3.77,16.01"/>
	<path class="st0" d="M675.91,493.58c0.94-0.31,6.28-10.36,13.18-6.28c3.14,0.63,9.73,6.91,5.34,14.75"/>
	<path class="st0" d="M673.05,498.03c0.47-0.16,5.49-9.42,11.3-6.91c3.92,0.78,10.52,5.34,6.91,13.5"/>
	<path class="st0" d="M670.17,502.57c0,0,4.71-8.48,9.42-7.53s11.3,3.77,8.48,12.24"/>
	<path class="st0" d="M668.28,506.65c0,0,3.3-8.95,9.73-7.38c3.92,0.78,10.52,3.3,8.32,11.62"/>
	<path class="st0" d="M666.4,510.73c0,0,1.88-9.42,10.05-7.22c3.14,0.63,9.73,2.83,8.16,10.99"/>
	<path class="st0" d="M664.54,514.76c0,0,0.47-9.89,10.36-7.06c2.35,0.47,8.95,2.35,8.01,10.36"/>
	<path class="st0" d="M662.63,518.89c0,0-0.94-10.36,10.67-6.91c1.57,0.31,8.16,1.88,7.85,9.73"/>
	<path class="st0" d="M660.75,522.97c0,0-2.35-10.83,10.99-6.75c0.78,0.16,7.38,1.41,7.69,9.1"/>
	<path class="st0" d="M658.87,527.05c0,0-3.77-11.3,11.3-6.59c0,0,6.59,0.94,7.53,8.48"/>
</g>
<g>
	<path class="st0" d="M709.72,491.03c0,0,4.71-18.84,15.07-10.36l5.65,10.6"/>
	<path class="st0" d="M710.98,493.03c0,0,4.51-17.07,14.32-9.81c0.31,0.05,5.38,9.04,5.77,9.38"/>
	<path class="st0" d="M712.23,494.88c0,0,4.31-15.29,13.57-9.25c0.63,0.1,5.1,7.49,5.9,8.16"/>
	<path class="st0" d="M713.49,496.8c0,0,4.11-13.52,12.81-8.7c0.94,0.16,4.83,5.94,6.02,6.94"/>
	<path class="st0" d="M714.74,498.72c0,0,3.92-11.75,12.06-8.15c1.25,0.21,4.56,4.39,6.15,5.72"/>
	<path class="st0" d="M716,500.64c0,0,3.72-9.98,11.31-7.6c1.57,0.26,4.28,2.84,6.27,4.5"/>
	<path class="st0" d="M717.26,502.57c0,0,5.65-13.18,16.95-3.77"/>
	<path class="st0" d="M718.78,507.28c0,0,1.8-7.59,9.78-7.69c1.97,0.33,5.04,0.47,8.11,3.92"/>
	<path class="st0" d="M720.29,511.98c0,0,0.49-7.96,10.27-8.23c1.76,0.64,5.35,0,8.56,4.46"/>
	<path class="st0" d="M721.82,516.69c0,0-0.81-8.32,10.77-8.76c1.56,0.95,5.66-0.47,9.01,4.99"/>
	<path class="st0" d="M723.39,521.4c0,0-2.11-8.69,11.26-9.29c1.35,1.26,5.97-0.94,9.46,5.53"/>
	<path class="st0" d="M725.02,526.11c0,0-3.41-9.05,11.75-9.83c1.15,1.57,6.28-1.41,9.91,6.06"/>
	<path class="st0" d="M726.67,530.82c0,0-4.71-9.42,12.24-10.36c0.94,1.88,6.59-1.88,10.36,6.59"/>
</g>
<g>
	<path class="st0" d="M49.53,497.15c0,0-29.67,21.19-4.24,52.27"/>
	<path class="st0" d="M53.53,494.17c0,0-26.61,26.37,7.65,50.86"/>
	<path class="st0" d="M56.04,491.19c0,0-23.54,31.55,19.54,49.44"/>
	<path class="st0" d="M59.05,488.2c0,0-20.48,36.73,31.43,48.03"/>
	<path class="st0" d="M62.44,485.22c0,0-17.42,41.91,43.32,46.62"/>
	<path class="st0" d="M66.12,482.21c0,0-14.36,47.09,55.21,45.21"/>
	<path class="st0" d="M70.01,478.79c0,0-11.3,52.27,67.1,43.79"/>
	<path class="st0" d="M71.75,477.04c0,0-8.29,27.05,16.59,42.01c11.25,6.77,28.46,7.19,45.8,5.31"/>
	<path class="st0" d="M73.75,475.24c0,0-10.81,26.94,11.44,44.2c12.43,9.64,32.38,8.15,46.25,6.65"/>
	<path class="st0" d="M76.07,473.38c0,0-13.69,27.39,6.28,46.4c13.44,12.78,36.29,9.12,46.69,7.99"/>
	<path class="st0" d="M78.73,471.45c0,0-16.89,28.1,1.13,48.59c14.2,16.14,40.2,10.08,47.14,9.33"/>
	<path class="st0" d="M81.67,469.49c0,0-20.35,28.9-4.03,50.78c14.67,19.67,44.12,11.04,47.58,10.67"/>
	<path class="st0" d="M84.85,467.49c0,0-24.02,29.67-9.18,52.98s48.03,12.01,48.03,12.01"/>
	<path class="st0" d="M89.94,463.29c0,0-22.13,30.25-6.95,52.62c15.19,22.37,44.5,12.95,46.5,12.13"/>
	<path class="st0" d="M95.06,459.08c0,0-20.25,30.84-4.71,52.27s40.97,13.89,44.97,12.24"/>
	<path class="st0" d="M100.21,454.85c0,0-18.36,31.43-2.47,51.92c15.89,20.48,37.44,14.83,43.44,12.36"/>
	<path class="st0" d="M105.4,450.6c0,0-16.48,32.02-0.24,51.56s33.9,15.77,41.91,12.48"/>
	<path class="st0" d="M110.64,446.34c0,0-14.6,32.61,2,51.21s30.37,16.72,40.38,12.6"/>
	<path class="st0" d="M115.93,442.06c0,0-12.71,33.2,4.24,50.86s26.84,17.66,38.85,12.71"/>
	<path class="st0" d="M118.73,439.68c0,0-14.95,32.84,3.41,52.5c14.13,14.72,24.84,17.31,38.02,12.24"/>
	<path class="st0" d="M121.54,437.26c0,0-17.19,32.49,2.59,54.15c11.3,11.77,22.84,16.95,37.2,11.77"/>
	<path class="st0" d="M124.37,434.79c0,0-19.42,32.14,1.77,55.8c8.48,8.83,20.84,16.6,36.38,11.3"/>
	<path class="st0" d="M127.2,432.29c0,0-21.66,31.79,0.94,57.45c5.65,5.89,18.84,16.25,35.55,10.83"/>
	<path class="st0" d="M130.04,429.77c0,0-23.9,31.43,0.12,59.1c2.83,2.94,16.83,15.89,34.73,10.36"/>
	<path class="st0" d="M132.88,427.22c0,0-26.13,31.08-0.71,60.75c0,0,14.83,15.54,33.9,9.89"/>
	<path class="st0" d="M145.09,420c0,0-27.9,28.37-7.89,55.68c-1.18,2.59,9.77,22.72,32.84,19.19"/>
	<path class="st0" d="M157.66,412.54c0,0-29.67,25.66-15.07,50.62c-2.35,5.18,4.71,29.9,31.79,28.49"/>
	<path class="st0" d="M170.64,404.93c0,0-31.43,22.96-22.25,45.56c-3.53,7.77-0.35,37.08,30.73,37.79"/>
	<path class="st0" d="M185.12,397.29c0,0-33.2,20.25-29.43,40.5c-4.71,10.36-5.42,44.26,29.67,47.09"/>
	<path class="st0" d="M196.07,389.66c0,0-34.96,17.54-36.61,35.43c-5.89,12.95-10.48,51.44,28.61,56.39"/>
	<path class="st0" d="M207.04,382.02c0,0-36.73,14.83-43.79,30.37c-7.06,15.54-15.54,58.63,27.55,65.69"/>
	<path class="st0" d="M214.62,379.94c0,0-35.77,12.7-42.71,28.24c-6.95,15.54-14.83,53.68,22.37,63.1"/>
	<path class="st0" d="M222.2,377.87c0,0-34.8,10.56-41.63,26.1c-6.83,15.54-14.13,48.74,17.19,60.51"/>
	<path class="st0" d="M229.82,375.79c0,0-33.84,8.42-40.55,23.96c-6.71,15.54-13.42,43.79,12.01,57.92"/>
	<path class="st0" d="M237.48,373.71c0,0-32.88,6.28-39.47,21.82c-6.59,15.54-12.71,38.85,6.83,55.33"/>
	<path class="st0" d="M245.21,371.64c0,0-31.92,4.15-38.39,19.69s-12.01,33.9,1.65,52.74"/>
	<path class="st0" d="M252.96,369.3c0,0-30.95,2.01-37.31,17.55s-11.3,28.96-3.53,50.15"/>
	<path class="st0" d="M253.96,369.3c0,0-28.1,2.41-35.11,17.08c-6.73,14.09-11.88,26.98-5.4,46.76"/>
	<path class="st0" d="M255.02,369.3c0,0-25.21,2.82-32.91,16.6c-7.07,12.65-12.45,24.99-7.27,43.36"/>
	<path class="st0" d="M256.12,369.3c0,0-22.26,3.23-30.7,16.13c-7.35,11.23-13.03,23.01-9.14,39.97"/>
	<path class="st0" d="M257.31,369.3c0,0-19.27,3.68-28.5,15.66c-7.58,9.83-13.6,21.02-11.01,36.57"/>
	<path class="st0" d="M258.59,369.3c0,0-16.21,4.18-26.3,15.19c-7.77,8.48-14.18,19.04-12.88,33.18"/>
	<path class="st0" d="M260.02,369.3c0,0-38.85,14.13-38.85,44.5"/>
</g>
<g>
	<path class="st0" d="M361.03,471.02c0,0-7.77,4.94-3.53,13.42"/>
	<path class="st0" d="M364.25,467.37c0,0-8.36,7.65-2.47,17.66"/>
	<path class="st0" d="M367.52,463.72c0,0-8.95,10.36-1.41,21.9"/>
	<path class="st0" d="M370.82,460.07c0,0-9.54,13.07-0.35,26.13"/>
	<path class="st0" d="M373.78,456.42c0,0-10.12,15.77,0.71,30.37"/>
	<path class="st0" d="M376.58,452.77c0,0-10.71,18.48,1.77,34.61"/>
	<path class="st0" d="M379.39,449.12c0,0-11.3,21.19,2.83,38.85"/>
	<path class="st0" d="M389.28,488.68c0,0-18.36-26.13-1.41-47.32"/>
	<path class="st0" d="M397.28,433.93c-7.58,9.48-15.8,23.31-11.41,38.7c1.95,6.83,4.94,13.69,8.82,16.16"/>
	<path class="st0" d="M406.4,426.52c-6.06,7.58-23.57,22.44-17.75,43.81c1.49,5.48,3.38,13.63,11.15,18.58"/>
	<path class="st0" d="M415.59,419.1c-4.55,5.69-31.35,21.56-24.08,48.93c1.09,4.12,1.83,13.58,13.49,21"/>
	<path class="st0" d="M424.8,411.69c-3.03,3.79-39.13,20.68-30.42,54.05c0.72,2.75,0.28,13.53,15.82,23.42"/>
	<path class="st0" d="M434.01,404.27c-1.52,1.9-46.91,19.8-36.75,59.16c0.35,1.37-1.27,13.47,18.15,25.83"/>
	<path class="st0" d="M442.96,396.85c0,0-52.27,18.36-43.09,64.28c0,0-2.83,13.42,20.48,28.25"/>
	<path class="st0" d="M448.73,396.15c0,0-48.03,15.07-41.79,58.51c-1.41,5.18-1.06,20.25,23.66,33.9"/>
	<path class="st0" d="M454.5,395.44c0,0-36.68,11.82-40.5,52.74c-1,10.69,0.71,27.08,26.84,39.55"/>
	<path class="st0" d="M460.72,394.73c0,0-34.27,8.79-39.2,46.97c-2.06,15.97,2.47,33.9,30.02,45.21"/>
	<path class="st0" d="M466.93,394.02c0,0-31.83,5.6-37.91,41.2c-3.61,21.17,4.24,40.73,33.2,50.86"/>
	<path class="st0" d="M473.25,393.32c0,0-29.36,2.21-36.61,35.43c-5.72,26.23,6,47.56,36.38,56.51"/>
	<path class="st0" d="M477.57,392.61c0,0-26.84-1.41-35.32,29.67c-8.48,31.08,7.77,54.39,39.55,62.16"/>
	<path class="st0" d="M481.14,392.37c0,0-25.76,0.53-35.45,29.38c-9.64,28.79,2.05,52.3,31.33,63.62"/>
	<path class="st0" d="M482.75,392.14c0,0-24.68,2.48-35.59,29.1c-10.81,26.51-3.68,50.22,23.11,65.08"/>
	<path class="st0" d="M484.78,391.91c0,0-23.59,4.43-35.72,28.82c-11.98,24.22-9.4,48.14,14.89,66.54"/>
	<path class="st0" d="M487.12,391.67c0,0-22.51,6.37-35.86,28.54c-13.14,21.94-15.12,46.06,6.66,68"/>
	<path class="st0" d="M489.9,391.44c0,0-21.43,8.32-35.99,28.25c-14.31,19.65-20.85,43.97-1.56,69.46"/>
	<path class="st0" d="M493.11,391.2c0,0-79.82,40.26-45.91,98.89"/>
	<path class="st0" d="M496.75,390.61c0,0-26.02,15.26-38.63,38.79c-9.32,17.41-11.41,37.93,2.72,58.8"/>
	<path class="st0" d="M500.67,390.02c0,0-24.38,16.77-33.87,40.36c-7.44,18.51-6.3,38.4,7.97,55.94"/>
	<path class="st0" d="M504.93,389.44c0,0-22.59,18.39-29.11,41.92c-5.46,19.7-1.2,38.86,13.22,53.08"/>
	<path class="st0" d="M509.56,388.85c0,0-20.63,20.06-24.35,43.49c-3.33,20.93,3.91,39.33,18.46,50.22"/>
	<path class="st0" d="M512.51,388.26c0,0-18.5,21.72-19.59,45.05c-1.04,22.14,9.02,39.8,23.71,47.36"/>
	<path class="st0" d="M512.89,387.67c0,0-16.25,23.31-14.83,46.62c1.41,23.31,14.13,40.26,28.96,44.5"/>
	<path class="st0" d="M514.11,387.67c0,0-18.36,27.66-12.13,51.8c1.18,19.42,12.95,35.2,29.31,38.61"/>
	<path class="st0" d="M515.72,387.68c0,0-20.48,32.02-9.42,56.98c0.94,15.54,11.77,30.14,29.67,32.73"/>
	<path class="st0" d="M517.53,387.68c0,0-22.6,36.38-6.71,62.16c0.71,11.65,10.6,25.07,30.02,26.84"/>
	<path class="st0" d="M519.45,387.68c0,0-24.72,40.73-4,67.34c0.47,7.77,9.42,20.01,30.37,20.95"/>
	<path class="st0" d="M521.44,387.68c0,0-26.84,45.09-1.29,72.52c0.24,3.88,8.24,14.95,30.73,15.07"/>
	<path class="st0" d="M523.48,387.67c0,0-28.96,49.44,1.41,77.7c0,0,7.06,9.89,31.08,9.18"/>
	<path class="st0" d="M528.31,386.61c0,0-26.56,47.73,1.87,76.16c0.77,1.2,7.76,10.54,29.32,10.84"/>
	<path class="st0" d="M533.14,385.55c0,0-24.16,46.01,2.33,74.62c1.53,2.4,8.45,11.2,27.57,12.49"/>
	<path class="st0" d="M537.96,384.49c0,0-21.76,44.29,2.79,73.08c2.3,3.6,9.14,11.85,25.82,14.15"/>
	<path class="st0" d="M542.79,383.43c0,0-19.36,42.58,3.25,71.55c3.07,4.8,9.83,12.51,24.06,15.8"/>
	<path class="st0" d="M547.62,382.37c0,0-16.96,40.86,3.71,70.01c3.84,6.01,10.53,13.16,22.31,17.46"/>
	<path class="st0" d="M552.44,381.31c0,0-22.6,60.75,24.72,87.59"/>
	<path class="st0" d="M557.39,379.19c0,0-25.55,60.51,26.96,87.35"/>
	<path class="st0" d="M562.33,377.07c0,0-28.49,60.27,29.2,87.12"/>
	<path class="st0" d="M567.28,374.96c0,0-31.43,60.04,31.43,86.88"/>
	<path class="st0" d="M572.22,372.84c0,0-34.38,59.8,33.67,86.64"/>
	<path class="st0" d="M577.17,370.72c0,0-37.32,59.57,35.91,86.41"/>
	<path class="st0" d="M582.11,368.6c0,0-40.26,59.33,38.14,86.17"/>
	<path class="st0" d="M585.29,366.6c0,0-15.53,21.21-9.66,44.77c4.26,16.96,18.03,33.13,46.86,42.46"/>
	<path class="st0" d="M588.47,364.6c0,0-16.38,20.78-10.27,44.86c4.82,18.79,19.94,35.4,46.53,43.43"/>
	<path class="st0" d="M591.65,362.59c0,0-17.23,20.35-10.88,44.95c5.38,20.63,21.84,37.68,46.2,44.41"/>
	<path class="st0" d="M594.82,360.59c0,0-18.08,19.93-11.49,45.03c5.94,22.46,23.74,39.95,45.87,45.38"/>
	<path class="st0" d="M598,358.59c0,0-18.93,19.5-12.1,45.12c6.5,24.3,25.64,42.22,45.54,46.35"/>
	<path class="st0" d="M601.18,356.59c0,0-19.78,19.07-12.71,45.21c7.06,26.13,27.55,44.5,45.21,47.32"/>
	<path class="st0" d="M605.68,354.68c0,0-20.72,19.78-11.54,47.21c9.18,27.43,29.78,41.32,46.15,43.32"/>
	<path class="st0" d="M610.23,352.77c0,0-21.66,20.48-10.36,49.21c11.3,28.72,32.02,38.14,47.09,39.32"/>
	<path class="st0" d="M614.82,350.86c0,0-22.6,21.19-9.18,51.21c13.42,30.02,34.26,34.96,48.03,35.32"/>
	<path class="st0" d="M619.43,348.9c0,0-23.54,21.9-8.01,53.21c15.54,31.31,36.49,31.79,48.97,31.31"/>
	<path class="st0" d="M624.07,346.6c0,0-24.49,22.6-6.83,55.21s38.73,28.61,49.91,27.31"/>
	<path class="st0" d="M628.73,343.88c0,0-25.43,23.31-5.65,57.21s40.97,25.43,50.86,23.31"/>
	<path class="st0" d="M635.32,339.29c0,0-24.37,24.49-5.18,57.45s41.67,25.31,49.91,23.54"/>
	<path class="st0" d="M641.91,334.69c0,0-23.31,25.66-4.71,57.68c18.6,32.02,42.38,25.19,48.97,23.78"/>
	<path class="st0" d="M648.51,330.1c0,0-22.25,26.84-4.24,57.92c12.59,21.73,28.64,25.33,38.84,25.17"/>
	<path class="st0" d="M655.1,325.51c0,0-21.19,28.02-3.77,58.16c8.67,14.99,19.54,21.24,28.7,23.65"/>
	<path class="st0" d="M661.69,320.92c0,0-20.13,29.2-3.3,58.39c5.23,9.07,11.5,14.9,17.72,18.62"/>
	<path class="st0" d="M668.28,316.33c0,0-19.07,30.37-2.83,58.63c2.49,4.32,5.27,7.9,8.2,10.87"/>
	<path class="st0" d="M672.56,310.92c0,0-16.3,31.15,0.03,58.3c0.91,1.51,1.86,2.93,2.85,4.26"/>
	<path class="st0" d="M723.39,384.95c1.05-0.09,1.97-0.2,2.75-0.34"/>
	<path class="st0" d="M676.93,305.51c0,0-13.57,31.94,2.89,57.97c0.31,0.49,0.62,0.97,0.94,1.43"/>
	<path class="st0" d="M723.7,377.68c3.83,0.17,7.36-0.1,10.32-0.6"/>
	<path class="st0" d="M681.4,300.09c0,0-10.88,32.76,5.75,57.65c0.33,0.49,0.66,0.98,1.01,1.45"/>
	<path class="st0" d="M721.05,369.19c7.04,1.53,14.3,1.49,21,0.35"/>
	<path class="st0" d="M686.01,294.68c0,0-8.26,33.61,8.6,57.32c1.29,1.81,2.67,3.47,4.12,4.98"/>
	<path class="st0" d="M690.81,289.26c0,0-5.73,34.54,11.46,56.99c10.56,13.8,27.76,19.2,47.99,15.76"/>
	<path class="st0" d="M695.83,283.84c0,0-7.77,82.64,62.86,70.63"/>
	<path class="st0" d="M698.06,282.19c0,0-8.48,79.35,62.63,70.05"/>
	<path class="st0" d="M700.29,280.5c0,0-9.18,76.05,62.39,69.46"/>
	<path class="st0" d="M702.52,278.76c0,0-9.89,72.75,62.16,68.87"/>
	<path class="st0" d="M704.76,276.97c0,0-10.6,69.46,61.92,68.28"/>
	<path class="st0" d="M707.01,275.11c0,0-11.3,66.16,61.69,67.69"/>
	<path class="st0" d="M709.25,273.24c0,0-12.01,62.86,61.45,67.1"/>
	<path class="st0" d="M713.63,269.31c0,0-5.63,25.69,10.4,44.47c10.28,12.04,26.88,19.82,50.93,20.75"/>
	<path class="st0" d="M718.04,265.52c0,0-6.31,25.88,10.3,43.91c11.81,12.82,29.56,19.1,50.92,19.43"/>
	<path class="st0" d="M722.42,261.65c0,0-6.91,26.02,10.19,43.35c13.39,13.57,32.23,18.39,50.9,18.1"/>
	<path class="st0" d="M726.8,257.73c0,0-7.46,26.1,10.09,42.79c15.01,14.27,34.91,17.68,50.89,16.78"/>
	<path class="st0" d="M731.18,253.73c0,0-7.98,26.14,9.99,42.23c16.67,14.93,37.59,16.96,50.87,15.45"/>
	<path class="st0" d="M735.53,249.62c0,0-8.48,26.13,9.89,41.67c18.36,15.54,40.26,16.25,50.86,14.13"/>
	<path class="st0" d="M738.97,246.19c0,0-6.15,24.51,11.74,39.47c16.88,14.17,37.31,15.71,49.12,13.86"/>
	<path class="st0" d="M742.54,242.74c0,0-3.83,22.89,13.59,37.27c15.39,12.8,34.37,15.18,47.39,13.59"/>
	<path class="st0" d="M746.29,239.27c0,0-1.47,21.23,15.44,35.07c13.93,11.4,31.42,14.65,45.66,13.32"/>
	<path class="st0" d="M750.18,235.78c0,0,0.85,19.6,17.29,32.86c12.43,10.03,28.47,14.11,43.93,13.05"/>
	<path class="st0" d="M754.08,232.27c0,0,3.14,18.02,19.14,30.66c10.92,8.69,25.52,13.58,42.19,12.78"/>
	<path class="st0" d="M757.99,228.74c0,0,14.13,42.38,61.45,40.97"/>
</g>
<g>
	<line class="st0" x1="635.32" y1="143.75" x2="608.01" y2="179.54"/>
	<path class="st0" d="M628.93,143.83c0,0-26.21,32.02-24.96,35.47"/>
	<path class="st0" d="M622.58,143.9c0,0-25.11,28.25-22.6,35.16"/>
	<path class="st0" d="M616.27,143.98c0,0-24.02,24.49-20.25,34.85"/>
	<path class="st0" d="M610.02,144.06c0,0-22.92,20.72-17.89,34.53"/>
	<path class="st0" d="M603.81,144.14c0,0-21.82,16.95-15.54,34.22"/>
	<path class="st0" d="M597.65,144.22c0,0-20.72,13.18-13.18,33.9"/>
	<path class="st0" d="M593.33,144.22c0,0-20.8,13.11-12.56,33.83"/>
	<path class="st0" d="M589.02,144.22c0,0-20.88,13.03-11.93,33.75"/>
	<path class="st0" d="M584.7,144.22c0,0-20.95,12.95-11.3,33.67"/>
	<path class="st0" d="M580.38,144.22c0,0-21.03,12.87-10.67,33.59"/>
	<path class="st0" d="M576.07,144.22c0,0-21.11,12.79-10.05,33.51"/>
	<path class="st0" d="M571.75,144.22c0,0-21.19,12.71-9.42,33.43"/>
	<path class="st0" d="M565.65,144.06c0,0-9.9,4.11-12.37,13.28c-1.69,6.26-1.43,12.92,3.74,20.07"/>
	<path class="st0" d="M559.6,143.9c0,0-11.52,3.38-13.19,12.98c-1.26,7.27-0.54,13.84,5.34,20.3"/>
	<path class="st0" d="M553.6,143.75c0,0-13.07,2.66-14.01,12.68c-0.78,8.28,0.36,14.76,6.95,20.52"/>
	<path class="st0" d="M547.65,143.59c0,0-14.56,1.94-14.84,12.38c-0.25,9.3,1.26,15.68,8.56,20.74"/>
	<path class="st0" d="M541.8,143.43c0,0-16,1.21-15.66,12.07c0.33,10.3,2.15,16.6,10.17,20.97"/>
	<path class="st0" d="M535.96,143.28c0,0-17.42,0.47-16.48,11.77s3.05,17.52,11.77,21.19"/>
	<path class="st0" d="M532.6,143.28c0,0-16.6,1.16-16.42,11.95c0.18,10.34,2.12,16.7,10.92,21.17"/>
	<path class="st0" d="M529.29,143.28c0,0-15.75,1.83-16.35,12.13c-0.54,9.35,1.19,15.88,10.07,21.14"/>
	<path class="st0" d="M526.08,143.28c0,0-14.86,2.49-16.29,12.31c-1.22,8.36,0.26,15.06,9.22,21.12"/>
	<path class="st0" d="M522.92,143.28c0,0-13.9,3.15-16.22,12.49c-1.83,7.38-0.68,14.24,8.37,21.1"/>
	<path class="st0" d="M519.78,143.28c0,0-12.86,3.83-16.15,12.67c-2.39,6.41-1.61,13.42,7.52,21.08"/>
	<path class="st0" d="M516.66,143.28c0,0-32.49,12.71-9.42,33.9"/>
	<path class="st0" d="M509.36,143.59c0,0-30.84,12.48-8.71,33.9"/>
	<path class="st0" d="M502.06,143.9c0,0-29.2,12.24-8.01,33.9"/>
	<path class="st0" d="M494.76,144.22c0,0-27.55,12.01-7.3,33.9"/>
	<path class="st0" d="M487.46,144.53c0,0-25.9,11.77-6.59,33.9"/>
	<path class="st0" d="M480.16,144.85c0,0-24.25,11.54-5.89,33.9"/>
	<path class="st0" d="M472.86,145.16c0,0-22.6,11.3-5.18,33.9"/>
	<path class="st0" d="M463.82,146.18c0,0-23.07,11.77-8.16,33.12"/>
	<path class="st0" d="M454.86,147.2c0,0-23.54,12.24-11.14,32.33"/>
	<path class="st0" d="M446,148.22c0,0-24.02,12.71-14.13,31.55"/>
	<path class="st0" d="M437.24,149.24c0,0-24.49,13.18-17.11,30.76"/>
	<path class="st0" d="M428.61,150.26c0,0-24.96,13.66-20.09,29.98"/>
	<path class="st0" d="M420.12,151.28c0,0-25.43,14.13-23.07,29.2"/>
	<path class="st0" d="M418.12,151.6c0,0-20.88,15.15-16.25,28.65"/>
	<path class="st0" d="M416.37,151.91c0,0-16.32,16.17-9.42,28.1"/>
	<path class="st0" d="M415.01,152.22c0,0-11.77,17.19-2.59,27.55"/>
	<path class="st0" d="M412.12,152.54c0,0-7.22,18.21,4.24,27"/>
	<path class="st0" d="M408.74,152.85c0,0-2.67,19.23,11.07,26.45"/>
	<path class="st0" d="M406.47,153.17c0,0,1.88,20.25,17.89,25.9"/>
	<path class="st0" d="M400.76,154.19c0,0-2.2,19.39,14.6,25.82"/>
	<path class="st0" d="M395.51,155.21c0,0-6.28,18.52,11.3,25.74"/>
	<path class="st0" d="M390.67,156.23c0,0-10.36,17.66,8.01,25.66"/>
	<path class="st0" d="M386.07,157.25c0,0-14.44,16.8,4.71,25.59"/>
	<path class="st0" d="M381.62,158.27c0,0-18.52,15.93,1.41,25.51"/>
	<path class="st0" d="M376.33,159.29c0,0-22.6,15.07-1.88,25.43"/>
	<path class="st0" d="M371.99,160.78c0,0-9.24,5.88-10.11,12.63c-0.58,4.53,1.8,8.64,9.32,11.93"/>
	<path class="st0" d="M367.55,162.27c0,0-9.76,6.03-9.88,12.65c-0.08,4.86,3.04,8.42,10.19,11.05"/>
	<path class="st0" d="M362.77,163.76c0,0-10.22,6.2-9.64,12.66c0.46,5.19,4.28,8.2,11.06,10.17"/>
	<path class="st0" d="M358.01,165.25c0,0-10.61,6.35-9.41,12.68c1.05,5.52,5.52,7.98,11.92,9.29"/>
	<path class="st0" d="M353.28,166.74c0,0-10.97,6.49-9.18,12.7c1.68,5.84,6.76,7.76,12.79,8.41"/>
	<path class="st0" d="M348.55,168.23c0,0-11.3,6.59-8.95,12.71s8.01,7.53,13.66,7.53"/>
	<path class="st0" d="M343.27,170.55c0,0-10.99,7.22-8.32,13.11c2.67,5.89,8.87,6.44,13.58,6.44"/>
	<path class="st0" d="M338,172.87c0,0-10.67,7.85-7.69,13.5c2.98,5.65,9.73,5.34,13.5,5.34"/>
	<path class="st0" d="M332.74,175.13c0,0-10.36,8.48-7.06,13.89c3.3,5.42,10.6,4.24,13.42,4.24"/>
	<path class="st0" d="M327.49,177.3c0,0-10.05,9.1-6.44,14.28c3.61,5.18,11.46,3.14,13.34,3.14"/>
	<path class="st0" d="M322.24,179.39c0,0-9.73,9.73-5.81,14.68s12.32,2.04,13.26,2.04"/>
	<path class="st0" d="M317,181.42c0,0-9.42,10.36-5.18,15.07s13.18,0.94,13.18,0.94"/>
	<path class="st0" d="M313.86,182.83c0,0-9.03,9.42-4.87,14.28s12.79,1.49,13.11,1.41"/>
	<path class="st0" d="M310.72,184.24c0,0-8.63,8.48-4.55,13.5c4.08,5.02,12.4,2.04,13.03,1.88"/>
	<path class="st0" d="M307.58,185.66c0,0-8.24,7.53-4.24,12.71c4,5.18,12.01,2.59,12.95,2.35"/>
	<path class="st0" d="M304.44,187.07c0,0-7.85,6.59-3.92,11.93c3.92,5.34,11.62,3.14,12.87,2.83"/>
	<path class="st0" d="M301.3,188.48c0,0-7.46,5.65-3.61,11.14c3.85,5.49,11.22,3.69,12.79,3.3"/>
	<path class="st0" d="M298.16,189.89c0,0-7.06,4.71-3.3,10.36c3.77,5.65,10.83,4.24,12.71,3.77"/>
	<path class="st0" d="M291.96,193.98c0,0-6.4,4.64-3.05,9.88c3.23,5.06,9.49,4.14,11.92,3.78"/>
	<path class="st0" d="M285.77,198.15c0,0-5.73,4.56-2.81,9.4c2.69,4.46,8.15,4.04,11.13,3.79"/>
	<path class="st0" d="M279.57,202.25c0,0-5.05,4.48-2.56,8.92c2.16,3.85,6.81,3.95,10.33,3.8"/>
	<path class="st0" d="M273.36,206.22c0,0-4.36,4.4-2.32,8.43c1.64,3.24,5.47,3.85,9.54,3.81"/>
	<path class="st0" d="M267.16,210.3c0,0-3.66,4.3-2.08,7.95c1.14,2.62,4.13,3.75,8.75,3.82"/>
	<path class="st0" d="M216.7,244.36c0,0-6.28,8.48,4.71,8.48"/>
	<path class="st0" d="M211.05,248.29c0,0-5.89,8.95,4.94,8.48"/>
	<path class="st0" d="M205.4,252.21c0,0-5.49,9.42,5.18,8.48"/>
	<path class="st0" d="M199.75,256.13c0,0-5.1,9.89,5.42,8.48"/>
	<path class="st0" d="M194.09,260.06c0,0-4.71,10.36,5.65,8.48"/>
	<path class="st0" d="M190.72,262.88c0,0-5.02,10.83,5.73,8.79"/>
	<path class="st0" d="M187.35,265.71c0,0-5.34,11.3,5.81,9.1"/>
	<path class="st0" d="M183.97,268.53c0,0-5.65,11.77,5.89,9.42"/>
	<path class="st0" d="M180.6,271.36c0,0-5.96,12.24,5.96,9.73"/>
	<path class="st0" d="M177.22,274.18c0,0-6.28,12.71,6.04,10.05"/>
	<path class="st0" d="M173.85,277.01c0,0-6.59,13.18,6.12,10.36"/>
	<path class="st0" d="M172.51,278.34c0.24,0.16-6.12,12.64,6.12,9.97"/>
	<path class="st0" d="M171.18,279.68c0.47,0.31-5.65,12.09,6.12,9.57"/>
	<path class="st0" d="M169.84,281.01c0.71,0.47-5.18,11.54,6.12,9.18"/>
	<path class="st0" d="M168.51,282.35c0.94,0.63-4.71,10.99,6.12,8.79"/>
	<path class="st0" d="M167.18,283.68c1.18,0.78-4.24,10.44,6.12,8.4"/>
	<path class="st0" d="M165.84,285.02c1.41,0.94-3.77,9.89,6.12,8.01"/>
	<path class="st0" d="M163.09,287.68c1.18,0.78-3.85,9.65,5.65,8.08"/>
	<path class="st0" d="M160.35,290.35c0.94,0.63-3.92,9.42,5.18,8.16"/>
	<path class="st0" d="M157.6,293.02c0.71,0.47-4,9.18,4.71,8.24"/>
	<path class="st0" d="M154.85,295.69c0.47,0.31-4.08,8.95,4.24,8.32"/>
	<path class="st0" d="M152.11,298.36c0.24,0.16-4.16,8.71,3.77,8.4"/>
	<path class="st0" d="M149.36,301.03c0,0-4.24,8.48,3.3,8.48"/>
	<path class="st0" d="M147.95,302.44c0,0-4.16,8.48,3.61,8.4"/>
	<path class="st0" d="M146.53,303.85c0,0-4.08,8.48,3.92,8.32"/>
	<path class="st0" d="M145.12,305.26c0,0-4,8.48,4.24,8.24"/>
	<path class="st0" d="M143.71,306.68c0,0-3.92,8.48,4.55,8.16"/>
	<path class="st0" d="M142.3,308.09c0,0-3.85,8.48,4.87,8.08"/>
	<path class="st0" d="M140.88,309.5c0,0-3.77,8.48,5.18,8.01"/>
	<path class="st0" d="M137.67,313.27c0,0-4,8.48,5.02,8.08"/>
	<path class="st0" d="M134.45,317.04c0,0-4.24,8.48,4.87,8.16"/>
	<path class="st0" d="M131.23,320.8c0,0-4.47,8.48,4.71,8.24"/>
	<path class="st0" d="M128.01,324.57c0,0-4.71,8.48,4.55,8.32"/>
	<path class="st0" d="M124.8,328.34c0,0-4.94,8.48,4.39,8.4"/>
	<path class="st0" d="M121.58,332.1c0,0-5.18,8.48,4.24,8.48"/>
	<path class="st0" d="M119.77,333.99c0,0-4.79,8.16,4.55,7.85"/>
	<path class="st0" d="M117.97,335.87c0,0-4.39,7.85,4.87,7.22"/>
	<path class="st0" d="M116.16,337.76c0,0-4,7.53,5.18,6.59"/>
	<path class="st0" d="M114.36,339.64c0,0-3.61,7.22,5.49,5.96"/>
	<path class="st0" d="M112.55,341.52c0,0-3.22,6.91,5.81,5.34"/>
	<path class="st0" d="M110.75,343.41c0,0-2.83,6.59,6.12,4.71"/>
	<path class="st0" d="M108.55,346.62c0,0-2.59,6.12,5.96,4.55"/>
	<path class="st0" d="M106.35,349.84c0,0-2.35,5.65,5.81,4.39"/>
	<path class="st0" d="M104.15,353.06c0,0-2.12,5.18,5.65,4.24"/>
	<path class="st0" d="M101.96,356.28c0,0-1.88,4.71,5.49,4.08"/>
	<path class="st0" d="M99.76,359.49c0,0-1.65,4.24,5.34,3.92"/>
	<path class="st0" d="M97.56,362.71c0,0-1.41,3.77,5.18,3.77"/>
	<path class="st0" d="M95.29,366.01c0,0-1.49,4.24,5.18,3.77"/>
	<path class="st0" d="M93.01,369.3c0,0-1.57,4.71,5.18,3.77"/>
	<path class="st0" d="M90.73,372.6c0,0-1.65,5.18,5.18,3.77"/>
	<path class="st0" d="M88.46,375.9c0,0-1.73,5.65,5.18,3.77"/>
	<path class="st0" d="M86.18,379.19c0,0-1.81,6.12,5.18,3.77"/>
	<path class="st0" d="M83.91,382.49c0,0-1.88,6.59,5.18,3.77"/>
	<path class="st0" d="M81.32,385.47c0,0-1.41,6.83,5.26,3.92"/>
	<path class="st0" d="M78.73,388.45c0,0-0.94,7.06,5.34,4.08"/>
	<path class="st0" d="M76.14,391.44c0,0-0.47,7.3,5.42,4.24"/>
	<path class="st0" d="M73.55,394.42c0,0,0,7.53,5.49,4.39"/>
	<path class="st0" d="M70.96,397.4c0,0,0.47,7.77,5.57,4.55"/>
	<path class="st0" d="M68.37,400.38c0,0,0.94,8.01,5.65,4.71"/>
	<path class="st0" d="M67.19,402.97c0,0,0.86,7.46,5.34,4.39"/>
	<path class="st0" d="M66.01,405.56c0,0,0.78,6.91,5.02,4.08"/>
	<path class="st0" d="M64.83,408.15c0,0,0.71,6.36,4.71,3.77"/>
	<path class="st0" d="M63.66,410.74c0,0,0.63,5.81,4.39,3.45"/>
	<path class="st0" d="M62.48,413.33c0,0,0.55,5.26,4.08,3.14"/>
	<path class="st0" d="M61.3,415.92c0,0,0.47,4.71,3.77,2.83"/>
	<path class="st0" d="M59.5,418.67c0.63,0.31,1.41,3.85,4.16,2.28"/>
	<path class="st0" d="M57.69,421.42c1.26,0.63,2.35,2.98,4.55,1.73"/>
	<path class="st0" d="M55.89,424.28c1.88,0.94,3.3,2.12,4.94,1.18"/>
	<path class="st0" d="M54.08,427.02c2.51,1.26,4.24,1.26,5.34,0.63"/>
	<path class="st0" d="M52.28,429.66c3.14,1.57,5.18,0.39,5.73,0.08"/>
	<path class="st0" d="M50.47,432.4c3.77,1.88,6.12-0.47,6.12-0.47"/>
	<path class="st0" d="M49.14,434.05c3.14,1.57,5.18,0.08,5.65,0"/>
	<path class="st0" d="M47.8,435.8c2.51,1.26,4.24,0.63,5.18,0.47"/>
	<path class="st0" d="M46.47,437.5c1.88,0.94,3.3,1.18,4.71,0.94"/>
	<path class="st0" d="M45.14,439.11c1.26,0.63,2.35,1.73,4.24,1.41"/>
	<path class="st0" d="M43.8,440.64c0.63,0.31,1.41,2.28,3.77,1.88"/>
	<path class="st0" d="M42.47,442.29c0,0,0.47,2.83,3.3,2.35"/>
	<path class="st0" d="M41.92,442.76c0,0,0.63,2.83,3.37,2.43"/>
	<path class="st0" d="M41.37,443.23c0,0,0.78,2.83,3.45,2.51"/>
	<path class="st0" d="M40.82,443.71c0,0,0.94,2.83,3.53,2.59"/>
	<path class="st0" d="M40.27,444.18c0,0,1.1,2.83,3.61,2.67"/>
	<path class="st0" d="M39.72,444.65c0,0,1.26,2.83,3.69,2.75"/>
	<path class="st0" d="M39.17,445.12c0,0,1.41,2.83,3.77,2.83"/>
	<path class="st0" d="M37.13,447.87c0,0,1.26,2.83,3.77,2.75"/>
	<path class="st0" d="M35.09,450.61c0,0,1.1,2.83,3.77,2.67"/>
	<path class="st0" d="M33.05,453.36c0,0,0.94,2.83,3.77,2.59"/>
	<path class="st0" d="M31.01,456.11c0,0,0.78,2.83,3.77,2.51"/>
	<path class="st0" d="M28.97,458.85c0,0,0.63,2.83,3.77,2.43"/>
	<path class="st0" d="M26.93,461.6c0,0,0.47,2.83,3.77,2.35"/>
	<path class="st0" d="M25.52,463.72c0,0,0.47,2.98,3.69,2.35"/>
	<path class="st0" d="M24.1,465.84c0,0,0.47,3.14,3.61,2.35"/>
	<path class="st0" d="M22.69,467.96c0,0,0.47,3.3,3.53,2.35"/>
	<path class="st0" d="M21.28,470.08c0,0,0.47,3.45,3.45,2.35"/>
	<path class="st0" d="M19.86,472.19c0,0,0.47,3.61,3.37,2.35"/>
	<path class="st0" d="M18.45,474.31c0,0,0.47,3.77,3.3,2.35"/>
</g>
<g>
	<line class="st0" x1="58.48" y1="430.05" x2="62.54" y2="423.75"/>
	<path class="st0" d="M58.56,431.55c0,0,3.62-5.95,4.01-5.48"/>
	<path class="st0" d="M58.63,433.08c0,0,3.18-5.61,3.96-4.67"/>
	<path class="st0" d="M58.71,434.64c0,0,2.74-5.27,3.91-3.86"/>
	<path class="st0" d="M58.79,436.22c0,0,2.3-4.92,3.87-3.04"/>
	<path class="st0" d="M58.87,437.83c0,0,1.85-4.58,3.82-2.23"/>
	<path class="st0" d="M58.95,439.47c0,0,1.41-4.24,3.77-1.41"/>
	<path class="st0" d="M58.87,441.04c0,0,1.41-4.08,3.61-1.33"/>
	<path class="st0" d="M58.79,442.61c0,0,1.41-3.92,3.45-1.26"/>
	<path class="st0" d="M58.71,444.18c0,0,1.41-3.77,3.3-1.18"/>
	<path class="st0" d="M58.63,445.75c0,0,1.41-3.61,3.14-1.1"/>
	<path class="st0" d="M58.56,447.32c0,0,1.41-3.45,2.98-1.02"/>
	<path class="st0" d="M58.48,448.89c0,0,1.41-3.3,2.83-0.94"/>
	<path class="st0" d="M58.56,450.85c0,0,1.18-3.06,2.58-0.98"/>
	<path class="st0" d="M58.63,452.81c0,0,0.94-2.83,2.33-1.02"/>
	<path class="st0" d="M58.71,454.77c0,0,0.71-2.59,2.09-1.06"/>
	<path class="st0" d="M58.79,456.73c0,0,0.47-2.35,1.84-1.1"/>
	<path class="st0" d="M58.87,458.7c0,0,0.24-2.12,1.6-1.14"/>
	<path class="st0" d="M58.95,460.66c0,0,0-1.88,1.35-1.18"/>
</g>
<g>
	<line class="st0" x1="137.12" y1="313.27" x2="122.05" y2="329.75"/>
	<path class="st0" d="M134.03,313.9c0,0-9.07,9.09-9.07,9.96c0,0-4.91,6.01-4.03,6.13"/>
	<path class="st0" d="M131.06,314.52c0,0-8.86,8.03-8.86,9.76c0,0-4.05,5.71-2.28,5.94"/>
	<path class="st0" d="M128.22,315.15c0,0-8.65,6.96-8.65,9.55c0,0-3.18,5.4-0.54,5.75"/>
	<path class="st0" d="M125.53,315.78c0,0-8.43,5.9-8.43,9.35c0,0-2.32,5.09,1.21,5.56"/>
	<path class="st0" d="M123.01,316.41c0,0-8.22,4.83-8.22,9.15c0,0-1.45,4.78,2.96,5.37"/>
	<path class="st0" d="M120.64,317.04c0,0-8.01,3.77-8.01,8.95c0,0-0.59,4.47,4.71,5.18"/>
	<path class="st0" d="M118.36,317.82c0,0-7.15,3.65-7.16,8.48c0,0.22-0.41,4.16,4.25,4.92"/>
	<path class="st0" d="M116.08,318.61c0,0-6.3,3.54-6.31,8.01c0,0.43-0.22,3.85,3.8,4.67"/>
	<path class="st0" d="M113.81,319.39c0,0-5.45,3.42-5.46,7.54c0,0.65-0.04,3.53,3.34,4.41"/>
	<path class="st0" d="M111.53,320.18c0,0-4.6,3.3-4.61,7.07c-0.01,0.87,0.14,3.22,2.89,4.16"/>
	<path class="st0" d="M109.26,320.96c0,0-3.75,3.19-3.77,6.6c-0.01,1.08,0.32,2.91,2.43,3.9"/>
	<path class="st0" d="M106.98,321.74c0,0-5.89,6.24-0.94,9.77"/>
	<path class="st0" d="M104.55,322.61c0,0-4.33,3.98-2.56,7.67c0.25,0.59,1.06,1.39,1.76,1.89"/>
	<path class="st0" d="M102.11,323.47c0,0-4.59,3.66-2.52,7.55c0.2,0.47,1.29,1.39,1.85,1.79"/>
	<path class="st0" d="M99.68,324.33c0,0-4.86,3.33-2.48,7.43c0.15,0.35,1.53,1.4,1.95,1.7"/>
	<path class="st0" d="M97.25,325.2c0,0-5.12,3.01-2.44,7.31c0.1,0.24,1.77,1.4,2.04,1.6"/>
	<path class="st0" d="M94.82,326.06c0,0-5.39,2.68-2.4,7.18c0.05,0.12,2,1.41,2.14,1.51"/>
	<path class="st0" d="M92.38,326.92c0,0-5.65,2.35-2.35,7.06l2.24,1.41"/>
	<path class="st0" d="M89.65,327.63c0,0-5.18,2.28-2.43,6.2c0,0,1.55,1.73,2.33,2.04"/>
	<path class="st0" d="M86.93,328.34c0,0-4.71,2.2-2.51,5.34c0,0,0.86,2.04,2.43,2.67"/>
	<path class="st0" d="M84.22,329.04c0,0-4.24,2.12-2.59,4.47c0,0,0.18,2.35,2.53,3.3"/>
	<path class="st0" d="M81.51,329.75c0,0-3.77,2.04-2.67,3.61c0,0-0.51,2.67,2.63,3.92"/>
	<path class="st0" d="M78.88,330.46c0,0-3.3,1.96-2.75,2.75c0,0-1.2,2.98,2.73,4.55"/>
	<path class="st0" d="M76.37,331.16l-2.83,1.88c0,0-1.88,3.3,2.83,5.18"/>
	<path class="st0" d="M73.02,332.5c0,0-2.83,1.57-2.43,2.2c0,0-1.28,2.85,2.65,4.41"/>
	<path class="st0" d="M69.72,333.83c0,0-2.83,1.26-2.04,2.51c0,0-0.67,2.39,2.47,3.65"/>
	<path class="st0" d="M66.53,335.17c0,0-2.83,0.94-1.65,2.83c0,0-0.06,1.94,2.3,2.88"/>
	<path class="st0" d="M63.36,336.5c0,0-2.83,0.63-1.26,3.14c0,0,0.55,1.49,2.12,2.12"/>
	<path class="st0" d="M60.21,337.83c0,0-2.83,0.31-0.86,3.45c0,0,1.16,1.04,1.94,1.35"/>
	<path class="st0" d="M57.07,339.17c0,0-2.83,0-0.47,3.77l1.77,0.59"/>
</g>
<g>
	<path class="st0" d="M-16.86,249.23c0,0-9.18,3.53-8.48,23.31c0,0-4.24,2.12,2.12,7.06"/>
	<path class="st0" d="M-11.81,250.73c0,0-12.24,5.77-8.01,24.25c0,0-3.77,3.41,5.3,6.36"/>
	<path class="st0" d="M-6.33,252.24c0,0-15.3,8.01-7.53,25.19c0,0-3.3,4.71,8.48,5.65"/>
	<path class="st0" d="M-2.12,253.69c0,0-18.36,10.24-7.06,26.13c0,0-2.83,6,11.65,4.94"/>
	<path class="st0" d="M2.13,254.88c0,0-21.43,12.48-6.59,27.08c0,0-2.35,7.3,14.83,4.24"/>
	<path class="st0" d="M6.4,255.96c0,0-24.49,14.72-6.12,28.02c0,0-1.88,8.59,18.01,3.53"/>
	<path class="st0" d="M10.68,257c0,0-27.55,16.95-5.65,28.96c0,0-1.41,9.89,21.19,2.83"/>
	<path class="st0" d="M15.38,254.94c0,0-24.24,16.39-5.25,28.23c0.29,0.71-0.3,9.6,19.62,4.14"/>
	<path class="st0" d="M20.09,252.85c0,0-20.94,15.83-4.86,27.51c0.57,1.42,0.81,9.31,18.04,5.45"/>
	<path class="st0" d="M24.79,250.7c0,0-17.63,15.27-4.46,26.79c0.86,2.13,1.92,9.02,16.47,6.77"/>
	<path class="st0" d="M29.5,248.45c0,0-14.32,14.71-4.07,26.06c1.14,2.84,3.03,8.73,14.9,8.08"/>
	<path class="st0" d="M34.21,246.03c0,0-11.02,14.15-3.67,25.34c1.43,3.55,4.14,8.44,13.33,9.39"/>
	<path class="st0" d="M38.94,243.58c0,0-14.83,26.13,8.48,35.32"/>
	<path class="st0" d="M40.85,242.39c0,0-8.12,12.21-3.93,22.84c2.63,6.68,7.92,9.88,14.53,12.48"/>
	<path class="st0" d="M42.74,241.2c0,0-9.48,13-3.71,23.92c4.22,7.99,11.14,9.31,16.43,11.4"/>
	<path class="st0" d="M44.62,240c0,0-10.71,13.71-3.49,25c5.91,9.25,14.36,8.75,18.32,10.31"/>
	<path class="st0" d="M46.49,238.81c0,0-11.87,14.36-3.27,26.09c7.67,10.46,17.58,8.19,20.22,9.23"/>
	<path class="st0" d="M48.36,237.5c0,0-13,14.97-3.05,27.17c9.47,11.61,20.8,7.63,22.12,8.15"/>
	<path class="st0" d="M50.24,235.81c0,0-14.13,15.54-2.83,28.25s24.02,7.06,24.02,7.06"/>
	<path class="st0" d="M53.06,234.44c0,0-13.3,15.42-2.35,28.25c9.42,10.6,20.25,6.95,21.9,7.42"/>
	<path class="st0" d="M55.88,232.69c0,0-12.48,15.3-1.88,28.25c7.53,8.48,16.48,6.83,19.78,7.77"/>
	<path class="st0" d="M58.7,230.82c0,0-11.65,15.19-1.41,28.25c5.65,6.36,12.71,6.71,17.66,8.12"/>
	<path class="st0" d="M61.53,228.95c0,0-10.83,15.07-0.94,28.25c3.77,4.24,8.95,6.59,15.54,8.48"/>
	<path class="st0" d="M64.36,227.08c0,0-10.01,14.95-0.47,28.25c1.88,2.12,5.18,6.47,13.42,8.83"/>
	<path class="st0" d="M67.19,225.21c0,0-9.18,14.83,0,28.25c0,0,1.41,6.36,11.3,9.18"/>
	<path class="st0" d="M69.78,223.33c0,0-10.36,15.89,0,29.31c0,0,2.24,5.77,11.89,8.24"/>
	<path class="st0" d="M72.37,221.44c0,0-11.54,16.95,0,30.37c0,0,3.06,5.18,12.48,7.3"/>
	<path class="st0" d="M74.96,219.56c0,0-12.71,18.01,0,31.43c0,0,3.88,4.59,13.07,6.36"/>
	<path class="st0" d="M77.55,217.68c0,0-13.89,19.07,0,32.49c0,0,4.71,4,13.66,5.42"/>
	<path class="st0" d="M80.14,215.79c0,0-15.07,20.13,0,33.55c0,0,5.53,3.41,14.24,4.47"/>
	<path class="st0" d="M82.73,213.91c0,0-16.25,21.19,0,34.61c0,0,6.36,2.83,14.83,3.53"/>
	<path class="st0" d="M86.5,211.79c0,0-16.01,19.42-1.06,33.32c0,0,6.95,4.59,15.89,5.06"/>
	<path class="st0" d="M90.26,209.67c0,0-15.77,17.66-2.12,32.02c0,0,7.53,6.36,16.95,6.59"/>
	<path class="st0" d="M94.03,207.55c0,0-15.54,15.89-3.18,30.73c0,0,8.12,8.12,18.01,8.12"/>
	<path class="st0" d="M97.8,205.43c0,0-15.3,14.13-4.24,29.43c0,0,8.71,9.89,19.07,9.65"/>
	<path class="st0" d="M101.56,203.32c0,0-15.07,12.36-5.3,28.14c0,0,9.3,11.65,20.13,11.18"/>
	<path class="st0" d="M105.33,201.2c0,0-14.83,10.6-6.36,26.84c0,0,9.89,13.42,21.19,12.71"/>
	<path class="st0" d="M110.39,198.84c0,0-14.83,10.83-6.83,26.96c0.94,2.59,10.95,13.66,20.37,13.07"/>
	<path class="st0" d="M115.46,196.49c0,0-14.83,11.07-7.3,27.08c1.88,5.18,12.01,13.89,19.54,13.42"/>
	<path class="st0" d="M120.52,194.13c0,0-14.83,11.3-7.77,27.19c2.83,7.77,13.07,14.13,18.72,13.77"/>
	<path class="st0" d="M125.58,191.78c0,0-14.83,11.54-8.24,27.31c3.77,10.36,14.13,14.36,17.89,14.13"/>
	<path class="st0" d="M130.64,189.42c0,0-14.83,11.77-8.71,27.43c4.71,12.95,15.19,14.6,17.07,14.48"/>
	<path class="st0" d="M135.7,187.07c0,0-14.83,12.01-9.18,27.55c5.65,15.54,16.25,14.83,16.25,14.83"/>
	<path class="st0" d="M147.97,228.39c0,0-14.83-1.18-17.07-18.95c-4.71-12.95,8.59-23.66,9.54-23.78"/>
	<path class="st0" d="M153.18,227.33c0,0-19.07-3.06-17.89-23.07c-3.77-10.36,8.01-19.78,9.89-20.01"/>
	<path class="st0" d="M158.45,226.27c0,0-23.31-4.94-18.72-27.19c-2.83-7.77,7.42-15.89,10.24-16.25"/>
	<path class="st0" d="M164.22,225.21c0,0-27.55-6.83-19.54-31.31c-1.88-5.18,6.83-12.01,10.6-12.48"/>
	<path class="st0" d="M170.07,224.15c0,0-31.79-8.71-20.37-35.43c-0.94-2.59,6.24-8.12,10.95-8.71"/>
	<path class="st0" d="M175.97,223.09c0,0-36.02-10.6-21.19-39.55c0,0,5.65-4.24,11.3-4.94"/>
	<path class="st0" d="M170.28,178.83c-4.71,0.59-12.95,4.24-14.01,6c-13.42,25.9,17.42,37.91,19.66,38.5"/>
	<path class="st0" d="M174.49,179.06c-3.77,0.47-14.6,3.53-16.72,7.06c-12.01,22.84,13.66,36.26,18.13,37.44"/>
	<path class="st0" d="M177.29,179.3c-2.83,0.35-16.25,2.83-19.42,8.12c-10.6,19.78,9.89,34.61,16.6,36.38"/>
	<path class="st0" d="M179.4,179.54c-1.88,0.24-17.89,2.12-22.13,9.18c-9.18,16.72,6.12,32.96,15.07,35.32"/>
	<path class="st0" d="M181.54,179.77c-0.94,0.12-19.54,1.41-24.84,10.24c-7.77,13.66,2.35,31.31,13.54,34.26"/>
	<path class="st0" d="M183.74,180.01c0,0-21.19,0.71-27.55,11.3c-6.36,10.6-1.41,29.67,12.01,33.2"/>
	<path class="st0" d="M188.21,180.71c0,0-20.37,1.29-26.37,12.71c-6,11.42-1.06,28.14,10.12,31.08"/>
	<path class="st0" d="M192.68,181.42c0,0-19.54,1.88-25.19,14.13s-0.71,26.61,8.24,28.96"/>
	<path class="st0" d="M197.16,182.13c0,0-18.72,2.47-24.02,15.54c-5.3,13.07-0.35,25.07,6.36,26.84"/>
	<path class="st0" d="M201.63,182.83c0,0-17.89,3.06-22.84,16.95c-4.94,13.89,0,23.54,4.47,24.72"/>
	<path class="st0" d="M206.1,183.54c0,0-17.07,3.65-21.66,18.36c-4.59,14.72,0.35,22.01,2.59,22.6"/>
	<path class="st0" d="M210.58,184.24c0,0-16.25,4.24-20.48,19.78c-4.24,15.54,0.71,20.48,0.71,20.48"/>
	<path class="st0" d="M213.64,185.37c0,0-16.36,2.24-21.66,16.48c-5.3,14.24-1.53,21.31,0.12,23.07"/>
	<path class="st0" d="M216.78,186.49c0,0-16.48,0.24-22.84,13.18c-6.36,12.95-3.77,22.13-0.47,25.66"/>
	<path class="st0" d="M219.96,187.67c0,0-16.6-1.77-24.02,9.89c-7.42,11.65-6,22.96-1.06,28.25"/>
	<path class="st0" d="M223.18,189.08c0,0-16.72-3.77-25.19,6.59c-8.48,10.36-8.24,23.78-1.65,30.84"/>
	<path class="st0" d="M226.41,190.77c0,0-16.83-5.77-26.37,3.3c-9.54,9.06-10.48,24.6-2.24,33.43"/>
	<path class="st0" d="M229.65,192.72c0,0-16.95-7.77-27.55,0c-10.6,7.77-12.71,25.43-2.83,36.02"/>
	<path class="st0" d="M233.18,194.2c0,0-16.83-6.83-27.78,1.77c-10.95,8.59-11.77,25.55-3.53,34.38"/>
	<path class="st0" d="M236.71,195.75c0,0-16.72-5.89-28.02,3.53c-11.3,9.42-10.83,25.66-4.24,32.73"/>
	<path class="st0" d="M240.24,197.36c0,0-16.6-4.94-28.25,5.3c-11.65,10.24-9.89,25.78-4.94,31.08"/>
	<path class="st0" d="M243.77,199.05c0,0-16.48-4-28.49,7.06c-12.01,11.07-8.95,25.9-5.65,29.43"/>
	<path class="st0" d="M247.3,200.79c0,0-16.36-3.06-28.72,8.83c-12.36,11.89-8.01,26.02-6.36,27.78"/>
	<path class="st0" d="M250.84,202.61c0,0-16.25-2.12-28.96,10.6c-12.71,12.71-7.06,26.13-7.06,26.13"/>
	<path class="st0" d="M216.46,241.44c0,0-6-15.89,7.3-28.61c13.3-12.71,28.96-8.48,29.67-7.89"/>
	<path class="st0" d="M218.11,243.77c0,0-6.36-18.36,7.53-31.08c13.89-12.71,28.96-6.36,30.37-5.18"/>
	<path class="st0" d="M219.76,246.25c0,0-6.71-20.84,7.77-33.55c14.48-12.71,28.96-4.24,31.08-2.47"/>
	<path class="st0" d="M221.41,248.82c0,0-7.06-23.31,8.01-36.02s28.96-2.12,31.79,0.24"/>
	<path class="st0" d="M223.05,251.47c0,0-7.42-25.78,8.24-38.5c15.66-12.71,28.96,0,32.49,2.94"/>
	<path class="st0" d="M224.7,254.17c0,0-7.77-28.25,8.48-40.97c16.25-12.71,28.96,2.12,33.2,5.65"/>
	<path class="st0" d="M270.85,223.33c-3.53-2.94-19.19-17.89-35.43-5.3c-13.54,10.6-9.3,35.55-7.77,39.2"/>
	<path class="st0" d="M275.39,227.8c-2.83-2.35-21.43-17.42-37.67-4.94c-10.83,8.48-10.12,30.14-7.06,37.44"/>
	<path class="st0" d="M279.98,232.27c-2.12-1.77-23.66-16.95-39.91-4.59c-8.12,6.36-10.95,24.72-6.36,35.67"/>
	<path class="st0" d="M284.61,236.75c-1.41-1.18-25.9-16.48-42.14-4.24c-5.42,4.24-11.77,19.31-5.65,33.9"/>
	<path class="st0" d="M289.33,241.22c-0.71-0.59-28.14-16.01-44.38-3.88c-2.71,2.12-12.6,13.89-4.94,32.14"/>
	<path class="st0" d="M293.92,245.7c0,0-30.37-15.54-46.62-3.53c0,0-13.42,8.48-4.24,30.37"/>
	<path class="st0" d="M245.66,277.25c-7.65-18.25,2.35-31.9,10.12-32.26c13.54-10.01,40.38,2.71,41.91,4.24"/>
	<path class="st0" d="M248.25,281.95c-6.12-14.6,0.47-33.43,16.01-34.14c10.83-8.01,34.14,1.88,37.2,4.94"/>
	<path class="st0" d="M250.84,286.66c-4.59-10.95-1.41-34.96,21.9-36.02c8.12-6,27.9,1.06,32.49,5.65"/>
	<path class="st0" d="M253.43,291.37c-3.06-7.3-3.3-36.49,27.78-37.91c5.42-4,21.66,0.24,27.78,6.36"/>
	<path class="st0" d="M256.02,296.08c-1.53-3.65-5.18-38.02,33.67-39.79c2.71-2,15.42-0.59,23.07,7.06"/>
	<path class="st0" d="M258.61,300.79c0,0-7.06-39.55,39.55-41.67c0,0,9.18-1.41,18.36,7.77"/>
	<path class="st0" d="M259.87,302.79c0,0-6.83-37.44,34.49-40.85c2.47-1.65,12.95-3.18,22.96,6.24"/>
	<path class="st0" d="M261.13,304.88c0,0-6.59-35.32,29.43-40.03c4.94-3.3,16.72-4.94,27.55,4.71"/>
	<path class="st0" d="M262.4,307.01c0,0-6.36-33.2,24.37-39.2c7.42-4.94,20.48-6.71,32.14,3.18"/>
	<path class="st0" d="M263.69,309.16c0,0-6.12-31.08,19.31-38.38c9.89-6.59,24.25-8.48,36.73,1.65"/>
	<path class="st0" d="M265.08,311.39c0,0-5.89-28.96,14.24-37.55c12.36-8.24,28.02-10.24,41.32,0.12"/>
	<path class="st0" d="M266.38,313.5c0,0-5.65-26.84,9.18-36.73s31.79-12.01,45.91-1.41"/>
	<path class="st0" d="M268.26,318.22c0,0-5.42-27.66,10.12-38.14c15.54-10.48,32.26-11.89,44.97-2.59"/>
	<path class="st0" d="M270.14,322.93c0,0-5.18-28.49,11.07-39.55c16.25-11.07,32.73-11.77,44.03-3.77"/>
	<path class="st0" d="M272.03,327.65c0,0-4.94-29.31,12.01-40.97c16.95-11.65,33.2-11.65,43.09-4.94"/>
	<path class="st0" d="M273.91,332.36c0,0-4.71-30.14,12.95-42.38s33.67-11.54,42.14-6.12"/>
	<path class="st0" d="M275.8,337.08c0,0-4.47-30.96,13.89-43.79c18.36-12.83,34.14-11.42,41.2-7.3"/>
	<path class="st0" d="M277.68,341.79c0,0-4.24-31.79,14.83-45.21s34.61-11.3,40.26-8.48"/>
	<path class="st0" d="M279.79,346.16c0,0-3.75-31.24,16.63-44.3c14.47-9.28,27.14-10.1,35.65-8.4"/>
	<path class="st0" d="M282.13,346.71c-0.12-8.49,1.41-29.79,18.61-39.79c9.54-5.54,18.52-7.61,26.38-7.68"/>
	<path class="st0" d="M285.19,343.64c1.26-9.94,5.64-24.21,19.88-31.64c4.94-2.58,9.83-4.27,14.62-5.25"/>
	<path class="st0" d="M292.46,333.38c3.25-6.31,8.5-12.38,16.95-16.27c0.34-0.16,0.68-0.31,1.02-0.46"/>
</g>
<g>
	<path class="st0" d="M440.88,602.68c0,0-2.36,5.55,3.22,2.01"/>
	<path class="st0" d="M443.41,600.25c0,0-2.25,5.76,3.44,2.25"/>
	<path class="st0" d="M445.93,597.83c0,0-2.14,5.96,3.66,2.49"/>
	<path class="st0" d="M448.45,595.4c0,0-2.02,6.17,3.88,2.73"/>
	<path class="st0" d="M450.98,592.97c0,0-1.91,6.38,4.09,2.97"/>
	<path class="st0" d="M453.5,590.54c0,0-1.8,6.59,4.31,3.2"/>
	<path class="st0" d="M456.03,588.11c0,0-1.69,6.79,4.53,3.44"/>
	<path class="st0" d="M457.66,585.18c0,0-1.19,6.88,4.8,3.12"/>
	<path class="st0" d="M459.23,582.27c0,0-0.7,6.97,5.07,2.79"/>
	<path class="st0" d="M460.87,579.34c0,0-0.21,7.06,5.34,2.47"/>
	<path class="st0" d="M462.55,576.39c0,0,0.29,7.15,5.61,2.15"/>
	<path class="st0" d="M464.18,573.46c0,0,0.78,7.24,5.88,1.82"/>
	<path class="st0" d="M465.81,570.53c0,0,1.28,7.34,6.16,1.5"/>
	<path class="st0" d="M466.41,569.49c0,0,1.18,7.48,5.98,1.5"/>
	<path class="st0" d="M467.01,568.46c0,0,1.08,7.62,5.8,1.51"/>
	<path class="st0" d="M467.61,567.42c0,0,0.97,7.77,5.63,1.51"/>
	<path class="st0" d="M468.21,566.38c0,0,0.87,7.91,5.45,1.52"/>
	<path class="st0" d="M468.82,565.35c0,0,0.77,8.05,5.28,1.52"/>
	<path class="st0" d="M469.42,564.31c0,0,0.67,8.2,5.1,1.53"/>
	<path class="st0" d="M470.9,561.11c0,0,0.8,7.77,5.32,1.59"/>
	<path class="st0" d="M472.38,557.9c0,0,0.93,7.35,5.53,1.66"/>
	<path class="st0" d="M473.86,554.69c0,0,1.05,6.92,5.74,1.72"/>
	<path class="st0" d="M475.34,551.49c0,0,1.18,6.5,5.95,1.78"/>
	<path class="st0" d="M476.83,548.28c0,0,1.31,6.07,6.17,1.85"/>
	<path class="st0" d="M478.31,545.08c0,0,1.44,5.64,6.38,1.91"/>
	<path class="st0" d="M479.69,543.17c0,0,0.85,5.87,6.21,2.27"/>
	<path class="st0" d="M481.07,541.27c0,0,0.26,6.1,6.05,2.62"/>
	<path class="st0" d="M482.39,539.38c0,0-0.33,6.33,5.88,2.98"/>
	<path class="st0" d="M483.77,537.48c0,0-0.92,6.56,5.72,3.34"/>
	<path class="st0" d="M485.22,535.56c0,0-1.51,6.79,5.56,3.69"/>
	<path class="st0" d="M486.6,533.66c0,0-2.1,7.02,5.39,4.05"/>
	<path class="st0" d="M489.61,529.98c0,0-2.5,7.77,5.69,4.78"/>
	<path class="st0" d="M492.62,526.31c0,0-2.9,8.52,6,5.51"/>
	<path class="st0" d="M495.64,522.64c0,0-3.3,9.27,6.3,6.23"/>
	<path class="st0" d="M498.65,518.96c0,0-3.7,10.02,6.6,6.96"/>
	<path class="st0" d="M501.66,515.29c0,0-4.1,10.76,6.91,7.69"/>
	<path class="st0" d="M504.68,511.62c0,0-4.49,11.51,7.21,8.42"/>
	<path class="st0" d="M507.32,509.57c0,0-5.2,11.54,6.98,8.99"/>
	<path class="st0" d="M509.93,507.58c0,0-5.9,11.56,6.75,9.56"/>
	<path class="st0" d="M512.57,505.54c0,0-6.6,11.58,6.52,10.12"/>
	<path class="st0" d="M515.22,503.49c0,0-7.3,11.6,6.3,10.69"/>
	<path class="st0" d="M517.88,501.38c0,0-8,11.62,6.07,11.26"/>
	<path class="st0" d="M520.52,499.33c0,0-8.7,11.64,5.84,11.83"/>
	<path class="st0" d="M522.74,498.32c0,0-5.1,6.25-1.88,9.91c0.99,1.01,3.1,2.38,7.38,2.11"/>
	<path class="st0" d="M524.96,497.3c0,0-5.48,6.18-2.37,10.1c0.79,0.81,2.8,2.69,7.52,2.1"/>
	<path class="st0" d="M527.17,496.29c0,0-5.85,6.11-2.85,10.3c0.59,0.61,2.5,3.01,7.65,2.09"/>
	<path class="st0" d="M529.39,495.27c0,0-6.23,6.04-3.34,10.49c0.4,0.41,2.2,3.32,7.79,2.08"/>
	<path class="st0" d="M531.61,494.25c0,0-6.61,5.97-3.82,10.68c0.2,0.2,1.9,3.64,7.93,2.08"/>
	<path class="st0" d="M533.82,493.24c0,0-6.98,5.9-4.3,10.88c0,0,1.6,3.95,8.07,2.07"/>
	<path class="st0" d="M537.24,491.31c0,0-6.82,5.55-3.81,10.79c0.77,1.1,2.39,4.77,8.93,2.68"/>
	<path class="st0" d="M540.66,489.38c0,0-6.65,5.19-3.32,10.71c1.54,2.2,3.19,5.59,9.79,3.28"/>
	<path class="st0" d="M544.07,487.45c0,0-6.49,4.83-2.84,10.62c2.31,3.3,3.99,6.41,10.65,3.89"/>
	<path class="st0" d="M547.49,485.52c0,0-6.32,4.48-2.35,10.54c3.08,4.4,4.79,7.23,11.51,4.49"/>
	<path class="st0" d="M550.91,483.59c0,0-6.16,4.12-1.86,10.45c3.86,5.5,5.58,8.05,12.38,5.1"/>
	<path class="st0" d="M554.33,481.66c0,0-5.99,3.76-1.37,10.37s6.38,8.86,13.24,5.71"/>
	<path class="st0" d="M555.49,480.47c0,0-5.03,4.05-0.76,10.27c4.19,6.06,6.26,8.39,13.11,5.54"/>
	<path class="st0" d="M556.67,479.28c0,0-4.07,4.35-0.15,10.18c3.74,5.53,6.14,7.91,12.98,5.37"/>
	<path class="st0" d="M557.86,478.09c0,0-3.12,4.64,0.47,10.09c3.29,4.99,6.02,7.44,12.85,5.2"/>
	<path class="st0" d="M559.07,476.89c0,0-2.16,4.93,1.08,10c2.85,4.46,5.9,6.96,12.72,5.03"/>
	<path class="st0" d="M560.32,475.69c0,0-1.19,5.22,1.69,9.91c2.42,3.91,5.78,6.49,12.6,4.86"/>
	<path class="st0" d="M561.69,474.48c0,0-0.73,17.51,14.77,14.51"/>
	<path class="st0" d="M560.81,475.08c0,0,1.51,14.16,16.68,11.01"/>
	<path class="st0" d="M561.87,474.23c0,0,3.75,10.81,18.6,7.51"/>
	<path class="st0" d="M562.93,473.33c0,0,5.99,7.46,20.51,4.02"/>
	<path class="st0" d="M563.98,472.28c0,0,8.23,4.11,22.42,0.52"/>
	<path class="st0" d="M565.04,472.22c0,0,10.47,0.76,24.34-2.98"/>
	<path class="st0" d="M566.1,471.49c0,0,12.71-2.59,26.25-6.47"/>
</g>
</svg>
