<?xml version="1.0" encoding="utf-8"?>
<!-- Generator: Adobe Illustrator 23.0.6, SVG Export Plug-In . SVG Version: 6.00 Build 0)  -->
<svg version="1.1" id="Layer_1" xmlns="http://www.w3.org/2000/svg" xmlns:xlink="http://www.w3.org/1999/xlink" x="0px" y="0px"
	 viewBox="0 0 375 268.24" style="enable-background:new 0 0 375 268.24;" xml:space="preserve">
<style type="text/css">
	.st0{fill:none;stroke:#939598;stroke-width:0.3;stroke-miterlimit:10;}
</style>
<g>
	<path class="st0" d="M38.4,307.35c0,0-5.62,12.85,31.32,28.91s41.76-2.41,41.76-2.41"/>
	<path class="st0" d="M41.31,300c0,0-7.23,12.58,32.52,30.25c30.78,13.38,38.01,0.13,40.42-1.87"/>
	<path class="st0" d="M44.24,292.6c0,0-8.83,12.31,33.73,31.59c24.63,10.71,34.26,2.68,39.08-1.34"/>
	<path class="st0" d="M47.18,285.12c0,0-10.44,12.05,34.93,32.92c18.47,8.03,30.52,5.22,37.74-0.8"/>
	<path class="st0" d="M50.13,277.46c0,0-12.05,11.78,36.14,34.26c12.31,5.35,26.77,7.76,36.4-0.27"/>
	<path class="st0" d="M53.1,269.58c0,0-13.65,11.51,37.34,35.6c6.16,2.68,23.02,10.31,35.07,0.27"/>
	<path class="st0" d="M56.07,261.58c0,0-15.26,11.24,38.55,36.94c0,0,19.27,12.85,33.73,0.8"/>
	<path class="st0" d="M59.41,255.96c0.4,0.13-9.64,7.9,39.88,34.93c0,0,18.07,12.71,30.25,5.35"/>
	<path class="st0" d="M63.17,249.88c0.8,0.27-4.02,4.55,41.22,32.92c0,0,16.86,12.58,26.77,9.9"/>
	<path class="st0" d="M67.22,243.02c1.2,0.4,1.61,1.2,42.56,30.92c0,0,15.66,12.45,23.29,14.45"/>
	<path class="st0" d="M71.26,235.97c1.61,0.54,7.23-2.14,43.9,28.91c0,0,14.45,12.31,19.81,19.01"/>
	<path class="st0" d="M75.31,228.96c2.01,0.67,12.85-5.49,45.24,26.9c0,0,13.25,12.18,16.33,23.56"/>
	<path class="st0" d="M79.36,222.23c2.41,0.8,18.47-8.83,46.58,24.89c0,0,12.05,12.05,12.85,28.11"/>
	<path class="st0" d="M84.48,217.5c1.53,0.51,12.62-8.45,31.33,5.83c4.41,3.2,12.76,9.98,18.46,20.41c0,0,10.44,12.31,8.57,27.97"/>
	<path class="st0" d="M89.17,212.91c1.22,0.41,13.63-12.06,34.06,4.18c3.53,2.56,14.22,10.55,18.94,23.39c0,0,8.83,12.58,4.28,27.84
		"/>
	<path class="st0" d="M93.45,208.37c0.92,0.31,14.64-15.67,36.78,2.53c2.65,1.92,15.69,11.13,19.43,26.38c0,0,7.23,12.85,0,27.7"/>
	<path class="st0" d="M97.35,203.87c0.61,0.2,15.65-19.28,39.51,0.88c1.77,1.28,17.15,11.7,19.91,29.36c0,0,5.62,13.12-4.28,27.57"
		/>
	<path class="st0" d="M100.93,199.39c0.31,0.1,16.66-22.89,42.24-0.76c0.88,0.64,18.61,12.27,20.4,32.35c0,0,4.02,13.38-8.57,27.44"
		/>
	<path class="st0" d="M104.25,194.93c0,0,17.67-26.5,44.97-2.41c0,0,20.08,12.85,20.88,35.33c0,0,2.41,13.65-12.85,27.3"/>
	<path class="st0" d="M108.67,190.64c0,0,20.48-27.17,46.71-2.54c2.11,2.76,19.43,15.93,19.18,37.11
		c-0.59,1.58,0.19,14.53-14.36,27.53"/>
	<path class="st0" d="M112.97,186.36c0,0,23.29-27.84,48.45-2.68c4.22,5.52,18.77,19.02,17.48,38.89
		c-1.18,3.16-2.02,15.4-15.88,27.77"/>
	<path class="st0" d="M117.21,182.08c0,0,26.1-28.51,50.19-2.81c6.33,8.28,18.12,22.1,15.78,40.66c-1.78,4.74-4.24,16.28-17.39,28"
		/>
	<path class="st0" d="M121.34,177.79c0,0,28.91-29.18,51.93-2.94c8.45,11.04,17.47,25.19,14.09,42.44
		c-2.37,6.32-6.45,17.15-18.9,28.23"/>
	<path class="st0" d="M125.33,173.51c0,0,31.72-29.85,53.67-3.08c10.56,13.81,16.82,28.27,12.39,44.22
		c-2.96,7.9-8.67,18.03-20.42,28.46"/>
	<path class="st0" d="M129.15,169.23c0,0,34.53-30.52,55.41-3.21s16.86,49.79-11.24,74.68"/>
	<path class="st0" d="M133.23,166.47c0,0,33.73-28.24,54.74-0.94c13.61,17.8,18.01,37.43,3.19,57.62
		c-3.19,4.39-8.67,9.87-15.11,15.06"/>
	<path class="st0" d="M137.29,163.74c0,0,32.92-25.96,54.07,1.34c10.89,14.24,18.58,35.08,2.72,56.53
		c-2.55,3.51-8.54,9.18-15.3,14.13"/>
	<path class="st0" d="M141.31,161.04c0,0,32.12-23.69,53.4,3.61c8.17,10.68,19.16,32.74,2.24,55.45
		c-1.91,2.63-8.42,8.49-15.49,13.21"/>
	<path class="st0" d="M145.31,158.37c0,0,31.32-21.41,52.73,5.89c5.45,7.12,19.73,30.39,1.76,54.37c-1.28,1.75-8.29,7.8-15.68,12.29
		"/>
	<path class="st0" d="M149.28,155.74c0,0,30.52-19.14,52.06,8.16c2.72,3.56,20.3,28.04,1.28,53.28c-0.64,0.88-8.16,7.11-15.87,11.36
		"/>
	<path class="st0" d="M153.24,153.17c0,0,29.71-16.86,51.39,10.44c0,0,20.88,25.7,0.8,52.2c0,0-8.03,6.42-16.06,10.44"/>
	<path class="st0" d="M160.43,151.16c0,0,30.25-14.86,50.32,12.05c1.59,3.28,18.48,29.32-2.04,53.19c-1,0.47-8.93,6.1-17.1,9.45"/>
	<path class="st0" d="M167.49,149.2c0,0,30.78-12.85,49.25,13.65c3.18,6.56,16.08,32.94-4.88,54.18c-2,0.95-9.82,5.78-18.14,8.45"/>
	<path class="st0" d="M174.39,147.28c0,0,31.32-10.84,48.18,15.26c4.76,9.84,13.69,36.56-7.72,55.17
		c-3.01,1.42-10.71,5.46-19.18,7.46"/>
	<path class="st0" d="M181.12,145.42c0,0,31.85-8.83,47.11,16.86c6.35,13.13,11.29,40.18-10.56,56.17
		c-4.01,1.89-11.61,5.13-20.22,6.47"/>
	<path class="st0" d="M187.71,143.63c0,0,32.39-6.83,46.04,18.47c7.94,16.41,8.89,43.8-13.41,57.16c-5.01,2.36-12.5,4.81-21.26,5.48
		"/>
	<path class="st0" d="M194.19,141.93c0,0,32.92-4.82,44.97,20.08c12.05,24.89,4.02,62.64-38.55,62.64"/>
	<path class="st0" d="M200.23,141.65c0,0,31.93-4.79,44.3,19.81c9.19,18.28,6.29,42.27-9.13,53.77c-7.88,5.87-19.47,9-30.35,9"/>
	<path class="st0" d="M206.26,141.39c0,0,30.97-4.78,43.63,19.54c10.05,19.3,5.45,43.75-9.56,54.1c-8.81,6.08-22.16,8.8-30.86,8.8"
		/>
	<path class="st0" d="M212.29,141.12c0,0,30.03-4.77,42.96,19.27c10.93,20.31,4.54,45.15-9.98,54.43
		c-9.78,6.25-24.85,8.61-31.38,8.61"/>
	<path class="st0" d="M218.31,140.85c0,0,29.1-4.78,42.29,19.01c11.82,21.31,3.58,46.49-10.4,54.75
		c-10.77,6.37-27.54,8.42-31.89,8.42"/>
	<path class="st0" d="M225.12,140.59c0,0,28.24-4.82,41.62,18.74c12.77,22.28,2.6,47.76-10.82,55.08
		c-11.79,6.43-30.23,8.22-32.41,8.22"/>
	<path class="st0" d="M231.94,140.32c0,0,27.3-4.82,40.95,18.47s1.61,48.98-11.24,55.41c-12.85,6.42-32.92,8.03-32.92,8.03"/>
	<path class="st0" d="M230.26,140.07c0,0,25.43-5.22,39.88,15.66c14.45,20.88,6.42,46.71-6.29,55.41
		c-10.71,5.35-28.24,9.37-31.72,10.31"/>
	<path class="st0" d="M229.95,139.85c0,0,23.56-5.62,38.81,12.85c15.26,18.47,11.24,44.43-1.34,55.41
		c-8.57,4.28-23.56,10.71-30.52,12.58"/>
	<path class="st0" d="M229.39,139.67c0,0,21.68-6.02,37.74,10.04s16.06,42.16,3.61,55.41c-6.42,3.21-18.87,12.05-29.31,14.86"/>
	<path class="st0" d="M228.56,139.54c0,0,19.81-6.42,36.67,7.23c16.86,13.65,20.88,39.88,8.57,55.41
		c-4.28,2.14-14.19,13.38-28.11,17.13"/>
	<path class="st0" d="M227.52,139.48c0,0,17.93-6.83,35.6,4.42s25.7,37.61,13.52,55.41c-2.14,1.07-9.5,14.72-26.9,19.41"/>
	<path class="st0" d="M226.31,139.52c0,0,16.06-7.23,34.53,1.61c18.47,8.83,30.52,35.33,18.47,55.41c0,0-4.82,16.06-25.7,21.68"/>
	<path class="st0" d="M230.89,138.35c0,0,15.69-6.82,33.58,0.62c10.41,4.33,19.13,13.83,22.83,25.36
		c2.82,8.76,2.64,18.12-1.58,26.45c0.13,1.71-4.46,16.7-22.57,22.65"/>
	<path class="st0" d="M235.38,137.2c0,0,15.33-6.43,32.62-0.37c10.26,3.6,19.25,11.79,23.59,22.75c3.34,8.45,3.72,17.39,0.45,25.46
		c0.26,3.42-4.1,17.33-19.45,23.62"/>
	<path class="st0" d="M239.77,136.08c0,0,14.98-6.05,31.67-1.35c10.13,2.86,19.38,9.75,24.34,20.15c3.88,8.14,4.8,16.66,2.48,24.47
		c0.39,5.13-3.74,17.97-16.33,24.59"/>
	<path class="st0" d="M244.04,135.01c0,0,14.65-5.71,30.71-2.34c10,2.1,19.53,7.71,25.1,17.55c4.43,7.82,5.88,15.93,4.51,23.47
		c0.52,6.84-3.39,18.6-13.21,25.56"/>
	<path class="st0" d="M248.14,134c0,0,14.31-5.39,29.76-3.33c9.87,1.32,19.69,5.66,25.85,14.95c4.98,7.5,6.96,15.2,6.54,22.48
		c0.65,8.55-3.03,19.24-10.08,26.53"/>
	<path class="st0" d="M252.01,133.09c0,0,38.36-14.03,55.41,8.03c13.65,17.67,8.83,36.14,1.61,48.98"/>
	<path class="st0" d="M253.87,132.29c0,0,36.81-14.97,54.47,8.16c12.53,16.3,10.31,35.07,2.28,48.58"/>
	<path class="st0" d="M255.68,131.47c0,0,35.19-15.87,53.54,8.3c11.36,14.97,11.78,34,2.94,48.18"/>
	<path class="st0" d="M257.43,130.67c0,0,33.62-16.8,52.6,8.43c10.23,13.61,13.25,32.92,3.61,47.78"/>
	<path class="st0" d="M259.14,129.87c0,0,32.07-17.75,51.66,8.57c9.11,12.24,14.72,31.85,4.28,47.38"/>
	<path class="st0" d="M260.81,129.07c0,0,30.54-18.71,50.72,8.7c8,10.87,16.19,30.78,4.95,46.98"/>
	<path class="st0" d="M262.45,128.27c0,0,29.04-19.7,49.79,8.83c6.9,9.49,17.67,29.71,5.62,46.58"/>
	<path class="st0" d="M267.85,122.97c0,0,26.34-17.62,48.05,10.04c7.22,9.64,17.8,28.91,6.96,45.1"/>
	<path class="st0" d="M273.24,117.69c0,0,23.64-15.54,46.31,11.24c7.54,9.8,17.93,28.11,8.3,43.63"/>
	<path class="st0" d="M278.61,112.44c0,0,20.94-13.46,44.57,12.45c7.87,9.96,18.07,27.3,9.64,42.16"/>
	<path class="st0" d="M283.95,107.23c0,0,18.25-11.38,42.83,13.65c8.19,10.12,18.2,26.5,10.97,40.69"/>
	<path class="st0" d="M289.28,102.06c0,0,15.55-9.31,41.09,14.86c8.51,10.28,18.34,25.7,12.31,39.21"/>
	<path class="st0" d="M294.57,96.96c0,0,12.85-7.23,39.35,16.06c8.83,10.44,18.47,24.89,13.65,37.74"/>
	<path class="st0" d="M300.13,90.29c0,0,14.32-5.89,40.02,17.53c7.36,8.7,17.8,24.09,13.65,37.74"/>
	<path class="st0" d="M305.65,83.66c0,0,15.79-4.55,40.69,19.01c5.89,6.96,17.13,23.29,13.65,37.74"/>
	<path class="st0" d="M311.15,77.09c0,0,17.27-3.21,41.36,20.48c4.42,5.22,16.46,22.48,13.65,37.74"/>
	<path class="st0" d="M316.63,70.56c0,0,18.74-1.87,42.03,21.95c2.94,3.48,15.79,21.68,13.65,37.74"/>
	<path class="st0" d="M322.07,64.08c0,0,20.21-0.54,42.69,23.42c1.47,1.74,15.12,20.88,13.65,37.74"/>
	<path class="st0" d="M327.5,57.61c0,0,21.68,0.8,43.36,24.89c0,0,14.45,20.08,13.65,37.74"/>
	<path class="st0" d="M325.65,59.44c0,0,23.42-2.54,46.04,20.48c4.55,2.94,14.86,23.42,14.19,38.14"/>
	<path class="st0" d="M323.8,61.54c0,0,25.16-5.89,48.72,16.06c9.1,5.89,15.26,26.77,14.72,38.55"/>
	<path class="st0" d="M321.95,63.99c0,0,26.9-9.23,51.39,11.64c13.65,8.83,15.66,30.11,15.26,38.95"/>
	<path class="st0" d="M320.02,66.73c0,0,28.64-12.58,54.07,7.23c18.2,11.78,16.06,33.46,15.79,39.35"/>
	<path class="st0" d="M317.83,69.7c0,0,30.38-15.93,56.75,2.81c22.75,14.72,16.46,36.81,16.33,39.75"/>
	<path class="st0" d="M315.45,72.86c0,0,32.12-19.27,59.42-1.61c27.3,17.67,16.86,40.15,16.86,40.15"/>
	<path class="st0" d="M321.46,65.94c0,0,32-17.22,57.94,1.31c23.38,16.7,15.65,37.15,15.6,40.38"/>
	<path class="st0" d="M327.42,59.12c0,0,31.89-15.3,56.46,4.22c19.55,15.52,14.43,34.16,14.34,40.62"/>
	<path class="st0" d="M333.29,52.41c0,0,31.83-13.55,54.98,7.13c15.83,14.14,13.21,31.16,13.08,40.85"/>
	<path class="st0" d="M339.05,45.84c0,0,31.93-12.03,53.5,10.04c12.27,12.56,12,28.16,11.81,41.08"/>
	<path class="st0" d="M344.72,39.4c0,0,32.4-10.84,52.02,12.96c8.9,10.8,10.78,25.17,10.55,41.32"/>
	<path class="st0" d="M350.38,33.11c0,0,60.9-18.34,59.83,57.42"/>
	<path class="st0" d="M351.38,31.98c0,0,62.64-18.27,59.96,57.89"/>
	<path class="st0" d="M352.34,30.84c0,0,64.38-18.2,60.09,58.35"/>
	<path class="st0" d="M353.29,29.7c0,0,66.12-18.14,60.23,58.82"/>
	<path class="st0" d="M354.21,28.56c0,0,67.86-18.07,60.36,59.29"/>
	<path class="st0" d="M355.07,27.43c0,0,69.6-18,60.5,59.76"/>
	<path class="st0" d="M356,26.29c0,0,71.34-17.93,60.63,60.23"/>
	<path class="st0" d="M361.33,20.98c0,0,44.46-9.54,57.46,22.85c4.75,11.84,3.06,24.35,1.09,38.72"/>
	<path class="st0" d="M366.63,16.02c0,0,45.33-8.07,57.53,24.38c5.49,14.6,0.52,27.03-1.05,38.52"/>
	<path class="st0" d="M371.76,11.09c0,0,46.07-6.55,57.6,25.92c6.17,17.37-2.02,29.71-3.2,38.33"/>
	<path class="st0" d="M376.83,6.21c0,0,46.74-5,57.68,27.45c6.8,20.17-4.56,32.39-5.34,38.13"/>
	<path class="st0" d="M381.88,1.37c0,0,47.34-3.44,57.75,28.98c7.37,22.98-7.1,35.06-7.49,37.94"/>
	<path class="st0" d="M386.92-3.42c0,0,47.91-1.87,57.82,30.52c7.89,25.8-9.64,37.74-9.64,37.74"/>
</g>
<g>
	<path class="st0" d="M319.77,236.1c0,0-7.78-12.45-1.04-22.3c6.74-9.85,22.82-5.71,24.9,5.71"/>
	<path class="st0" d="M320.26,237.16c0,0-7.78-12.88-0.17-21.87c7.61-8.99,21.78-4.24,23.51,6.74"/>
	<path class="st0" d="M320.76,238.24c0,0-7.78-13.31,0.69-21.44c8.47-8.13,20.75-2.77,22.13,7.78"/>
	<path class="st0" d="M321.28,239.34c0,0-7.78-13.74,1.56-21.01c9.34-7.26,19.71-1.3,20.75,8.82"/>
	<path class="st0" d="M321.81,240.48c0,0-7.78-14.18,2.42-20.57s18.67,0.17,19.36,9.85"/>
	<path class="st0" d="M322.34,241.64c0,0-7.78-14.61,3.28-20.14c11.06-5.53,17.63,1.64,17.98,10.89"/>
	<path class="st0" d="M322.89,242.84c0,0-7.78-15.04,4.15-19.71c11.93-4.67,16.6,3.11,16.6,11.93"/>
	<path class="st0" d="M323.27,244.39c0,0-7-14.09,4.58-18.33c11.58-4.24,16.42,3.37,15.82,12.19"/>
	<path class="st0" d="M323.62,245.94c0,0-6.22-13.14,5.01-16.94c11.24-3.8,16.25,3.63,15.04,12.45"/>
	<path class="st0" d="M323.96,247.49c0,0-5.45-12.19,5.45-15.56c10.89-3.37,16.08,3.89,14.26,12.71"/>
	<path class="st0" d="M324.29,249.05c0,0-4.67-11.24,5.88-14.18s15.91,4.15,13.49,12.97"/>
	<path class="st0" d="M324.62,250.39c0,0-3.89-10.29,6.31-12.79c10.2-2.51,15.73,4.41,12.71,13.23"/>
	<path class="st0" d="M324.96,251.14c0,0-3.11-9.34,6.74-11.41c9.85-2.07,15.56,4.67,11.93,13.49"/>
	<path class="st0" d="M325.05,254.34c0,0-2.57-9.23,7.46-10.52c8.21-1.73,14.18,3.87,11.22,13.2"/>
	<path class="st0" d="M325.19,257.46c0,0-2.03-9.12,8.17-9.64c6.57-1.38,12.79,3.07,10.5,12.92"/>
	<path class="st0" d="M325.29,260.61c0,0-1.49-9.01,8.88-8.75c4.93-1.04,11.41,2.27,9.79,12.64"/>
	<path class="st0" d="M325.38,263.77c0,0-0.95-8.9,9.6-7.87c3.28-0.69,10.03,1.47,9.08,12.36"/>
	<path class="st0" d="M325.44,267.02c0,0-0.41-8.8,10.31-6.98c1.64-0.35,8.64,0.67,8.36,12.08"/>
	<path class="st0" d="M325.48,270.33c0,0,0.13-8.69,11.02-6.09c0,0,7.26-0.13,7.65,11.8"/>
</g>
<g>
	<path class="st0" d="M323.4,273.96c1.56-0.52,5.19-7.78,11.41-2.07c0,0,3.63,7.26-0.52,10.89"/>
	<path class="st0" d="M321.85,276.38c1.3-0.43,4.75-7.26,10.37-2.42c0.43,0.09,4.06,6.4,0.35,10.2"/>
	<path class="st0" d="M320.34,278.72c1.04-0.35,4.32-6.74,9.34-2.77c0.86,0.17,4.5,5.53,1.21,9.51"/>
	<path class="st0" d="M318.79,281.12c0.78-0.26,3.89-6.22,8.3-3.11c1.3,0.26,4.93,4.67,2.07,8.82"/>
	<path class="st0" d="M317.23,283.54c0.52-0.17,3.46-5.71,7.26-3.46c1.73,0.35,5.36,3.8,2.94,8.13"/>
	<path class="st0" d="M315.66,285.99c0.26-0.09,3.03-5.19,6.22-3.8c2.16,0.43,5.79,2.94,3.8,7.43"/>
	<path class="st0" d="M314.07,288.49c0,0,2.59-4.67,5.19-4.15c2.59,0.52,6.22,2.07,4.67,6.74"/>
	<path class="st0" d="M313.03,290.73c0,0,1.82-4.93,5.36-4.06c2.16,0.43,5.79,1.82,4.58,6.4"/>
	<path class="st0" d="M311.99,292.98c0,0,1.04-5.19,5.53-3.98c1.73,0.35,5.36,1.56,4.5,6.05"/>
	<path class="st0" d="M310.96,295.23c0,0,0.26-5.45,5.71-3.89c1.3,0.26,4.93,1.3,4.41,5.71"/>
	<path class="st0" d="M309.92,297.48c0,0-0.52-5.71,5.88-3.8c0.86,0.17,4.5,1.04,4.32,5.36"/>
	<path class="st0" d="M308.88,299.72c0,0-1.3-5.96,6.05-3.72c0.43,0.09,4.06,0.78,4.24,5.01"/>
	<path class="st0" d="M307.84,301.97c0,0-2.07-6.22,6.22-3.63c0,0,3.63,0.52,4.15,4.67"/>
</g>
<g>
	<path class="st0" d="M335.85,282.13c0,0,2.59-10.37,8.3-5.71l3.11,5.84"/>
	<path class="st0" d="M336.54,283.19c0,0,2.48-9.4,7.88-5.4c0.17,0.03,2.96,4.98,3.18,5.16"/>
	<path class="st0" d="M337.24,284.25c0,0,2.38-8.42,7.47-5.1c0.35,0.06,2.81,4.13,3.25,4.49"/>
	<path class="st0" d="M337.93,285.31c0,0,2.27-7.45,7.06-4.79c0.52,0.09,2.66,3.27,3.32,3.82"/>
	<path class="st0" d="M338.62,286.37c0,0,2.16-6.47,6.64-4.49c0.69,0.11,2.51,2.42,3.38,3.15"/>
	<path class="st0" d="M339.31,287.43c0,0,2.05-5.5,6.23-4.18c0.86,0.14,2.36,1.57,3.45,2.48"/>
	<path class="st0" d="M340,288.49c0,0,3.11-7.26,9.34-2.07"/>
	<path class="st0" d="M340.87,291.08c0,0,0.99-4.18,5.39-4.24c1.08,0.18,2.78,0.26,4.47,2.16"/>
	<path class="st0" d="M341.68,293.67c0,0,0.27-4.38,5.66-4.53c0.97,0.35,2.95,0,4.72,2.46"/>
	<path class="st0" d="M342.52,296.27c0,0-0.44-4.58,5.93-4.82c0.86,0.52,3.12-0.26,4.96,2.75"/>
	<path class="st0" d="M343.38,298.86c0,0-1.16-4.78,6.2-5.12c0.74,0.7,3.29-0.52,5.21,3.04"/>
	<path class="st0" d="M344.32,301.45c0,0-1.88-4.99,6.47-5.41c0.63,0.87,3.46-0.78,5.46,3.34"/>
	<path class="st0" d="M345.19,304.05c0,0-2.59-5.19,6.74-5.71c0.52,1.04,3.63-1.04,5.71,3.63"/>
</g>
<g>
	<path class="st0" d="M-27.74,285.5c0,0-16.34,11.67-2.33,28.79"/>
	<path class="st0" d="M-25.53,283.86c0,0-14.65,14.52,4.21,28.01"/>
	<path class="st0" d="M-24.15,282.22c0,0-12.97,17.38,10.76,27.23"/>
	<path class="st0" d="M-22.49,280.58c0,0-11.28,20.23,17.31,26.45"/>
	<path class="st0" d="M-20.63,278.93c0,0-9.6,23.08,23.86,25.67"/>
	<path class="st0" d="M-18.6,277.27c0,0-7.91,25.93,30.41,24.9"/>
	<path class="st0" d="M-16.45,275.39c0,0-6.22,28.79,36.96,24.12"/>
	<path class="st0" d="M-15.5,274.43c0,0-4.57,14.89,9.12,23.13c6.2,3.73,15.68,3.97,25.24,2.93"/>
	<path class="st0" d="M-14.4,273.44c0,0-5.96,14.83,6.29,24.34c6.84,5.31,17.83,4.49,25.48,3.67"/>
	<path class="st0" d="M-13.12,272.41c0,0-7.54,15.08,3.45,25.55c7.4,7.04,19.99,5.02,25.72,4.4"/>
	<path class="st0" d="M-11.65,271.35c0,0-9.3,15.48,0.62,26.76c7.82,8.89,22.14,5.55,25.97,5.14"/>
	<path class="st0" d="M-10.03,270.27c0,0-11.21,15.91-2.22,27.97c8.08,10.83,24.3,6.08,26.21,5.88"/>
	<path class="st0" d="M-8.29,269.17c0,0-13.23,16.34-5.06,29.18c8.17,12.84,26.45,6.61,26.45,6.61"/>
	<path class="st0" d="M-5.43,266.83c0,0-12.19,16.66-3.83,28.98s24.51,7.13,25.61,6.68"/>
	<path class="st0" d="M-2.66,264.54c0,0-11.15,16.99-2.59,28.79c8.56,11.8,22.56,7.65,24.77,6.74"/>
	<path class="st0" d="M0.18,262.21c0,0-10.11,17.31-1.36,28.59s20.62,8.17,23.92,6.81"/>
	<path class="st0" d="M3.04,259.87c0,0-9.08,17.63-0.13,28.4s18.67,8.69,23.08,6.87"/>
	<path class="st0" d="M5.92,257.52c0,0-8.04,17.96,1.1,28.2c9.14,10.24,16.73,9.21,22.24,6.94"/>
	<path class="st0" d="M8.83,255.16c0,0-7,18.28,2.33,28.01s14.78,9.73,21.4,7"/>
	<path class="st0" d="M10.37,253.85c0,0-8.23,18.09,1.88,28.92c7.78,8.1,13.68,9.53,20.94,6.74"/>
	<path class="st0" d="M11.92,252.52c0,0-9.47,17.89,1.43,29.82c6.22,6.48,12.58,9.34,20.49,6.48"/>
	<path class="st0" d="M13.48,251.16c0,0-10.7,17.7,0.97,30.73c4.67,4.86,11.48,9.14,20.03,6.22"/>
	<path class="st0" d="M15.04,249.78c0,0-11.93,17.51,0.52,31.64c3.11,3.24,10.37,8.95,19.58,5.96"/>
	<path class="st0" d="M16.61,248.35c0,0-13.16,17.31,0.06,32.55c1.56,1.62,9.27,8.75,19.13,5.71"/>
	<path class="st0" d="M18.17,246.99c0,0-14.39,17.12-0.39,33.45c0,0,8.17,8.56,18.67,5.45"/>
	<path class="st0" d="M24.89,243.01c0,0-15.37,15.62-4.34,30.67c-0.65,1.43,5.38,12.51,18.09,10.57"/>
	<path class="st0" d="M31.81,238.91c0,0-16.34,14.13-8.3,27.88c-1.3,2.85,2.59,16.47,17.51,15.69"/>
	<path class="st0" d="M38.96,234.72c0,0-17.31,12.64-12.25,25.09c-1.95,4.28-0.19,20.42,16.92,20.81"/>
	<path class="st0" d="M46.94,230.51c0,0-18.28,11.15-16.21,22.3c-2.59,5.71-2.98,24.38,16.34,25.93"/>
	<path class="st0" d="M52.97,226.3c0,0-19.26,9.66-20.16,19.51c-3.24,7.13-5.77,28.33,15.75,31.06"/>
	<path class="st0" d="M59.01,222.1c0,0-20.23,8.17-24.12,16.73C31,247.38,26.34,271.11,50.07,275"/>
	<path class="st0" d="M63.23,220.93c0,0-19.7,6.99-23.52,15.55s-8.17,29.56,12.32,34.75"/>
	<path class="st0" d="M67.36,219.81c0,0-19.17,5.82-22.93,14.37c-3.76,8.56-7.78,26.84,9.47,33.32"/>
	<path class="st0" d="M71.56,218.67c0,0-18.64,4.64-22.33,13.2c-3.7,8.56-7.39,24.12,6.61,31.9"/>
	<path class="st0" d="M75.77,217.52c0,0-18.11,3.46-21.74,12.02c-3.63,8.56-7,21.4,3.76,30.47"/>
	<path class="st0" d="M80.03,216.38c0,0-17.58,2.28-21.14,10.84c-3.57,8.56-6.61,18.67,0.91,29.05"/>
	<path class="st0" d="M84.3,215.09c0,0-17.05,1.11-20.55,9.67s-6.22,15.95-1.95,27.62"/>
	<path class="st0" d="M84.85,215.09c0,0-15.48,1.33-19.34,9.4c-3.71,7.76-6.54,14.86-2.98,25.75"/>
	<path class="st0" d="M85.43,215.09c0,0-13.88,1.55-18.12,9.14c-3.89,6.97-6.86,13.76-4.01,23.88"/>
	<path class="st0" d="M86.04,215.09c0,0-12.26,1.78-16.91,8.88c-4.05,6.18-7.17,12.67-5.04,22.01"/>
	<path class="st0" d="M86.69,215.09c0,0-10.61,2.03-15.7,8.62c-4.17,5.42-7.49,11.58-6.07,20.14"/>
	<path class="st0" d="M87.4,215.09c0,0-8.93,2.3-14.48,8.36c-4.28,4.67-7.81,10.49-7.1,18.27"/>
	<path class="st0" d="M88.19,215.09c0,0-21.4,7.78-21.4,24.51"/>
</g>
<g>
	<path class="st0" d="M143.81,271.11c0,0-4.28,2.72-1.95,7.39"/>
	<path class="st0" d="M145.59,269.1c0,0-4.6,4.21-1.36,9.73"/>
	<path class="st0" d="M147.39,267.09c0,0-4.93,5.71-0.78,12.06"/>
	<path class="st0" d="M149.21,265.08c0,0-5.25,7.2-0.19,14.39"/>
	<path class="st0" d="M150.84,263.07c0,0-5.58,8.69,0.39,16.73"/>
	<path class="st0" d="M152.38,261.06c0,0-5.9,10.18,0.97,19.06"/>
	<path class="st0" d="M153.93,259.05c0,0-6.22,11.67,1.56,21.4"/>
	<path class="st0" d="M159.38,280.84c0,0-10.11-14.39-0.78-26.06"/>
	<path class="st0" d="M163.78,250.69c-4.18,5.22-8.7,12.84-6.28,21.31c1.07,3.76,2.72,7.54,4.86,8.9"/>
	<path class="st0" d="M168.81,246.6c-3.34,4.18-12.98,12.36-9.77,24.13c0.82,3.02,1.86,7.51,6.14,10.23"/>
	<path class="st0" d="M173.87,242.52c-2.51,3.13-17.27,11.87-13.26,26.95c0.6,2.27,1.01,7.48,7.43,11.56"/>
	<path class="st0" d="M178.94,238.43c-1.67,2.09-21.55,11.39-16.75,29.76c0.4,1.51,0.15,7.45,8.71,12.9"/>
	<path class="st0" d="M184.01,234.35c-0.84,1.04-25.83,10.9-20.24,32.58c0.2,0.76-0.7,7.42,10,14.23"/>
	<path class="st0" d="M188.94,230.27c0,0-28.79,10.11-23.73,35.4c0,0-1.56,7.39,11.28,15.56"/>
	<path class="st0" d="M192.12,229.88c0,0-26.45,8.3-23.02,32.22c-0.78,2.85-0.58,11.15,13.03,18.67"/>
	<path class="st0" d="M195.29,229.49c0,0-20.2,6.51-22.3,29.05c-0.55,5.89,0.39,14.91,14.78,21.78"/>
	<path class="st0" d="M198.72,229.1c0,0-18.87,4.84-21.59,25.87c-1.14,8.8,1.36,18.67,16.53,24.9"/>
	<path class="st0" d="M202.14,228.71c0,0-17.53,3.08-20.88,22.69c-1.99,11.66,2.33,22.43,18.28,28.01"/>
	<path class="st0" d="M205.62,228.32c0,0-16.17,1.22-20.16,19.51c-3.15,14.44,3.31,26.19,20.03,31.12"/>
	<path class="st0" d="M208,227.93c0,0-14.78-0.78-19.45,16.34s4.28,29.95,21.78,34.23"/>
	<path class="st0" d="M209.97,227.8c0,0-14.19,0.29-19.52,16.18c-5.31,15.86,1.13,28.81,17.26,35.04"/>
	<path class="st0" d="M210.85,227.67c0,0-13.59,1.37-19.6,16.03c-5.95,14.6-2.02,27.66,12.73,35.84"/>
	<path class="st0" d="M211.97,227.54c0,0-12.99,2.44-19.67,15.87c-6.6,13.34-5.18,26.51,8.2,36.64"/>
	<path class="st0" d="M213.26,227.41c0,0-12.4,3.51-19.75,15.72c-7.24,12.08-8.33,25.36,3.67,37.45"/>
	<path class="st0" d="M214.79,227.28c0,0-11.8,4.58-19.82,15.56c-7.88,10.82-11.48,24.22-0.86,38.25"/>
	<path class="st0" d="M216.56,227.15c0,0-43.96,22.17-25.29,54.46"/>
	<path class="st0" d="M218.56,226.83c0,0-14.33,8.4-21.27,21.36c-5.14,9.59-6.28,20.89,1.5,32.38"/>
	<path class="st0" d="M220.72,226.51c0,0-13.43,9.24-18.65,22.23c-4.1,10.2-3.47,21.15,4.39,30.81"/>
	<path class="st0" d="M223.07,226.18c0,0-12.44,10.13-16.03,23.09c-3.01,10.85-0.66,21.4,7.28,29.23"/>
	<path class="st0" d="M225.62,225.86c0,0-11.36,11.05-13.41,23.95c-1.83,11.52,2.15,21.66,10.17,27.66"/>
	<path class="st0" d="M227.24,225.53c0,0-10.19,11.96-10.79,24.81c-0.57,12.2,4.97,21.92,13.06,26.08"/>
	<path class="st0" d="M227.45,225.21c0,0-8.95,12.84-8.17,25.67c0.78,12.84,7.78,22.17,15.95,24.51"/>
	<path class="st0" d="M228.12,225.21c0,0-10.11,15.24-6.68,28.53c0.65,10.7,7.13,19.39,16.14,21.27"/>
	<path class="st0" d="M229.01,225.21c0,0-11.28,17.63-5.19,31.38c0.52,8.56,6.48,16.6,16.34,18.02"/>
	<path class="st0" d="M230.01,225.21c0,0-12.45,20.03-3.7,34.23c0.39,6.42,5.84,13.81,16.53,14.78"/>
	<path class="st0" d="M231.06,225.22c0,0-13.62,22.43-2.2,37.08c0.26,4.28,5.19,11.02,16.73,11.54"/>
	<path class="st0" d="M232.16,225.22c0,0-14.78,24.83-0.71,39.94c0.13,2.14,4.54,8.23,16.92,8.3"/>
	<path class="st0" d="M233.29,225.21c0,0-15.95,27.23,0.78,42.79c0,0,3.89,5.45,17.12,5.06"/>
	<path class="st0" d="M235.94,224.63c0,0-14.63,26.28,1.03,41.94c0.42,0.66,4.27,5.81,16.15,5.97"/>
	<path class="st0" d="M238.6,224.04c0,0-13.31,25.34,1.28,41.1c0.85,1.32,4.65,6.17,15.18,6.88"/>
	<path class="st0" d="M241.26,223.46c0,0-11.99,24.39,1.54,40.25c1.27,1.98,5.03,6.53,14.22,7.79"/>
	<path class="st0" d="M243.92,222.87c0,0-10.66,23.45,1.79,39.4c1.69,2.65,5.42,6.89,13.25,8.7"/>
	<path class="st0" d="M246.58,222.29c0,0-9.34,22.5,2.04,38.56c2.11,3.31,5.8,7.25,12.29,9.62"/>
	<path class="st0" d="M249.23,221.71c0,0-12.45,33.45,13.62,48.24"/>
	<path class="st0" d="M251.96,220.54c0,0-14.07,33.32,14.85,48.11"/>
	<path class="st0" d="M254.68,219.37c0,0-15.69,33.19,16.08,47.98"/>
	<path class="st0" d="M257.4,218.21c0,0-17.31,33.07,17.31,47.85"/>
	<path class="st0" d="M260.13,217.04c0,0-18.93,32.94,18.54,47.72"/>
	<path class="st0" d="M262.85,215.87c0,0-20.55,32.81,19.77,47.59"/>
	<path class="st0" d="M265.57,214.71c0,0-22.17,32.68,21.01,47.46"/>
	<path class="st0" d="M267.32,213.6c0,0-8.55,11.68-5.32,24.66c2.34,9.34,9.93,18.24,25.81,23.38"/>
	<path class="st0" d="M269.07,212.5c0,0-9.02,11.44-5.66,24.71c2.65,10.35,10.98,19.5,25.62,23.92"/>
	<path class="st0" d="M270.82,211.4c0,0-9.49,11.21-5.99,24.75c2.96,11.36,12.03,20.75,25.44,24.46"/>
	<path class="st0" d="M272.57,210.3c0,0-9.96,10.97-6.33,24.8c3.27,12.37,13.08,22,25.26,24.99"/>
	<path class="st0" d="M274.33,209.19c0,0-10.42,10.74-6.67,24.85c3.58,13.38,14.12,23.25,25.08,25.53"/>
	<path class="st0" d="M276.08,208.09c0,0-10.89,10.5-7,24.9c3.89,14.39,15.17,24.51,24.9,26.06"/>
	<path class="st0" d="M278.56,207.04c0,0-11.41,10.89-6.35,26c5.06,15.11,16.4,22.76,25.41,23.86"/>
	<path class="st0" d="M281.06,205.99c0,0-11.93,11.28-5.71,27.1s17.63,21.01,25.93,21.65"/>
	<path class="st0" d="M283.59,204.94c0,0-12.45,11.67-5.06,28.2c7.39,16.53,18.87,19.26,26.45,19.45"/>
	<path class="st0" d="M286.13,203.86c0,0-12.97,12.06-4.41,29.3c8.56,17.25,20.1,17.51,26.97,17.25"/>
	<path class="st0" d="M288.68,202.59c0,0-13.49,12.45-3.76,30.41s21.33,15.75,27.49,15.04"/>
	<path class="st0" d="M291.25,201.09c0,0-14,12.84-3.11,31.51c10.89,18.67,22.56,14,28.01,12.84"/>
	<path class="st0" d="M294.88,198.56c0,0-13.42,13.49-2.85,31.64s22.95,13.94,27.49,12.97"/>
	<path class="st0" d="M298.51,196.03c0,0-12.84,14.13-2.59,31.77c10.24,17.63,23.34,13.87,26.97,13.1"/>
	<path class="st0" d="M302.14,193.5c0,0-12.25,14.78-2.33,31.9c6.94,11.97,15.77,13.95,21.39,13.86"/>
	<path class="st0" d="M305.77,190.98c0,0-11.67,15.43-2.07,32.03c4.77,8.25,10.76,11.7,15.8,13.03"/>
	<path class="st0" d="M309.4,188.45c0,0-11.09,16.08-1.82,32.16c2.88,4.99,6.33,8.21,9.76,10.25"/>
	<path class="st0" d="M313.03,185.92c0,0-10.5,16.73-1.56,32.29c1.37,2.38,2.9,4.35,4.52,5.98"/>
	<path class="st0" d="M315.39,182.94c0,0-8.98,17.16,0.02,32.11c0.5,0.83,1.03,1.61,1.57,2.34"/>
	<path class="st0" d="M343.38,223.71c0.58-0.05,1.09-0.11,1.51-0.18"/>
	<path class="st0" d="M317.79,179.96c0,0-7.47,17.59,1.59,31.93c0.17,0.27,0.34,0.53,0.52,0.79"/>
	<path class="st0" d="M343.55,219.71c2.11,0.09,4.05-0.05,5.68-0.33"/>
	<path class="st0" d="M320.25,176.98c0,0-5.99,18.04,3.16,31.75c0.18,0.27,0.37,0.54,0.55,0.8"/>
	<path class="st0" d="M342.09,215.03c3.88,0.84,7.88,0.82,11.57,0.2"/>
	<path class="st0" d="M322.79,173.99c0,0-4.55,18.51,4.74,31.57c0.71,1,1.47,1.91,2.27,2.74"/>
	<path class="st0" d="M325.44,171.01c0,0-3.16,19.02,6.31,31.39c5.82,7.6,15.29,10.57,26.43,8.68"/>
	<path class="st0" d="M328.2,168.03c0,0-4.28,45.51,34.62,38.9"/>
	<path class="st0" d="M329.43,167.12c0,0-4.67,43.7,34.49,38.58"/>
	<path class="st0" d="M330.66,166.19c0,0-5.06,41.88,34.36,38.25"/>
	<path class="st0" d="M331.89,165.23c0,0-5.45,40.07,34.23,37.93"/>
	<path class="st0" d="M333.12,164.24c0,0-5.84,38.25,34.1,37.6"/>
	<path class="st0" d="M334.36,163.22c0,0-6.22,36.44,33.97,37.28"/>
	<path class="st0" d="M335.59,162.19c0,0-6.61,34.62,33.84,36.96"/>
	<path class="st0" d="M338.01,160.02c0,0-3.1,14.15,5.73,24.49c5.66,6.63,14.81,10.91,28.05,11.43"/>
	<path class="st0" d="M340.43,157.94c0,0-3.47,14.25,5.67,24.18c6.5,7.06,16.28,10.52,28.04,10.7"/>
	<path class="st0" d="M342.85,155.81c0,0-3.81,14.33,5.61,23.87c7.37,7.47,17.75,10.13,28.03,9.97"/>
	<path class="st0" d="M345.26,153.65c0,0-4.11,14.37,5.56,23.57c8.27,7.86,19.23,9.73,28.03,9.24"/>
	<path class="st0" d="M347.67,151.44c0,0-4.4,14.39,5.5,23.26c9.18,8.22,20.7,9.34,28.02,8.51"/>
	<path class="st0" d="M350.06,149.18c0,0-4.67,14.39,5.45,22.95c10.11,8.56,22.17,8.95,28.01,7.78"/>
	<path class="st0" d="M351.96,147.29c0,0-3.39,13.5,6.47,21.74c9.29,7.8,20.55,8.65,27.05,7.63"/>
	<path class="st0" d="M353.93,145.39c0,0-2.11,12.61,7.48,20.52c8.47,7.05,18.93,8.36,26.1,7.48"/>
	<path class="st0" d="M355.99,143.48c0,0-0.81,11.69,8.5,19.31c7.67,6.28,17.3,8.07,25.15,7.34"/>
	<path class="st0" d="M358.13,141.56c0,0,0.47,10.8,9.52,18.1c6.85,5.52,15.68,7.77,24.19,7.19"/>
	<path class="st0" d="M360.28,139.62c0,0,1.73,9.93,10.54,16.89c6.01,4.79,14.06,7.48,23.24,7.04"/>
	<path class="st0" d="M362.43,137.68c0,0,7.78,23.34,33.84,22.56"/>
</g>
<g>
	<line class="st0" x1="294.88" y1="90.87" x2="279.84" y2="110.58"/>
	<path class="st0" d="M291.36,90.92c0,0-14.44,17.63-13.74,19.54"/>
	<path class="st0" d="M287.86,90.96c0,0-13.83,15.56-12.45,19.36"/>
	<path class="st0" d="M284.39,91c0,0-13.23,13.49-11.15,19.19"/>
	<path class="st0" d="M280.94,91.05c0,0-12.62,11.41-9.85,19.02"/>
	<path class="st0" d="M277.52,91.09c0,0-12.02,9.34-8.56,18.85"/>
	<path class="st0" d="M274.13,91.13c0,0-11.41,7.26-7.26,18.67"/>
	<path class="st0" d="M271.75,91.13c0,0-11.45,7.22-6.92,18.63"/>
	<path class="st0" d="M269.38,91.13c0,0-11.5,7.17-6.57,18.59"/>
	<path class="st0" d="M267,91.13c0,0-11.54,7.13-6.22,18.54"/>
	<path class="st0" d="M264.62,91.13c0,0-11.58,7.09-5.88,18.5"/>
	<path class="st0" d="M262.24,91.13c0,0-11.63,7.05-5.53,18.46"/>
	<path class="st0" d="M259.87,91.13c0,0-11.67,7-5.19,18.41"/>
	<path class="st0" d="M256.51,91.05c0,0-5.45,2.27-6.81,7.31c-0.93,3.45-0.79,7.11,2.06,11.05"/>
	<path class="st0" d="M253.18,90.96c0,0-6.35,1.86-7.27,7.15c-0.7,4-0.3,7.62,2.94,11.18"/>
	<path class="st0" d="M249.87,90.87c0,0-7.2,1.46-7.72,6.98c-0.43,4.56,0.2,8.13,3.83,11.3"/>
	<path class="st0" d="M246.6,90.79c0,0-8.02,1.07-8.17,6.82c-0.14,5.12,0.69,8.63,4.71,11.42"/>
	<path class="st0" d="M243.37,90.7c0,0-8.81,0.67-8.62,6.65c0.18,5.68,1.19,9.14,5.6,11.55"/>
	<path class="st0" d="M240.16,90.61c0,0-9.6,0.26-9.08,6.48c0.52,6.22,1.68,9.65,6.48,11.67"/>
	<path class="st0" d="M238.3,90.61c0,0-9.14,0.64-9.04,6.58c0.1,5.69,1.17,9.2,6.02,11.66"/>
	<path class="st0" d="M236.48,90.61c0,0-8.68,1.01-9,6.68c-0.3,5.15,0.65,8.74,5.55,11.64"/>
	<path class="st0" d="M234.72,90.61c0,0-8.18,1.37-8.97,6.78c-0.67,4.61,0.14,8.29,5.08,11.63"/>
	<path class="st0" d="M232.97,90.61c0,0-7.65,1.73-8.93,6.88c-1.01,4.06-0.37,7.84,4.61,11.62"/>
	<path class="st0" d="M231.25,90.61c0,0-7.08,2.11-8.9,6.98c-1.32,3.53-0.88,7.39,4.14,11.61"/>
	<path class="st0" d="M229.53,90.61c0,0-17.89,7-5.19,18.67"/>
	<path class="st0" d="M225.51,90.79c0,0-16.99,6.87-4.8,18.67"/>
	<path class="st0" d="M221.49,90.96c0,0-16.08,6.74-4.41,18.67"/>
	<path class="st0" d="M217.47,91.13c0,0-15.17,6.61-4.02,18.67"/>
	<path class="st0" d="M213.45,91.31c0,0-14.26,6.48-3.63,18.67"/>
	<path class="st0" d="M209.43,91.48c0,0-13.36,6.35-3.24,18.67"/>
	<path class="st0" d="M205.41,91.65c0,0-12.45,6.22-2.85,18.67"/>
	<path class="st0" d="M200.43,92.21c0,0-12.71,6.48-4.5,18.24"/>
	<path class="st0" d="M195.49,92.77c0,0-12.97,6.74-6.14,17.81"/>
	<path class="st0" d="M190.61,93.34c0,0-13.23,7-7.78,17.38"/>
	<path class="st0" d="M185.79,93.9c0,0-13.49,7.26-9.42,16.94"/>
	<path class="st0" d="M181.04,94.46c0,0-13.74,7.52-11.06,16.51"/>
	<path class="st0" d="M176.36,95.02c0,0-14,7.78-12.71,16.08"/>
	<path class="st0" d="M175.26,95.2c0,0-11.5,8.34-8.95,15.78"/>
	<path class="st0" d="M174.3,95.37c0,0-8.99,8.9-5.19,15.47"/>
	<path class="st0" d="M173.54,95.54c0,0-6.48,9.47-1.43,15.17"/>
	<path class="st0" d="M171.95,95.71c0,0-3.98,10.03,2.33,14.87"/>
	<path class="st0" d="M170.09,95.89c0,0-1.47,10.59,6.09,14.57"/>
	<path class="st0" d="M168.84,96.06c0,0,1.04,11.15,9.85,14.26"/>
	<path class="st0" d="M165.7,96.62c0,0-1.21,10.68,8.04,14.22"/>
	<path class="st0" d="M162.81,97.18c0,0-3.46,10.2,6.22,14.18"/>
	<path class="st0" d="M160.14,97.75c0,0-5.71,9.73,4.41,14.13"/>
	<path class="st0" d="M157.61,98.31c0,0-7.95,9.25,2.59,14.09"/>
	<path class="st0" d="M155.16,98.87c0,0-10.2,8.77,0.78,14.05"/>
	<path class="st0" d="M152.24,99.43c0,0-12.45,8.3-1.04,14"/>
	<path class="st0" d="M149.85,100.25c0,0-5.09,3.24-5.57,6.96c-0.32,2.49,0.99,4.76,5.14,6.57"/>
	<path class="st0" d="M147.41,101.07c0,0-5.38,3.32-5.44,6.97c-0.05,2.68,1.67,4.64,5.61,6.09"/>
	<path class="st0" d="M144.77,101.89c0,0-5.63,3.41-5.31,6.97c0.25,2.86,2.36,4.52,6.09,5.6"/>
	<path class="st0" d="M142.16,102.72c0,0-5.85,3.5-5.18,6.98c0.58,3.04,3.04,4.39,6.57,5.12"/>
	<path class="st0" d="M139.55,103.54c0,0-6.04,3.57-5.06,6.99c0.93,3.21,3.72,4.27,7.04,4.63"/>
	<path class="st0" d="M136.94,104.36c0,0-6.22,3.63-4.93,7c1.3,3.37,4.41,4.15,7.52,4.15"/>
	<path class="st0" d="M134.04,105.63c0,0-6.05,3.98-4.58,7.22c1.47,3.24,4.88,3.54,7.48,3.54"/>
	<path class="st0" d="M131.14,106.91c0,0-5.88,4.32-4.24,7.43c1.64,3.11,5.36,2.94,7.43,2.94"/>
	<path class="st0" d="M128.24,108.16c0,0-5.71,4.67-3.89,7.65s5.84,2.33,7.39,2.33"/>
	<path class="st0" d="M125.34,109.35c0,0-5.53,5.01-3.54,7.87s6.31,1.73,7.35,1.73"/>
	<path class="st0" d="M122.45,110.5c0,0-5.36,5.36-3.2,8.08c2.16,2.72,6.79,1.12,7.3,1.12"/>
	<path class="st0" d="M119.57,111.62c0,0-5.19,5.71-2.85,8.3s7.26,0.52,7.26,0.52"/>
	<path class="st0" d="M117.84,112.4c0,0-4.97,5.19-2.68,7.87c2.29,2.68,7.05,0.82,7.22,0.78"/>
	<path class="st0" d="M116.11,113.18c0,0-4.75,4.67-2.51,7.43c2.25,2.77,6.83,1.12,7.17,1.04"/>
	<path class="st0" d="M114.38,113.95c0,0-4.54,4.15-2.33,7c2.2,2.85,6.61,1.43,7.13,1.3"/>
	<path class="st0" d="M112.65,114.73c0,0-4.32,3.63-2.16,6.57c2.16,2.94,6.4,1.73,7.09,1.56"/>
	<path class="st0" d="M110.92,115.51c0,0-4.11,3.11-1.99,6.14c2.12,3.03,6.18,2.03,7.05,1.82"/>
	<path class="st0" d="M109.19,116.29c0,0-3.89,2.59-1.82,5.71c2.07,3.11,5.96,2.33,7,2.07"/>
	<path class="st0" d="M105.78,118.54c0,0-3.52,2.55-1.68,5.44c1.78,2.78,5.23,2.28,6.57,2.08"/>
	<path class="st0" d="M102.37,120.84c0,0-3.15,2.51-1.55,5.18c1.48,2.45,4.49,2.23,6.13,2.09"/>
	<path class="st0" d="M98.95,123.09c0,0-2.78,2.47-1.41,4.91c1.19,2.12,3.75,2.17,5.69,2.09"/>
	<path class="st0" d="M95.54,125.28c0,0-2.4,2.42-1.28,4.64c0.9,1.78,3.01,2.12,5.25,2.1"/>
	<path class="st0" d="M92.12,127.53c0,0-2.02,2.37-1.14,4.38c0.63,1.44,2.28,2.07,4.82,2.1"/>
	<path class="st0" d="M64.33,146.28c0,0-3.46,4.67,2.59,4.67"/>
	<path class="st0" d="M61.22,148.45c0,0-3.24,4.93,2.72,4.67"/>
	<path class="st0" d="M58.1,150.61c0,0-3.03,5.19,2.85,4.67"/>
	<path class="st0" d="M54.99,152.77c0,0-2.81,5.45,2.98,4.67"/>
	<path class="st0" d="M51.88,154.93c0,0-2.59,5.71,3.11,4.67"/>
	<path class="st0" d="M50.02,156.48c0,0-2.77,5.96,3.16,4.84"/>
	<path class="st0" d="M48.16,158.04c0,0-2.94,6.22,3.2,5.01"/>
	<path class="st0" d="M46.31,159.6c0,0-3.11,6.48,3.24,5.19"/>
	<path class="st0" d="M44.45,161.15c0,0-3.28,6.74,3.28,5.36"/>
	<path class="st0" d="M42.59,162.71c0,0-3.46,7,3.33,5.53"/>
	<path class="st0" d="M40.73,164.26c0,0-3.63,7.26,3.37,5.71"/>
	<path class="st0" d="M39.99,165c0.13,0.09-3.37,6.96,3.37,5.49"/>
	<path class="st0" d="M39.26,165.73c0.26,0.17-3.11,6.66,3.37,5.27"/>
	<path class="st0" d="M38.52,166.47c0.39,0.26-2.85,6.35,3.37,5.06"/>
	<path class="st0" d="M37.79,167.2c0.52,0.35-2.59,6.05,3.37,4.84"/>
	<path class="st0" d="M37.06,167.94c0.65,0.43-2.33,5.75,3.37,4.62"/>
	<path class="st0" d="M36.32,168.67c0.78,0.52-2.07,5.45,3.37,4.41"/>
	<path class="st0" d="M34.81,170.14c0.65,0.43-2.12,5.32,3.11,4.45"/>
	<path class="st0" d="M33.3,171.61c0.52,0.35-2.16,5.19,2.85,4.5"/>
	<path class="st0" d="M31.78,173.08c0.39,0.26-2.2,5.06,2.59,4.54"/>
	<path class="st0" d="M30.27,174.55c0.26,0.17-2.25,4.93,2.33,4.58"/>
	<path class="st0" d="M28.76,176.02c0.13,0.09-2.29,4.8,2.07,4.62"/>
	<path class="st0" d="M27.24,177.49c0,0-2.33,4.67,1.82,4.67"/>
	<path class="st0" d="M26.47,178.27c0,0-2.29,4.67,1.99,4.62"/>
	<path class="st0" d="M25.69,179.05c0,0-2.25,4.67,2.16,4.58"/>
	<path class="st0" d="M24.91,179.82c0,0-2.2,4.67,2.33,4.54"/>
	<path class="st0" d="M24.13,180.6c0,0-2.16,4.67,2.51,4.5"/>
	<path class="st0" d="M23.35,181.38c0,0-2.12,4.67,2.68,4.45"/>
	<path class="st0" d="M22.58,182.16c0,0-2.07,4.67,2.85,4.41"/>
	<path class="st0" d="M20.8,184.23c0,0-2.2,4.67,2.77,4.45"/>
	<path class="st0" d="M19.03,186.31c0,0-2.33,4.67,2.68,4.5"/>
	<path class="st0" d="M17.26,188.38c0,0-2.46,4.67,2.59,4.54"/>
	<path class="st0" d="M15.49,190.46c0,0-2.59,4.67,2.51,4.58"/>
	<path class="st0" d="M13.72,192.53c0,0-2.72,4.67,2.42,4.62"/>
	<path class="st0" d="M11.94,194.61c0,0-2.85,4.67,2.33,4.67"/>
	<path class="st0" d="M10.95,195.64c0,0-2.64,4.5,2.51,4.32"/>
	<path class="st0" d="M9.95,196.68c0,0-2.42,4.32,2.68,3.98"/>
	<path class="st0" d="M8.96,197.72c0,0-2.2,4.15,2.85,3.63"/>
	<path class="st0" d="M7.97,198.76c0,0-1.99,3.98,3.03,3.28"/>
	<path class="st0" d="M6.97,199.79c0,0-1.77,3.8,3.2,2.94"/>
	<path class="st0" d="M5.98,200.83c0,0-1.56,3.63,3.37,2.59"/>
	<path class="st0" d="M4.77,202.6c0,0-1.43,3.37,3.28,2.51"/>
	<path class="st0" d="M3.56,204.38c0,0-1.3,3.11,3.2,2.42"/>
	<path class="st0" d="M2.35,206.15c0,0-1.17,2.85,3.11,2.33"/>
	<path class="st0" d="M1.14,207.92c0,0-1.04,2.59,3.03,2.25"/>
	<path class="st0" d="M-0.07,209.69c0,0-0.91,2.33,2.94,2.16"/>
	<path class="st0" d="M-1.28,211.46c0,0-0.78,2.07,2.85,2.07"/>
	<path class="st0" d="M-2.54,213.28c0,0-0.82,2.33,2.85,2.07"/>
	<path class="st0" d="M-3.79,215.09c0,0-0.86,2.59,2.85,2.07"/>
	<path class="st0" d="M-5.04,216.91c0,0-0.91,2.85,2.85,2.07"/>
	<path class="st0" d="M-6.3,218.73c0,0-0.95,3.11,2.85,2.07"/>
	<path class="st0" d="M-7.55,220.54c0,0-0.99,3.37,2.85,2.07"/>
	<path class="st0" d="M-8.8,222.36c0,0-1.04,3.63,2.85,2.07"/>
	<path class="st0" d="M-10.23,224c0,0-0.78,3.76,2.9,2.16"/>
	<path class="st0" d="M-11.66,225.64c0,0-0.52,3.89,2.94,2.25"/>
	<path class="st0" d="M-13.08,227.28c0,0-0.26,4.02,2.98,2.33"/>
	<path class="st0" d="M-14.51,228.93c0,0,0,4.15,3.03,2.42"/>
	<path class="st0" d="M-15.94,230.57c0,0,0.26,4.28,3.07,2.51"/>
	<path class="st0" d="M-17.36,232.21c0,0,0.52,4.41,3.11,2.59"/>
	<path class="st0" d="M-18.01,233.64c0,0,0.48,4.11,2.94,2.42"/>
	<path class="st0" d="M-18.66,235.06c0,0,0.43,3.8,2.77,2.25"/>
	<path class="st0" d="M-19.31,236.49c0,0,0.39,3.5,2.59,2.07"/>
	<path class="st0" d="M-19.96,237.92c0,0,0.35,3.2,2.42,1.9"/>
	<path class="st0" d="M-20.6,239.34c0,0,0.3,2.9,2.25,1.73"/>
	<path class="st0" d="M-21.25,240.77c0,0,0.26,2.59,2.07,1.56"/>
	<path class="st0" d="M-22.25,242.28c0.35,0.17,0.78,2.12,2.29,1.25"/>
	<path class="st0" d="M-23.24,243.79c0.69,0.35,1.3,1.64,2.51,0.95"/>
	<path class="st0" d="M-24.23,245.37c1.04,0.52,1.82,1.17,2.72,0.65"/>
	<path class="st0" d="M-25.23,246.88c1.38,0.69,2.33,0.69,2.94,0.35"/>
	<path class="st0" d="M-26.22,248.33c1.73,0.86,2.85,0.22,3.16,0.04"/>
	<path class="st0" d="M-27.22,249.85c2.07,1.04,3.37-0.26,3.37-0.26"/>
	<path class="st0" d="M-27.95,250.75c1.73,0.86,2.85,0.04,3.11,0"/>
	<path class="st0" d="M-28.69,251.72c1.38,0.69,2.33,0.35,2.85,0.26"/>
	<path class="st0" d="M-29.42,252.65c1.04,0.52,1.82,0.65,2.59,0.52"/>
	<path class="st0" d="M-30.16,253.54c0.69,0.35,1.3,0.95,2.33,0.78"/>
	<path class="st0" d="M-30.89,254.38c0.35,0.17,0.78,1.25,2.07,1.04"/>
	<path class="st0" d="M-31.63,255.29c0,0,0.26,1.56,1.82,1.3"/>
	<path class="st0" d="M-31.93,255.55c0,0,0.35,1.56,1.86,1.34"/>
	<path class="st0" d="M-32.23,255.81c0,0,0.43,1.56,1.9,1.38"/>
	<path class="st0" d="M-32.53,256.07c0,0,0.52,1.56,1.95,1.43"/>
	<path class="st0" d="M-32.84,256.33c0,0,0.61,1.56,1.99,1.47"/>
	<path class="st0" d="M-33.14,256.59c0,0,0.69,1.56,2.03,1.51"/>
	<path class="st0" d="M-33.44,256.85c0,0,0.78,1.56,2.07,1.56"/>
	<path class="st0" d="M-34.56,258.36c0,0,0.69,1.56,2.07,1.51"/>
	<path class="st0" d="M-35.69,259.87c0,0,0.61,1.56,2.07,1.47"/>
	<path class="st0" d="M-36.81,261.39c0,0,0.52,1.56,2.07,1.43"/>
	<path class="st0" d="M-37.94,262.9c0,0,0.43,1.56,2.07,1.38"/>
	<path class="st0" d="M-39.06,264.41c0,0,0.35,1.56,2.07,1.34"/>
	<path class="st0" d="M-40.18,265.92c0,0,0.26,1.56,2.07,1.3"/>
	<path class="st0" d="M-40.96,267.09c0,0,0.26,1.64,2.03,1.3"/>
	<path class="st0" d="M-41.74,268.26c0,0,0.26,1.73,1.99,1.3"/>
	<path class="st0" d="M-42.52,269.43c0,0,0.26,1.82,1.95,1.3"/>
	<path class="st0" d="M-43.3,270.59c0,0,0.26,1.9,1.9,1.3"/>
	<path class="st0" d="M-44.07,271.76c0,0,0.26,1.99,1.86,1.3"/>
	<path class="st0" d="M-44.85,272.93c0,0,0.26,2.07,1.82,1.3"/>
</g>
<g>
	<line class="st0" x1="-22.81" y1="248.55" x2="-20.57" y2="245.08"/>
	<path class="st0" d="M-22.76,249.41c0,0,1.99-3.28,2.21-3.02"/>
	<path class="st0" d="M-22.72,250.22c0,0,1.75-3.09,2.18-2.57"/>
	<path class="st0" d="M-22.68,251.07c0,0,1.51-2.9,2.16-2.12"/>
	<path class="st0" d="M-22.63,251.95c0,0,1.26-2.71,2.13-1.67"/>
	<path class="st0" d="M-22.59,252.87c0,0,1.02-2.52,2.1-1.23"/>
	<path class="st0" d="M-22.55,253.74c0,0,0.78-2.33,2.07-0.78"/>
	<path class="st0" d="M-22.59,254.6c0,0,0.78-2.25,1.99-0.73"/>
	<path class="st0" d="M-22.63,255.46c0,0,0.78-2.16,1.9-0.69"/>
	<path class="st0" d="M-22.68,256.33c0,0,0.78-2.07,1.82-0.65"/>
	<path class="st0" d="M-22.72,257.19c0,0,0.78-1.99,1.73-0.61"/>
	<path class="st0" d="M-22.76,258.06c0,0,0.78-1.9,1.64-0.56"/>
	<path class="st0" d="M-22.81,258.92c0,0,0.78-1.82,1.56-0.52"/>
	<path class="st0" d="M-22.76,260c0,0,0.65-1.69,1.42-0.54"/>
	<path class="st0" d="M-22.72,261.08c0,0,0.52-1.56,1.29-0.56"/>
	<path class="st0" d="M-22.68,262.16c0,0,0.39-1.43,1.15-0.58"/>
	<path class="st0" d="M-22.63,263.24c0,0,0.26-1.3,1.02-0.61"/>
	<path class="st0" d="M-22.59,264.33c0,0,0.13-1.17,0.88-0.63"/>
	<path class="st0" d="M-22.55,265.41c0,0,0-1.04,0.75-0.65"/>
</g>
<g>
	<line class="st0" x1="20.5" y1="184.23" x2="12.2" y2="193.31"/>
	<path class="st0" d="M18.8,184.58c0,0-4.99,5-4.99,5.48c0,0-2.71,3.32-2.22,3.38"/>
	<path class="st0" d="M17.16,184.93c0,0-4.88,4.42-4.88,5.37c0,0-2.23,3.15-1.26,3.28"/>
	<path class="st0" d="M15.6,185.27c0,0-4.76,3.83-4.76,5.26c0,0-1.76,2.98-0.3,3.17"/>
	<path class="st0" d="M14.12,185.62c0,0-4.64,3.25-4.64,5.15c0,0-1.28,2.8,0.67,3.06"/>
	<path class="st0" d="M12.73,185.96c0,0-4.53,2.66-4.53,5.04c0,0-0.8,2.63,1.63,2.96"/>
	<path class="st0" d="M11.42,186.31c0,0-4.41,2.07-4.41,4.93c0,0-0.32,2.46,2.59,2.85"/>
	<path class="st0" d="M10.17,186.74c0,0-3.93,2.01-3.94,4.66c0,0.12-0.23,2.3,2.34,2.72"/>
	<path class="st0" d="M8.92,187.17c0,0-3.46,1.94-3.47,4.39c-0.01,0.24-0.13,2.13,2.09,2.59"/>
	<path class="st0" d="M7.66,187.61c0,0-2.99,1.87-3.01,4.13c-0.01,0.37-0.03,1.96,1.84,2.45"/>
	<path class="st0" d="M6.41,188.04c0,0-2.51,1.8-2.54,3.86c-0.01,0.49,0.06,1.8,1.59,2.32"/>
	<path class="st0" d="M5.16,188.47c0,0-2.04,1.73-2.07,3.59c-0.02,0.61,0.16,1.63,1.34,2.19"/>
	<path class="st0" d="M3.9,188.9c0,0-3.24,3.44-0.52,5.38"/>
	<path class="st0" d="M2.56,189.38c0,0-2.39,2.2-1.41,4.23c0.14,0.32,0.58,0.76,0.96,1.03"/>
	<path class="st0" d="M1.22,189.85c0,0-2.53,2.02-1.39,4.16c0.11,0.26,0.71,0.76,1.02,0.98"/>
	<path class="st0" d="M-0.12,190.33c0,0-2.68,1.84-1.36,4.09c0.08,0.19,0.84,0.77,1.07,0.93"/>
	<path class="st0" d="M-1.46,190.8c0,0-2.82,1.66-1.34,4.03c0.05,0.13,0.97,0.77,1.12,0.88"/>
	<path class="st0" d="M-2.8,191.28c0,0-2.97,1.48-1.32,3.96c0.03,0.06,1.1,0.77,1.18,0.83"/>
	<path class="st0" d="M-4.14,191.75c0,0-3.11,1.3-1.3,3.89l1.23,0.78"/>
	<path class="st0" d="M-5.61,192.14c0,0-2.85,1.25-1.34,3.41c0,0,0.85,0.95,1.29,1.12"/>
	<path class="st0" d="M-7.14,192.53c0,0-2.59,1.21-1.38,2.94c0,0,0.48,1.12,1.34,1.47"/>
	<path class="st0" d="M-8.63,192.92c0,0-2.33,1.17-1.43,2.46c0,0,0.1,1.3,1.39,1.82"/>
	<path class="st0" d="M-10.12,193.31c0,0-2.07,1.12-1.47,1.99c0,0-0.28,1.47,1.45,2.16"/>
	<path class="st0" d="M-11.57,193.7c0,0-1.82,1.08-1.51,1.51c0,0-0.66,1.64,1.5,2.51"/>
	<path class="st0" d="M-12.95,194.09l-1.56,1.04c0,0-1.04,1.82,1.56,2.85"/>
	<path class="st0" d="M-14.8,194.82c0,0-1.56,0.86-1.34,1.21c0,0-0.7,1.57,1.46,2.43"/>
	<path class="st0" d="M-16.61,195.56c0,0-1.56,0.69-1.12,1.38c0,0-0.37,1.32,1.36,2.01"/>
	<path class="st0" d="M-18.37,196.29c0,0-1.56,0.52-0.91,1.56c0,0-0.03,1.07,1.26,1.59"/>
	<path class="st0" d="M-20.12,197.03c0,0-1.56,0.35-0.69,1.73c0,0,0.3,0.82,1.17,1.17"/>
	<path class="st0" d="M-21.81,197.76c0,0-1.56,0.17-0.48,1.9c0,0,0.64,0.57,1.07,0.75"/>
	<path class="st0" d="M-23.59,198.5c0,0-1.56,0-0.26,2.07l0.97,0.32"/>
</g>
<g>
	<path class="st0" d="M-64.3,148.96c0,0-5.06,1.95-4.67,12.84c0,0-2.33,1.17,1.17,3.89"/>
	<path class="st0" d="M-61.52,149.79c0,0-6.74,3.18-4.41,13.36c0,0-2.07,1.88,2.92,3.5"/>
	<path class="st0" d="M-58.5,150.62c0,0-8.43,4.41-4.15,13.87c0,0-1.82,2.59,4.67,3.11"/>
	<path class="st0" d="M-56.18,151.42c0,0-10.11,5.64-3.89,14.39c0,0-1.56,3.31,6.42,2.72"/>
	<path class="st0" d="M-53.84,152.08c0,0-11.8,6.87-3.63,14.91c0,0-1.3,4.02,8.17,2.33"/>
	<path class="st0" d="M-51.49,152.67c0,0-13.49,8.1-3.37,15.43c0,0-1.04,4.73,9.92,1.95"/>
	<path class="st0" d="M-49.13,153.24c0,0-15.17,9.34-3.11,15.95c0,0-0.78,5.45,11.67,1.56"/>
	<path class="st0" d="M-46.54,152.11c0,0-13.35,9.03-2.89,15.55c0.16,0.39-0.17,5.29,10.8,2.28"/>
	<path class="st0" d="M-43.95,150.96c0,0-11.53,8.72-2.68,15.15c0.32,0.78,0.45,5.13,9.94,3"/>
	<path class="st0" d="M-41.36,149.77c0,0-9.71,8.41-2.46,14.75c0.47,1.17,1.06,4.97,9.07,3.73"/>
	<path class="st0" d="M-38.77,148.54c0,0-7.89,8.1-2.24,14.35c0.63,1.57,1.67,4.81,8.2,4.45"/>
	<path class="st0" d="M-36.17,147.2c0,0-6.07,7.79-2.02,13.95c0.79,1.96,2.28,4.65,7.34,5.17"/>
	<path class="st0" d="M-33.57,145.85c0,0-8.17,14.39,4.67,19.45"/>
	<path class="st0" d="M-32.52,145.2c0,0-4.47,6.73-2.17,12.58c1.45,3.68,4.36,5.44,8,6.87"/>
	<path class="st0" d="M-31.48,144.54c0,0-5.22,7.16-2.04,13.17c2.33,4.4,6.13,5.13,9.05,6.28"/>
	<path class="st0" d="M-30.44,143.88c0,0-5.9,7.55-1.92,13.77c3.26,5.1,7.91,4.82,10.09,5.68"/>
	<path class="st0" d="M-29.41,143.23c0,0-6.54,7.91-1.8,14.37c4.22,5.76,9.68,4.51,11.14,5.08"/>
	<path class="st0" d="M-28.38,142.5c0,0-7.16,8.24-1.68,14.96c5.22,6.39,11.45,4.2,12.18,4.49"/>
	<path class="st0" d="M-27.35,141.57c0,0-7.78,8.56-1.56,15.56s13.23,3.89,13.23,3.89"/>
	<path class="st0" d="M-25.79,140.82c0,0-7.33,8.49-1.3,15.56c5.19,5.84,11.15,3.83,12.06,4.08"/>
	<path class="st0" d="M-24.24,139.86c0,0-6.87,8.43-1.04,15.56c4.15,4.67,9.08,3.76,10.89,4.28"/>
	<path class="st0" d="M-22.68,138.83c0,0-6.42,8.36-0.78,15.56c3.11,3.5,7,3.7,9.73,4.47"/>
	<path class="st0" d="M-21.13,137.8c0,0-5.96,8.3-0.52,15.56c2.07,2.33,4.93,3.63,8.56,4.67"/>
	<path class="st0" d="M-19.57,136.77c0,0-5.51,8.23-0.26,15.56c1.04,1.17,2.85,3.57,7.39,4.86"/>
	<path class="st0" d="M-18.01,135.74c0,0-5.06,8.17,0,15.56c0,0,0.78,3.5,6.22,5.06"/>
	<path class="st0" d="M-16.58,134.7c0,0-5.71,8.75,0,16.14c0,0,1.23,3.18,6.55,4.54"/>
	<path class="st0" d="M-15.16,133.66c0,0-6.35,9.34,0,16.73c0,0,1.69,2.85,6.87,4.02"/>
	<path class="st0" d="M-13.73,132.63c0,0-7,9.92,0,17.31c0,0,2.14,2.53,7.2,3.5"/>
	<path class="st0" d="M-12.3,131.59c0,0-7.65,10.5,0,17.89c0,0,2.59,2.2,7.52,2.98"/>
	<path class="st0" d="M-10.88,130.55c0,0-8.3,11.09,0,18.48c0,0,3.05,1.88,7.84,2.46"/>
	<path class="st0" d="M-9.45,129.51c0,0-8.95,11.67,0,19.06c0,0,3.5,1.56,8.17,1.95"/>
	<path class="st0" d="M-7.38,128.35c0,0-8.82,10.7-0.58,18.35c0,0,3.83,2.53,8.75,2.79"/>
	<path class="st0" d="M-5.3,127.18c0,0-8.69,9.73-1.17,17.63c0,0,4.15,3.5,9.34,3.63"/>
	<path class="st0" d="M-3.23,126.01c0,0-8.56,8.75-1.75,16.92c0,0,4.47,4.47,9.92,4.47"/>
	<path class="st0" d="M-1.15,124.85c0,0-8.43,7.78-2.33,16.21c0,0,4.8,5.45,10.5,5.32"/>
	<path class="st0" d="M0.92,123.68c0,0-8.3,6.81-2.92,15.5c0,0,5.12,6.42,11.09,6.16"/>
	<path class="st0" d="M3,122.51c0,0-8.17,5.84-3.5,14.78c0,0,5.45,7.39,11.67,7"/>
	<path class="st0" d="M5.78,121.22c0,0-8.17,5.96-3.76,14.85c0.52,1.43,6.03,7.52,11.22,7.2"/>
	<path class="st0" d="M8.57,119.92c0,0-8.17,6.09-4.02,14.91c1.04,2.85,6.61,7.65,10.76,7.39"/>
	<path class="st0" d="M11.36,118.62c0,0-8.17,6.22-4.28,14.98c1.56,4.28,7.2,7.78,10.31,7.59"/>
	<path class="st0" d="M14.15,117.33c0,0-8.17,6.35-4.54,15.04c2.07,5.71,7.78,7.91,9.85,7.78"/>
	<path class="st0" d="M16.94,116.03c0,0-8.17,6.48-4.8,15.11c2.59,7.13,8.36,8.04,9.4,7.97"/>
	<path class="st0" d="M19.72,114.73c0,0-8.17,6.61-5.06,15.17s8.95,8.17,8.95,8.17"/>
	<path class="st0" d="M26.48,137.49c0,0-8.17-0.65-9.4-10.44c-2.59-7.13,4.73-13.03,5.25-13.1"/>
	<path class="st0" d="M29.35,136.91c0,0-10.5-1.69-9.85-12.71c-2.07-5.71,4.41-10.89,5.45-11.02"/>
	<path class="st0" d="M32.25,136.32c0,0-12.84-2.72-10.31-14.98c-1.56-4.28,4.08-8.75,5.64-8.95"/>
	<path class="st0" d="M35.43,135.74c0,0-15.17-3.76-10.76-17.25c-1.04-2.85,3.76-6.61,5.84-6.87"/>
	<path class="st0" d="M38.65,135.15c0,0-17.51-4.8-11.22-19.51c-0.52-1.43,3.44-4.47,6.03-4.8"/>
	<path class="st0" d="M41.9,134.57c0,0-19.84-5.84-11.67-21.78c0,0,3.11-2.33,6.22-2.72"/>
	<path class="st0" d="M38.76,110.19c-2.59,0.32-7.13,2.33-7.72,3.31c-7.39,14.26,9.6,20.88,10.83,21.2"/>
	<path class="st0" d="M41.08,110.32c-2.07,0.26-8.04,1.95-9.21,3.89c-6.61,12.58,7.52,19.97,9.98,20.62"/>
	<path class="st0" d="M42.63,110.45c-1.56,0.19-8.95,1.56-10.7,4.47c-5.84,10.89,5.45,19.06,9.14,20.03"/>
	<path class="st0" d="M43.79,110.58c-1.04,0.13-9.85,1.17-12.19,5.06c-5.06,9.21,3.37,18.15,8.3,19.45"/>
	<path class="st0" d="M44.97,110.71c-0.52,0.06-10.76,0.78-13.68,5.64c-4.28,7.52,1.3,17.25,7.46,18.87"/>
	<path class="st0" d="M46.18,110.84c0,0-11.67,0.39-15.17,6.22s-0.78,16.34,6.61,18.28"/>
	<path class="st0" d="M48.64,111.23c0,0-11.22,0.71-14.52,7c-3.31,6.29-0.58,15.5,5.58,17.12"/>
	<path class="st0" d="M51.1,111.62c0,0-10.76,1.04-13.87,7.78c-3.11,6.74-0.39,14.65,4.54,15.95"/>
	<path class="st0" d="M53.57,112.01c0,0-10.31,1.36-13.23,8.56s-0.19,13.81,3.5,14.78"/>
	<path class="st0" d="M56.03,112.4c0,0-9.85,1.69-12.58,9.34c-2.72,7.65,0,12.97,2.46,13.62"/>
	<path class="st0" d="M58.49,112.79c0,0-9.4,2.01-11.93,10.11c-2.53,8.1,0.19,12.12,1.43,12.45"/>
	<path class="st0" d="M60.96,113.18c0,0-8.95,2.33-11.28,10.89c-2.33,8.56,0.39,11.28,0.39,11.28"/>
	<path class="st0" d="M62.64,113.8c0,0-9.01,1.23-11.93,9.08s-0.84,11.73,0.06,12.71"/>
	<path class="st0" d="M64.37,114.41c0,0-9.08,0.13-12.58,7.26s-2.07,12.19-0.26,14.13"/>
	<path class="st0" d="M66.13,115.06c0,0-9.14-0.97-13.23,5.45s-3.31,12.64-0.58,15.56"/>
	<path class="st0" d="M67.9,115.84c0,0-9.21-2.07-13.87,3.63c-4.67,5.71-4.54,13.1-0.91,16.99"/>
	<path class="st0" d="M69.68,116.77c0,0-9.27-3.18-14.52,1.82c-5.25,4.99-5.77,13.55-1.23,18.41"/>
	<path class="st0" d="M71.46,117.84c0,0-9.34-4.28-15.17,0c-5.84,4.28-7,14-1.56,19.84"/>
	<path class="st0" d="M73.4,118.66c0,0-9.27-3.76-15.3,0.97s-6.48,14.07-1.95,18.93"/>
	<path class="st0" d="M75.35,119.51c0,0-9.21-3.24-15.43,1.95c-6.22,5.19-5.96,14.13-2.33,18.02"/>
	<path class="st0" d="M77.29,120.4c0,0-9.14-2.72-15.56,2.92c-6.42,5.64-5.45,14.2-2.72,17.12"/>
	<path class="st0" d="M79.24,121.33c0,0-9.08-2.2-15.69,3.89c-6.61,6.09-4.93,14.26-3.11,16.21"/>
	<path class="st0" d="M81.18,122.29c0,0-9.01-1.69-15.82,4.86c-6.81,6.55-4.41,14.33-3.5,15.3"/>
	<path class="st0" d="M83.13,123.29c0,0-8.95-1.17-15.95,5.84c-7,7-3.89,14.39-3.89,14.39"/>
	<path class="st0" d="M64.2,144.67c0,0-3.31-8.75,4.02-15.75c7.33-7,15.95-4.67,16.34-4.34"/>
	<path class="st0" d="M65.11,145.96c0,0-3.5-10.11,4.15-17.12c7.65-7,15.95-3.5,16.73-2.85"/>
	<path class="st0" d="M66.01,147.32c0,0-3.7-11.48,4.28-18.48c7.97-7,15.95-2.33,17.12-1.36"/>
	<path class="st0" d="M66.92,148.74c0,0-3.89-12.84,4.41-19.84c8.3-7,15.95-1.17,17.51,0.13"/>
	<path class="st0" d="M67.83,150.2c0,0-4.08-14.2,4.54-21.2c8.62-7,15.95,0,17.89,1.62"/>
	<path class="st0" d="M68.74,151.69c0,0-4.28-15.56,4.67-22.56c8.95-7,15.95,1.17,18.28,3.11"/>
	<path class="st0" d="M94.15,134.7c-1.95-1.62-10.57-9.85-19.51-2.92c-7.46,5.84-5.12,19.58-4.28,21.59"/>
	<path class="st0" d="M96.65,137.16c-1.56-1.3-11.8-9.6-20.75-2.72c-5.96,4.67-5.58,16.6-3.89,20.62"/>
	<path class="st0" d="M99.18,139.63c-1.17-0.97-13.03-9.34-21.98-2.53c-4.47,3.5-6.03,13.62-3.5,19.64"/>
	<path class="st0" d="M101.73,142.09c-0.78-0.65-14.26-9.08-23.21-2.33c-2.98,2.33-6.48,10.63-3.11,18.67"/>
	<path class="st0" d="M104.33,144.56c-0.39-0.32-15.5-8.82-24.44-2.14c-1.49,1.17-6.94,7.65-2.72,17.7"/>
	<path class="st0" d="M106.86,147.02c0,0-16.73-8.56-25.67-1.95c0,0-7.39,4.67-2.33,16.73"/>
	<path class="st0" d="M80.28,164.39c-4.21-10.05,1.3-17.57,5.58-17.76c7.46-5.51,22.24,1.49,23.08,2.33"/>
	<path class="st0" d="M81.7,166.99c-3.37-8.04,0.26-18.41,8.82-18.8c5.96-4.41,18.8,1.04,20.49,2.72"/>
	<path class="st0" d="M83.13,169.58c-2.53-6.03-0.78-19.26,12.06-19.84c4.47-3.31,15.37,0.58,17.89,3.11"/>
	<path class="st0" d="M84.56,172.17c-1.69-4.02-1.82-20.1,15.3-20.88c2.98-2.2,11.93,0.13,15.3,3.5"/>
	<path class="st0" d="M85.98,174.77c-0.84-2.01-2.85-20.94,18.54-21.91c1.49-1.1,8.49-0.32,12.71,3.89"/>
	<path class="st0" d="M87.41,177.36c0,0-3.89-21.78,21.78-22.95c0,0,5.06-0.78,10.11,4.28"/>
	<path class="st0" d="M88.1,178.46c0,0-3.76-20.62,19-22.5c1.36-0.91,7.13-1.75,12.64,3.44"/>
	<path class="st0" d="M88.8,179.61c0,0-3.63-19.45,16.21-22.04c2.72-1.82,9.21-2.72,15.17,2.59"/>
	<path class="st0" d="M89.5,180.79c0,0-3.5-18.28,13.42-21.59c4.08-2.72,11.28-3.7,17.7,1.75"/>
	<path class="st0" d="M90.21,181.97c0,0-3.37-17.12,10.63-21.14c5.45-3.63,13.36-4.67,20.23,0.91"/>
	<path class="st0" d="M90.98,183.2c0,0-3.24-15.95,7.84-20.68c6.81-4.54,15.43-5.64,22.76,0.06"/>
	<path class="st0" d="M91.69,184.36c0,0-3.11-14.78,5.06-20.23c8.17-5.45,17.51-6.61,25.29-0.78"/>
	<path class="st0" d="M92.73,186.96c0,0-2.98-15.24,5.58-21.01c8.56-5.77,17.76-6.55,24.77-1.43"/>
	<path class="st0" d="M93.76,189.56c0,0-2.85-15.69,6.09-21.78s18.02-6.48,24.25-2.07"/>
	<path class="st0" d="M94.8,192.15c0,0-2.72-16.14,6.61-22.56c9.34-6.42,18.28-6.42,23.73-2.72"/>
	<path class="st0" d="M95.84,194.75c0,0-2.59-16.6,7.13-23.34c9.73-6.74,18.54-6.35,23.21-3.37"/>
	<path class="st0" d="M96.88,197.35c0,0-2.46-17.05,7.65-24.12s18.8-6.29,22.69-4.02"/>
	<path class="st0" d="M97.91,199.94c0,0-2.33-17.51,8.17-24.9s19.06-6.22,22.17-4.67"/>
	<path class="st0" d="M99.08,202.35c0,0-2.06-17.2,9.16-24.4c7.97-5.11,14.95-5.56,19.63-4.63"/>
	<path class="st0" d="M100.37,202.65c-0.06-4.68,0.77-16.41,10.25-21.91c5.25-3.05,10.2-4.19,14.53-4.23"/>
	<path class="st0" d="M102.05,200.96c0.69-5.48,3.11-13.33,10.95-17.43c2.72-1.42,5.41-2.35,8.05-2.89"/>
	<path class="st0" d="M106.06,195.31c1.79-3.47,4.68-6.82,9.34-8.96c0.19-0.09,0.37-0.17,0.56-0.25"/>
</g>
<g>
	<path class="st0" d="M187.79,343.62c0,0-1.3,3.06,1.77,1.11"/>
	<path class="st0" d="M189.18,342.29c0,0-1.24,3.17,1.89,1.24"/>
	<path class="st0" d="M190.57,340.95c0,0-1.18,3.28,2.01,1.37"/>
	<path class="st0" d="M191.96,339.61c0,0-1.11,3.4,2.13,1.5"/>
	<path class="st0" d="M193.35,338.27c0,0-1.05,3.51,2.25,1.63"/>
	<path class="st0" d="M194.74,336.93c0,0-0.99,3.63,2.37,1.76"/>
	<path class="st0" d="M196.13,335.6c0,0-0.93,3.74,2.49,1.9"/>
	<path class="st0" d="M197.03,333.98c0,0-0.66,3.79,2.64,1.72"/>
	<path class="st0" d="M197.93,332.37c0,0-0.39,3.84,2.79,1.54"/>
	<path class="st0" d="M198.83,330.76c0,0-0.11,3.89,2.94,1.36"/>
	<path class="st0" d="M199.73,329.14c0,0,0.16,3.94,3.09,1.18"/>
	<path class="st0" d="M200.63,327.53c0,0,0.43,3.99,3.24,1"/>
	<path class="st0" d="M201.52,325.92c0,0,0.7,4.04,3.39,0.82"/>
	<path class="st0" d="M201.86,325.35c0,0,0.65,4.12,3.29,0.83"/>
	<path class="st0" d="M202.19,324.77c0,0,0.59,4.2,3.2,0.83"/>
	<path class="st0" d="M202.52,324.2c0,0,0.54,4.28,3.1,0.83"/>
	<path class="st0" d="M202.85,323.63c0,0,0.48,4.36,3,0.84"/>
	<path class="st0" d="M203.18,323.06c0,0,0.43,4.43,2.91,0.84"/>
	<path class="st0" d="M203.51,322.49c0,0,0.37,4.51,2.81,0.84"/>
	<path class="st0" d="M204.32,320.73c0,0,0.44,4.28,2.93,0.88"/>
	<path class="st0" d="M205.14,318.96c0,0,0.51,4.05,3.04,0.91"/>
	<path class="st0" d="M205.96,317.19c0,0,0.58,3.81,3.16,0.95"/>
	<path class="st0" d="M206.77,315.43c0,0,0.65,3.58,3.28,0.98"/>
	<path class="st0" d="M207.59,313.66c0,0,0.72,3.34,3.4,1.02"/>
	<path class="st0" d="M208.41,311.9c0,0,0.79,3.11,3.51,1.05"/>
	<path class="st0" d="M209.17,310.85c0,0,0.47,3.23,3.42,1.25"/>
	<path class="st0" d="M209.93,309.8c0,0,0.14,3.36,3.33,1.45"/>
	<path class="st0" d="M210.69,308.75c0,0-0.18,3.49,3.24,1.64"/>
	<path class="st0" d="M211.45,307.71c0,0-0.51,3.61,3.15,1.84"/>
	<path class="st0" d="M212.21,306.66c0,0-0.83,3.74,3.06,2.03"/>
	<path class="st0" d="M212.97,305.61c0,0-1.16,3.86,2.97,2.23"/>
	<path class="st0" d="M214.63,303.59c0,0-1.38,4.28,3.14,2.63"/>
	<path class="st0" d="M216.29,301.56c0,0-1.6,4.69,3.3,3.03"/>
	<path class="st0" d="M217.95,299.54c0,0-1.82,5.1,3.47,3.43"/>
	<path class="st0" d="M219.61,297.52c0,0-2.04,5.52,3.64,3.83"/>
	<path class="st0" d="M221.27,295.49c0,0-2.26,5.93,3.8,4.24"/>
	<path class="st0" d="M222.93,293.47c0,0-2.48,6.34,3.97,4.64"/>
	<path class="st0" d="M224.38,292.34c0,0-2.86,6.35,3.84,4.95"/>
	<path class="st0" d="M225.84,291.21c0,0-3.25,6.36,3.72,5.26"/>
	<path class="st0" d="M227.29,290.09c0,0-3.63,6.38,3.59,5.58"/>
	<path class="st0" d="M228.75,288.96c0,0-4.02,6.39,3.47,5.89"/>
	<path class="st0" d="M230.2,287.83c0,0-4.41,6.4,3.34,6.2"/>
	<path class="st0" d="M231.66,286.71c0,0-4.79,6.41,3.22,6.52"/>
	<path class="st0" d="M232.88,286.15c0,0-2.81,3.44-1.04,5.46c0.55,0.56,1.71,1.31,4.06,1.16"/>
	<path class="st0" d="M234.1,285.59c0,0-3.02,3.4-1.3,5.57c0.44,0.45,1.54,1.48,4.14,1.16"/>
	<path class="st0" d="M235.32,285.03c0,0-3.22,3.36-1.57,5.67c0.33,0.34,1.38,1.66,4.21,1.15"/>
	<path class="st0" d="M236.54,284.47c0,0-3.43,3.33-1.84,5.78c0.22,0.22,1.21,1.83,4.29,1.15"/>
	<path class="st0" d="M237.76,283.91c0,0-3.64,3.29-2.1,5.88c0.11,0.11,1.04,2,4.37,1.14"/>
	<path class="st0" d="M238.98,283.35c0,0-3.85,3.25-2.37,5.99c0,0,0.88,2.18,4.44,1.14"/>
	<path class="st0" d="M240.86,282.29c0,0-3.76,3.05-2.1,5.94c0.42,0.61,1.32,2.63,4.92,1.47"/>
	<path class="st0" d="M242.74,281.22c0,0-3.66,2.86-1.83,5.9c0.85,1.21,1.76,3.08,5.39,1.81"/>
	<path class="st0" d="M244.63,280.16c0,0-3.57,2.66-1.56,5.85c1.27,1.82,2.2,3.53,5.87,2.14"/>
	<path class="st0" d="M246.51,279.1c0,0-3.48,2.47-1.29,5.8c1.7,2.42,2.64,3.98,6.34,2.48"/>
	<path class="st0" d="M248.39,278.03c0,0-3.39,2.27-1.02,5.76c2.12,3.03,3.07,4.43,6.82,2.81"/>
	<path class="st0" d="M250.27,276.97c0,0-3.3,2.07-0.75,5.71c2.55,3.64,3.51,4.88,7.29,3.14"/>
	<path class="st0" d="M250.95,276.31c0,0-2.77,2.23-0.42,5.66c2.31,3.34,3.45,4.62,7.22,3.05"/>
	<path class="st0" d="M251.56,275.66c0,0-2.24,2.39-0.08,5.61c2.06,3.04,3.38,4.36,7.15,2.96"/>
	<path class="st0" d="M252.22,275.01c0,0-1.72,2.56,0.26,5.56c1.81,2.75,3.32,4.1,7.08,2.86"/>
	<path class="st0" d="M252.88,274.35c0,0-1.19,2.72,0.59,5.51c1.57,2.45,3.25,3.84,7.01,2.77"/>
	<path class="st0" d="M253.57,273.68c0,0-0.66,2.87,0.93,5.46c1.33,2.15,3.18,3.57,6.94,2.68"/>
	<path class="st0" d="M254.33,273.02c0,0-0.4,9.64,8.13,7.99"/>
	<path class="st0" d="M253.84,273.35c0,0,0.83,7.8,9.19,6.06"/>
	<path class="st0" d="M254.43,272.88c0,0,2.07,5.95,10.24,4.14"/>
	<path class="st0" d="M255.01,272.38c0,0,3.3,4.11,11.3,2.21"/>
	<path class="st0" d="M255.59,271.81c0,0,4.53,2.26,12.35,0.29"/>
	<path class="st0" d="M256.17,271.77c0,0,5.77,0.42,13.4-1.64"/>
	<path class="st0" d="M256.76,271.37c0,0,7-1.43,14.46-3.57"/>
</g>
</svg>
