<svg id="Layer_1" data-name="Layer 1" xmlns="http://www.w3.org/2000/svg" xmlns:xlink="http://www.w3.org/1999/xlink" viewBox="0 0 533.85 433.11"><defs><style>.cls-1,.cls-3,.cls-4{fill:none;}.cls-2{clip-path:url(#clip-path);}.cls-3,.cls-4{stroke:#6f7073;stroke-miterlimit:10;}.cls-3{stroke-linecap:round;stroke-width:0.3px;}.cls-4{stroke-width:0.3px;}</style><clipPath id="clip-path" transform="translate(-234.15 -20.09)"><rect class="cls-1" width="768" height="453"/></clipPath></defs><title>screen_tablet</title><g class="cls-2"><path class="cls-3" d="M575,52.89s8,51.4-23.35,60.9" transform="translate(-234.15 -20.09)"/><path class="cls-3" d="M569.68,52.77s3.13,8.75,1.6,22.54c-1.72,15.92-6.53,33.9-23.93,37.53" transform="translate(-234.15 -20.09)"/><path class="cls-3" d="M564.38,52.65s4.61,6.94,2.67,22.08c-2.08,16.84-6.33,35.09-24,37.17" transform="translate(-234.15 -20.09)"/><path class="cls-3" d="M559.07,52.53s6.09,5.13,3.75,21.62c-2.45,17.77-6.13,36.29-24.07,36.8" transform="translate(-234.15 -20.09)"/><path class="cls-3" d="M553.75,52.39s7.58,3.32,4.84,21.16C555.77,92.24,552.66,111,534.44,110" transform="translate(-234.15 -20.09)"/><path class="cls-3" d="M548.44,52.18s9.06,1.49,5.91,20.69c-3.18,19.61-5.73,38.67-24.21,36.06" transform="translate(-234.15 -20.09)"/><path class="cls-3" d="M545.7,51.69s10.55-.32,7,20.22-5.53,39.87-24.29,35.7" transform="translate(-234.15 -20.09)"/><path class="cls-3" d="M543.22,51.51s10.4-1,7.87,18.92-6.26,42.57-24.42,36" transform="translate(-234.15 -20.09)"/><path class="cls-3" d="M540.68,51.3s10.27-1.77,8.76,17.62-7,45.26-24.55,36.23" transform="translate(-234.15 -20.09)"/><path class="cls-3" d="M538.09,51.08s10.13-2.5,9.64,16.31-7.73,48-24.68,36.5" transform="translate(-234.15 -20.09)"/><path class="cls-3" d="M535.44,50.86s10-3.23,10.51,15-8.46,50.66-24.8,36.77" transform="translate(-234.15 -20.09)"/><path class="cls-3" d="M532.72,50.66s9.84-4,11.39,13.71-9.19,53.34-24.93,37" transform="translate(-234.15 -20.09)"/><path class="cls-3" d="M530,50.47s9.7-4.69,12.28,12.4-9.93,56.05-25.07,37.3" transform="translate(-234.15 -20.09)"/><path class="cls-3" d="M692.76,263.24s-6.43-5.1-16.35-20.32-51.11-49.59-62.56-23c0,0-8,15.41-9.05,27.76" transform="translate(-234.15 -20.09)"/><path class="cls-3" d="M688.87,253.41s-6.24-5.83-16.55-19.38c-4.31-5.67-13.05-13.45-22.86-19.13-15.51-8.93-31.89-12.51-38.15,3.43-.24,1.33-6.87,15.66-7.55,27.43" transform="translate(-234.15 -20.09)"/><path class="cls-3" d="M685,243.68s-6.16-6.5-16.74-18.43c-4.81-5.41-13.65-12.2-23.55-16.54-15.72-6.89-30.4-7.48-35.92,8.14-.48,2.65-5.74,15.9-6.06,27.08" transform="translate(-234.15 -20.09)"/><path class="cls-3" d="M681.09,230.44s-6.18-7.12-16.94-17.48a63.09,63.09,0,0,0-24.23-14c-15.95-4.82-28.92-2.47-33.7,12.84-.7,4-4.61,16.14-4.56,26.74" transform="translate(-234.15 -20.09)"/><path class="cls-3" d="M677.23,217.61a132.49,132.49,0,0,0-17.15-16.54,55.44,55.44,0,0,0-24.91-11.35C619,187,607.75,192.26,603.7,207.26c-.94,5.29-3.49,16.38-3.06,26.39" transform="translate(-234.15 -20.09)"/><path class="cls-3" d="M673.44,205.22a86.49,86.49,0,0,0-17.34-15.59,49.55,49.55,0,0,0-25.6-8.76c-16.42-.64-25.93,7.56-29.23,22.24a105.58,105.58,0,0,0-1.58,26" transform="translate(-234.15 -20.09)"/><path class="cls-3" d="M669.89,193.23s-18-23.09-43.83-20.81-30.34,27.8-27.08,52.65" transform="translate(-234.15 -20.09)"/><path class="cls-3" d="M670.52,196s-20.13-25.79-44.93-25S595,197.81,598.22,222.22" transform="translate(-234.15 -20.09)"/><path class="cls-3" d="M671.12,198.9s-22.28-28.48-46-29.15-30.83,25.76-27.65,49.74" transform="translate(-234.15 -20.09)"/><path class="cls-3" d="M671.74,201.83s-24.43-31.18-47.14-33.32-31.08,24.73-27.93,48.28" transform="translate(-234.15 -20.09)"/><path class="cls-3" d="M672.38,204.8s-26.59-33.88-48.26-37.49S592.8,191,595.91,214.14" transform="translate(-234.15 -20.09)"/><path class="cls-3" d="M673,207.81s-28.73-36.57-49.36-41.65-31.56,22.68-28.49,45.37" transform="translate(-234.15 -20.09)"/><path class="cls-3" d="M673.66,209.91s-30.89-39.27-50.47-45.82S591.38,185.74,594.41,208" transform="translate(-234.15 -20.09)"/><path class="cls-3" d="M670.94,202.39S642.77,165.84,622.11,161,590,183.31,593,204.15" transform="translate(-234.15 -20.09)"/><path class="cls-3" d="M668.23,194S642.78,160.14,621,157s-32.45,23-29.52,42.4" transform="translate(-234.15 -20.09)"/><path class="cls-3" d="M665.52,185.58S642.78,154.48,620,153s-32.78,23.66-29.89,41.64" transform="translate(-234.15 -20.09)"/><path class="cls-3" d="M662.81,177.25s-20-28.37-43.9-28.11S585.8,173.46,588.64,190" transform="translate(-234.15 -20.09)"/><path class="cls-3" d="M660.1,169.09s-17.3-25.65-42.26-23.69-33.43,25-30.64,40.12" transform="translate(-234.15 -20.09)"/><path class="cls-3" d="M657.39,160.92S642.8,138,616.77,141.67,583,167.32,585.75,181" transform="translate(-234.15 -20.09)"/><path class="cls-3" d="M656.28,156.42s-12.86-22.08-39.85-18.63-35.22,25.6-32.08,39.17" transform="translate(-234.15 -20.09)"/><path class="cls-3" d="M655.16,151.92s-11.11-21.24-39.08-18-36.67,25.55-33.14,39" transform="translate(-234.15 -20.09)"/><path class="cls-3" d="M654.05,147.42S644.67,127,615.74,130s-38.13,25.51-34.2,38.8" transform="translate(-234.15 -20.09)"/><path class="cls-3" d="M652.94,142.92s-7.65-19.55-37.54-16.76-39.59,25.45-35.27,38.6" transform="translate(-234.15 -20.09)"/><path class="cls-3" d="M651.83,138.43s-5.91-18.72-36.77-16.15S574,147.68,578.73,160.7" transform="translate(-234.15 -20.09)"/><path class="cls-3" d="M650.72,133.93s-4.18-17.87-36-15.53-42.52,25.35-37.4,38.23" transform="translate(-234.15 -20.09)"/><path class="cls-3" d="M649.73,130.49c-.3-.23-5.67-18.35-37.25-14.65s-40.69,25.5-36.6,37.63" transform="translate(-234.15 -20.09)"/><path class="cls-3" d="M648.76,127.1c-.6-.46-7.18-18.83-38.51-13.77s-38.86,25.64-35.81,37" transform="translate(-234.15 -20.09)"/><path class="cls-3" d="M647.79,123.75c-.9-.69-8.67-19.31-39.75-12.9s-37,25.79-35,36.42" transform="translate(-234.15 -20.09)"/><path class="cls-3" d="M646.84,120.43c-1.2-.91-10.17-19.79-41-12s-35.21,25.94-34.24,35.81" transform="translate(-234.15 -20.09)"/><path class="cls-3" d="M646,117.15C644.45,116,634.28,96.87,603.7,106s-33.39,26.08-33.45,35.21" transform="translate(-234.15 -20.09)"/><path class="cls-3" d="M645.12,113.88c-1.8-1.37-13.17-20.75-43.5-10.26s-31.56,26.22-32.66,34.6" transform="translate(-234.15 -20.09)"/><path class="cls-3" d="M644.24,109.41c-1.5-1.14-17.69-25.47-45.84-14.14-.47.19-.92.4-1.37.62-2.35.85-5,2.13-6.62,4.61-17.67,10.07-19.82,27.78-24.12,33.86" transform="translate(-234.15 -20.09)"/><path class="cls-3" d="M643.36,105c-1.2-.92-22.17-30-48.18-18a14.53,14.53,0,0,0-1.4.76,8.2,8.2,0,0,0-5.55,6c-13.76,9.93-17,32.08-24.6,36.79" transform="translate(-234.15 -20.09)"/><path class="cls-3" d="M642.49,100.48c-.91-.69-26.59-34.34-50.52-21.89a12.91,12.91,0,0,0-1.45.9c-1.4.5-4.26,2.25-4.47,7.46-9.84,9.78-14.14,36.37-25.08,39.71" transform="translate(-234.15 -20.09)"/><path class="cls-3" d="M641.61,96c-.61-.46-30.94-38.55-52.86-25.77a13.2,13.2,0,0,0-1.48,1c-.93.34-3.89,2.31-3.4,8.9-5.93,9.63-11.3,40.65-25.57,42.63" transform="translate(-234.15 -20.09)"/><path class="cls-3" d="M640.73,91.54c-.3-.23-35.21-42.67-55.2-29.64A12.6,12.6,0,0,0,584,63.08c-.47.17-3.52,2.37-2.33,10.33-2,9.48-8.46,44.94-26.05,45.55" transform="translate(-234.15 -20.09)"/><path class="cls-3" d="M639.85,87.07s-41.75-49.5-59.08-32.19c0,0-3.16,2.43-1.26,11.76S573.88,115.87,553,115.1" transform="translate(-234.15 -20.09)"/><path class="cls-3" d="M473.72,111.87s-22.39-8.25-32.16-4.42" transform="translate(-234.15 -20.09)"/><path class="cls-3" d="M474.35,109.27A54.21,54.21,0,0,0,459,104.2c-7.82-1.4-13.32-.64-17,1.09" transform="translate(-234.15 -20.09)"/><path class="cls-3" d="M475,106.8s-4.7-4-15.49-5.87c-9.53-1.59-13.94.53-17.1,2.34" transform="translate(-234.15 -20.09)"/><path class="cls-3" d="M475.63,104.39s-3.44-4.71-15.63-6.68c-11.23-1.78-14.55,1.7-17.18,3.59" transform="translate(-234.15 -20.09)"/><path class="cls-3" d="M476.26,102s-2.18-5.39-15.76-7.49c-12.93-2-15.16,2.88-17.26,4.85" transform="translate(-234.15 -20.09)"/><path class="cls-3" d="M476.9,99.61S476,93.52,461,91.31c-14.65-2.15-15.78,4-17.35,6.1" transform="translate(-234.15 -20.09)"/><path class="cls-3" d="M477.54,97.23s.32-6.77-16-9.11-16.4,5.22-17.43,7.36" transform="translate(-234.15 -20.09)"/><path class="cls-3" d="M477.71,96.65s.34-7.14-16-9.64-16.44,5.31-17.54,7.69" transform="translate(-234.15 -20.09)"/><path class="cls-3" d="M477.88,96.08s.36-7.53-15.95-10.18-16.48,5.4-17.65,8" transform="translate(-234.15 -20.09)"/><path class="cls-3" d="M478.05,95.5s.37-7.9-15.91-10.71-16.53,5.49-17.76,8.36" transform="translate(-234.15 -20.09)"/><path class="cls-3" d="M478.22,94.92s.39-8.27-15.87-11.23-16.57,5.58-17.87,8.69" transform="translate(-234.15 -20.09)"/><path class="cls-3" d="M478.39,94.35s.41-8.66-15.84-11.77-16.61,5.67-18,9" transform="translate(-234.15 -20.09)"/><path class="cls-3" d="M478.56,93.77s.43-9-15.8-12.3-16.65,5.76-18.07,9.36" transform="translate(-234.15 -20.09)"/><path class="cls-3" d="M479,92.08s1.08-9.48-14.51-13.71-18.35,4.5-19.65,9.31" transform="translate(-234.15 -20.09)"/><path class="cls-3" d="M479.46,90.42s1.74-9.92-13.22-15.11-20,3.23-21.22,9.26" transform="translate(-234.15 -20.09)"/><path class="cls-3" d="M479.88,88.8s2.4-10.38-11.93-16.52-21.74,2-22.79,9.21" transform="translate(-234.15 -20.09)"/><path class="cls-3" d="M480.27,87.2s3.07-10.83-10.64-17.93-23.43.7-24.35,9.16" transform="translate(-234.15 -20.09)"/><path class="cls-3" d="M480.64,85.62s3.72-11.28-9.35-19.34-25.13-.56-25.93,9.11" transform="translate(-234.15 -20.09)"/><path class="cls-3" d="M481,84.05s4.38-11.72-8.06-20.74-26.82-1.83-27.5,9.06" transform="translate(-234.15 -20.09)"/><path class="cls-3" d="M414.31,80s-5.94-9.49-15.34-7.13-14.58,13-12.74,23.49" transform="translate(-234.15 -20.09)"/><path class="cls-3" d="M415.14,82.4s-6-10-16.15-7.74-14.16,13.18-12.46,23" transform="translate(-234.15 -20.09)"/><path class="cls-3" d="M416,84.78S409.83,74.32,399,76.43,385.27,89.76,386.83,99" transform="translate(-234.15 -20.09)"/><path class="cls-3" d="M416.78,87.15s-6.23-10.94-17.75-9-13.32,13.49-11.89,22.1" transform="translate(-234.15 -20.09)"/><path class="cls-3" d="M417.6,89.53S411.28,78.1,399.05,80s-12.89,13.64-11.61,21.63" transform="translate(-234.15 -20.09)"/><path class="cls-3" d="M418.43,91.91S412,80,399.07,81.73s-12.47,13.79-11.33,21.16" transform="translate(-234.15 -20.09)"/><path class="cls-3" d="M419.25,94.29s-6.51-12.4-20.16-10.79-12,13.94-11,20.69" transform="translate(-234.15 -20.09)"/><path class="cls-3" d="M419.71,96c-.08-.12-6.83-11.55-19.59-9.78C388,87.92,388.6,98.86,388.86,106.1" transform="translate(-234.15 -20.09)"/><path class="cls-3" d="M420.4,97.77c-.17-.23-7.16-10.7-19-8.77-10.54,1.72-11,11.28-11.46,19" transform="translate(-234.15 -20.09)"/><path class="cls-3" d="M421.14,99.51c-.27-.34-7.48-9.87-18.47-7.75-9,1.73-10.45,10-11.67,18.17" transform="translate(-234.15 -20.09)"/><path class="cls-3" d="M421.87,101.27c-.35-.45-7.8-9.07-17.9-6.74-7.44,1.72-9.92,8.63-11.88,17.34" transform="translate(-234.15 -20.09)"/><path class="cls-3" d="M422.61,103.05c-.44-.57-8.15-8.32-17.33-5.73-5.92,1.68-9.39,7.31-12.1,16.5" transform="translate(-234.15 -20.09)"/><path class="cls-3" d="M423.35,104.86c-.81-1-19.17-16.9-29.08,10.94" transform="translate(-234.15 -20.09)"/><path class="cls-3" d="M393.83,116.51A24.76,24.76,0,0,1,399.42,105c10.79-12,23.54-.55,24.09.17" transform="translate(-234.15 -20.09)"/><path class="cls-3" d="M393.38,117.22a19.83,19.83,0,0,1,5.29-11.94c11.63-12.2,24.57-.3,25,.28" transform="translate(-234.15 -20.09)"/><path class="cls-3" d="M392.93,117.93c.28-8,3.93-11.16,5-12.42,12.47-12.44,25.59,0,25.93.4" transform="translate(-234.15 -20.09)"/><path class="cls-3" d="M392.43,118.63c-.21-9.06,4-12,4.69-12.89,13.3-12.69,26.62.22,26.84.51" transform="translate(-234.15 -20.09)"/><path class="cls-3" d="M392,119.34c-.69-10.1,4-13,4.4-13.37,14.14-12.93,27.64.49,27.75.63" transform="translate(-234.15 -20.09)"/><path class="cls-3" d="M391.58,120.05c-1.18-11.13,4.1-13.85,4.1-13.85,15-13.17,28.67.75,28.67.75" transform="translate(-234.15 -20.09)"/><path class="cls-3" d="M390.34,118.36c-1-9.28,3.94-12.16,4.72-12.83,13.42-11.76,26.12-1,27.34-1" transform="translate(-234.15 -20.09)"/><path class="cls-3" d="M390.32,118.26c-.79-7.42,3.78-10.47,5.35-11.8,11.85-10.35,23.56-2.78,26-2.74" transform="translate(-234.15 -20.09)"/><path class="cls-3" d="M391.37,119.62c-.6-5.57,3.62-8.78,6-10.77,10.28-8.95,21-4.55,24.66-4.48" transform="translate(-234.15 -20.09)"/><path class="cls-3" d="M392.41,121.26c-.39-3.71,3.46-7.09,6.6-9.75,8.71-7.54,18.44-6.31,23.32-6.22" transform="translate(-234.15 -20.09)"/><path class="cls-3" d="M393.46,123.34c-.2-1.85,3.3-5.39,7.23-8.72a33.77,33.77,0,0,1,22-8" transform="translate(-234.15 -20.09)"/><path class="cls-3" d="M394.51,125.49s15-17.65,28.51-17.41" transform="translate(-234.15 -20.09)"/><path class="cls-3" d="M643.8,48.41S644.72,24.12,621,21s-27.43,3.48-31,18.06" transform="translate(-234.15 -20.09)"/><path class="cls-3" d="M643.26,52.66s1.23-24.4-20.71-27.81-29,1.49-33,16.06" transform="translate(-234.15 -20.09)"/><path class="cls-3" d="M642.72,57s1.52-24.5-18.62-28.19-30.6-.53-34.88,14.05" transform="translate(-234.15 -20.09)"/><path class="cls-3" d="M642.18,61.3S644,36.7,625.64,32.72s-32.18-2.53-36.79,12.06" transform="translate(-234.15 -20.09)"/><path class="cls-3" d="M641.63,65.73s2.11-24.71-14.46-29-33.75-4.54-38.7,10.05" transform="translate(-234.15 -20.09)"/><path class="cls-3" d="M641.06,70.23s2.42-24.81-12.36-29.35-35.34-6.55-40.62,8" transform="translate(-234.15 -20.09)"/><path class="cls-3" d="M639.47,70.55s2.71-24.91-10.29-29.74-36.91-8.55-42.53,6" transform="translate(-234.15 -20.09)"/><path class="cls-3" d="M639.87,72.8s.39-23.81-12.2-28.86-33.85-9.83-41.19,3.18" transform="translate(-234.15 -20.09)"/><path class="cls-3" d="M640.15,75.14s-1.93-22.72-14.11-28-30.77-11.12-39.85.31" transform="translate(-234.15 -20.09)"/><path class="cls-3" d="M640.44,77.56s-4.26-21.62-16-27.09-27.7-12.4-38.51-2.56" transform="translate(-234.15 -20.09)"/><path class="cls-3" d="M640.72,80.08s-6.57-20.52-17.94-26.21-24.63-13.68-37.17-5.42" transform="translate(-234.15 -20.09)"/><path class="cls-3" d="M641,82.71s-8.9-19.42-19.86-25.32-21.56-15-35.83-8.3" transform="translate(-234.15 -20.09)"/><path class="cls-3" d="M641.29,85.46S630.07,67.14,619.52,61,601,44.77,585,49.86" transform="translate(-234.15 -20.09)"/><path class="cls-3" d="M489.82,283.68s-8.38-34.59-27-46.5c-16.46-10.51-39.15-15.68-54.94-11.36-21.2,5.8-23.44,14.89-24.94,19.33" transform="translate(-234.15 -20.09)"/><path class="cls-3" d="M489.63,285.44s-8.54-35.14-29.35-45.95c-18.9-9.81-41.44-12.23-55.75-8.13-18.83,5.35-22.7,14.5-23.72,21.46" transform="translate(-234.15 -20.09)"/><path class="cls-3" d="M489.43,287.32s-8.72-35.63-31.65-45.38c-21.36-9.08-43.72-8.76-56.57-4.9-16.43,4.94-21.95,14.11-22.48,23.57" transform="translate(-234.15 -20.09)"/><path class="cls-3" d="M489.24,289.44s-8.93-36.1-34-44.83c-23.84-8.3-46-5.3-57.38-1.66-14.05,4.49-21.2,13.72-21.25,25.68" transform="translate(-234.15 -20.09)"/><path class="cls-3" d="M489.05,291.8s-9.14-36.53-36.27-44.26a97.42,97.42,0,0,0-58.2,1.57c-11.66,4-20.46,13.33-20,27.8" transform="translate(-234.15 -20.09)"/><path class="cls-3" d="M488.88,294.39s-9.36-36.93-38.58-43.7c-28.83-6.67-50.59,1.57-59,4.8-9.3,3.57-19.72,12.94-18.79,29.93" transform="translate(-234.15 -20.09)"/><path class="cls-3" d="M488.71,297.15s-9.57-37.31-40.89-43.14-52.89,5-59.82,8-19,12.55-17.56,32" transform="translate(-234.15 -20.09)"/><path class="cls-3" d="M489,301.36s-14.58-36-43.63-40.38-50.56,5.6-57.6,8.37-18.67,12.12-16.93,31.6" transform="translate(-234.15 -20.09)"/><path class="cls-3" d="M489.26,304.47s-19.6-34.66-46.37-37.61-48.24,6.24-55.38,8.71-18.38,11.68-16.3,31.16" transform="translate(-234.15 -20.09)"/><path class="cls-3" d="M489.55,307.45s-24.62-33.33-49.12-34.85-45.91,6.87-53.15,9-18.09,11.25-15.68,30.73" transform="translate(-234.15 -20.09)"/><path class="cls-3" d="M489.84,310.53s-29.63-32-51.86-32.09-43.58,7.52-50.92,9.39-17.8,10.81-15.06,30.29" transform="translate(-234.15 -20.09)"/><path class="cls-3" d="M490.15,313.73s-34.66-30.68-54.62-29.33-41.24,8.15-48.69,9.73S369.34,304.5,372.41,324" transform="translate(-234.15 -20.09)"/><path class="cls-3" d="M490.46,317s-39.68-29.35-57.36-26.57-38.92,8.79-46.47,10.07-17.2,9.95-13.8,29.42" transform="translate(-234.15 -20.09)"/><path class="cls-3" d="M489.83,318.17s-37.5-25.32-56.12-21.49c-16.6,3.43-36.59,9.13-44.65,11.24s-17.41,10.55-14.53,28.2" transform="translate(-234.15 -20.09)"/><path class="cls-3" d="M489.21,319.44s-35.32-21.38-54.88-16.4c-15.52,3.95-34.26,9.45-42.83,12.41s-17.62,11.14-15.25,27" transform="translate(-234.15 -20.09)"/><path class="cls-3" d="M488.6,320.82S455.44,303.3,435,309.5c-14.46,4.38-31.94,9.79-41,13.58s-17.82,11.74-16,25.77" transform="translate(-234.15 -20.09)"/><path class="cls-3" d="M488,322.37s-31-13.77-52.4-6.23c-13.42,4.74-29.61,10.12-39.2,14.76s-18,12.33-16.69,24.54" transform="translate(-234.15 -20.09)"/><path class="cls-3" d="M487.41,324.2s-28.94-10.15-51.16-1.15c-12.41,5-27.28,10.46-37.38,15.93s-18.23,12.93-17.42,23.33" transform="translate(-234.15 -20.09)"/><path class="cls-3" d="M486.84,326.43s-26.94-6.67-49.91,3.94-54.3,22.1-53.71,39.21" transform="translate(-234.15 -20.09)"/><path class="cls-3" d="M485.71,328.34S455.84,320.9,435,330c-13.36,5.83-31.16,13.39-41.33,20.52-6.7,4.7-11.37,10.88-11.2,17" transform="translate(-234.15 -20.09)"/><path class="cls-3" d="M484.57,330.34s-32.8-8.23-51.5-.62c-12.65,5.14-31,13.42-40.27,19.44-6.41,4.16-11.18,10.75-11.08,16.29" transform="translate(-234.15 -20.09)"/><path class="cls-3" d="M483.43,332.45s-35.75-9.06-52.28-2.91C419.2,334,400.22,343,391.92,347.9c-6.11,3.63-11,10.63-10.95,15.64" transform="translate(-234.15 -20.09)"/><path class="cls-3" d="M482.29,334.67s-38.72-9.93-53.07-5.19c-11.26,3.72-30.83,13.43-38.17,17.29-5.84,3.07-10.8,10.5-10.83,15" transform="translate(-234.15 -20.09)"/><path class="cls-3" d="M481.16,337s-41.72-10.85-53.86-7.47c-10.59,3-30.77,13.38-37.12,16.21-5.59,2.49-10.62,10.39-10.71,14.32" transform="translate(-234.15 -20.09)"/><path class="cls-3" d="M480,339.45s-44.72-11.85-54.65-9.75-30.7,13.28-36.06,15.13-10.43,10.27-10.59,13.65" transform="translate(-234.15 -20.09)"/><path class="cls-3" d="M477.15,342.59s-44.19-9-54.15-6.37c-8.27,1.75-26.92,12.48-32.35,15.07-4.67,2.24-9.23,9.52-9.41,12.8" transform="translate(-234.15 -20.09)"/><path class="cls-3" d="M474.27,345.83s-43.66-6.21-53.65-3c-6.61,1.4-23.1,11.58-28.63,15-4,2.48-8,8.76-8.22,11.93" transform="translate(-234.15 -20.09)"/><path class="cls-3" d="M471.39,349.29s-43.13-3.4-53.14.39c-5,1.05-19.32,10.58-24.92,14.95-3.38,2.64-6.81,8-7,11.08" transform="translate(-234.15 -20.09)"/><path class="cls-3" d="M468.52,353.31s-42.61-.58-52.64,3.77c-3.31.7-15.63,9.48-21.22,14.89-2.8,2.72-5.6,7.26-5.84,10.23" transform="translate(-234.15 -20.09)"/><path class="cls-3" d="M465.64,358s-42.07,2.23-52.14,7.15c-1.65.35-12.07,8.27-17.5,14.83-2.29,2.77-4.39,6.51-4.66,9.37" transform="translate(-234.15 -20.09)"/><path class="cls-3" d="M462.76,362.73s-41.54,5-51.63,10.52c0,0-16.18,12.92-17.26,23.28" transform="translate(-234.15 -20.09)"/><path class="cls-3" d="M458.39,366.35S420,371.69,411,376.76c-.57.49-14.87,12.73-15.77,21.36" transform="translate(-234.15 -20.09)"/><path class="cls-3" d="M454,370s-35.19,5.65-43.06,10.29c-1.14,1-13.57,12.54-14.29,19.45" transform="translate(-234.15 -20.09)"/><path class="cls-3" d="M449.65,373.59s-32,6-38.77,10.18c-1.71,1.48-12.27,12.35-12.81,17.53" transform="translate(-234.15 -20.09)"/><path class="cls-3" d="M445.27,377.21s-28.83,6.27-34.47,10.07c-2.28,2-11,12.15-11.33,15.61" transform="translate(-234.15 -20.09)"/><path class="cls-3" d="M440.9,380.83s-25.66,6.58-30.19,9.95c-2.85,2.47-9.66,12-9.84,13.69" transform="translate(-234.15 -20.09)"/><path class="cls-3" d="M436.53,384.45s-22.48,6.88-25.9,9.84-8.36,11.77-8.36,11.77" transform="translate(-234.15 -20.09)"/><path class="cls-3" d="M386.52,451.69a9.67,9.67,0,0,0-11.57-.58,15.46,15.46,0,0,0-2.5,1.82" transform="translate(-234.15 -20.09)"/><path class="cls-3" d="M384.69,448s-4.35-5.82-12-.86c-3.54,2.3-4.82,4.26-5.18,5.8" transform="translate(-234.15 -20.09)"/><path class="cls-3" d="M354.12,447.23s6.71-3.29,8.67,5.72" transform="translate(-234.15 -20.09)"/><path class="cls-3" d="M351.66,449.42s5.35-3.44,7.8,3.51" transform="translate(-234.15 -20.09)"/><path class="cls-3" d="M349.19,451.6s4.05-3.3,6.67,1.33" transform="translate(-234.15 -20.09)"/><path class="cls-3" d="M383.53,442.73s-13.47-3.34-18.3,9.66c0,0-3.11-10.92-10.33-6.76" transform="translate(-234.15 -20.09)"/><path class="cls-3" d="M382.83,438.43s-7.91-3.55-13.48,3.26a12.38,12.38,0,0,1-2.15,2.05c-.57.08-1.73-1.46-3.42-2.56-.84-.94-3.31-1.34-5.59.94" transform="translate(-234.15 -20.09)"/><path class="cls-3" d="M382.13,432.56a7.72,7.72,0,0,0-10.48.51,49,49,0,0,1-6.36.87,5.68,5.68,0,0,0-3.82,3.09" transform="translate(-234.15 -20.09)"/><path class="cls-3" d="M381.67,427.13s-4.75-4.59-9.76-2.27a18.71,18.71,0,0,0-5.8,1.51,9.85,9.85,0,0,0-3.12,3.55" transform="translate(-234.15 -20.09)"/><path class="cls-3" d="M381.21,422.22s-11.28-12.09-16.7,1.11" transform="translate(-234.15 -20.09)"/><path class="cls-3" d="M383.05,414s-11.28-8.54-16.72,3" transform="translate(-234.15 -20.09)"/><path class="cls-3" d="M384.88,405.86s-11.27-5-16.73,4.89" transform="translate(-234.15 -20.09)"/><path class="cls-3" d="M384.57,407.52s-11.27-5-16.73,4.89" transform="translate(-234.15 -20.09)"/><path class="cls-3" d="M384.26,409.18s-11.27-5-16.74,4.9" transform="translate(-234.15 -20.09)"/><path class="cls-3" d="M385.33,403.15s-9.71-7.08-15.07,3.76" transform="translate(-234.15 -20.09)"/><path class="cls-3" d="M386.41,397.11S378.25,388,373,399.75" transform="translate(-234.15 -20.09)"/><path class="cls-3" d="M387.76,393.32c.75.54-6.57-10.17-13.12,1.54" transform="translate(-234.15 -20.09)"/><path class="cls-3" d="M389.11,389.52c1.51,1.08-5-11.17-12.83.44" transform="translate(-234.15 -20.09)"/><path class="cls-3" d="M696.42,450.44a13,13,0,0,1-.16,2.56" transform="translate(-234.15 -20.09)"/><path class="cls-3" d="M691.59,448.65a13,13,0,0,1-.09,4.35" transform="translate(-234.15 -20.09)"/><path class="cls-3" d="M686.7,446.7a11.57,11.57,0,0,1-.12,6.34" transform="translate(-234.15 -20.09)"/><path class="cls-3" d="M681.25,443.61s.42,6.55-4.63,9.39" transform="translate(-234.15 -20.09)"/><path class="cls-3" d="M675.61,440.32S673.46,449.5,665,452" transform="translate(-234.15 -20.09)"/><path class="cls-3" d="M670.73,437.12A14.15,14.15,0,0,1,661,448.91" transform="translate(-234.15 -20.09)"/><path class="cls-3" d="M665.85,433.93s.76,8.61-8.76,11.9" transform="translate(-234.15 -20.09)"/><path class="cls-3" d="M667.45,434.7s.76,8.62-8.75,11.91" transform="translate(-234.15 -20.09)"/><path class="cls-3" d="M669.06,435.48s.75,8.62-8.76,11.91" transform="translate(-234.15 -20.09)"/><path class="cls-3" d="M664.49,431.9s.76,8.62-8.76,11.91" transform="translate(-234.15 -20.09)"/><path class="cls-3" d="M659.92,428.32s.76,8.62-8.76,11.91" transform="translate(-234.15 -20.09)"/><path class="cls-3" d="M656.8,427a14,14,0,0,1-8.24,10.84" transform="translate(-234.15 -20.09)"/><path class="cls-3" d="M653.69,425.7a20.4,20.4,0,0,1-7.72,9.77" transform="translate(-234.15 -20.09)"/><path class="cls-3" d="M649.86,421.7s-3.11,6.4-7.85,10" transform="translate(-234.15 -20.09)"/><path class="cls-3" d="M646,417.69s-4.3,6.82-8,10.31" transform="translate(-234.15 -20.09)"/><path class="cls-3" d="M643.5,414.85s-4.3,6.82-8,10.31" transform="translate(-234.15 -20.09)"/><path class="cls-3" d="M641,412s-4.3,6.82-8,10.31" transform="translate(-234.15 -20.09)"/><path class="cls-3" d="M639.35,410.23s-4.3,6.82-8,10.31" transform="translate(-234.15 -20.09)"/><path class="cls-3" d="M637.74,408.46s-4.31,6.82-8,10.31" transform="translate(-234.15 -20.09)"/><path class="cls-3" d="M635.53,408.17s-5.78,5.77-7.81,8.25" transform="translate(-234.15 -20.09)"/><path class="cls-3" d="M633.32,407.88s-7.25,4.72-7.63,6.19" transform="translate(-234.15 -20.09)"/><path class="cls-3" d="M626.46,403.89s-7.89,6.72-8.14,7.69" transform="translate(-234.15 -20.09)"/><path class="cls-3" d="M619.61,399.89s-8.53,8.72-8.66,9.21" transform="translate(-234.15 -20.09)"/><line class="cls-3" x1="378.6" y1="375.81" x2="369.43" y2="386.53"/><line class="cls-3" x1="381.29" y1="377.99" x2="372.12" y2="388.71"/><line class="cls-3" x1="383.99" y1="380.16" x2="374.82" y2="390.88"/><line class="cls-3" x1="386.32" y1="381.13" x2="377.15" y2="391.85"/><line class="cls-3" x1="388.65" y1="382.1" x2="379.49" y2="392.82"/><line class="cls-3" x1="392.12" y1="383.13" x2="382.95" y2="393.84"/><line class="cls-3" x1="395.58" y1="384.15" x2="386.41" y2="394.87"/><path class="cls-3" d="M619.51,399.56s-9.13,8.26-9.23,11.84" transform="translate(-234.15 -20.09)"/><path class="cls-3" d="M609.29,394.88s-9.09,5.8-9.28,13" transform="translate(-234.15 -20.09)"/><path class="cls-3" d="M607.89,394s-9.1,5.8-9.28,13" transform="translate(-234.15 -20.09)"/><path class="cls-3" d="M606.48,393.18s-9.09,5.81-9.28,13" transform="translate(-234.15 -20.09)"/><path class="cls-3" d="M602.87,390.44s-9.63,5.54-10.22,12.18" transform="translate(-234.15 -20.09)"/><path class="cls-3" d="M599.26,387.69S589.1,393,588.1,399.09" transform="translate(-234.15 -20.09)"/><path class="cls-3" d="M600.46,388.6S590.3,393.89,589.31,400" transform="translate(-234.15 -20.09)"/><path class="cls-3" d="M601.67,389.52s-10.17,5.29-11.16,11.4" transform="translate(-234.15 -20.09)"/><path class="cls-3" d="M596.7,384.8s-9.32,3.22-11.29,11" transform="translate(-234.15 -20.09)"/><path class="cls-3" d="M591.74,380.08a14.92,14.92,0,0,0-11.43,10.6" transform="translate(-234.15 -20.09)"/><path class="cls-3" d="M592.62,381.33a14.92,14.92,0,0,0-11.43,10.61" transform="translate(-234.15 -20.09)"/><path class="cls-3" d="M593.49,382.58a14.9,14.9,0,0,0-11.42,10.61" transform="translate(-234.15 -20.09)"/><path class="cls-3" d="M306.87,275.21s-15,11.85-19,23.44" transform="translate(-234.15 -20.09)"/><path class="cls-3" d="M304.63,274.21s-15,8.53-18.3,21.87" transform="translate(-234.15 -20.09)"/><path class="cls-3" d="M302.4,273.21s-15.07,5.21-17.63,20.3" transform="translate(-234.15 -20.09)"/><path class="cls-3" d="M300.16,272.2s-15.1,1.9-16.94,18.74" transform="translate(-234.15 -20.09)"/><path class="cls-3" d="M297.93,271.2s-15.14-1.43-16.26,17.17" transform="translate(-234.15 -20.09)"/><path class="cls-3" d="M294.54,269.43s-7.71-1.71-12.11,4.9c-2.62,3.95-2.74,7.19-2.76,12.12" transform="translate(-234.15 -20.09)"/><path class="cls-3" d="M291.43,267.7s-7.92-2.6-12,4.64c-3.07,5.4-1.75,8-1.44,12.23" transform="translate(-234.15 -20.09)"/><path class="cls-3" d="M288.57,266s-8.05-3.45-12,4.38c-3.44,6.89-.75,8.85-.12,12.34" transform="translate(-234.15 -20.09)"/><path class="cls-3" d="M285.78,264.3s-8.14-4.29-11.9,4.11.24,9.69,1.2,12.46" transform="translate(-234.15 -20.09)"/><path class="cls-3" d="M284.08,262.79s-7.65-4.47-11.52,2.64-1.21,10,.52,14" transform="translate(-234.15 -20.09)"/><path class="cls-3" d="M282.44,261.31s-7.15-4.63-11.13,1.18-2.67,10.25-.16,15.6" transform="translate(-234.15 -20.09)"/><path class="cls-3" d="M280.87,259.89s-6.66-4.81-10.75-.28-4.13,10.53-.84,17.16" transform="translate(-234.15 -20.09)"/><path class="cls-3" d="M279.34,258.53s-6.16-5-10.37-1.74-5.58,10.81-1.51,18.73" transform="translate(-234.15 -20.09)"/><path class="cls-3" d="M279.89,307.63s-10.29,17.76-5,31.9" transform="translate(-234.15 -20.09)"/><path class="cls-3" d="M275.66,307.82s-9.24,16.62-1.53,30.27" transform="translate(-234.15 -20.09)"/><path class="cls-3" d="M270.68,308s-8.19,15.49,1.91,28.65" transform="translate(-234.15 -20.09)"/><path class="cls-3" d="M265.13,308.19a24.08,24.08,0,0,0,5.34,27" transform="translate(-234.15 -20.09)"/><path class="cls-3" d="M259.73,308.38s-6.09,13.2,8.77,25.38" transform="translate(-234.15 -20.09)"/><path class="cls-3" d="M263.78,308.55s-9.89,11.52,2.43,24.36" transform="translate(-234.15 -20.09)"/><path class="cls-3" d="M266.45,308.72s-13.69,9.84-3.92,23.33" transform="translate(-234.15 -20.09)"/><path class="cls-3" d="M268.36,308.89S250.87,317,258.09,331.2" transform="translate(-234.15 -20.09)"/><path class="cls-3" d="M270.62,309.06s-21.3,6.47-16.62,21.28" transform="translate(-234.15 -20.09)"/><path class="cls-3" d="M265.67,308.45s-7.73,1.1-12,7.51c-2.63,2.54-4.62,8.31-1.56,14" transform="translate(-234.15 -20.09)"/><path class="cls-3" d="M260.85,307.84a12.77,12.77,0,0,0-11.31,7.79c-1.75,1.69-3.36,8.6.87,14" transform="translate(-234.15 -20.09)"/><path class="cls-3" d="M256.15,307.26S248,306,245.5,315.33c-.87.84-2.09,8.88,3.3,14" transform="translate(-234.15 -20.09)"/><path class="cls-3" d="M251.61,306.75s-8.38-2.43-10,8.33c0,0-.83,9.17,5.73,14" transform="translate(-234.15 -20.09)"/><path class="cls-3" d="M270.47,356.17s-7.71,22.64,8.5,36.13" transform="translate(-234.15 -20.09)"/><path class="cls-3" d="M268.92,356.81s-8.06,23.88,7.83,35.81" transform="translate(-234.15 -20.09)"/><path class="cls-3" d="M267.37,357.46S259,382.57,274.53,393" transform="translate(-234.15 -20.09)"/><path class="cls-3" d="M265.82,358.11s-8.77,26.34,6.49,35.16" transform="translate(-234.15 -20.09)"/><path class="cls-3" d="M264.27,358.76s-9.12,27.57,5.82,34.83" transform="translate(-234.15 -20.09)"/><path class="cls-3" d="M261.45,359.29c-.3.1-3.84,8.82-2.92,18.41.74,7.68,3.09,13.92,8.65,16.46" transform="translate(-234.15 -20.09)"/><path class="cls-3" d="M258.64,359.81c-.6.21-4.56,8.35-3.12,18.31,1.25,8.7,3.89,14.56,8.75,16.6" transform="translate(-234.15 -20.09)"/><path class="cls-3" d="M255.82,360.34c-.89.31-5.23,7.86-3.31,18.2,1.8,9.71,4.68,15.21,8.84,16.74" transform="translate(-234.15 -20.09)"/><path class="cls-3" d="M253,360.87c-1.19.41-5.89,7.37-3.51,18.09s5.48,15.86,8.94,16.88" transform="translate(-234.15 -20.09)"/><path class="cls-3" d="M250.36,361.23c-.89.31-7.43,6.46-4.33,19.26,1.78,8,5.1,14.11,8.86,15.36" transform="translate(-234.15 -20.09)"/><path class="cls-3" d="M247.71,361.59c-.59.21-9,5.54-5.15,20.43,1.19,5.36,4.72,12.36,8.78,13.84" transform="translate(-234.15 -20.09)"/><path class="cls-3" d="M245.06,362c-.3.1-10.5,4.62-6,21.59.59,2.68,4.33,10.6,8.69,12.31" transform="translate(-234.15 -20.09)"/><path class="cls-3" d="M242.41,362.32s-12,3.71-6.78,22.76c0,0,4,8.85,8.61,10.79" transform="translate(-234.15 -20.09)"/><path class="cls-3" d="M276.83,414.35s1.92,11.68,11.46,10.38,12.68-5.85,13.81-10.46" transform="translate(-234.15 -20.09)"/><path class="cls-3" d="M277.66,411.68s2.95,10.24,10.91,10.14c6.62-.07,10.43-3.23,13.49-8.92" transform="translate(-234.15 -20.09)"/><path class="cls-3" d="M278.49,408.89s9.92,21,23.52,2.53" transform="translate(-234.15 -20.09)"/><path class="cls-3" d="M277.52,404.63s13,21.48,25,.91" transform="translate(-234.15 -20.09)"/><path class="cls-3" d="M276.54,400.68s16,22,26.4-.68" transform="translate(-234.15 -20.09)"/><path class="cls-3" d="M277.76,396.69s19.21,15.11,28.06-5.82" transform="translate(-234.15 -20.09)"/><path class="cls-3" d="M279,392.3s22.38,8.24,29.74-10.95" transform="translate(-234.15 -20.09)"/><path class="cls-3" d="M274.7,376.35s18.34,17.74,32.83,4.74" transform="translate(-234.15 -20.09)"/><path class="cls-3" d="M270.43,363.73s14.3,27.24,35.92,20.44" transform="translate(-234.15 -20.09)"/><path class="cls-3" d="M271.89,358.11s15.58,29.36,38.84,17.65" transform="translate(-234.15 -20.09)"/><path class="cls-3" d="M273.35,352.29s16.87,31.46,41.77,14.86" transform="translate(-234.15 -20.09)"/><path class="cls-3" d="M274.58,346.35s3.3,14.7,17.58,18.39c12.79,3.31,20.4,2.11,30.73-5.79" transform="translate(-234.15 -20.09)"/><path class="cls-3" d="M275.8,340.12s1,18.3,19.74,20.48,24.86-1.27,35.12-10.14" transform="translate(-234.15 -20.09)"/><path class="cls-3" d="M278.85,323.44S274,343.1,290.41,351.08s28.85,8.34,39.5-.34" transform="translate(-234.15 -20.09)"/><path class="cls-3" d="M283.18,305.6s-10.71,21,3.38,34.8,32.84,17.94,43.89,9.46" transform="translate(-234.15 -20.09)"/><path class="cls-3" d="M285.15,302.5s-6.69,25,8.67,36.63,28.63,15.41,41,6.81" transform="translate(-234.15 -20.09)"/><path class="cls-3" d="M287.69,299.38s-2.66,28.89,14,38.46,24.43,12.87,38.07,4.16" transform="translate(-234.15 -20.09)"/><path class="cls-3" d="M298,287.69s-7.72,22,2.35,32.82,18,28.06,39.85,20.86" transform="translate(-234.15 -20.09)"/><path class="cls-3" d="M310.51,274.84s-12.77,15.07-9.25,27.18,11.62,43.26,41.62,37.55" transform="translate(-234.15 -20.09)"/><path class="cls-3" d="M331.13,267.05s-18.6,11.7-15.17,29.66c4.14,21.67,17.37,40.28,39.73,37.55" transform="translate(-234.15 -20.09)"/><path class="cls-3" d="M351.74,259.26s-24.57,8.35-21.07,32.15c4.59,31.26,23.1,37.29,37.83,37.53" transform="translate(-234.15 -20.09)"/><path class="cls-3" d="M360.58,256.57s-23.45,11.37-18.52,32.49c2.3,15.63,12.34,26.7,26.62,31.42" transform="translate(-234.15 -20.09)"/><path class="cls-3" d="M369.2,253.89s-22.34,14.38-16,32.82c0,0,1.57,16.11,15.41,25.31" transform="translate(-234.15 -20.09)"/><path class="cls-3" d="M373,254.14s-14.58,11.6-12.45,26.31c-.51,2.66.32,13.62,8.5,21" transform="translate(-234.15 -20.09)"/><path class="cls-3" d="M377.36,254.4s-15,19.4-7.35,36.5" transform="translate(-234.15 -20.09)"/><path class="cls-4" d="M496.72,356.18a95.21,95.21,0,0,1-5.88-16.64,84,84,0,0,1-2.61-10.28c.51,3.09,1.41,7.89,2.69,13.1a95.19,95.19,0,0,0,3.28,9.58A41.89,41.89,0,0,0,496.72,356.18Z" transform="translate(-234.15 -20.09)"/><path class="cls-4" d="M619.4,361.19c-6.77-4.28-13.14-7.38-18.16-13.13a34.09,34.09,0,0,1-3.15,7.42c-7.27,15.73-24,21.8-40.53,25l-.67.21c16.67-2.25,33.46-8.05,41-24.49-7.56,16.44-24.35,22.24-41,24.49L556,381c15.68-1.14,31.45-6,40.16-20.64l-.06-.09.06.09c.09-.14.18-.27.26-.42-.08.15-.17.28-.26.42.58.87,1.39,3.1,2.94,3.85,19.26,13.32,39.61,18.27,58.87,31.6,7.64,6.68,14.5,15,23.69,18.44,21.64,12.5,46.39,18.6,65.69,35.9,1.75.85,3.53,1.82,5.32,2.86h11.13c-15.54-7.3-29.09-17.66-44.23-25.66-10.6-5.59-21.86-9.78-32.48-15.3-8.71-4.53-15.72-11.22-23.67-16.85-10.49-7.44-22.07-13.3-33.61-18.91-11-5.37-23.08-10.27-31.53-19.53,8.45,9.26,20.49,14.16,31.53,19.53,11.54,5.61,23.12,11.47,33.61,18.91,7.95,5.63,15,12.32,23.67,16.85,10.62,5.52,21.88,9.71,32.48,15.3,15.14,8,28.69,18.36,44.23,25.66h4v-5.41c-14.84-5.73-28.18-13.34-41.9-21.42-10.62-6.26-21.38-12.29-32.32-18-9.61-5-18.34-11.17-27.48-16.92a372.56,372.56,0,0,0-34.75-19c-11.17-5.49-22.09-10.75-31-19.66,9,8.91,19.88,14.17,31,19.66a372.56,372.56,0,0,1,34.75,19c9.14,5.75,17.87,11.94,27.48,16.92,10.94,5.68,21.7,11.71,32.32,18,13.72,8.08,27.06,15.69,41.9,21.42v-5.25a180.49,180.49,0,0,1-30.67-14C697.89,403.32,660.25,383,619.4,361.19Z" transform="translate(-234.15 -20.09)"/><path class="cls-4" d="M504.29,367.09c5.3,3.31,10.76,7.16,16.76,10.24a109.07,109.07,0,0,0,18.08,5.53,41.1,41.1,0,0,0,12.74-1l1.39-.32-1-.08-1.88.3c-20.26,3.2-34.84-7.83-46.17-14.95-4.36-2.76-7.74-8.08-10.29-13.9.56,1.64,1.16,3.23,1.79,4.73A27.11,27.11,0,0,0,504.29,367.09Z" transform="translate(-234.15 -20.09)"/><path class="cls-4" d="M556.3,380.8l-.92.23.65,0,.86-.27Z" transform="translate(-234.15 -20.09)"/><path class="cls-4" d="M504.29,367.09a27.11,27.11,0,0,1-8.53-9.45c.36.84.72,1.64,1.1,2.41a26.69,26.69,0,0,0,7.42,7.19c4.81,3,9.48,6.26,14.32,9.09.8.34,1.61.67,2.45,1C515.05,374.25,509.59,370.4,504.29,367.09Z" transform="translate(-234.15 -20.09)"/><path class="cls-4" d="M551.87,381.86a41.1,41.1,0,0,1-12.74,1c1.28.27,2.58.51,3.88.73a40.46,40.46,0,0,0,10.27-1.76l.8-.24-.82,0Z" transform="translate(-234.15 -20.09)"/><path class="cls-4" d="M521.05,377.33c-.84-.33-1.65-.66-2.45-1,7.38,4.31,15.16,7.59,24.41,7.26-1.3-.22-2.6-.46-3.88-.73A47.41,47.41,0,0,1,521.05,377.33Z" transform="translate(-234.15 -20.09)"/><path class="cls-4" d="M496.86,360.05c1.56,3.22,3.31,5.85,5.26,7.35a83.78,83.78,0,0,0,16.48,8.93c-4.84-2.83-9.51-6.1-14.32-9.09A26.69,26.69,0,0,1,496.86,360.05Z" transform="translate(-234.15 -20.09)"/><path class="cls-4" d="M490.92,342.36c.5,2,1.05,4.1,1.66,6.16.5,1.15,1,2.3,1.62,3.42A95.19,95.19,0,0,1,490.92,342.36Z" transform="translate(-234.15 -20.09)"/><path class="cls-4" d="M554.34,381.28h.76L556,381l-.65,0Z" transform="translate(-234.15 -20.09)"/><path class="cls-4" d="M553.26,381.54l.82,0,1-.32h-.76Z" transform="translate(-234.15 -20.09)"/><path class="cls-4" d="M504.26,366.81c11.33,7.12,25.91,18.15,46.17,14.95l1.88-.3-1.07-.1c-.76.08-1.53.14-2.28.2-20,1.59-35.13-9-44.75-15.13-4.18-2.66-7.48-8.3-10-14.49-.58-1.12-1.12-2.27-1.62-3.42.43,1.48.89,3,1.39,4.39C496.52,358.73,499.9,364.05,504.26,366.81Z" transform="translate(-234.15 -20.09)"/><path class="cls-4" d="M735.47,348.25c-30.85-11.91-59.24-29.47-90.86-39.6-10.59-3.39-22.6-6.74-33.83-4.86-.07,1.31-.17,2.58-.29,3.83,17.73-2.49,32.42,5.6,47.86,12.13,25.62,12.46,49.27,26.93,74.06,37a74.5,74.5,0,0,1,35.44,16V364.2a57.51,57.51,0,0,0-14.15-9.76C747.9,351.69,741.46,350.57,735.47,348.25Z" transform="translate(-234.15 -20.09)"/><path class="cls-4" d="M729.4,316.4c.51.15,1,.3,1.51.47-1.18-.65-2.39-1.28-3.6-1.89Z" transform="translate(-234.15 -20.09)"/><path class="cls-4" d="M721.38,314.44l1.86,1.15c7.43,4.52,15,8.51,21.74,14q2.26,1.85,4.42,3.8a149.19,149.19,0,0,0-14.68-13.19c-1.73-1.34-3.52-2.6-5.32-3.84-.93-.27-1.86-.52-2.8-.74Z" transform="translate(-234.15 -20.09)"/><path class="cls-4" d="M759.05,343c-3.07-3.34-6.28-6.55-9.65-9.58,2,2.06,4,4.17,6,6.3C756.62,340.77,757.85,341.87,759.05,343Z" transform="translate(-234.15 -20.09)"/><path class="cls-4" d="M759.05,343c-1.2-1.14-2.43-2.24-3.69-3.28.39.43.79.86,1.18,1.3q5.84,6.48,11.31,13.34v-1.05c-.68-.84-1.35-1.69-2-2.53Q762.56,346.81,759.05,343Z" transform="translate(-234.15 -20.09)"/><path class="cls-4" d="M724,309.58q-4.23-1.36-8.45-2.78l2.33,1.73c3.06,2.26,6.26,4.34,9.42,6.45,1.21.61,2.42,1.24,3.6,1.89a53.06,53.06,0,0,1,8.35,3.59q-5.37-4.86-11.14-9.36C726.77,310.55,725.4,310,724,309.58Z" transform="translate(-234.15 -20.09)"/><path class="cls-4" d="M739.26,320.46a67.45,67.45,0,0,1,14,10.17c-3.78-4.08-7.72-8.05-11.65-12a67.61,67.61,0,0,0-13.53-7.54Q733.9,315.58,739.26,320.46Z" transform="translate(-234.15 -20.09)"/><path class="cls-4" d="M741.65,318.64c-3.47-3.48-6.93-6.95-10.23-10.46-1.44-.78-2.9-1.82-4.75-2.72q-4-.52-8-1.22,4.86,3.3,9.44,6.86A67.61,67.61,0,0,1,741.65,318.64Z" transform="translate(-234.15 -20.09)"/><path class="cls-4" d="M715.56,306.8l-7.62-2.55,5.06,4.14c3.31,1.57,6.64,3.11,10,4.58,1.46.64,2.89,1.31,4.31,2-3.16-2.11-6.36-4.19-9.42-6.45Z" transform="translate(-234.15 -20.09)"/><path class="cls-4" d="M746.74,327.58q-3.65-3.65-7.48-7.12a53.06,53.06,0,0,0-8.35-3.59A104,104,0,0,1,746.74,327.58Z" transform="translate(-234.15 -20.09)"/><path class="cls-4" d="M714.28,289.18l-1.12-.95Q705,283.15,696.85,278l-1.1-.57q6,3.86,11.77,8a31.57,31.57,0,0,1,5.26,2.7Z" transform="translate(-234.15 -20.09)"/><path class="cls-4" d="M609,274.14c0,.84.06,1.65.06,2.45,4-6.72,9.49-12.57,16.74-15.69,26.21-11.26,52.3,11.67,74.72,21.72,2.38,1.07,4.73,1.87,7,2.82q-5.79-4.17-11.77-8C667.7,262.82,630.12,241.2,609,274.14Z" transform="translate(-234.15 -20.09)"/><path class="cls-4" d="M688.69,297.9q4,1.28,7.94,2.58l-3-1.47Z" transform="translate(-234.15 -20.09)"/><path class="cls-4" d="M730.61,302.9a143.41,143.41,0,0,0-16.33-13.72c4.55,3.84,8.85,7.57,13,11.29l4.78,3.79-4.78-3.79c4.21,3.8,8.25,7.61,12.19,11.53.42.26.84.52,1.25.79C737.39,309.43,734,306.12,730.61,302.9Z" transform="translate(-234.15 -20.09)"/><path class="cls-4" d="M498.6,358.71A72.43,72.43,0,0,1,493.74,347a64.44,64.44,0,0,1-2.9-7.45,95.21,95.21,0,0,0,5.88,16.64C497.31,357.06,497.94,357.9,498.6,358.71Z" transform="translate(-234.15 -20.09)"/><path class="cls-4" d="M695.75,277.4a182.38,182.38,0,0,0-27.26-14.7c-20.35-8.68-46.63-12.74-59.72,9.1.08.79.16,1.58.2,2.34C630.12,241.2,667.7,262.82,695.75,277.4Z" transform="translate(-234.15 -20.09)"/><path class="cls-4" d="M712.78,288.14a31.57,31.57,0,0,0-5.26-2.7c6.71,4.82,13.25,9.89,19.73,15-4.12-3.72-8.42-7.45-13-11.29Z" transform="translate(-234.15 -20.09)"/><path class="cls-4" d="M712.54,287.7c-3.21-1.55-5.63-4.71-8.83-6.27-2.2-1.07-4.49-2.23-6.86-3.46q8.13,5.17,16.31,10.26Z" transform="translate(-234.15 -20.09)"/><path class="cls-4" d="M658.35,319.75c-15.44-6.53-30.13-14.62-47.86-12.13a71.45,71.45,0,0,1-2.63,13.54q-.54,2.5-1.25,4.81c-.32,1.45-.67,2.84-1.08,4.19-.32,1.59-.71,3.11-1.15,4.57a44.77,44.77,0,0,1-1.13,4.63c-4.9,26.38-30.84,33.55-49.1,39.21a34.77,34.77,0,0,1-11.34,1.55c2,.4,4.1.73,6.17,1,.77.05,1.53.09,2.3.11l2.21-.08c.67-.08,1.35-.15,2-.24l1.62-.3.86-.22c15.84-4.95,32.24-11.26,40.08-24.88l0-.06c.45-1,.87-1.95,1.24-3-.37,1-.79,2-1.24,3a35.06,35.06,0,0,0,2.64-6.89,35.06,35.06,0,0,1-2.64,6.89v0a34.09,34.09,0,0,0,3.15-7.42l-.1-.1.1.1c.33-1.14.63-2.31.86-3.53-.23,1.22-.53,2.39-.86,3.53,5,5.75,11.39,8.85,18.16,13.13,40.85,21.84,78.49,42.13,117.78,67.17a180.49,180.49,0,0,0,30.67,14v-9.89c-6.83-2.84-13.63-5.71-20.37-9l-39.66-22.26-46.43-22.57c-20-11.72-39.24-21.06-58.86-34.29,19.62,13.23,38.83,22.57,58.86,34.29l46.43,22.57,39.66,22.26c6.74,3.27,13.54,6.14,20.37,9V422.7c-14.85-7.07-30-13-44.11-21.66C680.61,388,644.47,360.51,604,341c40.51,19.51,76.65,47,119.78,60,14.15,8.65,29.26,14.59,44.11,21.66v-8.94a371.88,371.88,0,0,0-39.34-17.5c-11.45-4.45-23.23-7.87-34.73-12.15-11.83-4.41-23.16-10.5-34.15-16.65-9.57-5.35-18.72-11.22-27.84-17.28-8.34-5.55-17.85-9.35-27.25-12.68,9.4,3.33,18.91,7.13,27.25,12.68,9.12,6.06,18.27,11.93,27.84,17.28,11,6.15,22.32,12.24,34.15,16.65,11.5,4.28,23.28,7.7,34.73,12.15a371.88,371.88,0,0,1,39.34,17.5v-9.39c-5.12-2.57-10.4-4.81-15.57-6.85-14.7-5.79-29.94-10-45.16-14.19a199.8,199.8,0,0,1-47.46-20.1c-9.7-5.61-18.4-12.35-27.67-18.54-7.87-5.27-17.36-8.14-26.51-10.26,9.15,2.12,18.64,5,26.51,10.26,9.27,6.19,18,12.93,27.67,18.54a199.8,199.8,0,0,0,47.46,20.1c15.22,4.19,30.46,8.4,45.16,14.19,5.17,2,10.45,4.28,15.57,6.85v-1.93C746,391,721.34,386.76,698.3,378.18c-17.48-6.51-33.86-16.62-49.34-26.89-6.81-4.52-13.23-10-20.53-13.69a84.21,84.21,0,0,0-22-7.29,84.21,84.21,0,0,1,22,7.29c7.3,3.71,13.72,9.17,20.53,13.69,15.48,10.27,31.86,20.38,49.34,26.89,23,8.58,47.65,12.79,69.55,24.26v-2.07c-18.61-9.64-39.1-13.11-58.88-20.43-19-7.05-36.08-17.91-52.84-29.15-15.25-10.23-29.27-21.55-48-24.35,18.71,2.8,32.73,14.12,48,24.35C672.89,362,690,372.89,709,379.94c19.78,7.32,40.27,10.79,58.88,20.43V398a117.2,117.2,0,0,0-11.46-5.53c-11.41-4.75-23.37-6.51-35.13-10-21.54-6.43-40-18.91-58.15-31.79-16.32-11.59-33.46-26.75-54.38-28.08,20.92,1.33,38.06,16.49,54.38,28.08,18.15,12.88,36.61,25.36,58.15,31.79,11.76,3.5,23.72,5.26,35.13,10A117.2,117.2,0,0,1,767.85,398V395.5a118.11,118.11,0,0,0-15.18-7.12c-20.77-6.14-39.9-7.52-58.74-19.66a254,254,0,0,1-22.87-16.06c-18.48-14.93-36.59-32.64-60.85-33.59,24.26.95,42.37,18.66,60.85,33.59a254,254,0,0,0,22.87,16.06c18.84,12.14,38,13.52,58.74,19.66a118.11,118.11,0,0,1,15.18,7.12V388c-11.17-6.76-23.51-10.84-36.84-13.6-35.17-7.27-61.58-36.35-93-51.85-8.47-4.18-17.84-7.73-27.44-7.34,9.6-.39,19,3.16,27.44,7.34,31.4,15.5,57.81,44.58,93,51.85,13.33,2.76,25.67,6.84,36.84,13.6v-8a80.55,80.55,0,0,0-10-6.05c-8.64-4.35-17.67-5.73-26.81-8.42-35-10.29-62.59-37.29-96.67-49.86-7.34-2.71-15.23-4.81-23.13-4.3,7.9-.51,15.79,1.59,23.13,4.3,34.08,12.57,61.7,39.57,96.67,49.86,9.14,2.69,18.17,4.07,26.81,8.42a80.55,80.55,0,0,1,10,6.05v-7.22a74.5,74.5,0,0,0-35.44-16C707.62,346.68,684,332.21,658.35,319.75Z" transform="translate(-234.15 -20.09)"/><path class="cls-4" d="M598.1,355.44l0,.06,0,0Z" transform="translate(-234.15 -20.09)"/><path class="cls-4" d="M605.91,328.1c-.12.69-.24,1.38-.38,2.06.41-1.35.76-2.74,1.08-4.19C606.38,326.7,606.15,327.4,605.91,328.1Z" transform="translate(-234.15 -20.09)"/><path class="cls-4" d="M607.08,323.58c-.28.8-.56,1.58-.86,2.34-.1.74-.2,1.47-.31,2.18.24-.7.47-1.4.7-2.13S606.94,324.39,607.08,323.58Z" transform="translate(-234.15 -20.09)"/><path class="cls-4" d="M604.75,332.55c-.11.74-.23,1.47-.37,2.18.44-1.46.83-3,1.15-4.57C605.29,331,605,331.77,604.75,332.55Z" transform="translate(-234.15 -20.09)"/><path class="cls-4" d="M607.86,321.16c-.25.82-.51,1.63-.78,2.42s-.3,1.61-.47,2.39Q607.32,323.66,607.86,321.16Z" transform="translate(-234.15 -20.09)"/><path class="cls-4" d="M598.09,355.48l0,0c-7.44,14.58-23.92,20.76-40.08,24.88l-.43.13C574.1,377.28,590.82,371.21,598.09,355.48Z" transform="translate(-234.15 -20.09)"/><path class="cls-4" d="M558,380.38l-.86.22.43-.09Z" transform="translate(-234.15 -20.09)"/><path class="cls-4" d="M598.07,355.5c-7.84,13.62-24.24,19.93-40.08,24.88C574.15,376.26,590.63,370.08,598.07,355.5Z" transform="translate(-234.15 -20.09)"/><path class="cls-4" d="M556.89,380.72l.67-.21-.43.09-.83.2Z" transform="translate(-234.15 -20.09)"/><path class="cls-4" d="M490,341.57a85.39,85.39,0,0,0,4,11.34c-.5-1.43-1-2.91-1.39-4.39A66.74,66.74,0,0,1,490,341.57Z" transform="translate(-234.15 -20.09)"/><path class="cls-4" d="M638.09,397.48a34.69,34.69,0,0,1,5,3.49c-1.49-1.29-3-2.56-4.58-3.76Z" transform="translate(-234.15 -20.09)"/><path class="cls-4" d="M644.1,401.85c.7.65,1.39,1.32,2,2,3.24,3.75,6.5,7.54,9.83,11.26l.25-.11-.25.11c14.66,16.38,30.79,31.53,53.66,36.73-7.36-3.83-15.23-6.71-22.47-10.23C669.66,432.25,659,415.18,644.1,401.85Z" transform="translate(-234.15 -20.09)"/><path class="cls-4" d="M557.13,380.6l-1.62.3.79-.1Z" transform="translate(-234.15 -20.09)"/><path class="cls-4" d="M640.34,392c-2.55-1.53-5.16-2.94-7.82-4.29Q636.48,389.8,640.34,392Z" transform="translate(-234.15 -20.09)"/><path class="cls-4" d="M487.73,335.07c.4,2.64,1,5.87,1.69,9.33a55.44,55.44,0,0,0,7.44,15.65c-.38-.77-.74-1.57-1.1-2.41C491.36,350.13,488.92,340.8,487.73,335.07Z" transform="translate(-234.15 -20.09)"/><path class="cls-4" d="M728.62,446c-12.44-9-25.61-12.46-39.2-17.08-3.2-1.56-5.22-3.53-8-3.89a38.25,38.25,0,0,1-8.82-6.28c-9.19-11.64-20.29-19.82-32.25-26.7a74.26,74.26,0,0,1,13.5,10.1c8.8,8.47,15.63,18.76,26.52,24.85,10.1,5.65,21.32,9,31.66,14.17A86.83,86.83,0,0,1,729.34,453h7.73C734.17,450.5,731.35,448.1,728.62,446Z" transform="translate(-234.15 -20.09)"/><path class="cls-4" d="M710.78,452.14l-1.14-.26c.7.36,1.4.74,2.09,1.12h1.62A7.5,7.5,0,0,0,710.78,452.14Z" transform="translate(-234.15 -20.09)"/><path class="cls-4" d="M724,309.58c1.39.45,2.76,1,4.11,1.52q-4.59-3.57-9.44-6.86c-2.91-.5-5.83-1.06-8.75-1.65q2.8,2.12,5.63,4.21Q719.78,308.21,724,309.58Z" transform="translate(-234.15 -20.09)"/><path class="cls-4" d="M553.49,381.14l-2.21.08,1.11,0Z" transform="translate(-234.15 -20.09)"/><path class="cls-4" d="M551.28,381.22c-.77,0-1.53-.06-2.3-.11l1.11.14Z" transform="translate(-234.15 -20.09)"/><path class="cls-4" d="M551.24,381.36l1.15-.11-1.11,0-1.19,0Z" transform="translate(-234.15 -20.09)"/><path class="cls-4" d="M500.18,360.48a55.35,55.35,0,0,1-4.41-9.59c-.74-1.27-1.42-2.58-2-3.9a72.43,72.43,0,0,0,4.86,11.72C499.11,359.33,499.64,359.91,500.18,360.48Z" transform="translate(-234.15 -20.09)"/><path class="cls-4" d="M536.21,379.36c-1.45-.3-2.88-.66-4.3-1.09A103.31,103.31,0,0,1,504,365.39c-1.95-1.29-3.76-3.68-5.4-6.68-.66-.81-1.29-1.65-1.88-2.53,2.09,4.33,4.56,7.94,7.4,9.77,7.93,5.13,23.68,15.27,43.33,15.32l2.64,0-1.11-.14c-1-.06-2-.13-3.06-.22A75.08,75.08,0,0,1,536.21,379.36Z" transform="translate(-234.15 -20.09)"/><path class="cls-4" d="M504.92,361c13.94,8.64,33.7,19.57,50.1,14.35,14.85-4.73,40.66-10.89,48.23-35.95.11-.55.21-1.09.3-1.66-.09.57-.19,1.11-.3,1.66a44.77,44.77,0,0,0,1.13-4.63c-8.23,27.41-35.84,33.14-48.49,37.32-14.15,4.66-37.09-5.83-50.65-14.24-6.83-4.23-11.05-12.8-13.55-20.27,1.11,4.31,2.49,9,4.08,13.35A28.43,28.43,0,0,0,504.92,361Z" transform="translate(-234.15 -20.09)"/><path class="cls-4" d="M545.92,380.89c1,.09,2,.16,3.06.22-2.07-.26-4.14-.59-6.17-1a39.24,39.24,0,0,1-6.6-.76A75.08,75.08,0,0,0,545.92,380.89Z" transform="translate(-234.15 -20.09)"/><path class="cls-4" d="M553.43,381.27l1.05-.18-1,.05-1.1.11Z" transform="translate(-234.15 -20.09)"/><path class="cls-4" d="M504.6,364.1c4.18,2.59,8.55,5.39,13.11,7.92a121.36,121.36,0,0,0,25.1,8.1,34.77,34.77,0,0,0,11.34-1.55c18.26-5.66,44.2-12.83,49.1-39.21-7.57,25.06-33.38,31.22-48.23,35.95-16.4,5.22-36.16-5.71-50.1-14.35a28.43,28.43,0,0,1-9.15-10.07,55.35,55.35,0,0,0,4.41,9.59A23.8,23.8,0,0,0,504.6,364.1Z" transform="translate(-234.15 -20.09)"/><path class="cls-4" d="M531.91,378.27c1.4.4,2.84.76,4.3,1.09a39.24,39.24,0,0,0,6.6.76,121.36,121.36,0,0,1-25.1-8.1A73.69,73.69,0,0,0,531.91,378.27Z" transform="translate(-234.15 -20.09)"/><path class="cls-4" d="M552.39,381.25l-1.15.11,1.07.1,1.12-.19Z" transform="translate(-234.15 -20.09)"/><path class="cls-4" d="M547.45,381.27c-19.65,0-35.4-10.19-43.33-15.32-2.84-1.83-5.31-5.44-7.4-9.77a41.89,41.89,0,0,1-2.52-4.24c2.53,6.19,5.83,11.83,10,14.49,9.62,6.13,24.79,16.72,44.75,15.13.75-.06,1.52-.12,2.28-.2l-1.15-.11Z" transform="translate(-234.15 -20.09)"/><path class="cls-4" d="M503.86,364.73A99.3,99.3,0,0,0,517.71,372c-4.56-2.53-8.93-5.33-13.11-7.92a23.8,23.8,0,0,1-4.42-3.62A13.81,13.81,0,0,0,503.86,364.73Z" transform="translate(-234.15 -20.09)"/><path class="cls-4" d="M504,365.39a103.31,103.31,0,0,0,27.91,12.88,73.69,73.69,0,0,1-14.2-6.25,99.3,99.3,0,0,1-13.85-7.29,13.81,13.81,0,0,1-3.68-4.25c-.54-.57-1.07-1.15-1.58-1.77C500.24,361.71,502.05,364.1,504,365.39Z" transform="translate(-234.15 -20.09)"/><path class="cls-4" d="M531.91,378.27c1.42.43,2.85.79,4.3,1.09C534.75,379,533.31,378.67,531.91,378.27Z" transform="translate(-234.15 -20.09)"/><path class="cls-4" d="M555.38,381l.92-.23-.79.1-1,.19Z" transform="translate(-234.15 -20.09)"/><path class="cls-4" d="M539.13,382.86a109.07,109.07,0,0,1-18.08-5.53A47.41,47.41,0,0,0,539.13,382.86Z" transform="translate(-234.15 -20.09)"/><path class="cls-4" d="M555.51,380.9c-.67.09-1.35.16-2,.24l1-.05Z" transform="translate(-234.15 -20.09)"/><path class="cls-4" d="M553.43,381.27h.91l1-.25-.9.06Z" transform="translate(-234.15 -20.09)"/><path class="cls-4" d="M552.31,381.46l1,.08,1.08-.26h-.91Z" transform="translate(-234.15 -20.09)"/><path class="cls-4" d="M390.71,223.07c.33.21.66.4,1,.59a22.54,22.54,0,0,0,9.12,1.06l-1.19-.45A25,25,0,0,1,390.71,223.07Z" transform="translate(-234.15 -20.09)"/><path class="cls-4" d="M509.28,145.64l.3,0,.22,0,.37-.09-.47,0Z" transform="translate(-234.15 -20.09)"/><path class="cls-4" d="M510.34,145.47l-.64.1.47,0,.6-.14Z" transform="translate(-234.15 -20.09)"/><path class="cls-4" d="M510.32,145.83c16.76,2.79,24.53,3.39,31.9,7.63.8.16,1.37.3,1.67.39-7.79-5.44-16.36-6.18-34.09-8.16l-.15.05Z" transform="translate(-234.15 -20.09)"/><path class="cls-4" d="M509.28,145.64l-.12,0,.49.07.15-.05-.22,0Z" transform="translate(-234.15 -20.09)"/><path class="cls-4" d="M510.17,145.6c11.78.6,20.1,1.41,26.42,3.66q-1.11-.85-2.28-1.59c-5.95-1.61-13.89-2.31-23.54-2.21Z" transform="translate(-234.15 -20.09)"/><path class="cls-4" d="M385.88,220.93l-.43-.21c.36.21.71.41,1.07.6C386.31,221.19,386.09,221.07,385.88,220.93Z" transform="translate(-234.15 -20.09)"/><path class="cls-4" d="M509.65,145.74a19.52,19.52,0,0,0-9.23,4.85c-9.84,10.06-38.69,29.35-41.85,43.32-3,13.38-9.4,31.16,4.38,42.51-6.79-10.39-1.55-24.8,1.48-36.26,3.56-13.5,28.62-31.53,38.28-41.34,9.49-9.58,32.72-6.7,39.51-5.36-7.37-4.24-15.14-4.84-31.9-7.63Z" transform="translate(-234.15 -20.09)"/><path class="cls-4" d="M476.83,114.92a63,63,0,0,0-12.62,0C470.28,114.61,475.39,115.13,476.83,114.92Z" transform="translate(-234.15 -20.09)"/><path class="cls-4" d="M366.05,159.36c-2.07,7.69-1.53,18.16,4.71,37.75,2.86,9,6.5,15.1,10.29,19.31-3.66-4.38-7.21-10.7-10.08-19.8C364.91,177.42,364.09,167.1,366.05,159.36Z" transform="translate(-234.15 -20.09)"/><path class="cls-4" d="M366.05,159.36c1.35-5.06,3.84-8.93,6.57-13.4C369.71,150.47,367.31,154.38,366.05,159.36Z" transform="translate(-234.15 -20.09)"/><path class="cls-4" d="M508,145.51h-.51l.46,0H508Z" transform="translate(-234.15 -20.09)"/><path class="cls-4" d="M508.64,145.58l.64.06.42-.07-.58,0Z" transform="translate(-234.15 -20.09)"/><path class="cls-4" d="M509.12,145.54l.77-.07-1.29,0-.46,0,.86,0Z" transform="translate(-234.15 -20.09)"/><path class="cls-4" d="M391.69,223.66c-.32-.19-.65-.38-1-.59a28.61,28.61,0,0,1-3.64-1.47l.51.31A24.67,24.67,0,0,0,391.69,223.66Z" transform="translate(-234.15 -20.09)"/><path class="cls-4" d="M509.7,145.57l.64-.1h-.45l-.77.07Z" transform="translate(-234.15 -20.09)"/><path class="cls-4" d="M508.64,145.58h0l.55.08.12,0Z" transform="translate(-234.15 -20.09)"/><path class="cls-4" d="M508.51,145.57l.1,0h-.1Z" transform="translate(-234.15 -20.09)"/><path class="cls-4" d="M507.9,145.53l.61,0-.46,0Z" transform="translate(-234.15 -20.09)"/><path class="cls-4" d="M458.57,193.91c3.16-14,32-33.26,41.85-43.32a19.52,19.52,0,0,1,9.23-4.85l-.49-.07-1,.18a21.87,21.87,0,0,0-8.33,3.61,268.42,268.42,0,0,0-22.93,18.11c-9.13,8.24-17.7,18.84-20.1,27.7-3.79,14-6.8,31.94,6.29,41.38l-.15-.23C449.17,225.07,455.54,207.29,458.57,193.91Z" transform="translate(-234.15 -20.09)"/><path class="cls-4" d="M509.12,145.54H509l-.86,0h-.09l.46,0h.13Z" transform="translate(-234.15 -20.09)"/><path class="cls-4" d="M508.14,145.51h0Z" transform="translate(-234.15 -20.09)"/><path class="cls-4" d="M385.21,220.58l-.6-.51a31.2,31.2,0,0,1-6.38-6.19,39.23,39.23,0,0,0,2.38,3.28A28.31,28.31,0,0,0,385.21,220.58Z" transform="translate(-234.15 -20.09)"/><path class="cls-4" d="M372.59,204.34a44.91,44.91,0,0,0,5.64,9.54,68.71,68.71,0,0,1-7.9-17.46c-4.31-13.76-6-22.93-5.95-29.9a65.37,65.37,0,0,0,2,17.86c.88,3.53,2,7.45,3.35,11.84C370.61,199.2,371.58,201.89,372.59,204.34Z" transform="translate(-234.15 -20.09)"/><path class="cls-4" d="M372.59,204.34c-1-2.45-2-5.14-2.9-8.12-1.37-4.39-2.47-8.31-3.35-11.84.89,3.94,2.11,8.36,3.73,13.38A61.71,61.71,0,0,0,372.59,204.34Z" transform="translate(-234.15 -20.09)"/><path class="cls-4" d="M385.45,220.72l.43.21c-.42-.27-.84-.55-1.27-.86l.6.51Z" transform="translate(-234.15 -20.09)"/><path class="cls-4" d="M681.65,439.77q-2.42,1-4.85,1.91Q679.23,440.75,681.65,439.77ZM671,432.13l-4.1,1.5Zm-7.4-8.54-6.22,2.72ZM647.4,406.21q-4.18,2.25-8.39,4.46Q643.21,408.47,647.4,406.21Zm-20.32-11.27q-3.68,2.76-7.41,5.43Q623.41,397.7,627.08,394.94Zm-11.44-2.27q-2,1.9-4.09,3.75Q613.62,394.58,615.64,392.67Zm-6.8-3c-1,.89-2.09,1.76-3.16,2.63C606.75,391.45,607.8,390.58,608.84,389.69Zm1.3-96.76c-.48,44-39.07,50.94-44,52.95-19.58,9.28-53.07-7.11-62.91-13.33s-12.94-25.42-12.94-25.42,3.09,19.21,12.94,25.42,43.33,22.61,62.91,13.33C571.07,343.87,609.66,336.9,610.14,292.93Zm-.36-5.42c.59,40.87-36.15,48.57-39.85,50.07-25.67,12.43-59.67-7.56-68.22-13s-11.53-22.43-11.53-22.43,3,16.95,11.53,22.43,42.55,25.47,68.22,13C573.63,336.08,610.37,328.38,609.78,287.51Zm-36.06,41.77c-31.77,15.56-66.27-8-73.53-12.77s-10.12-19.44-10.12-19.44,2.86,14.7,10.12,19.44,41.76,28.33,73.53,12.77c2.46-1,37.36-9.44,35.7-47.2C611.08,319.84,576.18,328.28,573.72,329.28Zm-75-20.85c6,4,41,31.2,78.83,12.49,1.23-.5,34.28-9.67,31.55-44.32,2.73,34.65-30.32,43.82-31.55,44.32-37.86,18.71-72.86-8.49-78.83-12.49S490,292,490,292,492.7,304.43,498.68,308.43ZM314,452.46c13.35-17.27,32.09-18.19,49.5-21.72C346.06,434.27,327.32,435.19,314,452.46Zm.71-7.58c14.13-18.86,32.18-17.73,50.05-23.28C346.86,427.15,328.81,426,314.68,444.88Zm.22-7.06c11.3-22.22,35.4-22.07,55.47-29.1C350.3,415.75,326.2,415.6,314.9,437.82Zm2.57-10.88C331,409.27,353.37,404.4,374,398.4,353.37,404.4,331,409.27,317.47,426.94Zm1.44-11.61c16.37-15.85,38.25-23.84,60.11-28.69C357.16,391.49,335.28,399.48,318.91,415.33Zm47.68-201.26c7.71,20.16,25,18.69,25,18.69s-17.29,1.47-25-18.69c-5-13.2-5.81-21.55-5.32-27.13C360.78,192.52,361.54,200.87,366.59,214.07ZM450,229.43s-10.34-5.43-8.89-28.3c1-15.41,5.78-31.55,11.13-40.35,6.11-10.07,19.8-21.4,35-23.87.81-.13,1.63-.36,2.48-.44,18-1.75,31.11.7,37.9,6.64-6.79-5.94-19.9-8.39-37.9-6.64-.85.08-1.67.31-2.48.44-15.19,2.47-28.88,13.8-35,23.87-5.35,8.8-10.15,24.94-11.13,40.35C439.66,224,450,229.43,450,229.43Zm29.53-96.89a22.15,22.15,0,0,1-2.29.86c-13.12,1.88-26,15.36-32.06,26.95-4.94,9.39-9.14,24.91-8.15,40.25,1.73,27.06,9,27.3,9,27.3s-7.26-.24-9-27.3c-1-15.34,3.21-30.86,8.15-40.25,6.1-11.59,18.94-25.07,32.06-26.95a22.15,22.15,0,0,0,2.29-.86c16.09-4.26,32.51-.71,37.6,3.74C512,131.83,495.62,128.28,479.53,132.54Zm6.58,234.75a399.89,399.89,0,0,1-43.79,13.93A399.89,399.89,0,0,0,486.11,367.29Zm-2.43-27.55a80,80,0,0,0,.11,15.95l.07,0-.07,0c.9,8.33,3.37,18.19,9.63,25.08,12.9,14.19,62,35.4,91.54-2.34-29.57,37.74-78.64,16.53-91.54,2.34-6.26-6.89-8.73-16.75-9.63-25.08a134.87,134.87,0,0,1-25.23,12.62,134.87,134.87,0,0,0,25.23-12.62A80,80,0,0,1,483.68,339.74Zm11.48,38.35c12.2,12.81,61.94,35.12,91.21-1.56-29.27,36.68-79,14.37-91.21,1.56s-10.67-40.93-10.67-41.15C484.49,337.16,483,365.29,495.16,378.09Zm-9.87-43.94c0,.44.11,29.85,11.61,41.27s61.91,34.83,90.89-.79c-29,35.62-79.4,12.21-90.89.79S485.3,334.59,485.29,334.15Zm2.8,44c-19.54,3.66-55.94,18-79.67,20C432.15,396.18,468.55,381.82,488.09,378.16Zm14.08,11.56C463,400.77,423,408.39,383.23,417,423,408.39,463,400.77,502.17,389.72Zm30.89,9.76c-24.82,6.68-50,12.79-75.48,16.4s-51.14,6-76.36,11.17c25.22-5.2,50.89-7.55,76.36-11.17S508.24,406.16,533.06,399.48ZM380.18,251.79s-19-6.85-17.92-19.26C361.15,244.94,380.18,251.79,380.18,251.79ZM367.62,237.3c-4.73-7.14-6.3-12.58-5.59-17.66-.71,5.08.86,10.52,5.59,17.66a23.61,23.61,0,0,0,14.67,9.76l.44.07-.44-.07A23.61,23.61,0,0,1,367.62,237.3Zm-.5-7.69c-5.64-11.15-6-17.74-5.11-22.79a32.45,32.45,0,0,1-.45-9.4,32.45,32.45,0,0,0,.45,9.4l0-.16,0,.16a70,70,0,0,0,4.79,15c5.45,12.69,15.58,15.16,19.79,15.63-4.21-.47-14.34-2.94-19.79-15.63a70,70,0,0,1-4.79-15c-.92,5.05-.53,11.64,5.11,22.79a23,23,0,0,0,16.71,12.59A23,23,0,0,1,367.12,229.61Zm18.54,174q4.95-1.58,9.94-3.07Q390.62,402.07,385.66,403.64Zm-14.19-74.29c-17.34,5.19-34.89,13.72-42.69,31.08C336.58,343.07,354.13,334.54,371.47,329.35Zm.49,10.13c-16.52,5.24-35.5,13.5-44.21,29.51C336.46,353,355.44,344.72,372,339.48Zm2.76,9.24c-16.73,5.15-37,12.6-47,28C337.75,361.32,358,353.87,374.72,348.72Zm2,7.78c-18.55,5-43,13-52.19,31.56C333.81,369.48,358.22,361.48,376.77,356.5Zm2.8,7.93c-20.53,4.46-50.25,12.69-58.18,34.95C329.32,377.12,359,368.89,379.57,364.43Zm3.66,11c-22.78,5.12-48.29,12.4-63.12,31.84C334.94,387.8,360.45,380.52,383.23,375.4Zm12.41,55.15c63.55-12.65,129.26-11.38,186.9-39.44-57.64,28.06-123.35,26.79-186.9,39.44-4.76,1.65-11.53,1.32-15.92,3.86C384.11,431.87,390.88,432.2,395.64,430.55Zm38.2-1.22c53.26-7.75,108.67-1.6,153.43-32.89-44.76,31.29-100.17,25.14-153.43,32.89-17.48,3.38-34.95,6.76-52.24,11.32C398.89,436.09,416.36,432.71,433.84,429.33Zm160-28.17c-27.92,21.13-63.24,30.68-98.24,33.46C457.81,437,421.21,439,384.8,447c36.41-8,73-10,110.81-12.36C530.61,431.84,565.93,422.29,593.85,401.16Zm-95.24-28.34c10.79,10,61.89,34.55,90.57,0-28.68,34.55-79.78,10-90.57,0s-12.53-40.73-12.54-41.39C486.08,332.09,487.82,362.79,498.61,372.82Zm80.7-68a74.38,74.38,0,0,1-40.9,7.08c-21.52-2.45-37-13.92-41-16-5.25-2.71-8.12-11.54-8.12-11.54s2.87,8.83,8.12,11.54c3.94,2,19.45,13.51,41,16a74.38,74.38,0,0,0,40.9-7.08c2.88-1,31.21-10.65,28-38.8C610.52,294.13,582.19,303.82,579.31,304.78Zm85.52-47.2c-17.25-11.36-44.7-9.86-56.39,9.93,11.69-19.79,39.14-21.29,56.39-9.93,15.64,10.57,30,17.58,45.92,25C694.88,275.16,680.47,268.15,664.83,257.58ZM662,249.25c-2.79-.37-4.8-2.33-8-3.89-17.56-4.58-36.6,2-45.6,18.17,9-16.17,28-22.75,45.6-18.17,3.21,1.56,5.22,3.52,8,3.89,16.83,10.16,29.32,23.16,46.74,31.19C691.27,272.41,678.78,259.41,662,249.25Zm4.82-1.41c-7.71-6.49-18.16-11.36-28.44-10.79s-19.45,9.22-25.86,16.86a39.08,39.08,0,0,0-5,7.42,39.08,39.08,0,0,1,5-7.42c6.41-7.64,15.44-16.28,25.86-16.86s20.73,4.3,28.44,10.79c13,10.91,25.91,21.38,40,30.86C692.68,269.22,679.73,258.75,666.77,247.84Zm-20.55-17.13c-2.79-.36-6.77-.32-9.15.5-15.1,2.56-22.52,15.78-30.45,28.13,7.93-12.35,15.35-25.57,30.45-28.13,2.38-.82,6.36-.86,9.15-.5,24.38,8.89,39,31.82,58.64,46.35C685.19,262.53,670.6,239.6,646.22,230.71Zm-18.76-4.17c14.23-8.91,30.29,2.85,40.35,12.69,10.88,12.22,21.77,24.44,35.17,36.24-13.4-11.8-24.29-24-35.17-36.24-10.06-9.84-26.12-21.6-40.35-12.69-10.66,7.69-14.51,19.67-21.23,29.9C613,246.21,616.8,234.23,627.46,226.54Zm-50.15,70.38a80.55,80.55,0,0,1-39.46,7.16c-20.23-1.51-35.25-10.8-40.14-12.72-5.76-2.25-8.93-9.63-8.93-9.63s3.17,7.38,8.93,9.63c4.89,1.92,19.91,11.21,40.14,12.72a80.55,80.55,0,0,0,39.46-7.16c5.76-1.93,31.23-11.41,28.68-36.17C608.54,285.51,583.07,295,577.31,296.92Zm-2-7.86a89.44,89.44,0,0,1-38,7.23c-18.93-.6-33.45-7.72-39.32-9.46-6.22-1.86-9.73-7.72-9.73-7.72s3.51,5.86,9.73,7.72c5.87,1.74,20.39,8.86,39.32,9.46a89.44,89.44,0,0,0,38-7.23c8.65-2.9,31.24-12.17,29.32-33.53C606.55,276.89,584,286.16,575.31,289.06Zm-2-7.87a103.41,103.41,0,0,1-36.58,7.32c-17.63.27-31.64-4.69-38.49-6.22a21.4,21.4,0,0,1-10.53-5.81,21.4,21.4,0,0,0,10.53,5.81c6.85,1.53,20.86,6.49,38.49,6.22a103.41,103.41,0,0,0,36.58-7.32c11.53-3.86,31.25-12.92,30-30.89C604.56,268.27,584.84,277.33,573.31,281.19Zm-2-7.86a127.71,127.71,0,0,1-35.14,7.4c-16.33,1.09-29.83-1.71-37.66-3a31.84,31.84,0,0,1-11.34-3.89,31.84,31.84,0,0,0,11.34,3.89c7.83,1.27,21.33,4.07,37.66,3a127.71,127.71,0,0,0,35.14-7.4c14.42-4.83,31.26-13.67,30.59-28.26C602.57,259.66,585.73,268.5,571.31,273.33Zm-35.69-.39c-28.1,3.5-49-1.71-49-1.71s20.89,5.21,49,1.71,65-14.91,64.92-33.09C600.61,258,563.71,269.45,535.62,272.94Zm44.52-22.37C567.08,257,548,260.27,531.3,263a266.49,266.49,0,0,1-46.49,3.79A266.49,266.49,0,0,0,531.3,263c16.7-2.76,35.78-6.07,48.84-12.46,10-4.89,17.05-11.33,17.54-17.07C597.19,239.24,590.14,245.68,580.14,250.57Zm-4.26-8.68c-12.82,5.7-31.78,7.56-48.93,11.12-24.91,5.16-44,9.29-44,9.29S502,258.17,527,253c17.15-3.56,36.11-5.42,48.93-11.12,10.34-4.59,17.89-11,18.9-14.85C593.77,230.88,586.22,237.3,575.88,241.89Zm16.18-20.79c-1.53,1.92-9.58,8.36-20.26,12.63-12.58,5-31.44,5.37-49,9.77a231.18,231.18,0,0,0-41.5,14.79,231.18,231.18,0,0,1,41.5-14.79c17.59-4.4,36.45-4.74,49-9.77C582.48,229.46,590.53,223,592.06,221.1Zm-23.7,6.32c-12.32,4.39-31.11,3.11-49.12,8.42-21.78,6.42-39,20.29-39,20.29s17.23-13.87,39-20.29c18-5.31,36.8-4,49.12-8.42,11-3.93,19.57-10.4,21.62-10.41C587.93,217,579.4,223.49,568.36,227.42Zm-77.24,4.18c1.73-1.91,3.57-3.83,5.52-5.67,1.05-1.13,2.13-2.24,3.23-3.31q.75-.84,1.5-1.65l.68-.86.25-.36c4.19-7.61,8.87-15,14.85-20.78,16.28-15.84,58-8.07,58-8.07s-41.75-7.77-58,8.07c-6,5.82-10.66,13.17-14.85,20.78,1.38-2.05,2.81-4.05,4.29-6A70.71,70.71,0,0,1,518.87,201c8.08-6.23,20.41-7.79,31.33-8.54,13.74-1,25.91-.12,26.43.52-.52-.64-12.69-1.48-26.43-.52-10.92.75-23.25,2.31-31.33,8.54a70.71,70.71,0,0,0-12.28,12.83c-1.48,1.91-2.91,3.91-4.29,6l-.11.19c1.66-2.05,3.38-4,5.15-5.84A67.34,67.34,0,0,1,520.63,203c8.91-5.32,21.11-6.12,31.46-7.19,13.35-1.37,25-2,26-.77-1-1.28-12.66-.6-26,.77-10.35,1.07-22.55,1.87-31.46,7.19a67.34,67.34,0,0,0-13.29,11.06c-1.77,1.82-3.49,3.79-5.15,5.84l-.2.37a66.39,66.39,0,0,1,6.16-5.77,64.75,64.75,0,0,1,14.29-9.28c9.77-4.39,21.8-4.48,31.59-5.84,13-1.8,24.05-4,25.6-2.08-1.55-1.9-12.64.28-25.6,2.08-9.79,1.36-21.82,1.45-31.59,5.84a64.75,64.75,0,0,0-14.29,9.28,66.39,66.39,0,0,0-6.16,5.77l-.35.64a56.75,56.75,0,0,1,7.38-5.78,63.31,63.31,0,0,1,15.29-7.5c10.67-3.39,22.5-2.84,31.73-4.49,12.57-2.24,23.12-5.91,25.18-3.37-2.06-2.54-12.61,1.13-25.18,3.37-9.23,1.65-21.06,1.1-31.73,4.49a63.31,63.31,0,0,0-15.29,7.5,56.75,56.75,0,0,0-7.38,5.78l-.6,1.11a51.47,51.47,0,0,1,8.95-5.94,63,63,0,0,1,16.3-5.73c11.57-2.32,23.2-1.2,31.87-3.13,12.17-2.7,22.18-7.85,24.76-4.67-2.58-3.18-12.59,2-24.76,4.67-8.67,1.93-20.3.81-31.87,3.13a63,63,0,0,0-16.3,5.73,51.47,51.47,0,0,0-8.95,5.94l-.9,1.69a48.8,48.8,0,0,1,11-6.27c18.76-7.37,37.52-2.54,49.3-5.72s21.25-9.79,24.35-6c-3.1-3.81-12.58,2.8-24.35,6s-30.54-1.65-49.3,5.72a48.8,48.8,0,0,0-11,6.27c-3.21,6.08-6.22,12.19-9.43,17.71,6.48-5.32,15.09-11.19,24.59-14.44,18.41-6.3,37.16-3.3,49.21-7.07,11.4-3.57,20.41-10.1,23-8.2-2.58-1.9-11.59,4.63-23,8.2-12,3.77-30.8.77-49.21,7.07-9.5,3.25-18.11,9.12-24.59,14.44a62.19,62.19,0,0,1-10.1,13.65,62.19,62.19,0,0,0,10.1-13.65c-1.4,1.15-2.69,2.27-3.88,3.34a52.86,52.86,0,0,1-6.95,8.81,52.86,52.86,0,0,0,6.95-8.81,98.19,98.19,0,0,0-8.05,8,98.19,98.19,0,0,1,8.05-8c3.95-6,8-13.3,12.45-20.41l-1.2.94c-7.75,10.7-14.05,22.2-18.91,26.89,4.86-4.69,11.16-16.19,18.91-26.89-.55.44-1.1.89-1.64,1.35C488.3,236.75,482,247.6,478.51,251c3.48-3.35,9.79-14.2,17.93-24.27-.79.67-1.57,1.36-2.33,2-6.85,7.9-12.16,16.08-14.94,19.67-.58,1.42-1.11,2.76-1.55,4,.44-1.21,1-2.55,1.55-4a14.78,14.78,0,0,1-1.25,1.48,14.78,14.78,0,0,0,1.25-1.48c.52-1.24,1.07-2.55,1.67-3.91-1.81,2.5-3,4.23-3.41,4.63.42-.4,1.6-2.13,3.41-4.63.33-.77.68-1.55,1-2.35-3,3.9-4.78,6.64-4.78,6.64s1.75-2.74,4.78-6.64c2.44-5.49,5.34-11.67,8.09-17.71,5.29-11.61,15.09-24.62,24-33.39,15.21-14.88,54.44-7.57,54.7-7.44-.26-.13-39.49-7.44-54.7,7.44-8.93,8.77-18.73,21.78-24,33.39-2.75,6-5.65,12.22-8.09,17.71A115.25,115.25,0,0,1,491.12,231.6Zm19.7-48.5c-9.12,9-22.76,23.29-27.59,35.38-4.41,11-9.84,23.35-8.61,31.15-1.23-7.8,4.2-20.13,8.61-31.15,4.83-12.09,18.47-26.35,27.59-35.38,14.13-13.91,50.83-7.06,51.36-6.8C561.65,176,525,169.19,510.82,183.1Zm-3.06-8c-9.29,9.29-26.75,24.8-31.15,37.37-4.12,11.75-9.88,25.7-4.88,34.36-5-8.66.76-22.61,4.88-34.36,4.4-12.57,21.86-28.08,31.15-37.37,13.06-12.95,47.24-6.56,48-6.17C555,168.57,520.82,162.18,507.76,175.13ZM505.12,167c-9.47,9.54-30.74,26.31-34.72,39.35-3.81,12.49-9.91,28-1.14,37.57-8.77-9.52-2.67-25.08,1.14-37.57,4-13,25.25-29.81,34.72-39.35,12-12,43.64-6.06,44.71-5.54C548.76,161,517.11,155,505.12,167Zm31.47-17.76a25.49,25.49,0,0,1,8.21,4.61,25.49,25.49,0,0,0-8.21-4.61c.54.41,1.08.85,1.6,1.31-.52-.46-1.06-.9-1.6-1.31-6.32-2.25-14.64-3.06-26.42-3.66l-.37.09c17.73,2,26.3,2.72,34.09,8.16l.19.07-.19-.07a32.51,32.51,0,0,1,2.83,2.21,32.51,32.51,0,0,0-2.83-2.21c-.3-.09-.87-.23-1.67-.39a41.68,41.68,0,0,1,6.59,4.82,41.68,41.68,0,0,0-6.59-4.82c-6.79-1.34-30-4.22-39.51,5.36-9.66,9.81-34.72,27.84-38.28,41.34-3,11.46-8.27,25.87-1.48,36.26.62.51,1.25,1,1.95,1.48-.7-.48-1.33-1-1.95-1.48l.15.23c.14.11.28.22.43.32-.15-.1-.29-.21-.43-.32a20.34,20.34,0,0,0,3.92,4.29,20.34,20.34,0,0,1-3.92-4.29c-13.09-9.44-10.08-27.42-6.29-41.38,2.4-8.86,11-19.46,20.1-27.7a268.42,268.42,0,0,1,22.93-18.11,21.87,21.87,0,0,1,8.33-3.61l1-.18-.55-.08-.26,0a25.79,25.79,0,0,0-9,2.81c-8,4.07-17.59,11.3-24.73,18-8.56,8.1-16.37,20.14-19.49,30.26-4.41,14.28-3.76,31.94,7.11,39.43-10.87-7.49-11.52-25.15-7.11-39.43,3.12-10.12,10.93-22.16,19.49-30.26,7.14-6.73,16.75-14,24.73-18a25.79,25.79,0,0,1,9-2.81l.26,0-.1,0-.61,0a30.16,30.16,0,0,0-9,2c-9.86,3.64-19.89,11.38-26.51,17.94-8,8-15,21.46-18.89,32.84-4.94,14.45-.65,31.52,7.51,37.13-8.16-5.61-12.45-22.68-7.51-37.13,3.88-11.38,10.89-24.89,18.89-32.84,6.62-6.56,16.65-14.3,26.51-17.94a30.16,30.16,0,0,1,9-2l-.46,0a35.41,35.41,0,0,0-8.87,1.27c-11.77,3.09-22.2,11.46-28.31,17.85-7.42,7.8-13.61,22.78-18.28,35.4-5.42,14.65,2.47,31.11,7.91,34.86-5.44-3.75-13.33-20.21-7.91-34.86,4.67-12.62,10.86-27.6,18.28-35.4,6.11-6.39,16.54-14.76,28.31-17.85a35.41,35.41,0,0,1,8.87-1.27,39.78,39.78,0,0,0-9,.61c-13.67,2.44-24.51,11.55-30.1,17.77-6.85,7.65-12.18,24.12-17.67,38-5.89,14.85,5.58,30.7,8.3,32.57-2.72-1.87-14.19-17.72-8.3-32.57,5.49-13.85,10.82-30.32,17.67-38,5.59-6.22,16.43-15.33,30.1-17.77a39.78,39.78,0,0,1,9-.61H508c-20.45-2.3-35.31,10.44-41.36,17.66-6.29,7.5-10.73,25.46-17.07,40.53s8.7,30.29,8.7,30.29-15-15.22-8.7-30.29,10.78-33,17.07-40.53c6.05-7.22,20.91-20,41.36-17.66h.19l.46,0,1.29,0,.94-.08.77-.11a61,61,0,0,1,16.37-.63c-6.76-2.35-15.33-3.06-28-3.62-.91,0-1.81,0-2.68,0-17.75.31-31.84,12.2-37.92,20.8-5.79,8.17-10.74,25-14.1,40.43-4.09,18.77,8.8,29.3,8.8,29.3s-12.89-10.53-8.8-29.3c3.36-15.4,8.31-32.26,14.1-40.43,6.08-8.6,20.17-20.49,37.92-20.8.87,0,1.77-.07,2.68,0,12.64.56,21.21,1.27,28,3.62a52.18,52.18,0,0,1,10.49,1.67A52.18,52.18,0,0,0,528,144.65c.66.23,1.31.47,1.94.74,5,.67,8.79,1.75,10,2.64-1.23-.89-5-2-10-2.64.74.31,1.47.64,2.17,1,4.33.85,7.64,2.07,9.37,3.44-1.73-1.37-5-2.59-9.37-3.44.76.39,1.51.81,2.23,1.27a23,23,0,0,1,8.75,4.11,23,23,0,0,0-8.75-4.11Q535.48,148.41,536.59,149.26Zm2.17-61.6a88.23,88.23,0,0,1,3.7-13.15A88.23,88.23,0,0,0,538.76,87.66Zm-5.23,11.1c-1.48-12.2,3.61-25.17,8.61-36.06C537.14,73.59,532.05,86.56,533.53,98.76Zm-3.27,3.63c-5.52-14.16,3-32.89,9.41-45.5C533.28,69.5,524.74,88.23,530.26,102.39Zm-.84.88c-7.44-14.19,2.47-35.4,9.2-48.24C531.89,67.87,522,89.08,529.42,103.27Zm-.33-30.15c-3,9.16-6.28,21.84-.53,30.62-5.75-8.78-2.43-21.46.53-30.62A118.79,118.79,0,0,1,537.17,54,118.79,118.79,0,0,0,529.09,73.12Zm-1.87.06c-2.92,9.3-6.3,22.92.82,31.23-7.12-8.31-3.74-21.93-.82-31.23a118.56,118.56,0,0,1,8.35-20A118.56,118.56,0,0,0,527.22,73.18Zm5.56-20.35c-6.55,15.48-18.14,35.34-7,51.66l.23,0-.23,0c.08.11.15.23.24.35-.09-.12-.16-.24-.24-.35l-2.22.3.2.19-.2-.19-.73.1.73-.1c-8.21-7.62-5.08-21.74-2.29-31.08A116.71,116.71,0,0,1,530,52.46a116.71,116.71,0,0,0-8.74,21.25c-2.79,9.34-5.92,23.46,2.29,31.08l2.22-.3C514.64,88.17,526.23,68.31,532.78,52.83Zm-2.93-2.33c-11,8.79-22.94,39.24-8.62,54.36C506.91,89.74,518.9,59.29,529.85,50.5Zm-60.56,78.3c-.75.35-1.4.86-2.1,1.26-9.94,5.81-23.09,16.91-29.13,30a70.26,70.26,0,0,0-5.18,40.16c5.46,31.15,9.09,26.31,9.09,26.31s-3.63,4.84-9.09-26.31a70.26,70.26,0,0,1,5.18-40.16c6-13.12,19.19-24.22,29.13-30,.7-.4,1.35-.91,2.1-1.26,14.2-6.63,33.9-2.14,37.29.83C503.19,126.66,483.49,122.17,469.29,128.8ZM459,125.14a21.41,21.41,0,0,0-1.9,1.67c-7.58,7-20.27,18.44-26.19,33.11A62.4,62.4,0,0,0,428.64,200c9.67,35,9.19,25.31,9.19,25.31s.48,9.69-9.19-25.31a62.4,62.4,0,0,1,2.22-40.07c5.92-14.67,18.61-26.07,26.19-33.11a21.41,21.41,0,0,1,1.9-1.67c12.42-8.88,35.31-3.56,37-2.07C494.26,121.58,471.37,116.26,459,125.14Zm17.88-10.22.25,0-.25,0a72,72,0,0,1,8.61,1.33,72,72,0,0,0-8.61-1.33c-1.44.21-6.55-.31-12.62,0-6.79.73-13.49,3-17.17,8.44-9.4,13.91-36.74,37.56-22.51,76.16s9.29,24.31,9.29,24.31,4.94,14.28-9.29-24.31,13.11-62.25,22.51-76.16c3.68-5.45,10.38-7.71,17.17-8.44-8.5.36-18.89,2.24-23.78,9.81-7.24,11.21-20.93,27.49-23.45,48.51q-1.47,12.33,4.51,27.12c13.69,33.9,11.14,23.6,11.14,23.6s2.55,10.3-11.14-23.6q-6-14.77-4.51-27.12c2.52-21,16.21-37.3,23.45-48.51,4.89-7.57,15.28-9.45,23.78-9.81A63,63,0,0,1,476.83,114.92Zm-61.29,86.8c10.73,21.73,14.08,22.37,14.72,22.22-1.46-1.58-4.68-6.94-11.77-22.87-4.17-9.39-6.35-18.25-5.39-26.42,2.3-19.33,13.18-36.45,20.76-48.68,7.88-12.74,30.19-11,34.88-12.57-4.69,1.56-27-.17-34.88,12.57-7.58,12.23-18.46,29.35-20.76,48.68-1,8.17,1.22,17,5.39,26.42,7.09,15.93,10.31,21.29,11.77,22.87a.21.21,0,0,0,.12-.06.21.21,0,0,1-.12.06c1.22,1.32,1.22,0,1.22,0s0,1.31-1.22,0c-.64.15-4-.49-14.72-22.22-4.4-8.93-7.21-17.6-6.26-25.71,2.08-17.65,10.17-35.59,18.05-48.86,7.19-12.12,26.09-13,33.13-15.33-7,2.35-25.94,3.21-33.13,15.33-7.88,13.27-16,31.21-18.05,48.86C408.33,184.12,411.14,192.79,415.54,201.72ZM421,128.48c-8.16,14.34-13.49,33.08-15.35,49-.93,8,2.45,16.56,7.14,25C423.89,222.61,429.43,224,429.43,224s-5.54-1.36-16.69-21.45c-4.69-8.44-8.07-17-7.14-25,1.86-16,7.19-34.7,15.35-49,6.52-11.47,22-15,31.37-18.09C442.93,113.52,427.47,117,421,128.48Zm-6.12,1.87c-8.39,15.43-11,34.94-12.65,49.22-.91,8,3,16.38,8,24.29,10,15.65,18.54,20.74,18.54,20.74s-8.56-5.09-18.54-20.74c-5-7.91-8.92-16.3-8-24.29,1.64-14.28,4.26-33.79,12.65-49.22,5.88-10.82,17.88-16.93,29.61-20.85C432.71,113.42,420.71,119.53,414.83,130.35Zm-16,51.35c-2.29,20.33,29.28,43.6,29.28,43.6S396.56,202,398.85,181.7s.79-60.65,37.81-73C399.64,121.05,401.15,161.37,398.85,181.7ZM402.66,143c-4.23,14.31-5,29.59-5.54,40.66-1,19.5,29.68,41.32,29.68,41.32s-30.68-21.82-29.68-41.32c.57-11.07,1.31-26.35,5.54-40.66,4.16-14.1,13.94-28.55,31.87-34.13C416.6,114.48,406.82,128.93,402.66,143Zm-2.14,1.19a164.23,164.23,0,0,0-5.08,41.45c.13,18.63,30.07,39,30.07,39s-29.94-20.41-30.07-39a164.23,164.23,0,0,1,5.08-41.45c3.75-14.18,14.41-30.1,31.94-35.13C414.93,114.12,404.27,130,400.52,144.22Zm-2.09,1.18c-3.38,14.38-5.41,29.48-4.61,42.24,1.1,17.75,30.46,36.76,30.46,36.76s-29.36-19-30.46-36.76c-.8-12.76,1.23-27.86,4.61-42.24s14.89-31.65,32-36.12C413.32,113.75,401.76,131.14,398.43,145.4Zm-2.05,1.16c-2.95,14.42-5.75,29.43-4.15,43,2,16.88,30.86,34.47,30.86,34.47s-28.88-17.59-30.86-34.47c-1.6-13.61,1.2-28.62,4.15-43s15.36-33.19,32.07-37.11C411.74,113.37,399.3,132.23,396.38,146.56Zm14.84-30a29.3,29.3,0,0,1,13.38-6.8,29.3,29.3,0,0,0-13.38,6.8,28.07,28.07,0,0,1,4.16-1.89,30,30,0,0,1,11.13-5.06,30,30,0,0,0-11.13,5.06c.41-.15.82-.28,1.23-.41-.41.13-.82.26-1.23.41-10.95,7.75-19.11,22.1-21,33.05-2.53,14.45-6.18,29.4-3.69,43.83,2.77,16,31.25,32.19,31.25,32.19s-28.48-16.16-31.25-32.19c-2.49-14.43,1.16-29.38,3.69-43.83,1.9-10.95,10.06-25.3,21-33a28.07,28.07,0,0,0-4.16,1.89c-9.86,8.28-17.36,22.1-18.84,32.3-2.09,14.49-6.7,29.41-3.22,44.63s31.65,29.9,31.65,29.9-28.16-14.68-31.65-29.9,1.13-30.14,3.22-44.63c1.48-10.2,9-24,18.84-32.3a36.5,36.5,0,0,0-5.55,3.84,30.25,30.25,0,0,1,3-1.53,30.25,30.25,0,0,0-3,1.53c-9.56,7.91-16.8,21-18.1,31.55-1.62,13.21-5.35,27.12-1.68,41.9,4.72,19,31.59,30.15,31.59,30.15s-26.87-11.15-31.59-30.15c-3.67-14.78.06-28.69,1.68-41.9,1.3-10.52,8.54-23.64,18.1-31.55-11.91,6.81-21.58,21.75-22.87,34.74-1.19,11.93-3.93,24.83-.15,39.17,6,22.77,31.52,30.4,31.52,30.4s-25.52-7.63-31.52-30.4c-3.78-14.34-1-27.24.15-39.17,1.29-13,11-27.93,22.87-34.74A36.5,36.5,0,0,1,411.22,116.56ZM378,158.35c-.78,10.63-2.45,22.51,1.4,36.44A42.3,42.3,0,0,0,410,225.23a42.3,42.3,0,0,1-30.53-30.44c-3.85-13.93-2.18-25.81-1.4-36.44,1-13.88,10.77-27.51,22.7-34.86C388.79,130.84,379,144.47,378,158.35ZM365.63,155c-2,5-6.16,16.21,3.05,44.11,2.57,7.81,6.18,13.18,10.05,16.85-.55-.78-1.09-1.62-1.63-2.51a47,47,0,0,1-7.73-15c-4.54-13.94-5.9-23.5-5.69-30.46-.47-13.29,5.23-18.73,13.18-30.6-7.95,11.87-13.65,17.31-13.18,30.6A34.38,34.38,0,0,1,368,151.85,34.38,34.38,0,0,0,363.68,168a80.39,80.39,0,0,0,2.66,16.42,65.37,65.37,0,0,1-2-17.86c.14-11.28,5-16.76,11.42-26.51-6.39,9.75-11.28,15.23-11.42,26.51.45-8.07,3.21-12.82,6.05-17.78-2.84,5-5.6,9.71-6.05,17.78-.08,7,1.64,16.14,5.95,29.9a68.71,68.71,0,0,0,7.9,17.46,31.2,31.2,0,0,0,6.38,6.19,31.8,31.8,0,0,1-3.56-3.65c-3.79-4.21-7.43-10.35-10.29-19.31-6.24-19.59-6.78-30.06-4.71-37.75,1.26-5,3.66-8.89,6.57-13.4l.21-.34-.21.34c.68-1.06,1.39-2.14,2.12-3.29-.73,1.15-1.44,2.23-2.12,3.29-2.73,4.47-5.22,8.34-6.57,13.4-2,7.74-1.14,18.06,4.92,37.26,2.87,9.1,6.42,15.42,10.08,19.8a29.54,29.54,0,0,0,5.47,4.82,28.12,28.12,0,0,0,3.35,1.28c-5.95-4.09-12.49-11.91-16.94-26.75a100.09,100.09,0,0,1-4.47-31c.1-13.49,7.08-21.65,16.36-32-9.28,10.37-16.26,18.53-16.36,32a100.09,100.09,0,0,0,4.47,31c4.45,14.84,11,22.66,16.94,26.75a27.47,27.47,0,0,0,8.6,1.27c-7.32-3.22-17.19-10.77-22.29-28.48-3.9-13.51-3.34-24.37-2.94-33.71.59-13.69,8.93-24.58,19.53-33.44-10.6,8.86-18.94,19.75-19.53,33.44-.4,9.34-1,20.2,2.94,33.71,5.1,17.71,15,25.26,22.29,28.48a16.9,16.9,0,0,0,1.79-.11,16.9,16.9,0,0,1-1.79.11l1.15.48a12.41,12.41,0,0,0,1.29-.12,12.41,12.41,0,0,1-1.29.12l1.19.45c.47-.05.74-.1.74-.1s-.27,0-.74.1c.42.15.83.28,1.22.4l.16,0-.16,0a27,27,0,0,0,4.55,1,27,27,0,0,1-4.55-1,19.9,19.9,0,0,1-9.09-.78,26,26,0,0,0,3.45,1.46,16.35,16.35,0,0,0,5.95-.07,16.35,16.35,0,0,1-5.95.07,23.25,23.25,0,0,0,4.5,1,6.84,6.84,0,0,0,.76-.16,6.84,6.84,0,0,1-.76.16,15.14,15.14,0,0,0,3.37.07,15.14,15.14,0,0,1-3.37-.07c-2.52.42-11,1-19.27-8.47a28.52,28.52,0,0,1-2.89-2.42C389.39,231.32,401,227.59,401,227.59s-11.56,3.73-22.22-11.66c-3.87-3.67-7.48-9-10.05-16.85C359.47,171.18,363.66,160,365.63,155Zm-2.76,12.47c-1.71,5-4.79,15.08,3.56,38.82,8.45,24,28.29,21.64,28.29,21.64s-19.84,2.39-28.29-21.64C358.08,182.52,361.16,172.47,362.87,167.44Zm-25.73,97.75s-33.57,12.05-20.92,39.65c8.41,18.34,22.49,36.17,40.11,27.42-17.62,8.75-31.7-9.08-40.11-27.42C303.57,277.24,337.14,265.19,337.14,265.19Zm-16.93,5s-20.88,19.2-11.79,37.81,11.55,36,40.39,28.22c-28.84,7.75-31.29-9.61-40.39-28.22S320.21,270.16,320.21,270.16Z" transform="translate(-234.15 -20.09)"/><path class="cls-4" d="M386.52,221.24a29.54,29.54,0,0,1-5.47-4.82,31.8,31.8,0,0,0,3.56,3.65c.43.31.85.59,1.27.86Z" transform="translate(-234.15 -20.09)"/><path class="cls-4" d="M380.61,217.16a32.6,32.6,0,0,1-3.51-3.74c.54.89,1.08,1.73,1.63,2.51a28.52,28.52,0,0,0,2.89,2.42C381.28,218,381,217.57,380.61,217.16Z" transform="translate(-234.15 -20.09)"/><path class="cls-4" d="M370.07,197.76c-1.62-5-2.84-9.44-3.73-13.38A80.39,80.39,0,0,1,363.68,168c-.21,7,1.15,16.52,5.69,30.46a47,47,0,0,0,7.73,15,65.61,65.61,0,0,1-4.51-9.08A61.71,61.71,0,0,1,370.07,197.76Z" transform="translate(-234.15 -20.09)"/><path class="cls-4" d="M387.07,221.6l-.55-.28c.35.21.71.4,1.06.59Z" transform="translate(-234.15 -20.09)"/><path class="cls-4" d="M715.56,306.8q-2.82-2.1-5.63-4.21l-5.46-1.14c1.17.93,2.32,1.87,3.47,2.8Z" transform="translate(-234.15 -20.09)"/><path class="cls-4" d="M385.21,220.58a28.31,28.31,0,0,1-4.6-3.42c.34.41.67.81,1,1.19a28.09,28.09,0,0,0,3.64,2.27Z" transform="translate(-234.15 -20.09)"/><path class="cls-4" d="M381.62,218.35c8.3,9.42,16.75,8.89,19.27,8.47a39.83,39.83,0,0,1-15.63-6.2A28.09,28.09,0,0,1,381.62,218.35Z" transform="translate(-234.15 -20.09)"/><path class="cls-4" d="M386.52,221.32l.55.28-.55-.36-.64-.31C386.09,221.07,386.31,221.19,386.52,221.32Z" transform="translate(-234.15 -20.09)"/><path class="cls-4" d="M385.45,220.72l-.24-.14.05,0Z" transform="translate(-234.15 -20.09)"/><path class="cls-4" d="M386.52,221.32c-.36-.19-.71-.39-1.07-.6l-.19-.1a23,23,0,0,0,11.13,5.18,26,26,0,0,1-3.45-1.46,23.33,23.33,0,0,1-5.36-2.43C387.23,221.72,386.87,221.53,386.52,221.32Z" transform="translate(-234.15 -20.09)"/><path class="cls-4" d="M399.62,224.27l-1.15-.48a27.47,27.47,0,0,1-8.6-1.27c.28.2.56.37.84.55A25,25,0,0,0,399.62,224.27Z" transform="translate(-234.15 -20.09)"/><path class="cls-4" d="M390.71,223.07c-.28-.18-.56-.35-.84-.55a28.12,28.12,0,0,1-3.35-1.28l.55.36A28.61,28.61,0,0,0,390.71,223.07Z" transform="translate(-234.15 -20.09)"/><path class="cls-4" d="M387.58,221.91a23.33,23.33,0,0,0,5.36,2.43c-.41-.21-.83-.43-1.25-.68A24.67,24.67,0,0,1,387.58,221.91Z" transform="translate(-234.15 -20.09)"/><path class="cls-4" d="M391.69,223.66c.42.25.84.47,1.25.68a19.9,19.9,0,0,0,9.09.78c-.39-.12-.8-.25-1.22-.4A22.54,22.54,0,0,1,391.69,223.66Z" transform="translate(-234.15 -20.09)"/><path class="cls-4" d="M380.61,217.16a39.23,39.23,0,0,1-2.38-3.28,44.91,44.91,0,0,1-5.64-9.54,65.61,65.61,0,0,0,4.51,9.08A32.6,32.6,0,0,0,380.61,217.16Z" transform="translate(-234.15 -20.09)"/><path class="cls-4" d="M741.65,318.64c3.93,3.94,7.87,7.91,11.65,12a100.28,100.28,0,0,1,14.55,17.22v-1C760.71,336.05,751.93,326,741.65,318.64Z" transform="translate(-234.15 -20.09)"/><path class="cls-4" d="M746.74,327.58a256.47,256.47,0,0,1,21.11,24.06v-1.83A125.7,125.7,0,0,0,746.74,327.58Z" transform="translate(-234.15 -20.09)"/><path class="cls-4" d="M753.3,330.63c3,3.26,5.92,6.58,8.63,10-2.71-3.46-5.62-6.78-8.63-10a67.45,67.45,0,0,0-14-10.17q3.84,3.48,7.48,7.12a125.7,125.7,0,0,1,21.11,22.23v-2A100.28,100.28,0,0,0,753.3,330.63Z" transform="translate(-234.15 -20.09)"/><path class="cls-4" d="M755.36,339.73a65.38,65.38,0,0,0-12-7.88,185.5,185.5,0,0,1,22.82,22.89c.56.66,1.11,1.33,1.67,2v-2.37q-5.46-6.86-11.31-13.34C756.15,340.59,755.75,340.16,755.36,339.73Z" transform="translate(-234.15 -20.09)"/><path class="cls-4" d="M730.91,316.87c-.5-.17-1-.32-1.51-.47,1.8,1.24,3.59,2.5,5.32,3.84a149.19,149.19,0,0,1,14.68,13.19c3.37,3,6.58,6.24,9.65,9.58a86.7,86.7,0,0,1,8.8,9.7v-1.07a256.47,256.47,0,0,0-21.11-24.06A104,104,0,0,0,730.91,316.87Z" transform="translate(-234.15 -20.09)"/><path class="cls-4" d="M759.05,343q3.5,3.8,6.76,7.78c.69.84,1.36,1.69,2,2.53v-.61A86.7,86.7,0,0,0,759.05,343Z" transform="translate(-234.15 -20.09)"/><path class="cls-4" d="M486.83,244.8c1.19-1.07,2.48-2.19,3.88-3.34,3.21-5.52,6.22-11.63,9.43-17.71-.29.21-.58.42-.86.64C494.81,231.5,490.78,238.83,486.83,244.8Z" transform="translate(-234.15 -20.09)"/><path class="cls-4" d="M498.4,224.31c-.67.78-1.32,1.57-2,2.37.54-.46,1.09-.91,1.64-1.35.51-.7,1-1.4,1.54-2.09Z" transform="translate(-234.15 -20.09)"/><path class="cls-4" d="M502.3,219.75l-.25.36c.05-.05.09-.11.14-.17Z" transform="translate(-234.15 -20.09)"/><path class="cls-4" d="M740.69,312.79q6.54,6.65,12.75,13.61-6.2-7-12.75-13.61c-.41-.27-.83-.53-1.25-.79,1.1,1.09,2.2,2.19,3.28,3.3-1.08-1.11-2.18-2.21-3.28-3.3a52.17,52.17,0,0,0-4.77-2.65,9.14,9.14,0,0,1-3.25-1.17c3.3,3.51,6.76,7,10.23,10.46,10.28,7.34,19.06,17.41,26.2,28.17V345.4C760.86,332.85,752.74,320.71,740.69,312.79Z" transform="translate(-234.15 -20.09)"/><path class="cls-4" d="M707.94,304.25c-1.15-.93-2.3-1.87-3.47-2.8l-5.61-1.24c1.15.71,2.3,1.43,3.44,2.16Z" transform="translate(-234.15 -20.09)"/><path class="cls-4" d="M698.86,300.21l-5.28-1.2,3,1.47,5.67,1.89C701.16,301.64,700,300.92,698.86,300.21Z" transform="translate(-234.15 -20.09)"/><path class="cls-4" d="M707.94,304.25l-5.64-1.88q2.87,1.81,5.72,3.64,2.47,1.2,5,2.38Z" transform="translate(-234.15 -20.09)"/><path class="cls-4" d="M696.63,300.48,708,306q-2.85-1.83-5.72-3.64Z" transform="translate(-234.15 -20.09)"/><path class="cls-4" d="M501.27,221.29l-.55.51-1.1,1.44.84-.71Z" transform="translate(-234.15 -20.09)"/><path class="cls-4" d="M743.36,331.85a66.6,66.6,0,0,0-14.8-5.37c-33.3-7.9-64.63-24.76-99.12-27.63-6.32-.53-12.93-.52-19.06,1.34,0,.64-.08,1.28-.13,1.91,8.62-2.06,17.92-.69,26.47,1.12,33.14,7,62.81,24.21,95,34.18,7.15,2.21,14.16,3.56,20.68,7.5a69.82,69.82,0,0,1,15.49,13v-1.2c-.56-.67-1.11-1.34-1.67-2A185.5,185.5,0,0,0,743.36,331.85Z" transform="translate(-234.15 -20.09)"/><path class="cls-4" d="M749.4,333.43q-2.16-1.95-4.42-3.8c-6.77-5.53-14.31-9.52-21.74-14l-1.86-1.15-1.36-.32c1.61,1.31,3.22,2.59,4.81,3.84,6.06,4.75,12.54,8.94,18.47,13.85l.06,0a65.38,65.38,0,0,1,12,7.88C753.41,337.6,751.43,335.49,749.4,333.43Z" transform="translate(-234.15 -20.09)"/><path class="cls-4" d="M708,306q4.62,3,9.26,5.89L713,308.39Q710.5,307.21,708,306Z" transform="translate(-234.15 -20.09)"/><path class="cls-4" d="M717.28,311.9l2.74,2.22,1.36.32C720,313.6,718.64,312.76,717.28,311.9Z" transform="translate(-234.15 -20.09)"/><path class="cls-4" d="M726.6,315.66c.94.22,1.87.47,2.8.74L727.31,315c-1.42-.7-2.85-1.37-4.31-2-3.36-1.47-6.69-3-10-4.58l4.28,3.51c1.36.86,2.73,1.7,4.1,2.54Z" transform="translate(-234.15 -20.09)"/><path class="cls-4" d="M501.27,221.29l.48-.73-.38.41-.65.83Z" transform="translate(-234.15 -20.09)"/><path class="cls-4" d="M496.64,225.93c-1.95,1.84-3.79,3.76-5.52,5.67,1-1,2-1.92,3-2.87C494.93,227.79,495.77,226.85,496.64,225.93Z" transform="translate(-234.15 -20.09)"/><path class="cls-4" d="M479.17,248.4c2.78-3.59,8.09-11.77,14.94-19.67-1,1-2,1.91-3,2.87a154.24,154.24,0,0,0-10.28,12.89C480.24,245.85,479.69,247.16,479.17,248.4Z" transform="translate(-234.15 -20.09)"/><path class="cls-4" d="M496.44,226.68c.64-.8,1.29-1.59,2-2.37-.6.53-1.19,1.07-1.76,1.62-.87.92-1.71,1.86-2.53,2.8C494.87,228,495.65,227.35,496.44,226.68Z" transform="translate(-234.15 -20.09)"/><path class="cls-4" d="M491.12,231.6a115.25,115.25,0,0,0-9.25,10.54c-.35.8-.7,1.58-1,2.35A154.24,154.24,0,0,1,491.12,231.6Z" transform="translate(-234.15 -20.09)"/><path class="cls-4" d="M499.87,222.62c-1.1,1.07-2.18,2.18-3.23,3.31.57-.55,1.16-1.09,1.76-1.62S499.38,223.18,499.87,222.62Z" transform="translate(-234.15 -20.09)"/><path class="cls-4" d="M499.62,223.24l1.1-1.44-.85.82c-.49.56-1,1.12-1.47,1.69Z" transform="translate(-234.15 -20.09)"/><path class="cls-4" d="M511.6,145.28l-.77.11.44,0Z" transform="translate(-234.15 -20.09)"/><path class="cls-4" d="M511.27,145.35l-.5.11c9.65-.1,17.59.6,23.54,2.21-.72-.46-1.47-.88-2.23-1.27A80.59,80.59,0,0,0,511.27,145.35Z" transform="translate(-234.15 -20.09)"/><path class="cls-4" d="M510.77,145.46l.5-.11-.44,0-.49.08Z" transform="translate(-234.15 -20.09)"/><path class="cls-4" d="M529.91,145.39c-.63-.27-1.28-.51-1.94-.74a61,61,0,0,0-16.37.63A71,71,0,0,1,529.91,145.39Z" transform="translate(-234.15 -20.09)"/><path class="cls-4" d="M532.08,146.4c-.7-.37-1.43-.7-2.17-1a71,71,0,0,0-18.31-.11l-.33.07A80.59,80.59,0,0,1,532.08,146.4Z" transform="translate(-234.15 -20.09)"/><path class="cls-4" d="M510.83,145.39l-.94.08h.45Z" transform="translate(-234.15 -20.09)"/><path class="cls-4" d="M499.62,223.24c-.52.69-1,1.39-1.54,2.09l1.2-.94c.39-.62.78-1.24,1.18-1.86Z" transform="translate(-234.15 -20.09)"/><path class="cls-4" d="M502.05,220.11l-.68.86.38-.41Z" transform="translate(-234.15 -20.09)"/><path class="cls-4" d="M501.37,221q-.75.81-1.5,1.65l.85-.82Z" transform="translate(-234.15 -20.09)"/><path class="cls-4" d="M501.27,221.29l.37-.34.35-.64-.24.25Z" transform="translate(-234.15 -20.09)"/><path class="cls-4" d="M502,220.31l.2-.37c-.05.06-.09.12-.14.17l-.3.45Z" transform="translate(-234.15 -20.09)"/><path class="cls-4" d="M500.46,222.53l.58-.47.6-1.11-.37.34Z" transform="translate(-234.15 -20.09)"/><path class="cls-4" d="M499.28,224.39c.28-.22.57-.43.86-.64l.9-1.69-.58.47C500.06,223.15,499.67,223.77,499.28,224.39Z" transform="translate(-234.15 -20.09)"/><path class="cls-4" d="M713.36,453h0l.08,0Z" transform="translate(-234.15 -20.09)"/></g></svg>