<svg xmlns="http://www.w3.org/2000/svg" xmlns:xlink="http://www.w3.org/1999/xlink" width="51.046" height="51.304" viewBox="0 0 51.046 51.304"><defs><style>.a{fill:none;}.b{clip-path:url(#a);}.c{clip-path:url(#b);}.d{fill:url(#c);}.e{clip-path:url(#d);}.f{fill:url(#e);}.g{clip-path:url(#f);}.h{fill:url(#g);}.i{clip-path:url(#h);}.j{fill:url(#i);}.k{clip-path:url(#j);}.l{fill:url(#k);}.m{clip-path:url(#l);}.n{fill:url(#m);}</style><clipPath id="a"><rect class="a" width="51.046" height="51.304"/></clipPath><clipPath id="b"><path class="a" d="M125.964,303.3a5.809,5.809,0,0,0-4.017,1.8l-4.954,5.026-9.363,9.384-4.919,4.936a6.443,6.443,0,0,0-1.881,4.474v.2a6.448,6.448,0,0,0,1.881,4.474l1.073,1.076,5.413,5.337h0a12.3,12.3,0,0,1-.308-9.9l2.12,1.282.553-.264a3.039,3.039,0,0,1,.071-4.333l6.434-6.478.241-.237,13.349-13.483-1.073-1.077a6.712,6.712,0,0,0-4.62-2.217h0" transform="translate(-100.83 -303.298)"/></clipPath><linearGradient id="c" x1="-7.87" y1="-15.794" x2="-7.862" y2="-15.794" gradientUnits="objectBoundingBox"><stop offset="0" stop-color="#745fa5"/><stop offset="0.029" stop-color="#745fa5"/><stop offset="0.291" stop-color="#745fa5"/><stop offset="0.556" stop-color="#532f88"/><stop offset="0.984" stop-color="#22184d"/><stop offset="1" stop-color="#22184d"/></linearGradient><clipPath id="d"><path class="a" d="M103.81,319.2l-1.074,1.074a6.5,6.5,0,0,0,0,9.15l5.224,5.236.006-.006,12.465,12.5,1.425,1.441a6.43,6.43,0,0,0,1.8,1.236h0c.073.034.149.067.223.1l.085.035c.047.02.1.038.147.057s.114.039.173.06l.059.018a6.45,6.45,0,0,0,6.592-1.559l1.074-1.076.082-.08.1-.113,5.241-5.257c-3.321,2.5-7.849,1.242-9.959.366l1.289-2.142-.264-.553a3.02,3.02,0,0,1-4.319-.071l-1.379-1.381-.068-.067-13.354-13.395c-1.426-1.432-3.4-5.716-.193-10.929Z" transform="translate(-100.855 -313.838)"/></clipPath><linearGradient id="e" x1="-6.646" y1="-16.066" x2="-6.639" y2="-16.066" gradientUnits="objectBoundingBox"><stop offset="0" stop-color="#22184d"/><stop offset="1" stop-color="#22184d"/></linearGradient><clipPath id="f"><path class="a" d="M140.053,323.406l-.416-1.074-2.788-.247a3.028,3.028,0,0,1,.258,4.209L135.8,327.6l-.109.109-11.822,11.855-1.542,1.508c-1.538,1.546-6.978,3.265-11.24.053l5.536,5.543.082.084-.017.015.929.934.057.057.078.078.008.007.007.008c.066.063.13.127.2.188.045.04.088.077.131.114l.085.073a6.431,6.431,0,0,0,4.1,1.5h.095a6.423,6.423,0,0,0,4.511-1.887l1.662-1.663,3.251-3.264.063-.061,9.469-9.5h0l2.679-2.482,1.723-1.6a6.74,6.74,0,0,0,.011-9.448l-1.073-1.076-.02.018-3.063-3.17c.823,3,1,5.2-1.536,7.8" transform="translate(-111.086 -315.607)"/></clipPath><linearGradient id="g" x1="-6.906" y1="-17.477" x2="-6.9" y2="-17.477" gradientUnits="objectBoundingBox"><stop offset="0" stop-color="#22184d"/><stop offset="0.122" stop-color="#22184d"/><stop offset="1" stop-color="#532f88"/></linearGradient><clipPath id="h"><path class="a" d="M123.952,311.021c-.031.021-.06.046-.088.068-.046.035-.092.073-.138.109-.068.06-.137.12-.2.183l-.006.006-.01.007-.082.074-.059.056-.966.893-.1.1-.133.13-3.752,3.943c3.631-1.836,5.63-1.227,7.989.547l-.812.318-.239,2.808a3.005,3.005,0,0,1,4.273-.172l6.571,6.591c1.109,1.118,3.547,6.051.767,10.491l5.053-4.679.126-.134.1-.1.893-.97.054-.057c.027-.027.052-.057.075-.084l.007-.007.007-.007c.061-.068.121-.137.18-.207l.11-.134c.024-.031.046-.061.07-.089a6.568,6.568,0,0,0-.8-8.667L141.3,320.5l-7.228-7.246-1.44-1.489a6.462,6.462,0,0,0-8.679-.741" transform="translate(-118.414 -309.686)"/></clipPath><linearGradient id="i" x1="-9.751" y1="-21.395" x2="-9.743" y2="-21.395" xlink:href="#e"/><clipPath id="j"><path class="a" d="M125.113,311.745l-1.535,1.455-1.291,1.408-.381.412-4.386,4.4-.6.581-1.464,1.468a6.464,6.464,0,0,0-.611,8.712c.021.029.045.06.067.087.038.046.074.092.113.135.059.067.121.137.184.2l.006.008.006.007c.027.028.05.054.078.082l.054.059.9.956.106.1.127.131,1.556,1.534a6.892,6.892,0,0,1,1.679-5.283l.328.843,2.489-1.1a2.161,2.161,0,0,1,.166-2.988l6.491-6.6c2.395-2.187,5.092-3.749,8.947-2.911l-2.681-2.777-.119-.12-.131-.124-.936-.946-.056-.057c-.029-.026-.059-.049-.084-.073l-.011-.01-.006-.006c-.067-.06-.134-.123-.207-.18l-.134-.11c-.029-.022-.059-.049-.089-.071a6.516,6.516,0,0,0-3.85-1.3,6.666,6.666,0,0,0-4.733,2.076" transform="translate(-113.443 -309.669)"/></clipPath><linearGradient id="k" x1="-10.576" y1="-24.694" x2="-10.567" y2="-24.694" gradientUnits="objectBoundingBox"><stop offset="0" stop-color="#532f88"/><stop offset="0.878" stop-color="#22184d"/><stop offset="1" stop-color="#22184d"/></linearGradient><clipPath id="l"><path class="a" d="M116.441,318.357,115.4,319.4l-.11.11-.064.064c-.024.028-.1.1-.121.131l-.007.008-.008.007c-.06.068-.116.13-.174.2-.039.045-.078.1-.114.147-.024.028-.049.064-.071.1a6.539,6.539,0,0,0-1.291,3.885,6.472,6.472,0,0,0,1,3.458c.022.038.053.08.082.126a8.907,8.907,0,0,0,.922,1.122l2.428,2.459c.148.151.3.3.459.428a5.463,5.463,0,0,0,7.749-.433l.765-.768.095-.092-4.594-4.746-.1-.1-.177-.172-1.132-1.21-.047-.056c-1.462-1.624-3.016-4.711-1.034-9.08Z" transform="translate(-113.435 -314.987)"/></clipPath><linearGradient id="m" x1="-8.363" y1="-19.259" x2="-8.356" y2="-19.259" gradientUnits="objectBoundingBox"><stop offset="0" stop-color="#22184d"/><stop offset="0.016" stop-color="#22184d"/><stop offset="0.356" stop-color="#532f88"/><stop offset="0.669" stop-color="#745fa5"/><stop offset="0.971" stop-color="#745fa5"/><stop offset="1" stop-color="#745fa5"/></linearGradient></defs><g transform="translate(-100.83 -303.298)"><g transform="translate(100.83 303.298)"><g class="b"><g transform="translate(0 0)"><g class="c"><rect class="d" width="30.828" height="36.708" transform="translate(0 0)"/></g></g><g transform="translate(0.035 14.708)"><g class="e"><rect class="f" width="36.578" height="36.997" transform="translate(0.001 0.001)"/></g></g><g transform="translate(14.312 17.176)"><g class="g"><rect class="h" width="37.228" height="34.127" transform="translate(0 0)"/></g></g><g transform="translate(24.537 8.914)"><g class="i"><rect class="j" width="27.244" height="27.487" transform="translate(0 -0.001)"/></g></g><g transform="translate(17.601 8.89)"><g class="k"><rect class="l" width="24.706" height="23.815" transform="translate(0 0)"/></g></g><g transform="translate(17.589 16.311)"><g class="m"><path class="n" d="M107.651,321.321,119.1,341.2l18.2-10.535-11.446-19.88Z" transform="translate(-115.722 -316.648)"/></g></g></g></g></g></svg>