<svg xmlns="http://www.w3.org/2000/svg" xmlns:xlink="http://www.w3.org/1999/xlink" width="51.178" height="51.303" viewBox="0 0 51.178 51.303"><defs><style>.a{fill:url(#a);}.b{fill:url(#b);}.c{fill:url(#c);}.d{fill:url(#d);}.e{fill:url(#e);}.f{fill:url(#f);}</style><linearGradient id="a" x1="-5.243" y1="-0.771" x2="-4.054" y2="-0.771" gradientUnits="objectBoundingBox"><stop offset="0.03" stop-color="#009cdc"/><stop offset="0.29" stop-color="#4a6a9a"/><stop offset="0.56" stop-color="#0f388e"/><stop offset="0.98" stop-color="#0b2a5f"/></linearGradient><linearGradient id="b" x1="-4.015" y1="-1.096" x2="-3.018" y2="-1.096" gradientUnits="objectBoundingBox"><stop offset="0" stop-color="#0b2a5f"/><stop offset="1" stop-color="#0e1c4f"/></linearGradient><linearGradient id="c" x1="-4.327" y1="-0.827" x2="-3.399" y2="-0.827" gradientUnits="objectBoundingBox"><stop offset="0.12" stop-color="#0b2a5f"/><stop offset="1" stop-color="#0f388e"/></linearGradient><linearGradient id="d" x1="-6.686" y1="-0.539" x2="-5.651" y2="-0.539" gradientUnits="objectBoundingBox"><stop offset="0" stop-color="#0e1c4f"/><stop offset="1" stop-color="#0b2a5f"/></linearGradient><linearGradient id="e" x1="-7.295" y1="-0.947" x2="-5.437" y2="-0.947" gradientUnits="objectBoundingBox"><stop offset="0" stop-color="#0f388e"/><stop offset="0.88" stop-color="#0b2a5f"/></linearGradient><linearGradient id="f" x1="-11.875" y1="-2.253" x2="-10.734" y2="-1.76" gradientUnits="objectBoundingBox"><stop offset="0.02" stop-color="#0b2a5f"/><stop offset="0.36" stop-color="#0f388e"/><stop offset="0.67" stop-color="#4a6a9a"/><stop offset="0.97" stop-color="#009cdc"/></linearGradient></defs><g transform="translate(25.589 25.652)"><g transform="translate(-25.589 -25.651)"><path class="a" d="M8.439,36.747,3.021,31.4,1.946,30.324a6.492,6.492,0,0,1,0-9.144l4.915-4.938,9.4-9.373L21.218,1.84c3.132-2.949,6.355-1.875,8.664.411l1.074,1.074L17.56,16.813l-.229.229-6.447,6.492a3.056,3.056,0,0,0-.069,4.343l-.549.274-2.126-1.28A12.153,12.153,0,0,0,8.439,36.747Z" transform="translate(-0.063 -0.044)"/><path class="b" d="M23.718,100.557h-.046l-.183-.069-.137-.046-.091-.046-.229-.091h0a6.4,6.4,0,0,1-1.806-1.234l-1.44-1.463L7.281,85.126h0L2.046,79.891a6.492,6.492,0,0,1,0-9.144l1.074-1.074,5.4-5.372c-3.223,5.212-1.234,9.487.183,10.927l13.4,13.4.069.069,1.372,1.372a3.025,3.025,0,0,0,4.321.069l.274.549L26.85,92.83c2.126.869,6.652,2.149,9.99-.366l-5.258,5.258-.091.114L31.4,97.9l-1.074,1.074A6.492,6.492,0,0,1,23.718,100.557Z" transform="translate(-0.14 -49.611)"/><path class="c" d="M69.91,107.8l-.091-.069-.137-.114-.206-.183h0l-.069-.069-.046-.069-.937-.937h.023l-.091-.091L62.8,100.712c4.275,3.223,9.739,1.486,11.27-.046l1.555-1.509L87.489,87.293h0l.114-.114,1.3-1.3a3.042,3.042,0,0,0-.251-4.206l2.789.251L91.856,83c2.537-2.606,2.377-4.8,1.532-7.8l3.063,3.155h.023l1.074,1.074a6.4,6.4,0,0,1,1.3,1.852,6.332,6.332,0,0,1-1.3,7.59l-1.737,1.6-2.675,2.492h0l-9.487,9.487-.069.069-3.269,3.269-1.669,1.669A6.492,6.492,0,0,1,69.91,107.8Z" transform="translate(-48.458 -58.019)"/><path class="d" d="M125.508,56.076l-6.584-6.584a3.015,3.015,0,0,0-4.275.16l.229-2.812.823-.32c-2.355-1.783-4.366-2.377-8-.549l3.772-3.932.137-.137.091-.091.96-.892.069-.046.091-.069h.023l.206-.183.137-.114.091-.069a6.492,6.492,0,0,1,8.664.732l1.44,1.486,7.247,7.247,1.555,1.532a6.543,6.543,0,0,1,.8,8.664l-.069.091-.114.137-.183.206h-.023l-.069.091-.046.069-.892.96-.091.091-.137.137-5.075,4.686C129.074,62.134,126.628,57.2,125.508,56.076Z" transform="translate(-83.094 -30.185)"/><path class="e" d="M81.732,62.642l-1.555-1.532-.137-.137-.114-.091-.914-.96-.069-.069-.069-.091h-.023l-.183-.206-.114-.137-.069-.091a6.447,6.447,0,0,1,.64-8.71l1.463-1.463.594-.572,4.389-4.412.389-.411,1.3-1.417L88.8,40.879a6.437,6.437,0,0,1,8.618-.777l.091.069.137.114.206.183h.023l.091.069.069.046.937.937.137.114.114.114,2.7,2.789c-3.863-.846-6.584.732-8.961,2.9l-6.515,6.607a2.153,2.153,0,0,0-.16,2.995l-2.492,1.1-.32-.846A6.93,6.93,0,0,0,81.732,62.642Z" transform="translate(-59.481 -29.939)"/><path class="f" d="M80.166,74.76,83.6,71.4c-1.989,4.366-.434,7.452,1.029,9.076l.046.046,1.143,1.212.183.183.091.114,4.595,4.755-.091.091-.777.777a5.5,5.5,0,0,1-7.773.434l-.457-.434-2.4-2.492a8.869,8.869,0,0,1-.914-1.12l-.091-.137a6.447,6.447,0,0,1,.274-7.338h0l.069-.091.114-.137.183-.206h.023l.114-.137.069-.069.114-.114" transform="translate(-59.538 -55.088)"/></g></g></svg>