<?xml version="1.0" encoding="utf-8"?>
<!-- Generator: Adobe Illustrator 23.0.6, SVG Export Plug-In . SVG Version: 6.00 Build 0)  -->
<svg version="1.1" id="Layer_1" xmlns="http://www.w3.org/2000/svg" xmlns:xlink="http://www.w3.org/1999/xlink" x="0px" y="0px"
	 viewBox="0 0 73 73" style="enable-background:new 0 0 73 73;" xml:space="preserve">
<style type="text/css">
	.st0{fill:#FFFFFF;}
</style>
<g>
	<path class="st0" d="M47.53,38.96c-1.5,2.37-3.45,4.25-5.84,5.65l5.5,13.6H32.42l-4.39-11.06h-3.58l-1.17,11.06H10.41l4.57-43.26
		h20.89c2.8,0,5.31,0.61,7.51,1.82c2.21,1.22,3.91,2.9,5.13,5.04c1.21,2.14,1.82,4.57,1.82,7.29c0,0.41-0.04,1.07-0.12,1.98
		C49.93,33.97,49.03,36.59,47.53,38.96z M25.49,37.2h5.32c1.77,0,3.29-0.66,4.54-1.98c1.26-1.32,1.89-2.97,1.89-4.94
		c0-1.57-0.47-2.84-1.42-3.83c-0.95-0.99-2.16-1.48-3.65-1.48h-5.38L25.49,37.2z"/>
	<path class="st0" d="M53.4,57.22c-1.22-1.19-1.82-2.66-1.82-4.39c0-1.36,0.35-2.63,1.05-3.8c0.7-1.17,1.66-2.12,2.87-2.84
		c1.21-0.72,2.52-1.08,3.92-1.08c1.81,0,3.34,0.61,4.57,1.82c1.24,1.22,1.85,2.69,1.85,4.42c0,1.32-0.36,2.58-1.08,3.77
		c-0.72,1.2-1.69,2.14-2.9,2.84c-1.22,0.7-2.5,1.05-3.86,1.05C56.15,59.02,54.61,58.42,53.4,57.22z"/>
</g>
</svg>
