<?xml version="1.0" encoding="utf-8"?>
<!-- Generator: Adobe Illustrator 23.0.6, SVG Export Plug-In . SVG Version: 6.00 Build 0)  -->
<svg version="1.1" id="Layer_1" xmlns="http://www.w3.org/2000/svg" xmlns:xlink="http://www.w3.org/1999/xlink" x="0px" y="0px"
	 viewBox="0 0 170 56" style="enable-background:new 0 0 170 56;" xml:space="preserve">
<style type="text/css">
	.st0{fill:#FFFFFF;}
</style>
<g>
	<path class="st0" d="M23.13,33.11l4.24,9.42h-7.81l-3.82-8.23h-3.61l-0.85,8.23H4.41l3.14-29.7H20.2c6.2,0,10.14,4.5,9.51,10.74
		C29.24,27.89,26.73,31.42,23.13,33.11z M17.44,28.7c2.76,0,5.01-2.16,5.3-5.13c0.3-2.97-1.44-5.13-4.2-5.13h-4.71l-1.1,10.27H17.44
		z"/>
	<path class="st0" d="M51.77,34.09H36.67c-0.17,2.67,1.49,4.2,4.37,4.2c1.99,0,3.31-0.64,3.99-1.91h6.37
		c-1.06,4.03-5.47,6.79-10.91,6.79c-6.96,0-10.82-4.03-10.1-10.86c0.72-6.71,5.52-10.82,12.18-10.82c6.37,0,10.27,3.99,9.68,9.76
		C52.11,32.35,52.03,32.9,51.77,34.09z M42.06,25.81c-2.8,0-4.67,1.74-4.97,4.24h8.87C46.21,27.34,44.81,25.81,42.06,25.81z"/>
	<path class="st0" d="M53.39,32.31c0.68-6.45,5.35-10.82,12.09-10.82c6.11,0,9.76,3.27,9.72,8.36h-6.49
		c-0.25-1.91-1.36-2.89-3.73-2.89c-2.8,0-4.71,1.95-5.09,5.35c-0.34,3.39,1.15,5.35,3.95,5.35c2.38,0,3.69-0.93,4.37-2.72h6.49
		c-1.02,4.96-5.39,8.23-11.5,8.23C56.44,43.17,52.71,38.76,53.39,32.31z"/>
	<path class="st0" d="M86.41,12.83l-1.32,12.22c1.44-2.29,3.9-3.52,7-3.52c4.96,0,7.17,2.8,6.58,8.36l-1.32,12.65h-6.54l1.1-10.52
		c0.38-3.44-0.47-5.01-3.1-5.01c-2.59,0-4.12,1.7-4.46,4.84l-1.1,10.69h-6.49l3.14-29.7H86.41z"/>
	<path class="st0" d="M115.22,37.36l-0.55,5.18c-0.93,0.17-2.5,0.34-4.37,0.34c-3.06,0-7.17-0.68-6.45-7.51l0.85-8.15h-3.22
		l0.55-5.13h3.22l0.64-6.07h6.49l-0.64,6.07h4.63l-0.55,5.13h-4.63L110.47,34c-0.3,3.01,0.89,3.48,2.5,3.48
		C113.78,37.48,114.63,37.44,115.22,37.36z"/>
	<path class="st0" d="M138.4,34.09h-15.11c-0.17,2.67,1.48,4.2,4.37,4.2c1.99,0,3.31-0.64,3.99-1.91h6.36
		c-1.06,4.03-5.47,6.79-10.9,6.79c-6.96,0-10.82-4.03-10.1-10.86c0.72-6.71,5.52-10.82,12.18-10.82c6.37,0,10.27,3.99,9.68,9.76
		C138.74,32.35,138.65,32.9,138.4,34.09z M128.68,25.81c-2.8,0-4.67,1.74-4.97,4.24h8.87C132.84,27.34,131.44,25.81,128.68,25.81z"
		/>
	<path class="st0" d="M149.22,22.08l-0.47,4.29c1.06-3.06,3.65-4.63,6.15-4.63c0.76,0,1.15,0.04,1.65,0.17l-0.64,6.03
		c-0.76-0.08-1.15-0.13-1.95-0.13c-3.18,0-5.56,1.91-6.07,6.83l-0.85,7.89h-6.49l2.16-20.45H149.22z"/>
	<path class="st0" d="M157.16,38.8c0.25-2.29,2.29-4.16,4.67-4.16c2.38,0,3.99,1.87,3.73,4.16c-0.21,2.25-2.25,4.16-4.63,4.16
		C158.56,42.96,156.95,41.05,157.16,38.8z"/>
</g>
</svg>
