<svg xmlns="http://www.w3.org/2000/svg" xmlns:xlink="http://www.w3.org/1999/xlink" width="51.177" height="51.295" viewBox="0 0 51.177 51.295"><defs><style>.a{fill:url(#a);}.b{fill:url(#b);}.c{fill:#26ae9e;}.d{fill:url(#c);}.e{fill:url(#d);}</style><linearGradient id="a" x1="1.765" y1="-8.652" x2="0.593" y2="-8.082" gradientUnits="objectBoundingBox"><stop offset="0.031" stop-color="#226760"/><stop offset="1" stop-color="#26ae9e"/></linearGradient><linearGradient id="b" x1="0.961" y1="-8.683" x2="1.958" y2="-8.683" gradientUnits="objectBoundingBox"><stop offset="0.002" stop-color="#1a786b"/><stop offset="1" stop-color="#00201f"/></linearGradient><linearGradient id="c" x1="0.183" y1="-10.635" x2="1.217" y2="-10.635" xlink:href="#b"/><linearGradient id="d" x1="1.623" y1="-17.62" x2="2.762" y2="-17.127" gradientUnits="objectBoundingBox"><stop offset="0" stop-color="#125250"/><stop offset="1" stop-color="#22b0af"/></linearGradient></defs><g transform="translate(-784.095 -750.002)"><path class="a" d="M792.486,786.705l-5.428-5.336-1.076-1.076a6.487,6.487,0,0,1,0-9.147l4.932-4.932,9.386-9.386,4.967-5.023c3.135-2.958,6.36-1.886,8.661.415L815,753.3l-13.385,13.482-.24.237-6.451,6.475a3.033,3.033,0,0,0-.073,4.332l-.552.264-2.129-1.283A12.282,12.282,0,0,0,792.486,786.705Z" transform="translate(0 0)"/><path class="b" d="M807.8,850.588l-.057-.018c-.059-.02-.117-.042-.175-.063l-.144-.054-.086-.036c-.076-.031-.152-.063-.227-.1h0a6.41,6.41,0,0,1-1.8-1.235l-1.43-1.44-12.5-12.5-.006.007-5.236-5.236a6.487,6.487,0,0,1,0-9.147l1.076-1.076,5.392-5.356c-3.213,5.213-1.238,9.5.191,10.927l13.391,13.391.067.068,1.382,1.382a3.033,3.033,0,0,0,4.33.071l.264.552-1.291,2.142c2.116.877,6.656,2.138,9.983-.366l-5.253,5.257-.1.113-.083.079-1.076,1.076A6.486,6.486,0,0,1,807.8,850.588Z" transform="translate(-0.124 -49.63)"/><path class="c" d="M853.987,857.758l-.085-.073c-.044-.038-.088-.076-.131-.116-.067-.061-.133-.124-.2-.189l-.007-.007-.008-.008c-.026-.026-.054-.051-.079-.078l-.057-.059-.932-.932.015-.015-.081-.084-5.547-5.542c4.27,3.213,9.726,1.494,11.266-.052l1.548-1.508,11.853-11.853h0l.11-.107,1.311-1.311a3.024,3.024,0,0,0-.26-4.209l2.793.245.417,1.074c2.541-2.595,2.369-4.8,1.542-7.794l3.071,3.168.019-.019,1.076,1.076a6.408,6.408,0,0,1,1.3,1.862,6.324,6.324,0,0,1-1.309,7.585l-1.728,1.6-2.684,2.483,0,0-9.494,9.494-.063.062-3.262,3.263-1.664,1.664A6.489,6.489,0,0,1,853.987,857.758Z" transform="translate(-48.43 -57.964)"/><path class="d" d="M909.544,805.982l-6.589-6.589a3.017,3.017,0,0,0-4.283.171l.239-2.807.814-.316c-2.362-1.774-4.368-2.384-8.009-.55l3.763-3.942.133-.127.1-.1.97-.893.059-.056c.027-.026.055-.049.083-.075l.008-.007.007-.006c.068-.062.136-.122.206-.18.045-.038.091-.074.136-.111l.088-.069a6.489,6.489,0,0,1,8.7.743l1.444,1.487,7.245,7.245,1.548,1.543a6.551,6.551,0,0,1,.8,8.666l-.069.088c-.037.045-.073.091-.111.136-.058.07-.119.138-.181.206l-.006.007-.007.008c-.025.027-.049.055-.075.083l-.057.059-.9.968-.1.1-.128.133-5.063,4.679C913.1,812.031,910.656,807.1,909.544,805.982Z" transform="translate(-83.02 -30.075)"/><path class="c" d="M865.914,812.7l-1.561-1.534-.129-.131-.1-.1-.907-.956-.057-.059c-.026-.027-.05-.055-.075-.082l-.008-.008-.006-.007c-.063-.067-.124-.134-.183-.2-.039-.044-.075-.089-.112-.134l-.07-.087a6.457,6.457,0,0,1,.616-8.712l1.466-1.466.6-.582,4.4-4.4.382-.411,1.293-1.408,1.54-1.454a6.431,6.431,0,0,1,8.606-.776c.03.022.059.046.088.069.046.036.091.073.136.111.07.058.138.118.206.18l.007.006.008.007c.027.025.056.049.083.075l.059.056.936.946.132.124.12.12,2.689,2.777c-3.867-.838-6.572.724-8.971,2.91l-6.509,6.6a2.158,2.158,0,0,0-.166,2.987l-2.5,1.1-.328-.845A6.879,6.879,0,0,0,865.914,812.7Z" transform="translate(-59.555 -29.998)"/><path class="e" d="M864.254,824.717l3.422-3.369c-1.987,4.368-.429,7.456,1.036,9.079l.051.056,1.133,1.207.176.173.1.1,4.6,4.743-.093.093-.768.768a5.488,5.488,0,0,1-7.767.431c-.16-.133-.313-.277-.463-.427l-2.434-2.458a8.865,8.865,0,0,1-.923-1.123c-.03-.045-.058-.088-.082-.126a6.457,6.457,0,0,1,.288-7.343h0c.022-.03.047-.065.07-.094.037-.045.076-.1.115-.146.059-.069.115-.132.177-.2l.006-.007.007-.008.123-.133.062-.063.112-.112" transform="translate(-59.511 -55.038)"/></g></svg>