<svg xmlns="http://www.w3.org/2000/svg" xmlns:xlink="http://www.w3.org/1999/xlink" width="74.024" height="73.896" viewBox="0 0 74.024 73.896"><defs><style>.a{fill:url(#a);}.b{fill:url(#b);}.c{fill:url(#c);}.d{fill:url(#d);}.e{fill:url(#e);}.f{fill:url(#f);}</style><linearGradient id="a" y1="0.5" x2="1" y2="0.5" gradientUnits="objectBoundingBox"><stop offset="0" stop-color="#4ac1e2"/><stop offset="0.473" stop-color="#47a836"/><stop offset="0.651" stop-color="#63b031"/><stop offset="0.873" stop-color="#7fb82d"/><stop offset="1" stop-color="#8abb2b"/></linearGradient><linearGradient id="b" y1="0.5" x2="1" y2="0.5" gradientUnits="objectBoundingBox"><stop offset="0" stop-color="#1c5f2b"/><stop offset="0.225" stop-color="#175025"/><stop offset="0.63" stop-color="#103a1b"/><stop offset="0.891" stop-color="#0e3218"/></linearGradient><linearGradient id="c" y1="0.5" x2="1" y2="0.5" gradientUnits="objectBoundingBox"><stop offset="0" stop-color="#195729"/><stop offset="0.203" stop-color="#276f2d"/><stop offset="0.593" stop-color="#47a836"/><stop offset="1" stop-color="#8abb2b"/></linearGradient><linearGradient id="d" y1="0.5" x2="1" y2="0.5" gradientUnits="objectBoundingBox"><stop offset="0" stop-color="#0e3218"/><stop offset="1" stop-color="#1c5f2b"/></linearGradient><linearGradient id="e" x1="-0.439" y1="0.5" x2="1.498" y2="0.5" gradientUnits="objectBoundingBox"><stop offset="0" stop-color="#8abb2b"/><stop offset="0.216" stop-color="#47a836"/><stop offset="0.731" stop-color="#276f2d"/><stop offset="1" stop-color="#195729"/></linearGradient><linearGradient id="f" x1="0.151" y1="0.875" x2="1.002" y2="0.218" gradientUnits="objectBoundingBox"><stop offset="0" stop-color="#8abb2b"/><stop offset="0.425" stop-color="#47a836"/><stop offset="0.49" stop-color="#46aa47"/><stop offset="0.617" stop-color="#44af73"/><stop offset="0.795" stop-color="#41b8ba"/><stop offset="0.833" stop-color="#40baca"/></linearGradient></defs><g transform="translate(74.024 0) rotate(90)"><g transform="translate(0 0)"><path class="a" d="M52.794,32.592l-7.676,7.857L43.57,42.007a9.289,9.289,0,0,1-13.157,0L23.32,34.868,9.819,21.282,2.594,14.093c-4.255-4.538-2.712-9.207.6-12.536L4.738,0,24.131,19.374l.341.347,9.314,9.337a4.344,4.344,0,0,0,6.231.105l.379.8L38.55,33.042A17.565,17.565,0,0,0,52.794,32.592Z" transform="translate(0 29.286)"/><path class="b" d="M52.045,19.065c-.009.027-.017.055-.026.082-.029.085-.06.169-.091.254s-.05.139-.077.208c-.017.042-.033.083-.052.125-.045.11-.091.219-.141.328v0a9.276,9.276,0,0,1-1.777,2.608l-2.071,2.07L29.931,42.76l.009.009-7.531,7.579a9.29,9.29,0,0,1-13.157,0L7.7,48.791,0,40.987c7.5,4.651,13.66,1.792,15.716-.277L34.978,21.327l.1-.1,1.987-2a4.408,4.408,0,0,0,.1-6.267l.794-.381,3.081,1.869C42.3,11.386,44.116,4.816,40.515,0l7.562,7.6.162.146.113.12L49.9,9.428A9.512,9.512,0,0,1,52.045,19.065Z" transform="translate(21.153 20.946)"/><path class="c" d="M46.178,43.712l-2.156,2.175-1.3,1.3L36.7,53.218c4.622-6.18,2.148-14.078-.075-16.307l-2.17-2.241L17.409,17.513l0,0-.154-.159-1.886-1.9a4.331,4.331,0,0,0-6.054.376l.353-4.043,1.545-.6C7.48,7.509,4.311,7.758,0,8.955L4.556,4.51l-.027-.027L6.077,2.925A9.217,9.217,0,0,1,8.755,1.049,9.057,9.057,0,0,1,19.666,2.943l2.3,2.5,3.57,3.885,0,0L39.189,23.073l.09.092,4.693,4.721L46.366,30.3a9.157,9.157,0,0,1,.756,12.4" transform="translate(24.704 0.088)"/><path class="d" d="M24.4,12.666,14.927,22.2a4.386,4.386,0,0,0,.246,6.2l-4.038-.345-.455-1.177C8.129,30.3,7.252,33.2,9.891,38.471l-5.74-5.665-.183-.193-.146-.145-1.3-1.389-.081-.086c-.037-.039-.071-.08-.107-.12l-.011-.011-.009-.01q-.133-.149-.259-.3c-.055-.066-.107-.132-.159-.2l-.1-.127A9.383,9.383,0,0,1,3.172,17.7l1.918-1.957L15.513,5.259l2.219-2.24A9.378,9.378,0,0,1,30.2,1.861l.126.1c.066.052.132.106.2.161.1.084.2.172.3.262l.01.009.011.01c.039.036.08.071.119.108l.085.082,1.391,1.3.144.148.191.185,6.728,7.33C33.105,7.52,26.091,10.943,24.4,12.666Z" transform="translate(12.857)"/><path class="e" d="M8.375,0C7.169,5.6,9.4,9.626,12.542,13.1l9.495,9.422a3.052,3.052,0,0,0,4.266.239l1.616,3.614-1.216.475c1.916,1.463,4.581,2.978,7.6,2.436l-2.206,2.259-.189.187-.142.149-1.376,1.313-.084.083c-.038.038-.079.072-.117.11l-.011.011-.01.009c-.1.091-.193.18-.293.265-.064.056-.129.109-.193.163l-.124.1a9.245,9.245,0,0,1-12.531-.893l-2.109-2.123-.837-.868L7.747,23.684l-.592-.552L4.062,20.085,3.039,19.031c-3.765-3.8-3.906-8.6-1.118-12.457.033-.043.066-.085.1-.127.052-.066.1-.132.159-.2.084-.1.171-.2.259-.3l.009-.01" transform="translate(12.732 12.568)"/><path class="f" d="M4.845,15.23,0,10.277c6.283,2.876,10.724.622,13.059-1.5l.649-.6.706-.674.711-.695.15-.146L22.1,0l.134.134,1.106,1.112c3.542,3.566,3.481,8.515.723,11.37-.208.216-1.948,1.987-2.164,2.2l-1.483,1.428c-.661.544-1.694,1.394-2.223,1.768-.064.043-.126.084-.181.119a9.24,9.24,0,0,1-10.562-.417h0c-.043-.033-.094-.068-.135-.1-.066-.053-.146-.111-.21-.166-.1-.085-.19-.165-.287-.257l-.01-.009-.011-.011L6.6,17l-.091-.09-.161-.162" transform="translate(23.458 28.961)"/></g></g></svg>