<svg xmlns="http://www.w3.org/2000/svg" width="77.241" height="29.66" viewBox="0 0 77.241 29.66"><defs><style>.a{fill:#005728;}</style></defs><path class="a" d="M11.361,29.132,0,.32H2.491L12.43,25.859,22.473.333h2.439l-11.4,28.812H11.361Z" transform="translate(0 0.097)"/><path class="a" d="M36.194,17.83V15.717H46v1.7C46,24.782,41.451,29.66,34.46,29.66c-7.226,0-12.9-5.674-12.9-14.83S27.273,0,34.408,0c5.674,0,9.626,3.287,10.839,8.256H42.859a8.343,8.343,0,0,0-8.452-6.013c-6.013,0-10.421,4.787-10.421,12.574s4.369,12.626,10.461,12.626c5.726,0,9.013-3.561,9.248-9.626h-7.5Z" transform="translate(6.561)"/><path class="a" d="M46.228,22.2c1.174,3.469,4.226,5.309,8.165,5.309,4.135,0,7.174-2.113,7.174-5.778,0-2.53-1.317-4.317-4.969-5.348L51.106,14.83c-4.03-1.122-6.613-2.961-6.613-7.043C44.493,2.909,48.628,0,53.6,0c5.635,0,9.013,2.961,10.135,7.226H61.345C60.263,4.174,57.771,2.152,53.6,2.152c-3.756,0-6.809,1.97-6.809,5.491,0,3.052,1.97,4.135,5.491,5.113l4.839,1.422c4.735,1.317,6.809,3.665,6.809,7.461,0,5.074-4.135,8.022-9.522,8.022-5.309,0-9.522-2.674-10.656-7.461Z" transform="translate(13.314)"/></svg>