<svg xmlns="http://www.w3.org/2000/svg" width="59.22" height="22.74" viewBox="0 0 59.22 22.74"><defs><style>.a{fill:#005728;}</style></defs><path class="a" d="M8.71,22.41,0,.32H1.91L9.53,19.9,17.23.33H19.1L10.36,22.42H8.71Z"/><path class="a" d="M32.78,13.67V12.05H40.3v1.3c0,5.65-3.49,9.39-8.85,9.39-5.54,0-9.89-4.35-9.89-11.37S25.94,0,31.41,0a8.08,8.08,0,0,1,8.31,6.33H37.89a6.4,6.4,0,0,0-6.48-4.61c-4.61,0-7.99,3.67-7.99,9.64s3.35,9.68,8.02,9.68c4.39,0,6.91-2.73,7.09-7.38H32.78Z"/><path class="a" d="M45.65,17.02c.9,2.66,3.24,4.07,6.26,4.07,3.17,0,5.5-1.62,5.5-4.43,0-1.94-1.01-3.31-3.81-4.1l-4.21-1.19c-3.09-.86-5.07-2.27-5.07-5.4C44.32,2.23,47.49,0,51.3,0c4.32,0,6.91,2.27,7.77,5.54H57.24C56.41,3.2,54.5,1.65,51.3,1.65c-2.88,0-5.22,1.51-5.22,4.21,0,2.34,1.51,3.17,4.21,3.92L54,10.87c3.63,1.01,5.22,2.81,5.22,5.72,0,3.89-3.17,6.15-7.3,6.15-4.07,0-7.3-2.05-8.17-5.72Z"/></svg>